<svg xmlns="http://www.w3.org/2000/svg" viewBox="0 0 512 512"><defs><style>.cls-1{fill:#f6bb37;}.cls-2{fill:#049146;}.cls-3{fill:#010101;}.cls-4{fill:#3e5daa;}.cls-5{fill:#fff;opacity:0.3;}</style></defs><g id="BULINE"><circle class="cls-1" cx="256" cy="256" r="256"/></g><g id="Fruits"><path class="cls-2" d="M484.48,44S406.22,29.87,336,87.88C319.66,46.63,289.93,26,289.93,26s-56.56,39.23-56.56,117.7a149,149,0,0,0,29.34,89.72c-.87,19,1.31,31.06,1.31,31.06s89.72,16.23,163.2-57.26S484.48,44,484.48,44Z"/><path class="cls-3" d="M484.48,44a138.1,138.1,0,0,0-22.22-1.52A198.11,198.11,0,0,0,336,87.87C319.67,46.62,289.93,26,289.93,26s-56.56,39.23-56.56,117.7a149,149,0,0,0,29.34,89.73c-.88,18.95,1.31,31.05,1.31,31.05A138.1,138.1,0,0,0,286.24,266a198.24,198.24,0,0,0,141-58.78C500.71,133.74,484.48,44,484.48,44ZM243.37,143.7c0-30.12,8.72-57.63,25.93-81.78a137.36,137.36,0,0,1,20.63-23.06,136.92,136.92,0,0,1,20.63,23.06A139.64,139.64,0,0,1,328,94.83q-3.37,3.11-6.73,6.45c-39.58,39.58-53.14,83.88-57.22,116.32C250.32,195.4,243.37,170.59,243.37,143.7Zm230-46.45a188.66,188.66,0,0,1-15.51,49.68,190.5,190.5,0,0,1-37.75,53.22A188.22,188.22,0,0,1,297,255.67c-3.89.24-7.48.33-10.74.33l-3,0c-4-.08-7.47-.28-10.2-.51-.22-2.7-.42-6.09-.49-10.07-.08-4.37,0-9.45.36-15.09a187.7,187.7,0,0,1,55.45-122q1.51-1.51,3-3,4.07-3.9,8.19-7.43A188.48,188.48,0,0,1,462.26,52.5c5.34,0,9.81.24,13.21.52A183.89,183.89,0,0,1,473.41,97.25Z"/><circle class="cls-4" cx="256" cy="326" r="160"/><path d="M283.06,279.13l-2.83,26.06a10,10,0,0,0,5.91,10.23l24,10.58-24,10.58a10,10,0,0,0-5.91,10.23l2.83,26.06-21.15-15.48a10,10,0,0,0-11.82,0l-21.15,15.48,2.83-26.06a10,10,0,0,0-5.91-10.23l-24-10.58,24-10.58a10,10,0,0,0,5.91-10.23l-2.83-26.06,21.15,15.48a10,10,0,0,0,11.82,0l21.15-15.48m12.4-21.47Zm0,0L256,286.54l-39.46-28.88,5.29,48.61L177.09,326l44.74,19.73-5.29,48.61L256,365.46l39.46,28.88-5.29-48.61L334.91,326l-44.74-19.73,5.29-48.61Z"/><path class="cls-5" d="M137.71,336a9.92,9.92,0,0,1-9.92-9.68c-1.06-43.7,23.78-86.46,63.31-108.93a9.92,9.92,0,1,1,9.8,17.24c-33.25,18.91-54.16,54.71-53.27,91.21A9.93,9.93,0,0,1,138,336Z"/><path d="M362.62,407.8a5,5,0,0,0-7,.69,125.77,125.77,0,0,1-27.37,24.78,5,5,0,0,0,5.56,8.32q1-.69,2.07-1.41l.12-.09h0l.12-.09h0l.12-.09.07,0,.05,0h0l.06,0h0l.05,0h0l.06,0h0l.05,0h0l.06,0h0l.05,0h0l.05,0h0l.05,0h0a.1.1,0,0,1,.05,0h0l.06,0h0a.1.1,0,0,1,.05,0h0l.05,0h0l0,0h0l.05,0h0l0,0h0a.1.1,0,0,0,.05,0h0l0,0h0l.05,0h0l0,0,0,0,0,0h0l0,0,0,0,0,0h0l0,0,0,0,0,0,0,0,0,0,0,0,0,0,0,0,0,0,0,0,0,0,.05,0,0,0,0,0,0,0,0,0,0,0,0,0,0,0,0,0,0,0,0,0,0,0,.05,0,0,0,0,0,0,0a.1.1,0,0,0,.05,0h0l0,0,0,0,0,0h0l.06-.05h0l0,0h0l.06,0v0l0,0,0,0,.05,0h0l0,0h0l.06-.05h0l0,0h0l.07-.05h0l.11-.08h0l.11-.08s0,0,0,0l.07,0h0l0,0h0l.07-.05,0,0h0l.08-.06.11-.09h0l.12-.08h0l.12-.09q4.71-3.56,9.09-7.52l.23-.2a.52.52,0,0,1,.11-.1h0l.11-.1.07-.06h0l.11-.1.1-.1h0l.11-.1h0l.1-.09a0,0,0,0,1,0,0l.07-.06,0,0h0l.06-.06h0l0,0h0l.06-.05h0l.11-.1a0,0,0,0,1,0,0l.1-.09h0L351,428h0l0,0h0l.06-.05h0l0,0a0,0,0,0,0,0,0l.06,0s0,0,0,0l0,0h0l.05-.05h0l0,0h0l0-.05,0,0,0,0h0l0,0h0l.09-.09,0,0,0,0,0,0,0,0,0,0,0,0,0,0,0,0s0,0,0,0l0,0,0,0,0,0L352,427l0,0,0,0,0,0,0,0,0,0,0,0,0,0,0,0,0,0,0,0,0,0,0,0,0,0,0,0,0,0,0,0,0,0s0,0,0,0l0,0,0,0,0,0a0,0,0,0,0,0,0l0,0,0,0,0,0,0,0,0,0h0l0-.05h0l0,0h0l0,0,0,0,0,0h0l0,0,0,0,0,0h0l0,0,0,0,.05,0h0l.05,0h0l.05-.05h0l0,0h0l0,0h0l0,0h0l.05-.05h0l0,0h0l.05-.05h0l.1-.1h0l.1-.11h0l.1-.11h0l.05-.05h0l.06-.05.05-.05h0l.11-.1h0l.22-.22h0q4.62-4.64,8.8-9.72A5,5,0,0,0,362.62,407.8Zm10.72-16.58a4.93,4.93,0,0,0-2.55-.7,5,5,0,0,0-4.31,2.44l-.24.4a5,5,0,0,0,8.57,5.16l0,0,.17-.29.09-.16A5,5,0,0,0,373.34,391.22ZM388.85,336l-.45,0a5,5,0,0,0-5,4.56,124,124,0,0,1-8.7,35.84,5,5,0,0,0,9.26,3.78h0L384,380h0a.69.69,0,0,0,0-.13h0l0-.07a.14.14,0,0,1,0-.06v0s0,0,0-.06l0-.06s0,0,0,0a.14.14,0,0,1,0-.06l0-.07h0a.14.14,0,0,0,0-.06h0a.14.14,0,0,0,0-.06v0s0,0,0-.05h0a.14.14,0,0,1,0-.06v0s0,0,0-.05h0l0-.06s0,0,0,0,0,0,0,0,0,0,0,0a.14.14,0,0,0,0-.06v0l0,0v0a.14.14,0,0,1,0-.06v0a.05.05,0,0,1,0,0v0l0-.06v-.06s0,0,0,0l0,0a0,0,0,0,0,0,0l0,0a0,0,0,0,1,0,0,.14.14,0,0,1,0-.06v-.06s0,0,0,0a.08.08,0,0,0,0-.05l0,0a53750122615.92,53750122615.92,0,0,1,0-.06l0-.05s0,0,0,0,0,0,0,0l0,0h0l0-.07s0,0,0,0,0,0,0,0l0-.09a0,0,0,0,0,0,0s0-.09.05-.13v-.06h0a.41.41,0,0,1,0-.08h0s0,0,0,0h0l0-.08s0,0,0,0a1.12,1.12,0,0,1,.05-.13h0c0-.05,0-.09.05-.13h0l.21-.58a133.6,133.6,0,0,0,5.1-17.05,135.43,135.43,0,0,0,2.83-17.92A5,5,0,0,0,388.85,336Z"/></g><g id="Black_outlines_-_to_remove" data-name="Black outlines - to remove"><path d="M256,176a150,150,0,1,1-106.07,43.93A149,149,0,0,1,256,176m0-10A160,160,0,1,0,416,326,160,160,0,0,0,256,166Z"/></g></svg>