<svg xmlns="http://www.w3.org/2000/svg" viewBox="0 0 512 512"><defs><style>.cls-1{fill:#7a5da7;}.cls-2{fill:#049146;}.cls-3{fill:#010101;}.cls-4{fill:#f6a51f;}.cls-5{fill:#fff;opacity:0.3;}</style></defs><g id="BULINE"><circle class="cls-1" cx="256" cy="256" r="256"/></g><g id="Fruits"><path d="M333.94,244a5,5,0,0,1-4.81-6.36,156.8,156.8,0,0,1,42.81-70.53c20.76-19.86,45.91-33.37,72.72-39.08a5,5,0,0,1,2.08,9.78c-50.29,10.71-93.69,51.92-108,102.55A5,5,0,0,1,333.94,244Z"/><path class="cls-2" d="M314.78,115.52c-19.95-47.94,4.63-86.29,4.63-86.29S364,38.82,383.9,86.76s-4.64,86.29-4.64,86.29S334.73,163.46,314.78,115.52Z"/><path class="cls-3" d="M325,42.49A88.19,88.19,0,0,1,373.81,91a88.31,88.31,0,0,1-.08,68.8,89,89,0,0,1-14.21-7.24,87.2,87.2,0,0,1-34.65-41.2,87.16,87.16,0,0,1-4.8-53.61A88.39,88.39,0,0,1,325,42.49m-5.54-13.26s-24.58,38.35-4.63,86.29,64.48,57.53,64.48,57.53,24.59-38.35,4.64-86.29-64.49-57.53-64.49-57.53Z"/><path class="cls-4" d="M415.08,289.76a135,135,0,0,0-114.82-141.2c-73.76-11-142.1,39.85-153.55,113.55C127,389,87,359,77.93,396c-3.66,14.94.6,30,7.33,42.61a68.94,68.94,0,0,0,35.24,31.66l.49.19a215.31,215.31,0,0,0,48.1,13c114.09,17.09,220.65-58.83,242.74-170.88q1.19-5.15,2-10.43C414.43,298,414.86,293.85,415.08,289.76Z"/><path d="M338.91,390.65a4.8,4.8,0,0,0-6.77.4,173.17,173.17,0,0,1-26.78,24.47,4.79,4.79,0,0,0,2.85,8.65,4.75,4.75,0,0,0,2.84-.93,183.93,183.93,0,0,0,28.26-25.83A4.78,4.78,0,0,0,338.91,390.65Zm-42.14,36.59a4.81,4.81,0,0,0-6.57-1.7l-.39.22a4.8,4.8,0,0,0,4.83,8.29l0,0c.14-.07.27-.15.4-.23A4.79,4.79,0,0,0,296.77,427.24ZM280,436.49a4.82,4.82,0,0,0-4.38-2.82,4.77,4.77,0,0,0-2,.43,173.05,173.05,0,0,1-34.43,11.37,4.79,4.79,0,0,0,1,9.48,5.05,5.05,0,0,0,1-.11,181.85,181.85,0,0,0,36.35-12A4.8,4.8,0,0,0,280,436.49Z"/><path class="cls-5" d="M183.05,260.45a9.74,9.74,0,0,1-3.29-.57,9.92,9.92,0,0,1-6.07-12.65c16-45.52,61.91-78,111.65-79.09a9.93,9.93,0,0,1,.42,19.85c-41.64.87-80,27.94-93.34,65.82A9.94,9.94,0,0,1,183.05,260.45Z"/></g><g id="Black_outlines_-_to_remove" data-name="Black outlines - to remove"><path class="cls-3" d="M280.12,158a125.38,125.38,0,0,1,18.52,1.38A124.12,124.12,0,0,1,404.17,289.16c-.2,3.69-.6,7.5-1.17,11.33-.48,3.18-1.09,6.41-1.82,9.6l0,.17,0,.17c-18.78,95.29-102.85,164.46-199.91,164.46a206.24,206.24,0,0,1-76.14-14.61l-.18-.07-.08,0-.08,0-.08,0-.08,0A57.94,57.94,0,0,1,94.9,433.43c-4.66-8.72-9.54-21.84-6.35-34.85,2.14-8.72,6-11.53,13.86-17.11,17.48-12.52,41.43-29.66,55.1-117.68a125.41,125.41,0,0,1,42.28-76A123.7,123.7,0,0,1,280.12,158m0-10.93c-65.68,0-123,48.12-133.41,115.05C127,389,87,359,77.93,396c-3.66,14.94.6,30,7.33,42.61a68.94,68.94,0,0,0,35.24,31.66l.49.19a217.17,217.17,0,0,0,80.2,15.39c101.4,0,190.64-71.82,210.64-173.28q1.19-5.15,2-10.43c.62-4.13,1.05-8.26,1.27-12.35a135,135,0,0,0-114.82-141.2,136.47,136.47,0,0,0-20.14-1.5Z"/></g></svg>