<svg xmlns="http://www.w3.org/2000/svg" viewBox="0 0 512 512"><defs><style>.cls-1{fill:#3986c7;}.cls-2{fill:#049146;}.cls-3{fill:#010101;}.cls-4{fill:#793f23;}.cls-5{fill:#4e1e10;}.cls-6{fill:#fff;opacity:0.3;}</style></defs><g id="BULINE"><circle class="cls-1" cx="256" cy="256" r="256"/></g><g id="Fruits"><path class="cls-2" d="M377.48,158.58c40.66-53,48.75-91.81,48.75-91.81s-60.81,12.67-134.3,86.16c-33.79,33.78-54.71,64.89-67.47,88.64-30.41,26.63-42.05,47-42.05,47s61.75,6.72,154.34-40.48S460.17,146.93,460.17,146.93,428.88,143.53,377.48,158.58Z"/><path class="cls-3" d="M451.39,146.6c-12.67,0-38.52,1.61-73.91,12,40.67-53,48.75-91.81,48.75-91.81s-60.81,12.67-134.3,86.16c-33.78,33.78-54.71,64.88-67.46,88.63-30.43,26.64-42.06,47-42.06,47s3,.33,8.77.33c20.13,0,73.51-4.08,145.57-40.81,92.58-47.21,123.42-101.13,123.42-101.13S457.13,146.6,451.39,146.6ZM299,160c36.66-36.66,69.87-57.4,91.27-68.34,7.81-4,14.66-7,20.32-9.25-2.25,5.65-5.26,12.5-9.25,20.31-7.86,15.39-20.79,36.87-41,61.35a430.06,430.06,0,0,0-54.46,23.34,421.73,421.73,0,0,0-59.12,36.28A398.38,398.38,0,0,1,299,160Zm126.39,13.44c-17,17-47,42.16-93.18,65.71-33.9,17.28-63.48,27.13-87.15,32.7A272.64,272.64,0,0,1,208.42,278c-2.25.21-4.35.37-6.31.5,2.86-3.46,6.32-7.41,10.45-11.73h0q2.18-2.29,4.62-4.73c4.25-4.24,9.29-9,15.2-14.08,17.77-15.36,43.31-34,78-51.63,12.67-6.46,24.74-11.88,36.12-16.43,6.82-2.73,13.4-5.14,19.71-7.28,32.66-11,58.24-14.62,74.26-15.64C436.58,161.65,431.6,167.24,425.39,173.44Z"/><circle class="cls-4" cx="222.29" cy="314.23" r="185"/><circle class="cls-5" cx="127.29" cy="294.23" r="15"/><circle class="cls-5" cx="87.29" cy="324.23" r="15"/><circle class="cls-5" cx="137.29" cy="344.23" r="15"/><path d="M313.47,444.62a5,5,0,0,0-6.93-1.41A157.3,157.3,0,0,1,273,460a5,5,0,0,0,3.38,9.41c2.37-.85,4.72-1.76,7-2.71h0l.21-.08h0l.07,0h0l.21-.08h0l.06,0h0l.06,0h0l.07,0h0l.07,0h0l.06,0h0l0,0h0l.05,0h0l.06,0h0l0,0,0,0h.06l0,0h0l.05,0h0l.05,0h.06l0,0H285l0,0,.13-.06h0l0,0h0l0,0h0l.22-.09h0l.05,0h0l.28-.12h0a167.84,167.84,0,0,0,19.85-10.17l.21-.13h0l.05,0,.05,0h0l.2-.13h0l0,0h0l0,0,.09-.05,0,0,0,0h0l0,0,0,0,0,0,0,0,0,0,0,0,0,0,0,0h0l0,0,0,0,0,0h0l.06,0a0,0,0,0,1,0,0l.05,0h0l0,0h0l0,0a0,0,0,0,0,0,0l.07,0,.06,0h0l.05,0h0a.1.1,0,0,1,.05,0h0l.13-.08.06,0h0l.05,0h0l.06,0h0l.13-.09.06,0c1.35-.83,2.67-1.68,4-2.55A5,5,0,0,0,313.47,444.62ZM329,432.18a5,5,0,0,0-7.05-.56l-.36.3A5,5,0,0,0,321,439a5,5,0,0,0,7,.58l.38-.32A5,5,0,0,0,329,432.18Zm35.33-45.92a5,5,0,0,0-6.8,1.94,158.57,158.57,0,0,1-22,30.39,5,5,0,0,0,7.34,6.79q4.89-5.29,9.32-11l.19-.25h0l0-.06.14-.18h0l0-.06.14-.18h0l0-.05h0l.14-.18h0l0-.06h0l.14-.18.05-.06h0l0-.05.09-.13.05-.06.19-.25a.21.21,0,0,0,0-.06h0c0-.07.09-.13.13-.19h0l0-.06h0l0-.06.09-.13h0l0-.06.14-.19a.21.21,0,0,0,0-.06h0l0-.05h0l.09-.12,0-.06h0l0-.05h0l.09-.12h0l0-.06h0l0-.05h0l.09-.12h0a.1.1,0,0,0,0-.05h0l0-.05h0l.08-.12h0l0-.05h0l0-.05h0l0-.06,0-.06h0l0-.05v0l0,0,0,0,0-.05.09-.13h0l0,0v0l0-.05h0l0-.06,0-.06h0l0-.05h0l0-.05h0l.08-.12h0l0-.05v0l0,0v0l.09-.12,0-.05v0l0-.05h0l.09-.12h0a.1.1,0,0,0,0-.05h0l0-.05h0l.09-.13,0-.05v0a.1.1,0,0,0,0-.05h0l.13-.18h0l0-.05h0l0-.06.09-.12v0l0-.05h0l0-.06.09-.12h0l0-.05h0l0-.06.09-.13h0l0,0h0a.1.1,0,0,1,0,0h0l.09-.13,0-.06h0l0-.05h0l.09-.12,0-.06h0l0-.06c0-.07.09-.13.13-.19l.05-.07c0-.06.09-.12.13-.19l0-.06h0l.17-.25c3-4.34,5.77-8.82,8.33-13.44A5,5,0,0,0,364.32,386.26Z"/><path class="cls-6" d="M78.16,284.05a9.92,9.92,0,0,1-9.55-12.6,161.48,161.48,0,0,1,38.15-67,153.7,153.7,0,0,1,65.16-41.34,9.92,9.92,0,1,1,6,18.93c-42.39,13.33-77.78,50.52-90.17,94.76A9.92,9.92,0,0,1,78.16,284.05Z"/></g><g id="Black_outlines_-_to_remove" data-name="Black outlines - to remove"><path d="M222.29,139.23A175,175,0,1,1,98.54,190.49a173.86,173.86,0,0,1,123.75-51.26m0-10c-102.17,0-185,82.83-185,185s82.83,185,185,185,185-82.83,185-185-82.83-185-185-185Z"/></g></svg>