<svg xmlns="http://www.w3.org/2000/svg" xmlns:xlink="http://www.w3.org/1999/xlink" viewBox="0 0 512 512"><defs><style>.cls-1{fill:none;}.cls-2{fill:#71c2e5;}.cls-3{clip-path:url(#clip-path);}.cls-4{fill:#f26332;}.cls-5{fill:#fff;opacity:0.3;}.cls-6{fill:#049146;}</style><clipPath id="clip-path"><path class="cls-1" d="M374.5-249.87a205.65,205.65,0,0,1-2.11,29.55q-.81,5.79-2,11.42c-12,59.07-49.39,104.35-95.71,114.08A90.83,90.83,0,0,1,256-92.87a90.79,90.79,0,0,1-10.46-.6c-30.95-3.59-58.49-22.93-78-51.95a171.42,171.42,0,0,1-22.1-47.84h0a196.8,196.8,0,0,1-7.1-37.92c-.56-6.12-.84-12.36-.84-18.68,0-1.94,0-3.88.09-5.8a202.66,202.66,0,0,1,5.33-41.28C158-360.66,202.93-406.87,256-406.87a91.47,91.47,0,0,1,28.44,4.55c44.35,14.48,78.87,62,87.79,121.78.73,4.81,1.28,9.71,1.66,14.67Q374.49-258,374.5-249.87Z"/></clipPath></defs><g id="BULINE"><circle class="cls-2" cx="256" cy="256" r="256"/></g><g id="Fruits"><circle class="cls-4" cx="256.33" cy="294.84" r="190"/><path d="M398.07,379.5a5,5,0,0,0-6.9,1.51,161.24,161.24,0,0,1-23.83,29.06,5,5,0,1,0,6.93,7.2l.82-.79.45-.44.23-.23s0,0,0,0h0l0,0,.23-.22.18-.18,0,0h0l0,0h0l.17-.16v0l0,0h0l0,0,.13-.13h0l0,0h0l0,0h0l.12-.13h0s0,0,0,0h0l0,0h0l.17-.16v0l0,0s0,0,0,0l0,0h0l.13-.13,0,0h0l0,0h0l0,0a.8.8,0,0,0,.13-.13h0l0,0h0l.16-.17h0l0,0h0l0,0h0l.16-.17h0a.08.08,0,0,0,0,0h0l0,0,.13-.13h0a.08.08,0,0,0,0,0h0l0,0h0l.13-.13,0,0h0l0,0h0l0,0h0l.12-.12a0,0,0,0,1,0,0l0,0h0l0,0h0l.11-.13h0l0,0h0l0,0h0l0,0h0l.07-.08h0l0,0h0l0,0a0,0,0,0,0,0,0l0,0h0l.12-.13h0l0,0h0l0,0,0,0,0,0h0l.12-.13h0l0,0h0l0,0h0l.12-.13h0l0,0h0l0,0,.17-.18h0l0,0h0l0,0h0l.12-.13h0l0,0h0l0,0h0l.16-.17h0l0,0h0l0,0,.13-.14,0,0h0l0,0h0l.17-.18,0,0v0l0,0h0l.12-.13h0l0,0h0l0,0h0l.12-.13,0,0,0,0,0,0h0s0,0,0,0h0l.11-.13a0,0,0,0,0,0,0l0,0h0l0,0h0l.12-.12h0l0,0h0l0,0h0l0,0h0l.11-.12v0l0,0h0l0,0h0l.16-.18h0a.08.08,0,0,1,0,0h0l0,0h0a.74.74,0,0,0,.12-.13h0l0,0h0l0,0h0l.12-.14,0,0s0,0,0,0l0,0h0l.16-.18h0l0,0h0l0,0h0l.11-.13h0l0,0h0s0,0,0,0h0a1.37,1.37,0,0,0,.16-.18h0s0,0,0,0h0l.16-.18,0,0h0l0-.05h0l.16-.19,0-.05h0l.2-.24h0l0-.05.16-.19h0l0,0s0,0,0,0l.16-.18,0,0h0l0-.05h0c.05-.07.1-.12.16-.19l0-.05.21-.24h0c.06-.08.13-.15.2-.23h0l0,0,.16-.19h0l0,0h0l.2-.23h0l0-.05.17-.19,0-.05h0l.2-.23h0s0,0,0,0h0l.15-.18h0l0,0h0l.2-.24h0l0,0h0l.15-.18h0l0,0h0l.15-.18v0l0,0h0l0,0h0l.15-.19h0l0-.05h0l.15-.19h0l0,0h0l0,0h0a.76.76,0,0,0,.11-.14h0l0-.05h0l0,0h0c.06-.06.1-.12.16-.19l0-.05,0,0h0l.16-.18h0l0,0h0l.15-.19a0,0,0,0,0,0,0l0,0h0l0,0h0l.12-.14,0-.05h0l0,0h0l.16-.19h0l0,0h0c.05-.06.1-.13.16-.19l0-.05h0l0,0h0l.15-.19h0l0,0h0l.15-.18v0l0,0h0l0,0h0l.1-.14h0l0,0h0l0,0h0l0,0s0,0,0,0l.1-.12v0l0,0v0l0,0v0a.76.76,0,0,0,.11-.14l0,0h0s0,0,0,0,0,0,0,0l0,0h0l.1-.13h0l0,0s0,0,0,0l0,0h0a1.13,1.13,0,0,1,.1-.13h0l0,0,0,0,0,0h0l0,0v0l.06-.07v0l0,0s0,0,0,0l0,0,0,0,0,0,0,0,0,0h0l.06-.08a0,0,0,0,1,0,0l0,0s0,0,0,0l0,0,0,0,0,0v0l.05-.06s0,0,0,0l0,0,0,0,0,0s0,0,0,0l0,0,0,0,0,0,0-.05,0,0,0,0,0,0,0,0,0,0,0,0,0,0,0,0,0,0,0,0,0,0,0,0,0,0,0,0,0,0,0,0v0a.21.21,0,0,0,0-.06l0,0,0,0,0,0,0,0,0,0s0,0,0,0l0,0,0-.05h0l0-.05v0l0,0,0,0,0,0v0l0-.05.05-.06v0l0,0v0l0,0,0,0,0,0v0a.21.21,0,0,0,0-.06h0l0-.06h0l0,0,0,0,0,0v0l0-.05h0l.05-.06h0l0-.05h0l0-.05h0l0-.05h0l.09-.12h0l0-.05v0l0,0v0l.09-.12,0-.05v0l0,0v0l.14-.18h0l0-.05h0a.21.21,0,0,1,0-.06l.09-.12h0l0-.05h0l0-.06.14-.19.05-.06h0c1.88-2.59,3.68-5.25,5.42-7.95A5,5,0,0,0,398.07,379.5Zm-38,43.77a5,5,0,0,0-7-1l-.38.28a5,5,0,0,0,3,9,4.93,4.93,0,0,0,3-1l.19-.14,0,0,.15-.11,0,0A5,5,0,0,0,360.06,423.27Zm-16.2,11.55a5,5,0,0,0-4.32-2.47A4.91,4.91,0,0,0,337,433a159.64,159.64,0,0,1-34.41,15,5,5,0,0,0,1.44,9.79,4.8,4.8,0,0,0,1.44-.22q7.8-2.34,15.25-5.41h0l.28-.12.36-.15h0l.07,0,.21-.09.07,0h0l.28-.12h0l.06,0h0l.07,0,.21-.09h0l.07,0,.21-.09h0l.06,0h0l.06,0h0l.07,0,.14-.06h0l.06,0h0l.05,0h0l.07,0h0l.07,0,.07,0h0l.05,0h0l.05,0h0l.06,0h0l.07,0h0l.05,0h0l0,0h0l0,0h0l.06,0h0l.06,0h0l.05,0s0,0,0,0l.05,0h0l0,0h0l.05,0h0l.06,0h0l0,0h0l0,0h0l0,0h0l.07,0h0l0,0h.07l0,0h0l0,0h0l0,0,.06,0,0,0h0l0,0h0l0,0h.06l0,0h0l.06,0,0,0h0l0,0h.06l0,0h0l0,0h0l.06,0h0l0,0h0l0,0h0l0,0h0l0,0,.07,0h.06l0,0h0l0,0h0l0,0h0l0,0,.06,0,0,0h0l0,0h0l0,0h.06l.14-.07h0l0,0h0l0,0h0l0,0h0l.15-.06h0l0,0h0l0,0h0l.05,0h0l.15-.08h0l0,0h0l.05,0h0l.05,0,.17-.08h0l.05,0h0l.05,0h0l.17-.08.05,0h0l0,0h0l0,0,.18-.08.05,0h0l.05,0h0l.29-.14.05,0h0l.28-.13h0l.05,0h0l.28-.14h0q6.38-3.06,12.45-6.61A5,5,0,0,0,343.86,434.82Z"/><path class="cls-5" d="M106.33,304.77a9.93,9.93,0,0,1-9.92-9.93,158.23,158.23,0,0,1,17.42-72.65,161.4,161.4,0,0,1,46.53-55.28,9.92,9.92,0,0,1,11.92,15.87,139,139,0,0,0-56,112.06A9.93,9.93,0,0,1,106.33,304.77Z"/><path d="M259.54,170.88a35.49,35.49,0,0,1-25.35-10.23,4.62,4.62,0,1,1,6.53-6.54c10.93,10.93,29.77,9.86,42-2.38a4.62,4.62,0,0,1,6.54,6.54A42.27,42.27,0,0,1,259.54,170.88Z"/><path d="M259.31,164.39a4.62,4.62,0,0,1-4.5-3.6c-5.28-23.29-3-47.76,6.56-70.76a131.53,131.53,0,0,1,47.46-57.84,4.62,4.62,0,1,1,5.22,7.62c-40,27.37-60.15,75.17-50.23,118.94a4.63,4.63,0,0,1-3.48,5.53A4.57,4.57,0,0,1,259.31,164.39Z"/></g><g id="Black_outlines_-_to_remove" data-name="Black outlines - to remove"><path d="M256.33,114.84a180,180,0,1,1-127.28,52.72,178.86,178.86,0,0,1,127.28-52.72m0-10c-104.93,0-190,85.07-190,190s85.07,190,190,190,190-85.06,190-190-85.06-190-190-190Z"/></g><g id="Leaves_on_top" data-name="Leaves on top"><path class="cls-6" d="M214.43,57.43c39.67,39.67,30.91,88.09,30.91,88.09s-48.43,8.76-88.09-30.9-30.91-88.09-30.91-88.09S174.77,17.77,214.43,57.43Z"/><path d="M138.34,35.71a97.17,97.17,0,0,1,69,28.8,97.21,97.21,0,0,1,28.75,71.79c-.86,0-1.78,0-2.76,0a97.23,97.23,0,0,1-69-28.8,96,96,0,0,1-27.4-52.68,96.48,96.48,0,0,1-1.35-19.12c.86,0,1.79,0,2.77,0h0m0-10a74.7,74.7,0,0,0-12,.82S117.58,75,157.25,114.62a107,107,0,0,0,76.1,31.73,73.76,73.76,0,0,0,12-.83s8.76-48.42-30.91-88.09a107,107,0,0,0-76.09-31.72Z"/></g></svg>