<svg xmlns="http://www.w3.org/2000/svg" viewBox="0 0 512 512"><defs><style>.cls-1{fill:#85c6ed;}.cls-2{fill:#049146;}.cls-3{fill:#6cbe45;}.cls-4{fill:#fff;opacity:0.3;}</style></defs><g id="BULINE"><circle class="cls-1" cx="256" cy="256" r="256"/></g><g id="Fruits"><path class="cls-2" d="M355.28,134.19c-63.75-20.39-80.92-76.54-80.92-76.54s46.57-35.76,110.32-15.37,80.93,76.55,80.93,76.55S419,154.59,355.28,134.19Z"/><path d="M465.61,118.83s-17.18-56.15-80.93-76.55A129.46,129.46,0,0,0,345.11,36c-42.55,0-70.75,21.65-70.75,21.65s17.17,56.15,80.92,76.54a129.2,129.2,0,0,0,39.58,6.29,127.79,127.79,0,0,0,43.54-7.72l-20.9,20.9a5,5,0,0,0,7.07,7.07l39-39a4.91,4.91,0,0,0,1.31-2.37Zm-107.28,5.84A116.46,116.46,0,0,1,299.42,83a116.83,116.83,0,0,1-12.75-21.38A118.27,118.27,0,0,1,345.11,46h0a119.58,119.58,0,0,1,36.51,5.81,117.91,117.91,0,0,1,71.65,63.06,119.14,119.14,0,0,1-58.42,15.61A120,120,0,0,1,358.33,124.67Z"/><path class="cls-3" d="M381.68,159.5h0a1.82,1.82,0,0,1-2.17.45C240.13,74.73,30.16,288.61,119.24,425.2a1.8,1.8,0,0,1-.4,2.15C87,460.91,126.67,499.42,159.62,467a1.81,1.81,0,0,1,2.15-.45c139.37,85.27,349.37-128.62,260.29-265.22a1.8,1.8,0,0,1,.4-2.15C454.05,166,415.22,126.9,381.68,159.5Z"/><path d="M354.75,400.33a5,5,0,0,0-7.07-.24,206.94,206.94,0,0,1-30.09,23.38,5,5,0,0,0,5.36,8.44,217.33,217.33,0,0,0,31.57-24.53A5,5,0,0,0,354.75,400.33Zm13.68-14.65a5,5,0,0,0-7.07.4l-.32.36a5,5,0,0,0,7.44,6.68l0-.05s0,0,0,0l0,0,.14-.16.12-.13A5,5,0,0,0,368.43,385.68Zm31.18-49.34a4.89,4.89,0,0,0-2.12-.48,5,5,0,0,0-4.53,2.88,192.62,192.62,0,0,1-19.55,32.53,5,5,0,0,0,8,6,202.05,202.05,0,0,0,20.38-33.84h0l0-.07h0l0-.06h0a.21.21,0,0,1,0-.07h0l0-.06h0l0-.07h0A5,5,0,0,0,399.61,336.34Z"/><path class="cls-4" d="M154.2,402.14a9.94,9.94,0,0,1-8.72-5.18c-28.26-51.83-3.93-111.32,28.25-149.7A9.92,9.92,0,0,1,188.94,260c-28,33.37-49.52,84.38-26,127.45a9.91,9.91,0,0,1-4,13.46A9.79,9.79,0,0,1,154.2,402.14Z"/></g><g id="Black_outlines_-_to_remove" data-name="Black outlines - to remove"><path d="M309.5,150.48h0a122.31,122.31,0,0,1,64.77,18,11.39,11.39,0,0,0,5.94,1.67,12.15,12.15,0,0,0,8.46-3.52c6.33-6.15,13.05-9.4,19.42-9.4a15.69,15.69,0,0,1,14.72,9.47c3.29,7.69.52,17-7.6,25.52a11.71,11.71,0,0,0-1.54,14.51c14.1,21.62,20.69,46.12,19.59,72.85-1,24.63-8.77,51-22.46,76.26-17.93,33.1-45.36,63.37-77.24,85.24C300.28,463.93,265.09,476,231.79,476A122.35,122.35,0,0,1,167,458a11.35,11.35,0,0,0-5.94-1.66,12.16,12.16,0,0,0-8.45,3.51c-6.24,6.15-12.91,9.4-19.31,9.4a15.81,15.81,0,0,1-14.85-9.5c-3.27-7.63-.48-16.91,7.65-25.48a11.72,11.72,0,0,0,1.52-14.5c-14.09-21.62-20.68-46.13-19.59-72.85,1-24.64,8.78-51,22.46-76.27,17.94-33.1,45.37-63.37,77.25-85.24,33.28-22.83,68.47-34.9,101.77-34.9m0-10c-128.34,0-265.26,169.74-190.27,284.72a1.8,1.8,0,0,1-.4,2.15c-23.36,24.6-8.25,51.87,14.45,51.87,8.27,0,17.53-3.61,26.33-12.27a2.06,2.06,0,0,1,1.43-.64,1.36,1.36,0,0,1,.72.19,132.37,132.37,0,0,0,70,19.5C360.12,486,497,316.26,422.06,201.28a1.8,1.8,0,0,1,.4-2.15c23.2-24.34,8.41-51.89-14.36-51.89-8.24,0-17.51,3.6-26.42,12.26h0a2.1,2.1,0,0,1-1.45.65,1.39,1.39,0,0,1-.72-.2,132.43,132.43,0,0,0-70-19.48Z"/></g></svg>