<svg xmlns="http://www.w3.org/2000/svg" viewBox="0 0 512 512"><defs><style>.cls-1{fill:#28273d;}.cls-2{fill:#049146;}.cls-3{fill:#010101;}.cls-4{fill:#d86a43;}.cls-5{fill:#ef8459;}.cls-6{fill:#fff;opacity:0.3;}</style></defs><g id="BULINE"><circle class="cls-1" cx="256" cy="256" r="256"/></g><g id="Fruits"><path class="cls-2" d="M300,95.31c-42.47,42.47-33.09,94.33-33.09,94.33s51.86,9.38,94.33-33.09,33.1-94.34,33.1-94.34S342.45,52.83,300,95.31Z"/><path class="cls-3" d="M394.31,62.21a79.79,79.79,0,0,0-12.85-.88,116.33,116.33,0,0,0-110.46,82V116a5,5,0,0,0-10,0v60a5,5,0,0,0,5,5h.08a69.35,69.35,0,0,0,.8,8.65,79.72,79.72,0,0,0,12.84.88,114.57,114.57,0,0,0,81.49-34C403.69,114.07,394.31,62.21,394.31,62.21ZM383.69,92.62a103.49,103.49,0,0,1-29.55,56.85,104.76,104.76,0,0,1-74.42,31.05c-1.31,0-2.53,0-3.64-.07A106,106,0,0,1,381.46,71.33c1.32,0,2.54,0,3.65.07A104,104,0,0,1,383.69,92.62Z"/><circle class="cls-4" cx="256" cy="326" r="150"/><circle class="cls-5" cx="301" cy="331" r="155"/><path class="cls-6" d="M186,340.92a9.92,9.92,0,0,1-9.92-9.68c-1.06-43.7,23.78-86.46,63.31-108.93a9.92,9.92,0,1,1,9.8,17.25c-33.25,18.91-54.16,54.71-53.27,91.2a9.93,9.93,0,0,1-9.68,10.16Z"/><path d="M404.69,409.58a5,5,0,0,0-7,.69,125.77,125.77,0,0,1-27.37,24.78,5,5,0,0,0,5.56,8.32q1-.69,2.07-1.41l.12-.09h0l.12-.09h0l.12-.09.07,0,.05,0h0l.06,0h0l.05-.05h0l.06,0h0l.05,0h0l.06,0h0l.05,0h0l.05,0h0l.05,0h0a.1.1,0,0,1,.05,0h0l.06,0h0a.1.1,0,0,1,.05,0h0l.05,0h0l0,0h0l.05,0h0l0,0h0a.1.1,0,0,0,.05,0h0l0,0h0l.05,0h0l0,0,0,0,0,0h0l0,0,0,0,0,0h0l0,0,0,0s0,0,0,0l0,0,0,0,0,0,0,0,0,0,0,0,0,0a0,0,0,0,0,0,0l.05,0,0,0,0,0,0,0,0,0,0,0,0,0,0,0,0,0,0,0,0,0,0,0,.05,0a0,0,0,0,1,0,0l0,0,0,0a.1.1,0,0,0,.05,0h0l0,0,0,0,0,0h0l.06,0a0,0,0,0,0,0,0l0,0h0l.06,0v0l0,0,0,0,.05,0h0l0,0h0l.06-.05h0l0,0h0l.07-.05h0l.11-.08h0l.11-.08h0l.07-.05h0l0,0h0l.07-.05,0,0h0L382,439l.11-.09s0,0,0,0l.12-.08h0l.12-.09q4.71-3.56,9.09-7.52l.23-.2a.52.52,0,0,1,.11-.1h0l.11-.1.07-.06h0l.11-.1a.94.94,0,0,0,.1-.1h0l.11-.1h0l.1-.09h0l.07-.06,0,0h0l.06-.06h0l0,0h0l.06-.05h0l.11-.1h0l.1-.09h0l.06-.06h0l0,0h0l.06-.05h0l0,0h0l.06-.05v0l0,0h0l.05-.05h0l0,0h0a.12.12,0,0,1,.05-.05l0,0,0,0h0l0-.05h0l.09-.09,0,0s0,0,0,0l0,0,0,0,0,0,0,0,0,0,0,0,0,0,0,0,0,0,0,0,.06-.06,0,0,0,0s0,0,0,0l0,0,0,0,0,0,0,0,0,0,0,0,0,0,0,0,0,0,0,0,0,0,0,0,0,0,0,0,0,0,0,0,0,0,0,0,0,0,0,0,0,0,0,0,0,0,0,0h0l0,0h0l0,0h0s0,0,0,0l0,0,0,0h0l0,0,0,0s0,0,0,0h0s0,0,0,0l0,0,.05,0h0l.05,0h0l.05-.05h0s0,0,0,0h0l0-.05h0l0,0h0l.05-.05h0l0,0a0,0,0,0,0,0,0s0,0,.05,0a0,0,0,0,0,0,0l.1-.1h0l.1-.11h0l.1-.11h0l.05-.05h0l.06,0,.05-.05h0l.11-.1h0a2.28,2.28,0,0,0,.22-.22h0q4.62-4.63,8.8-9.72A5,5,0,0,0,404.69,409.58ZM415.41,393a4.93,4.93,0,0,0-2.55-.7,5,5,0,0,0-4.31,2.44l-.24.4a5,5,0,0,0,8.57,5.16l0,0,.17-.29.09-.16A5,5,0,0,0,415.41,393Zm15.51-55.19-.45,0a5,5,0,0,0-5,4.56,124,124,0,0,1-8.7,35.84,5,5,0,0,0,9.26,3.78h0l.06-.13h0a.69.69,0,0,0,.05-.13h0l0-.07a.14.14,0,0,1,0-.06s0,0,0,0l0-.06,0-.06s0,0,0,0a.14.14,0,0,1,0-.06l0-.07h0a.14.14,0,0,0,0-.06h0a.14.14,0,0,0,0-.06,0,0,0,0,0,0,0s0,0,0,0a0,0,0,0,1,0,0,.14.14,0,0,1,0-.06s0,0,0,0,0,0,0-.05h0l0-.06s0,0,0,0,0,0,0-.05v0a.14.14,0,0,0,0-.06v0l0,0v0a.14.14,0,0,1,0-.06v0a.05.05,0,0,1,0,0v0l0-.06v0s0,0,0,0v0l0-.05a0,0,0,0,0,0,0l0,0a0,0,0,0,1,0,0,.14.14,0,0,1,0-.06v-.06s0,0,0,0a.08.08,0,0,0,0,0l0,0a53750122645,53750122645,0,0,0,0-.06l0-.05s0,0,0,0,0,0,0,0l0,0h0l0-.07s0,0,0,0,0,0,0,0l0-.09h0s0-.09.05-.13v-.06h0a.41.41,0,0,1,0-.08h0s0,0,0,0h0l0-.08v0a1.12,1.12,0,0,1,.05-.13h0c0-.05,0-.09.05-.13h0l.21-.58a133.6,133.6,0,0,0,5.1-17.05,135.43,135.43,0,0,0,2.83-17.92A5,5,0,0,0,430.92,337.81Z"/></g><g id="Black_outlines_-_to_remove" data-name="Black outlines - to remove"><path class="cls-3" d="M301,176a155.78,155.78,0,0,0-22.69,1.65,150,150,0,1,0-33.22,298A155,155,0,1,0,301,176ZM157,425a140,140,0,0,1,88-238.57A155.05,155.05,0,0,0,214.89,459.9,139.2,139.2,0,0,1,157,425Zm246.52,8.54A144,144,0,0,1,301,476a146.67,146.67,0,0,1-22.35-1.7,145,145,0,0,1-.35-286.54A146.13,146.13,0,0,1,301,186q4.92,0,9.78.32a145,145,0,0,1,92.75,247.21Z"/></g></svg>