<svg xmlns="http://www.w3.org/2000/svg" viewBox="0 0 512 512"><defs><style>.cls-1{fill:#1ab364;}.cls-2{fill:#049146;}.cls-3{fill:#010101;}.cls-4{fill:#794b1e;}.cls-5{fill:#fff;opacity:0.3;}</style></defs><g id="BULINE"><circle class="cls-1" cx="256" cy="256" r="256"/></g><g id="Fruits"><path class="cls-2" d="M225.48,54.36c35.46,35.46,27.63,78.75,27.63,78.75s-43.29,7.83-78.75-27.63-27.62-78.74-27.62-78.74S190,18.9,225.48,54.36Z"/><path class="cls-3" d="M306.41,36.87a5,5,0,0,0-7-.77C278,53.25,261.61,76.63,252,103.7h0A97,97,0,0,0,157.46,26a66,66,0,0,0-10.72.74S138.9,70,174.36,105.48a95.68,95.68,0,0,0,68,28.36l2.07,0a154,154,0,0,0,1,52.13,5,5,0,0,0,4.9,4.05,5.2,5.2,0,0,0,1-.09,5,5,0,0,0,4-5.86c-10-51.65,10.24-108,50.35-140.15A5,5,0,0,0,306.41,36.87Zm-62.59,87h-1.43a85.83,85.83,0,0,1-61-25.43A84.82,84.82,0,0,1,157.25,52,85.06,85.06,0,0,1,156,36h1.44a85.82,85.82,0,0,1,60.95,25.43,85.87,85.87,0,0,1,25.41,62.4Z"/><ellipse class="cls-4" cx="256" cy="321" rx="135" ry="165"/><path d="M363.24,351.08a5.24,5.24,0,0,0-1.11-.12,5,5,0,0,0-4.87,3.89,139.79,139.79,0,0,1-12.87,34.93,5,5,0,0,0,2.07,6.77,5.06,5.06,0,0,0,2.34.58,5,5,0,0,0,4.42-2.65A150.58,150.58,0,0,0,367,357.06,5,5,0,0,0,363.24,351.08Zm-21.7,53.33a5,5,0,0,0-7,1l-.28.37a5,5,0,0,0,1,7,4.93,4.93,0,0,0,3,1,5,5,0,0,0,4-2h0c.08-.11.16-.23.25-.34l.06-.08A5,5,0,0,0,341.54,404.41Zm-12.3,15.35a5,5,0,0,0-7.07-.11,95.77,95.77,0,0,1-30,20,5,5,0,1,0,3.82,9.24A102,102,0,0,0,319,435.6l.25-.19.18-.13.06,0h0l.06-.05h0l.17-.14h0l.06,0h0l.06,0h0l.1-.07,0,0,.05,0h0l0,0h0l0,0,0,0,0,0,0,0,0,0h0l0,0s0,0,0,0l0,0,0,0,0,0,0,0,0,0,0,0,.05,0a0,0,0,0,1,0,0l0,0,0,0,0,0,0,0a0,0,0,0,0,0,0l0,0,0,0,0,0,0,0,0,0,0,0,0,0a0,0,0,0,1,0,0l0,0,0,0,0,0,0,0,0,0h0l0,0,0,0,0,0s0,0,0,0l0,0h0l.05,0h0l.05,0h0l0,0h0l.05,0h0l0,0h0l.05,0h0l.05,0h0l.05,0h0l.06,0h0l.05,0h0l.05,0h0l.06,0h0l.12-.1.06,0h0a2.31,2.31,0,0,0,.24-.2h0q3.4-2.82,6.63-5.95A5,5,0,0,0,329.24,419.76Z"/><path class="cls-5" d="M161,330.92h0a9.92,9.92,0,0,1-9.92-9.92c0-35.42,10.92-68.86,30.71-94.15a117.53,117.53,0,0,1,19.36-19.61,9.92,9.92,0,1,1,12.33,15.55,97.23,97.23,0,0,0-16.06,16.29C180.34,260.9,170.93,290,170.92,321A9.92,9.92,0,0,1,161,330.92Z"/></g><g id="Black_outlines_-_to_remove" data-name="Black outlines - to remove"><path d="M256,166c68.93,0,125,69.53,125,155S324.93,476,256,476,131,406.47,131,321s56.07-155,125-155m0-10c-74.56,0-135,73.87-135,165s60.44,165,135,165,135-73.87,135-165S330.56,156,256,156Z"/></g></svg>