<svg xmlns="http://www.w3.org/2000/svg" viewBox="0 0 512 512"><defs><style>.cls-1{fill:#f6bb37;}.cls-2{fill:#f2b51c;}.cls-3{fill:#049146;}.cls-4{fill:#010101;}.cls-5{fill:#fff;opacity:0.3;}</style></defs><g id="BULINE"><circle class="cls-1" cx="256" cy="256" r="256"/></g><g id="Fruits"><path class="cls-2" d="M420,308c0,96.36-93.85,175.82-161.91,175.82-68.56,0-164.62-76.48-166-173-.8-54.23,21.31-103,56.63-135.78,17-15.81,26.9-38.58,27.34-62.72l0-1c1.32-45.32,35.94-82.08,78.23-83C299.25,27.23,336,66,336,114c0,.92,0,1.84,0,2.76-.62,20.91,7.55,41,22.76,54.1C396.09,203.13,420,252.55,420,308Z"/><path class="cls-3" d="M256,56.58c28.5,0,51.68,25.78,51.68,57.46,0,.63,0,1.28,0,1.92-.89,29.93,11,57.78,32.57,76.4,32.68,28.2,51.42,70.33,51.42,115.59,0,18.79-4.39,37.65-13,56.08a172,172,0,0,1-34.07,47.9c-26.47,26.42-60.4,43.49-86.45,43.49-12.72,0-27.49-3.74-42.72-10.82a174.4,174.4,0,0,1-45.94-31.67,170.31,170.31,0,0,1-35.08-47c-9-18.14-13.69-36.83-14-55.57-.66-44.12,16.69-85.89,47.58-114.59,22.53-20.94,35.8-51.18,36.39-83,0-.23,0-.47,0-.7a60.07,60.07,0,0,1,16-39.54c9.44-10,21.69-15.69,34.49-16l1.09,0h0m0-28.34c-.58,0-1.16,0-1.74,0C212,29.22,177.35,66,176,111.3l0,1c-.44,24.14-10.32,46.91-27.34,62.72C113.34,207.84,91.23,256.57,92,310.8c1.43,96.49,97.49,173,166,173C326.14,483.77,420,404.31,420,308c0-55.4-23.9-104.82-61.25-137-15.21-13.12-23.38-33.19-22.76-54.1,0-.92,0-1.84,0-2.76,0-47.39-35.83-85.81-80-85.8Z"/><circle class="cls-4" cx="254.33" cy="261.67" r="9.89"/><circle class="cls-4" cx="254.33" cy="287.11" r="9.89"/><circle class="cls-4" cx="254.33" cy="312.56" r="9.89"/><circle class="cls-4" cx="254.33" cy="236.22" r="9.89"/><circle class="cls-4" cx="254.33" cy="338" r="9.89"/><circle class="cls-4" cx="254.33" cy="210.78" r="9.89"/><circle class="cls-4" cx="254.33" cy="363.44" r="9.89"/><circle class="cls-4" cx="278.78" cy="261.67" r="9.89"/><circle class="cls-4" cx="278.78" cy="287.11" r="9.89"/><circle class="cls-4" cx="278.78" cy="312.56" r="9.89"/><circle class="cls-4" cx="278.78" cy="236.22" r="9.89"/><circle class="cls-4" cx="278.78" cy="338" r="9.89"/><circle class="cls-4" cx="230.33" cy="262.89" r="9.89"/><circle class="cls-4" cx="230.33" cy="288.33" r="9.89"/><circle class="cls-4" cx="230.33" cy="313.78" r="9.89"/><circle class="cls-4" cx="230.33" cy="237.44" r="9.89"/><circle class="cls-4" cx="230.33" cy="339.22" r="9.89"/><circle class="cls-4" cx="302.67" cy="260.5" r="9.89"/><circle class="cls-4" cx="302.67" cy="285.95" r="9.89"/><circle class="cls-4" cx="302.67" cy="311.39" r="9.89"/><circle class="cls-4" cx="207" cy="262.89" r="9.89"/><circle class="cls-4" cx="207" cy="288.33" r="9.89"/><circle class="cls-4" cx="207" cy="313.78" r="9.89"/><path d="M369.31,336.88a4.87,4.87,0,0,0-1.54-.25,5,5,0,0,0-4.76,3.46,135.61,135.61,0,0,1-16.34,33.34A5,5,0,1,0,355,379c.43-.64.85-1.29,1.27-1.93l.09-.13h0l.08-.12h0l.08-.12h0a.83.83,0,0,1,.08-.12h0a.21.21,0,0,0,0-.06l0-.06h0l0-.06h0l0-.06h0l0-.06h0l0-.05h0l0-.06h0l0-.05v0l0-.05h0l0,0v0l0,0,0,0,0,0,0,0,0,0a.05.05,0,0,0,0,0l0,0,0,0,0,0,0-.05,0,0s0,0,0,0l0,0,0,0,0,0,0,0v0l0-.05,0,0,0,0v0l0-.06h0s0,0,0,0h0l0-.07h0l0,0h0l0-.08.08-.13h0l.07-.12h0l0,0h0l0-.07a0,0,0,0,0,0,0l.16-.26a149.21,149.21,0,0,0,7.37-13.44c.05-.09.09-.18.14-.28l.06-.13h0l.06-.14h0l.06-.14h0a.67.67,0,0,0,.06-.12v0l.06-.12a0,0,0,0,1,0,0l.06-.13h0a.75.75,0,0,1,.06-.13h0l.06-.13s0,0,0,0l0,0a0,0,0,0,0,0,0l0-.06s0,0,0,0,0,0,0,0,0,0,0,0l0-.06v0a.08.08,0,0,0,0,0v0l0-.05v0l0,0s0,0,0-.05v0l0,0v0l0-.05v0s0,0,0,0v0s0,0,0-.06,0,0,0,0l0,0v0l0-.06v0l0,0v0a.14.14,0,0,0,0-.06v0s0,0,0-.05v0l0-.05v0l0-.05a0,0,0,0,0,0,0,.14.14,0,0,0,0-.06s0,0,0,0l0,0v0l0-.06v0s0,0,0-.05h0l0-.06v0l0-.05h0l0-.07a0,0,0,0,1,0,0,.08.08,0,0,1,0,0s0,0,0,0l0-.06h0a.14.14,0,0,0,0-.06h0l0-.06v0l0-.05h0a.19.19,0,0,0,0-.07h0a.14.14,0,0,0,0-.06h0l0-.07,0-.07.06-.14h0l0-.07,0-.07.06-.14a137.44,137.44,0,0,0,5.1-13.29A5,5,0,0,0,369.31,336.88Zm-27,50.94a5,5,0,0,0-7.06.48l-.31.35a5,5,0,1,0,7.52,6.59l.16-.18.19-.21A5,5,0,0,0,342.35,387.82Zm-13.51,14.54a5,5,0,0,0-7.06-.42A130.74,130.74,0,0,1,291,422.49a5,5,0,0,0,4.24,9.06,136.54,136.54,0,0,0,27.06-17l.06-.05.12-.1h0l.06-.05.12-.1h0l.06-.05.12-.1h0l.05,0h0L323,414l.06,0h0l.05,0a0,0,0,0,1,0,0l.06,0,.05,0h0s0,0,.05-.05h0l.06,0h0l.05,0,0,0,0,0h0l.05,0h0l0,0h0l.05,0,0,0,.05,0h0l.05,0s0,0,0,0l.05,0,0,0,0,0,0,0,0,0,0,0,.05,0,0,0,0,0,0,0,0,0,0,0,0,0,0,0,0,0,.05,0,0,0,.05,0h0l0,0h0l.06-.05h0a.1.1,0,0,1,.05,0v0l0,0h0l.06,0s0,0,0,0l.07-.05,0,0h0l.07-.05h0l.19-.15c1.11-.94,2.22-1.89,3.32-2.87A5,5,0,0,0,328.84,402.36Z"/><path class="cls-5" d="M146.35,327.59a9.61,9.61,0,0,1-9.59-9c-2.12-32.43,7.63-65.15,27.44-92.13A139,139,0,0,1,182.63,206a9.62,9.62,0,1,1,12.94,14.24,119.3,119.3,0,0,0-15.86,17.65c-16.89,23-25.55,52-23.75,79.47a9.63,9.63,0,0,1-9,10.23Z"/></g><g id="Black_outlines_-_to_remove" data-name="Black outlines - to remove"><path d="M256,38.24c38.61,0,70,34,70,75.8,0,.82,0,1.65,0,2.46-.72,24.39,8.83,47,26.21,62C388.93,210.16,410,257.35,410,308c0,21.5-5,43-14.78,63.87a190.56,190.56,0,0,1-37.72,53.1c-30.19,30.13-68.28,48.85-99.41,48.85-31.67,0-70.49-18.22-101.3-47.55a188.63,188.63,0,0,1-38.88-52.13c-10.21-20.6-15.55-41.94-15.87-63.43-.73-49.32,18.75-96.08,53.44-128.31,18.91-17.57,30-43,30.53-69.87,0-.3,0-.6,0-.89a78.36,78.36,0,0,1,21-51.59c12.83-13.62,29.67-21.34,47.42-21.75H256m0-10c-.58,0-1.16,0-1.74,0C212,29.22,177.35,66,176,111.3l0,1c-.44,24.14-10.32,46.91-27.34,62.72C113.34,207.84,91.23,256.57,92,310.8c1.43,96.49,97.49,173,166,173C326.14,483.77,420,404.31,420,308c0-55.4-23.9-104.82-61.25-137-15.21-13.12-23.38-33.19-22.76-54.1,0-.92,0-1.84,0-2.76,0-47.39-35.83-85.81-80-85.8Z"/></g></svg>