<svg xmlns="http://www.w3.org/2000/svg" viewBox="0 0 512 512"><defs><style>.cls-1{fill:#3986c7;}.cls-2{fill:#049146;}.cls-3{fill:#010101;}.cls-4{fill:#2e2d85;}.cls-5{fill:#fff;opacity:0.3;}</style></defs><g id="BULINE"><circle class="cls-1" cx="256" cy="256" r="256"/></g><g id="Fruits"><path class="cls-2" d="M237.68,109.14c-56.41,9.79-91.68-26-91.68-26s21.15-45.57,77.57-55.36,91.68,26,91.68,26S294.1,99.35,237.68,109.14Z"/><path d="M341,32.87a5,5,0,0,0-7-.77q-11.24,9-21.58,19.1A109,109,0,0,0,243,26.1a113.36,113.36,0,0,0-19.43,1.7C167.15,37.59,146,83.16,146,83.16s27.28,27.68,72.25,27.68a113.28,113.28,0,0,0,19.43-1.7,110.06,110.06,0,0,0,36.79-13.28A330.41,330.41,0,0,0,239.11,161a85.76,85.76,0,0,0-17.81,4.21c-25.39,8.89-44.74,27.06-56.5,40.74a5,5,0,0,0,7.59,6.52c11-12.75,28.91-29.66,52.22-37.82a77.26,77.26,0,0,1,10.33-2.85c-.42,1.14-.85,2.28-1.25,3.43-20.14,56.67-24.92,116.92-13.83,174.23a5,5,0,0,0,4.9,4.05,5.2,5.2,0,0,0,1-.09,5,5,0,0,0,4-5.86c-14.91-77,.83-158.77,40.07-225.43,18.43,13.46,28.25,35.55,36.06,57.63a5,5,0,0,0,4.72,3.33,5.18,5.18,0,0,0,1.67-.28,5,5,0,0,0,3-6.39C306.78,152.52,296,128.52,275,113.55A298.57,298.57,0,0,1,340.24,39.9,5,5,0,0,0,341,32.87Zm-105.28,65a103,103,0,0,1-17.48,1.53,98.62,98.62,0,0,1-57.47-18.84,98.51,98.51,0,0,1,11.63-14.07,96.8,96.8,0,0,1,53.11-27.46A102.9,102.9,0,0,1,243,37.52h0a98.57,98.57,0,0,1,57.49,18.86A97.9,97.9,0,0,1,235.73,97.89Z"/><polygon class="cls-3" points="233.74 428.82 238.26 468.82 228.05 457.95 224.76 468.54 221.46 457.95 211.28 468.54 214.87 428.82 233.74 428.82"/><polygon class="cls-3" points="110.1 298.2 81.34 343.87 79.75 323.94 67.43 332.27 72.85 318.42 53.31 320.98 90.34 282.4 110.1 298.2"/><polygon class="cls-3" points="384.58 331.77 405.44 366.56 387.21 362.01 386.45 373.67 377.99 365.6 367.6 381.03 358.19 342.07 384.58 331.77"/><circle class="cls-4" cx="224.77" cy="395.26" r="50"/><path class="cls-5" d="M203.77,405.19a10.09,10.09,0,0,1-1.09-.06,9.93,9.93,0,0,1-8.78-10.94,39.62,39.62,0,0,1,12-24.69A9.92,9.92,0,0,1,219.46,384a20.13,20.13,0,0,0-5.84,12.37A9.92,9.92,0,0,1,203.77,405.19Z"/><circle class="cls-4" cx="126.36" cy="258.69" r="67.04"/><circle class="cls-4" cx="339.7" cy="259.51" r="90.07"/><path class="cls-5" d="M284.49,264.42a10.09,10.09,0,0,1-1.09-.06,9.91,9.91,0,0,1-8.78-10.94c1.69-15.51,8.48-29.54,19.12-39.53a9.92,9.92,0,0,1,13.58,14.46c-7.19,6.75-11.8,16.42-13,27.23A9.91,9.91,0,0,1,284.49,264.42Z"/><path class="cls-5" d="M94.94,272.61a10.09,10.09,0,0,1-1.09-.06,9.91,9.91,0,0,1-8.78-10.94c1.69-15.51,8.48-29.55,19.12-39.53a9.92,9.92,0,0,1,13.58,14.46c-7.19,6.75-11.79,16.42-13,27.23A9.91,9.91,0,0,1,94.94,272.61Z"/><path d="M256.55,389.65v0l0-.09h0s0-.06,0-.09v0h0l0-.1v0h0v0l0-.08v0s0,0,0,0,0-.05,0-.08h0v0a.14.14,0,0,0,0-.07v0h0s0,0,0-.05h0v0h0v0h0s0,0,0-.05,0,0,0,0h0v0a0,0,0,0,0,0,0h0a0,0,0,0,0,0,0h0a0,0,0,0,0,0,0h0v0h0v0h0v0h0v0h0v0h0v0h0v0h0a0,0,0,0,1,0,0h0v0a0,0,0,0,1,0,0,5,5,0,0,0-6.28-3.25l-.06,0a5,5,0,0,0-3.19,6.26,19.92,19.92,0,0,1-8.68,23.15,5,5,0,0,0,4.17,9,4.87,4.87,0,0,0,1-.47A30,30,0,0,0,256.55,389.65ZM225.07,416.9l-.33,0a4.93,4.93,0,0,0-2.27.21,5,5,0,0,0,.88,9.69h.5c.21,0,.41,0,.61,0a5.11,5.11,0,0,0,1.57-.25,5,5,0,0,0-1-9.72Z"/><path d="M171.23,266.37a5,5,0,0,0-6.25,3.32,40.24,40.24,0,0,1-20,23.93,5,5,0,0,0,2.3,9.45,4.92,4.92,0,0,0,2.28-.56c.76-.39,1.51-.8,2.26-1.23l0,0,0,0,.34-.21h0l0,0,0,0,0,0,.31-.19,0,0,0,0,0,0,.31-.19,0,0h0l0,0,0,0h0l0,0,.27-.17,0,0h0l0,0,0,0h0l0,0,.27-.17,0,0h0l0,0h0l0,0,0,0h0l.26-.18h0l0,0,0,0,0,0h0l0,0,.3-.2,0,0h0l0,0,0,0h0l.33-.23.46-.33a49.52,49.52,0,0,0,7.9-7c.12-.12.23-.25.34-.37l0,0h0l0,0c.07-.08.15-.16.22-.25l0,0,0,0,0,0h0l0,0h0l0,0,.2-.22,0,0h0l0,0h0l0,0h0l0,0h0l0,0s0,0,0,0l0,0h0l.15-.18h0l0,0s0,0,0,0l0,0v0a0,0,0,0,0,0,0h0l0,0h0l0,0s0,0,0,0l0,0h0l0,0h0l0,0,.07-.09h0l0,0h0s0,0,0,0h0l0,0v0s0,0,0,0h0l0,0s0,0,0,0l0,0h0v0h0v0l0,0h0l0,0v0l0,0v0l0,0h0l0,0v0a0,0,0,0,0,0,0h0v0l0,0h0a0,0,0,0,1,0,0l0,0v0h0v0l0,0h0l0,0h0l0,0,0,0s0,0,0,0h0v0h0v0h0v0h0v0h0v0h0v0l0,0h0s0,0,0,0h0v0h0l0,0h0v0h0l0,0h0l0,0h0l0,0h0l.09-.11,0,0,0,0h0v0h0l0,0h0v0h0l0,0h0l0,0h0v0h0s0,0,0,0h0l0,0h0a0,0,0,0,1,0,0h0l0,0,.16-.21,0,0,0,0h0v0h0l0,0,0,0s0,0,0,0h0l0,0,0,0,0,0h0a3.46,3.46,0,0,1,.22-.31l0,0,0,0,0,0h0s0,0,0,0l0,0,0,0,0,0h0c.09-.14.19-.27.28-.4l0,0,0,0h0l0,0h0s0,0,0,0,.19-.26.28-.4l0,0,0,0,0,0,0,0,.28-.41,0,0,0,0,0,0,0,0,0,0s0,0,0,0h0l.21-.31,0,0,0,0,0,0,0,0h0l0,0h0l0,0,0,0,0,0,.2-.31h0v0h0v0h0v0h0v0h0v0h0v0h0v0h0s0,0,0,0h0v0c.06-.08.11-.17.16-.25l0,0h0l0,0h0l0,0h0l0,0,0,0h0l0,0h0l0,0h0l0,0,0,0,0,0s0,0,0,0a1.18,1.18,0,0,1,.11-.19h0l0,0h0l0,0h0l0,0h0a0,0,0,0,0,0,0h0s0,0,0,0h0v0h0v-.06h0s0,0,0,0h0v-.06h0v0h0s0,0,0,0h0l0-.08h0v0h0l0,0h0a0,0,0,0,0,0,0v0s0,0,0,0h0v0h0V283h0v0h0s0,0,0,0v0h0v0h0v0s0,0,0,0h0v0s0,0,0,0h0l0,0h0l0,0h0s0,0,0,0h0v0h0l0,0h0l0,0h0a0,0,0,0,0,0,0v0s0,0,0,0h0s0,0,0,0h0v0s0,0,0,0v0h0v0s0,0,0,0a0,0,0,0,1,0,0h0l0,0h0l0,0s0,0,0,0l.09-.17h0s0,0,0,0h0v0h0l0,0h0l0,0h0l0,0v0h0v0h0v0h0s0,0,0,0l0,0,.17-.31s0,0,0,0h0v0l0,0,0,0,0,0a50,50,0,0,0,3.5-8.54A5,5,0,0,0,171.23,266.37ZM130.06,298l-.37,0-.4,0a5,5,0,0,0-4.64,5.35A5,5,0,0,0,129.6,308h.48l.45,0a5,5,0,0,0,4.54-5.34A5,5,0,0,0,130.06,298Z"/><path d="M358.76,324.25a5,5,0,0,0-4.9-4,4.66,4.66,0,0,0-1,.11l-.42.09a5,5,0,0,0,1,9.89,4.92,4.92,0,0,0,1-.1l.09,0h.27l.09,0H355A5,5,0,0,0,358.76,324.25Zm41.56-35.12a5,5,0,0,0-6.84,1.8A61.82,61.82,0,0,1,369,314.49a5,5,0,0,0,2.34,9.42,4.88,4.88,0,0,0,2.33-.58h0l.1-.05h0l.07,0h0l.07,0,0,0h0l0,0,0,0,.07,0h.1a0,0,0,0,0,0,0l0,0h.07l0,0h0l0,0h0a0,0,0,0,1,0,0h.44l0,0h0l0,0s0,0,0,0h.07l0,0h0a0,0,0,0,1,0,0h0l0,0h.06a0,0,0,0,1,0,0l0,0h.07a0,0,0,0,1,0,0h.2a0,0,0,0,1,0,0H376l0,0h.1a0,0,0,0,1,0,0h.1l.06,0h0l0,0,0,0h0l0,0,0,0h0l.06,0h0l0,0,0,0h0l0,0,.07,0,.07,0,0,0,.07,0h0l.07,0h.1l.07,0,0,0,0,0,0,0,.07,0,.07,0,0,0,.31-.19.34-.21.07,0a72,72,0,0,0,24-24.8A5,5,0,0,0,400.32,289.13Z"/></g><g id="Black_outlines_-_to_remove" data-name="Black outlines - to remove"><path d="M224.77,355.26a40,40,0,1,1-40,40,40.05,40.05,0,0,1,40-40m0-10a50,50,0,1,0,50,50,50,50,0,0,0-50-50Z"/><path d="M126.4,201.65A56.44,56.44,0,0,1,162,214.14a57,57,0,0,1-35.67,101.59,56.36,56.36,0,0,1-35.57-12.5A57,57,0,0,1,126.4,201.65m0-10a67,67,0,1,0,41.82,14.68,66.9,66.9,0,0,0-41.82-14.68Z"/><path d="M339.68,179.42a80.14,80.14,0,1,1-29.1,5.5,80,80,0,0,1,29.1-5.5m0-10a90.08,90.08,0,1,0,83.92,57.34,89.82,89.82,0,0,0-83.92-57.34Z"/></g></svg>