<svg xmlns="http://www.w3.org/2000/svg" viewBox="0 0 512 512"><defs><style>.cls-1{fill:#85c6ed;}.cls-2{fill:#fee814;}.cls-3{fill:#fff;opacity:0.3;}</style></defs><g id="BULINE"><circle class="cls-1" cx="256" cy="256" r="256"/></g><g id="Fruits"><path class="cls-2" d="M388.62,94.94l-.46.41c-14.14,12.52-33,17.29-48.53,11.7-55.45-19.91-125.31-3.27-175.85,47.27S96.6,274.71,116.51,330.17c5.59,15.56.82,34.39-11.7,48.53l-.41.46c-10.11,11.79-11.23,28.2-2.63,38.31,10.36,12.18,30.19,11.11,43.21-1.9.36-.37.72-.74,1.07-1.12,10.76-11.68,26.67-16.25,39.35-10.78C242,428,316,412.26,368.84,359.38s68.66-126.89,44.29-183.44c-5.47-12.68-.9-28.59,10.78-39.35.38-.35.75-.71,1.12-1.07,13-13,14.08-32.85,1.9-43.21C416.82,83.71,400.41,84.83,388.62,94.94Z"/><path d="M379.79,307.35a5,5,0,0,0-6.89,1.6,163.21,163.21,0,0,1-23.32,29.32l-.1.11a5,5,0,0,0,7,7.09l.07-.07,0,0,0,0,.06-.06,0,0,0,0,0,0,0,0,0,0,0,0,0,0L357,345l0,0,.05-.05,0,0s0,0,0,0l0,0,0,0,0,0,0,0,0,0,.05,0,0,0,0,0,0,0,0,0,0,0,0,0,0,0,0,0,0,0s0,0,0,0l.05,0,0,0,.09-.09,0,0,0,0s0,0,0,0l0,0,0,0L358,344l0,0,0,0,0,0,0,0,0,0,0,0,0,0,0,0,0,0,.07-.08,0,0,0,0,0,0,0,0,0,0,0,0,0,0,0,0v0l.09-.09h0l0-.05,0,0,0,0,0,0,0,0,0,0s0,0,0,0h0l.1-.11,0,0,0,0,0,0,0,0,0,0s0,0,0,0l.15-.16.05-.05v0a.08.08,0,0,0,0,0l0,0,0,0,0,0,.15-.16,0,0a0,0,0,0,1,0,0l0-.05h0l0-.05h0l.2-.21v0l0,0,0,0,0,0,0,0,.19-.21h0l0-.05h0l.05-.05h0l.2-.22h0l.05-.05h0s0,0,.05-.05h0l.21-.22h0l0-.05h0l.05-.05h0c.06-.08.13-.15.2-.23h0l0,0h0l0,0s0,0,0,0a2.09,2.09,0,0,0,.2-.22h0l0-.05h0l0-.05.21-.23h0l.05-.05h0l.05-.05.21-.23h0l.05-.05h0l.05-.05.21-.23h0l.05-.05h0l.05-.05h0l.21-.22h0l.05,0h0l.05,0h0l.2-.22h0l0-.05h0l.05-.06.2-.22,0,0,0-.05h0l0-.05h0l.2-.23h0l0,0a0,0,0,0,0,0,0l.05,0h0a2.2,2.2,0,0,0,.2-.23h0l.05-.06.05-.06.21-.23h0l.05-.05h0l0-.05h0l.2-.23.05-.06h0a3.47,3.47,0,0,1,.25-.29h0l.05-.05h0l0-.05h0c.06-.08.13-.15.2-.23h0l.05-.05h0a.12.12,0,0,0,.05-.05h0l.19-.23h0l.05-.06.05-.06.2-.23h0l0-.05h0l0-.06h0l.19-.23h0l0-.05h0l0-.05v0l.18-.22h0l0-.05h0l0-.05v0l.14-.16h0l0,0s0,0,0,0l0,0v0a.08.08,0,0,0,0,0l0,0,.13-.16h0s0,0,0,0v0l0-.05h0l0-.05,0,0,.13-.16h0l0,0v0l0-.05,0,0,0,0,0,0c0-.06.09-.11.13-.16h0l0,0v0l0-.05,0,0,0,0,0,0a1,1,0,0,1,.13-.16h0l0-.05,0,0,0,0v0l0,0a0,0,0,0,1,0,0l.12-.15v0l0,0,0,0,0,0,0,0,0,0,0,0s0,0,0,0h0a.86.86,0,0,0,.07-.1l0,0,0,0,0,0s0,0,0,0l0,0,0,0,0,0,0-.05h0l.08-.1v0l0,0,0,0,0,0,0,0,0,0,0,0,0,0v0l.07-.08,0,0,0,0,0,0,0,0,0,0,0,0s0,0,0,0l0,0,0,0,.06-.08,0,0,0,0,0,0,0,0,0,0,0,0,0,0,0,0,0,0,.05-.06,0,0,0,0,0,0,0,0,0,0,0,0,0,0,0,0,0-.05,0,0,0,0,0,0,0,0,0,0,0,0,0,0,0,0,0,0,0-.05,0,0,0,0,0,0,0,0a.05.05,0,0,1,0,0l0,0a.05.05,0,0,0,0,0l0,0,0,0,0-.05,0,0,0,0,0,0,0,0,0,0,0,0,0,0,0,0,0,0,.06-.06v0l0-.05,0,0,0,0,0,0,0,0,0,0,0,0,0,0,0-.06v0a.1.1,0,0,0,0-.05s0,0,0,0l0,0,0,0,0,0,0,0,0,0,0,0,.06-.07v0l0-.05,0,0,0,0,0,0,0,0s0,0,0,0l0,0s0,0,0,0l.05-.07v0l0-.05,0,0,0-.05,0,0,0,0,0,0,0-.05s0,0,0,0l.05-.07v0a.1.1,0,0,0,0-.05l0,0,0,0,0,0,0-.05,0,0,0-.05,0,0,.05-.07h0a.21.21,0,0,0,0-.06l0,0,0-.05,0,0,0,0,0,0,0-.05,0,0,.05-.07h0l0-.06,0,0,0-.05v0l0-.05,0,0,0-.05,0,0,0-.07.05-.07v0s0,0,.05-.05v0l0-.05v0l.05-.06h0l.06-.07.05-.07v0l0-.05,0,0,0-.05,0,0,0-.06h0a1.71,1.71,0,0,1,.11-.14s0,0,0,0l0-.05v0l0-.05,0,0a.21.21,0,0,1,0-.06h0a1.3,1.3,0,0,1,.1-.15h0l0-.06s0,0,0,0l0-.05v0l0-.05v0l.1-.14s0,0,0,0l0-.05v0l0-.05v0l0-.06h0l.11-.14s0,0,0,0l0,0s0,0,0,0l0-.06h0l.05-.07.11-.15a0,0,0,0,1,0,0l0-.06h0l0-.06v0l.05-.06h0l.11-.14a0,0,0,0,1,0,0l0-.06s0,0,0,0l0-.06h0l.05-.06h0l.11-.15h0l0-.06h0l0-.06h0l.15-.22h0l0-.06s0,0,0,0l0-.06h0l.05-.07.1-.15a0,0,0,0,0,0,0l0-.06h0a.21.21,0,0,0,0-.06v0a.18.18,0,0,0,0-.07l.11-.14h0l.05-.07h0l0-.06h0l.05-.07.1-.15h0l0-.06v0l0-.06h0l.15-.22h0l0-.06h0l.05-.07c.06-.08.1-.15.16-.22v0l.05-.06h0l0-.06h0a.43.43,0,0,1,0-.07h0l.11-.14h0s0,0,.05-.06,0,0,0,0a.21.21,0,0,1,0-.06h0l0-.07h0a.78.78,0,0,1,.1-.15h0l.05-.07h0l0-.06h0l0-.07.1-.15h0a.21.21,0,0,0,0-.06l0,0,0-.06h0l.05-.07.1-.15v0l0-.05v0l0-.05v0a.43.43,0,0,0,0-.07h0l.1-.15h0l0-.06,0,0,0-.05,0,0a.21.21,0,0,1,0-.06h0l.1-.15h0l0-.06v0l0-.05v0l0-.07h0l.09-.15h0l0-.06v0l0-.06a0,0,0,0,0,0,0l.05-.07.1-.15v0l0-.05s0,0,0,0l0-.06,0,0,0-.06h0l.05-.07h0a.21.21,0,0,1,0-.06v0l0-.05,0,0,0-.05,0,0,0-.05v0l.05-.07h0a.21.21,0,0,1,0-.06v0l0,0,0,0,0-.05,0,0,0-.06h0l.05-.07v0l0,0,0,0,0-.05,0,0,0-.05v0l0-.06v0l.05-.07a0,0,0,0,1,0,0l0-.06,0,0,0-.05,0,0s0,0,0,0l0,0,0-.05,0,0s0,0,0-.07l0,0,0-.05,0,0s0,0,0,0l0,0,0,0,0,0,0-.05v0l.05-.07,0,0s0,0,0,0l0,0,0,0,0,0,0,0a.08.08,0,0,0,0,0l0,0a.05.05,0,0,1,0,0l0-.06,0,0,0,0,0,0a.08.08,0,0,1,0,0s0,0,0,0,0,0,0,0l0,0,0,0,0,0,0,0a.56.56,0,0,1,.05-.08l0,0s0,0,0,0l0,0,0,0,0,0,0,0,0,0,0,0s0,0,0,0l.05-.07,0,0,0,0,0,0,0,0,0,0,0,0,0,0,.09-.15,0,0,0,0v0A5,5,0,0,0,379.79,307.35Zm-37.36,44.39a5,5,0,0,0-7-.81l-.37.29a5,5,0,0,0-.82,7,5,5,0,0,0,7,.82c.13-.09.25-.19.37-.29l0,0A5,5,0,0,0,342.43,351.74Zm-15.95,11.9A5,5,0,0,0,319.6,362a152.92,152.92,0,0,1-34,15.6,5,5,0,0,0,1.5,9.77,5,5,0,0,0,1.51-.23,162.3,162.3,0,0,0,36.27-16.62A5,5,0,0,0,326.48,363.64Z"/><path class="cls-3" d="M155.6,329.62a9.93,9.93,0,0,1-9.34-6.57c-16.83-46.87-1.95-102.9,37.91-142.76a9.92,9.92,0,0,1,14,14c-34.45,34.45-47.51,82.35-33.26,122a9.94,9.94,0,0,1-9.34,13.28Z"/></g><g id="Black_outlines_-_to_remove" data-name="Black outlines - to remove"><path d="M410.45,96.54a15.34,15.34,0,0,1,10,3.39,14.68,14.68,0,0,1,5,10.84c.24,6.13-2.56,12.74-7.49,17.68-.27.27-.55.53-.83.79-15,13.82-20.29,34.17-13.19,50.66,11.27,26.13,13.44,56.17,6.28,86.87-7.39,31.66-24.14,61.24-48.45,85.54-33.38,33.39-77.29,52.54-120.45,52.54a130.44,130.44,0,0,1-52-10.37A38.64,38.64,0,0,0,174,391.37c-12.9,0-25.77,5.94-35.31,16.3-.26.28-.52.56-.79.83A24.42,24.42,0,0,1,121,416a14.81,14.81,0,0,1-11.6-5c-5.34-6.27-4.19-17.39,2.61-25.32l.29-.34c15.21-17.17,20.44-39.6,13.63-58.54-9.23-25.71-10.1-54.71-2.51-83.87,7.83-30.13,24.24-58.32,47.44-81.53,33.39-33.38,77.29-52.53,120.44-52.53a132.69,132.69,0,0,1,45,7.6,50.14,50.14,0,0,0,17,2.91c14.53,0,29.66-6,41.52-16.54l.35-.3a24.06,24.06,0,0,1,15.31-6m0-10a33.93,33.93,0,0,0-21.83,8.4l-.46.41c-10.18,9-22.81,14-34.89,14a40.35,40.35,0,0,1-13.64-2.32,142.82,142.82,0,0,0-48.34-8.19c-44.09,0-90.87,18.83-127.51,55.46-50.54,50.54-67.18,120.39-47.27,175.85,5.59,15.56.82,34.39-11.7,48.53l-.41.46c-10.11,11.79-11.23,28.2-2.63,38.31A24.76,24.76,0,0,0,121,426a34.39,34.39,0,0,0,24-10.43c.36-.37.72-.74,1.07-1.12,7.7-8.36,18-13.08,28-13.08a28.53,28.53,0,0,1,11.39,2.3,141.13,141.13,0,0,0,55.92,11.18c44.1,0,90.89-18.83,127.52-55.47,52.88-52.87,68.66-126.89,44.29-183.44-5.47-12.68-.9-28.59,10.78-39.35.38-.35.75-.71,1.12-1.07,13-13,14.08-32.85,1.9-43.21a25.18,25.18,0,0,0-16.48-5.77Z"/></g></svg>