<svg xmlns="http://www.w3.org/2000/svg" viewBox="0 0 512 512"><defs><style>.cls-1{fill:#28273d;}.cls-2{fill:#ee8d22;}.cls-3{fill:#f3a849;}.cls-4{fill:#049146;}.cls-5{fill:#010101;}.cls-6{fill:#fff;opacity:0.3;}</style></defs><g id="BULINE"><circle class="cls-1" cx="256" cy="256" r="256"/></g><g id="Fruits"><path d="M273.73,203.17a5,5,0,0,1-4.9-4,156.82,156.82,0,0,1,6.52-82.25c9.62-27.07,26-50.45,47.39-67.6a5,5,0,0,1,6.25,7.8c-40.11,32.17-60.34,88.5-50.34,140.15a5,5,0,0,1-4,5.86A5.2,5.2,0,0,1,273.73,203.17Z"/><ellipse class="cls-2" cx="235.44" cy="325.56" rx="126.08" ry="140.55"/><ellipse class="cls-3" cx="304.36" cy="335.5" rx="135" ry="150.5"/><path class="cls-4" d="M248.84,54.36c35.45,35.46,27.62,78.75,27.62,78.75s-43.29,7.83-78.74-27.63-27.63-78.74-27.63-78.74S213.38,18.9,248.84,54.36Z"/><path class="cls-5" d="M180.82,36a85.82,85.82,0,0,1,61,25.43A84.82,84.82,0,0,1,266,107.87a86.8,86.8,0,0,1,1.23,16h-1.44a85.82,85.82,0,0,1-61-25.43A84.76,84.76,0,0,1,180.61,52a85.06,85.06,0,0,1-1.23-16h1.44m0-10a66.16,66.16,0,0,0-10.72.74S162.26,70,197.72,105.48a95.65,95.65,0,0,0,68,28.36,66.89,66.89,0,0,0,10.72-.73s7.83-43.29-27.62-78.75a95.68,95.68,0,0,0-68-28.36Z"/><path d="M408.26,370.7a6,6,0,0,0-1.11-.11,4.94,4.94,0,0,0-4.87,3.55A120.59,120.59,0,0,1,389.41,406a4.38,4.38,0,0,0,2.07,6.18,5.54,5.54,0,0,0,2.34.53,5.09,5.09,0,0,0,4.42-2.42A130,130,0,0,0,412,376.16,4.59,4.59,0,0,0,408.26,370.7Zm-21.7,48.65a5.36,5.36,0,0,0-3-.9,5.17,5.17,0,0,0-4,1.85l-.28.34a4.32,4.32,0,0,0,1,6.39,5.26,5.26,0,0,0,3,.9,5.19,5.19,0,0,0,4-1.83s0,0,0,0,.16-.21.25-.31l.06-.08A4.3,4.3,0,0,0,386.56,419.35Zm-12.3,14a5.33,5.33,0,0,0-7.07-.1,96.94,96.94,0,0,1-30,18.23,4.44,4.44,0,0,0-2.71,6,5,5,0,0,0,4.62,2.81,5.33,5.33,0,0,0,1.91-.35A105,105,0,0,0,364,447.8a2.27,2.27,0,0,0,.25-.18l.18-.12.06,0h0l.06-.05h0l.17-.12h0l.06,0h0l.06,0h0l.1-.07s0,0,0,0l0,0h0l0,0h0l0,0,0,0,0,0,0,0,0,0h0l0,0,0,0,0,0,0,0h0l0,0,0,0,0,0,.05,0a0,0,0,0,1,0,0l0,0,0,0,0,0,0,0a0,0,0,0,0,0,0l0,0,0,0,0,0h0l0,0,0,0,.05,0h0l0,0,0,0,0,0,0,0,0,0h0s0,0,0,0l0,0,.05,0,0,0,0,0a0,0,0,0,1,0,0l.05,0h0s0,0,.05,0h0l0,0h0l.05,0h0l0,0h0l.05,0h0l0,0h0l0,0h0l.06,0h0l0,0h0a.09.09,0,0,0,0,0,0,0,0,0,1,0,0l.06,0h0a.47.47,0,0,0,.12-.09l.06,0h0a2.23,2.23,0,0,0,.24-.19h0c2.27-1.71,4.48-3.53,6.63-5.42A4.29,4.29,0,0,0,374.26,433.35Z"/><path class="cls-6" d="M209.36,345h0a9.49,9.49,0,0,1-9.47-9.48c0-32.56,11-63.27,30.89-86.47a112.87,112.87,0,0,1,19.35-17.88,9.48,9.48,0,0,1,11.11,15.36,93.38,93.38,0,0,0-16.08,14.86c-17,19.77-26.31,46.1-26.32,74.14A9.47,9.47,0,0,1,209.36,345Z"/></g><g id="Black_outlines_-_to_remove" data-name="Black outlines - to remove"><path d="M304.36,185a121.86,121.86,0,0,0-35.06,5.13A114.08,114.08,0,0,0,235.44,185c-69.64,0-126.08,62.93-126.08,140.56S165.8,466.11,235.44,466.11h1.78A123.93,123.93,0,0,0,304.36,486c74.56,0,135-67.38,135-150.5S378.92,185,304.36,185ZM118.28,325.56c0-72.59,52.55-131.64,117.16-131.64a105.2,105.2,0,0,1,19,1.72c-49.83,22.14-85,76.42-85,139.86,0,49.64,21.56,93.67,54.81,121.09C164.83,450.19,118.28,393.87,118.28,325.56ZM304.36,476.45A113.21,113.21,0,0,1,254,464.6a122.9,122.9,0,0,1-13.11-7.55c-37.06-24.52-62-69.83-62-121.55,0-64.44,38.68-118.92,91.33-135.65a110.65,110.65,0,0,1,14.7-3.61,112.38,112.38,0,0,1,19.42-1.69c69.17,0,125.45,63.23,125.45,141S373.53,476.45,304.36,476.45Z"/></g></svg>