<svg xmlns="http://www.w3.org/2000/svg" viewBox="0 0 512 512"><defs><style>.cls-1{fill:#ef4881;}.cls-2{fill:#049146;}.cls-3{fill:#e22426;}.cls-4{fill:#fff;opacity:0.3;}.cls-5{fill:#ea474f;}</style></defs><g id="BULINE"><circle class="cls-1" cx="256" cy="256" r="256"/></g><g id="Fruits"><path class="cls-2" d="M434.3,70.88s-69-12.47-130.83,38.65C289.06,73.18,262.86,55,262.86,55S213,89.58,213,158.73a131.29,131.29,0,0,0,25.86,79.06c-.77,16.7,1.16,27.37,1.16,27.37s79.06,14.3,143.82-50.46S434.3,70.88,434.3,70.88Z"/><path d="M434.3,70.88a121.58,121.58,0,0,0-19.57-1.34v10c4.15,0,7.71.17,10.53.38a160.87,160.87,0,0,1-1.9,37.77,164.66,164.66,0,0,1-13.58,43.43,166.79,166.79,0,0,1-33,46.51,164.64,164.64,0,0,1-106.3,48.49c-4,.28-7.61.38-10.87.38-1.41,0-2.75,0-4-.05-2.48-.07-4.66-.19-6.53-.33-.14-1.84-.25-4-.32-6.44-.11-4.23-.07-9.29.32-15,.33-5,.92-10.47,1.9-16.32a164.66,164.66,0,0,1,13.58-43.43,166.65,166.65,0,0,1,33-46.51l1.23-1.21c2.71-2.67,5.46-5.19,8.22-7.57A164.91,164.91,0,0,1,414.72,79.54v-10h0a174.61,174.61,0,0,0-111.25,40C289.06,73.17,262.86,55,262.86,55S213,89.58,213,158.73a131.33,131.33,0,0,0,25.86,79.06c-.77,16.7,1.16,27.37,1.16,27.37a121.64,121.64,0,0,0,19.58,1.34,174.7,174.7,0,0,0,124.24-51.8C448.61,149.94,434.3,70.88,434.3,70.88ZM223,158.73a122.1,122.1,0,0,1,39.85-90.81,123.36,123.36,0,0,1,32.62,48.61c-1.68,1.55-3.34,3.15-5,4.81a174,174,0,0,0-50.16,100.59A121.55,121.55,0,0,1,223,158.73Z"/><circle class="cls-3" cx="235.65" cy="326.5" r="160"/><path class="cls-4" d="M117.35,336.49a9.91,9.91,0,0,1-9.91-9.68c-1.07-43.7,23.78-86.46,63.3-108.93a9.92,9.92,0,1,1,9.81,17.24c-33.25,18.92-54.17,54.71-53.28,91.21a9.92,9.92,0,0,1-9.67,10.16Z"/><path d="M342.27,408.3a5,5,0,0,0-7,.69,125.77,125.77,0,0,1-27.37,24.78,5,5,0,0,0,5.56,8.32q1-.69,2.07-1.41l.12-.09h0l.12-.09h0l.12-.09.07,0,.05,0h0l.06,0h0l.05,0h0l.06,0h0l.05,0h0l.06,0h0l.05,0h0l.05,0h0l0,0h0a.1.1,0,0,1,.05,0h0l.06,0h0a.1.1,0,0,1,0,0h0l0,0h0l0,0h0l0,0h0l0,0h0a.1.1,0,0,0,0,0h0l0,0h0l0,0h0l0,0,0,0,0,0h0l0,0,0,0,0,0h0l0,0,0,0,0,0,0,0,0,0,0,0,0,0,0,0,0,0,0,0,0,0,.05,0,0,0,0,0,0,0,0,0,0,0,0,0,0,0,0,0,0,0,0,0,0,0,.05,0,0,0,0,0,0,0a.1.1,0,0,0,.05,0h0l0,0,0,0,0,0h0l.06-.05h0l0,0h0l.06,0v0l0,0,0,0,0,0h0l0,0h0l.06-.05h0l0,0h0l.07-.05h0l.11-.08h0l.11-.08s0,0,0,0l.07,0h0l0,0h0l.07-.05,0,0h0l.08-.06.11-.09h0l.12-.08h0a.94.94,0,0,0,.12-.09q4.71-3.56,9.09-7.52l.23-.2a.52.52,0,0,1,.11-.1h0l.11-.1.07-.06h0l.11-.1.1-.1h0l.11-.1h0l.1-.09a0,0,0,0,1,0,0l.07-.06,0,0h0l.06-.06h0l0,0h0l.06-.05h0l.11-.1a0,0,0,0,1,0,0l.1-.09h0l.06-.06h0l0,0h0l.06-.05h0l0,0a0,0,0,0,0,0,0l.06,0s0,0,0,0l0,0h0l.05-.05h0l0,0h0a.12.12,0,0,1,.05-.05l0,0,0,0h0l0,0h0l.09-.09,0,0,0,0,0,0,0,0,0,0,0,0,0,0,0,0s0,0,0,0l0,0,0,0,0,0,.06-.06,0,0,0,0,0,0,0,0,0,0,0,0,0,0,0,0,0,0,0,0,0,0,0,0,0,0,0,0,0,0,0,0,0,0s0,0,0,0l0,0,0,0,0,0a0,0,0,0,0,0,0l0,0,0,0,0,0,0,0,0,0h0l0-.05h0l0,0h0l0,0,0,0,0,0h0l0,0,0,0,0,0h0s0,0,0,0l0,0,.05,0h0l.05,0h0l.05-.05h0s0,0,0,0h0l.05,0h0l0,0h0l.05-.05h0l0,0h0s0,0,.05-.05h0a.94.94,0,0,0,.1-.1h0l.1-.11h0l.1-.11h0s0,0,.05-.05h0l.06-.05.05-.05h0l.11-.1h0l.22-.22h0q4.62-4.64,8.8-9.72A5,5,0,0,0,342.27,408.3ZM353,391.72a4.93,4.93,0,0,0-2.55-.7,5,5,0,0,0-4.31,2.44l-.24.4a5,5,0,0,0,8.57,5.16l0,0,.17-.29.09-.16A5,5,0,0,0,353,391.72Zm15.51-55.19-.45,0a5,5,0,0,0-5,4.56,124,124,0,0,1-8.7,35.84,5,5,0,0,0,9.26,3.78h0l.06-.13h0a.69.69,0,0,0,.05-.13h0l0-.07a.14.14,0,0,1,0-.06v0s0,0,0-.06l0-.06s0,0,0,0a.14.14,0,0,1,0-.06l0-.07h0a.14.14,0,0,0,0-.06h0a.14.14,0,0,0,0-.06v0s0,0,0-.05h0a.14.14,0,0,1,0-.06v0s0,0,0-.05h0l0-.06s0,0,0,0,0,0,0,0,0,0,0,0a.14.14,0,0,0,0-.06v0s0,0,0,0v0a.14.14,0,0,1,0-.06v0a.05.05,0,0,1,0,0v0l0-.06v-.06s0,0,0,0l0,0a0,0,0,0,0,0,0l0,0a0,0,0,0,1,0,0,.14.14,0,0,1,0-.06v-.06s0,0,0,0a.08.08,0,0,0,0-.05l0,0a56193310025.88,56193310025.88,0,0,1,0-.06l0-.05s0,0,0,0,0,0,0,0l0,0h0l0-.07s0,0,0,0,0,0,0,0l0-.09a0,0,0,0,0,0,0s0-.09.05-.13V378h0a.41.41,0,0,1,0-.08h0s0,0,0,0h0l0-.08s0,0,0,0a1.12,1.12,0,0,1,.05-.13h0c0-.05,0-.09.05-.13h0l.21-.58a133.6,133.6,0,0,0,5.1-17.05A135.43,135.43,0,0,0,373,341.94,5,5,0,0,0,368.5,336.53Z"/><circle class="cls-5" cx="231" cy="331" r="55"/><path d="M231,301.84l8.9,16.28a10,10,0,0,0,4,4l16.28,8.9-16.28,8.9a10,10,0,0,0-4,4L231,360.16l-8.9-16.28a10,10,0,0,0-4-4L201.84,331l16.28-8.9a10,10,0,0,0,4-4l8.9-16.28M231,281l-17.68,32.32L181,331l32.32,17.68L231,381l17.68-32.32L281,331l-32.32-17.68L231,281Z"/></g><g id="Black_outlines_-_to_remove" data-name="Black outlines - to remove"><path d="M235.65,176.5a150,150,0,1,1-106.07,43.93A149,149,0,0,1,235.65,176.5m0-10a160,160,0,1,0,160,160,160,160,0,0,0-160-160Z"/></g></svg>