<svg xmlns="http://www.w3.org/2000/svg" viewBox="0 0 512 512"><defs><style>.cls-1{fill:#7a5da7;}.cls-2{fill:#d71f27;}.cls-3{fill:#fff;opacity:0.3;}</style></defs><g id="BULINE"><circle class="cls-1" cx="256" cy="256" r="256"/></g><g id="Fruits"><path class="cls-2" d="M300,111.08,316,36,270.71,65.28,256,36,241.37,65.28,196,36l16,75.13C128.32,130.93,66,206.16,66,296c0,104.93,85.07,190,190,190s190-85.07,190-190C446,206.16,383.76,130.93,300,111.08Z"/><path d="M397.78,380.61a5,5,0,0,0-6.9,1.51,161.24,161.24,0,0,1-23.83,29.06,5,5,0,1,0,6.93,7.2l.82-.79.45-.44.23-.23,0,0h0s0,0,0,0l.23-.22.18-.18,0,0h0l0,0h0l.17-.16s0,0,0,0l0,0h0s0,0,0,0l.13-.13h0l0,0h0a.08.08,0,0,0,0,0h0l.12-.13h0l0,0h0l0,0h0l.17-.16v0l0,0v0l0,0h0l.13-.13,0,0h0l0,0h0l0,0a.8.8,0,0,0,.13-.13h0s0,0,0,0h0l.16-.17h0l0,0h0l0,0h0l.16-.17h0a.08.08,0,0,0,0,0h0l0,0,.13-.13h0l0,0a0,0,0,0,0,0,0l0,0h0l.13-.13s0,0,0,0h0a.08.08,0,0,1,0,0h0l0,0h0l.12-.12h0l0,0h0l0,0h0l.11-.13h0l0,0h0l0,0h0a.08.08,0,0,0,0,0h0l.07-.08h0l0,0h0a.08.08,0,0,0,0,0h0l0,0h0l.12-.13h0l0,0h0l0,0,0,0,0,0h0l.12-.13h0l0,0h0a.08.08,0,0,0,0,0h0l.12-.13h0a.08.08,0,0,0,0,0,0,0,0,0,0,0,0l0,0,.17-.18h0l0,0h0s0,0,0,0h0l.12-.13h0s0,0,0,0h0l0,0a0,0,0,0,1,0,0l.16-.17h0l0,0h0l0,0,.13-.14,0,0h0l0,0h0l.17-.18,0,0v0l0,0h0l.12-.13h0l0,0h0l0,0h0l.12-.13,0,0,0,0,0,0h0l0,0a0,0,0,0,1,0,0l.11-.13h0l0,0h0l0,0h0l.12-.12h0l0,0h0l0,0h0l0,0h0l.11-.12v0l0,0h0l0,0h0l.16-.18a0,0,0,0,1,0,0l0,0h0l0,0h0a.74.74,0,0,0,.12-.13h0l0,0h0l0,0h0l.12-.14,0,0h0l0,0h0l.16-.18h0l0,0a0,0,0,0,0,0,0l0,0h0l.11-.13a0,0,0,0,0,0,0l0,0h0l0,0h0a1.37,1.37,0,0,0,.16-.18h0l0,0h0l.16-.18,0-.05h0l0,0h0l.16-.19,0,0h0l.2-.24h0l0-.05.16-.19h0l0,0v0l.16-.18,0-.05h0l0,0h0c.05-.07.1-.12.16-.19l0-.05.21-.24h0c.06-.08.13-.15.2-.23h0l0,0,.16-.19h0l0,0h0l.2-.23h0l0,0,.17-.19,0-.05h0l.2-.23h0l0,0h0l.15-.18h0a.08.08,0,0,1,0,0h0l.2-.24h0l0,0h0l.15-.18h0l0,0h0l.15-.18v0l0,0a0,0,0,0,1,0,0l0,0h0l.15-.19h0l0-.05h0l.15-.19h0l0,0h0l0,0h0a.76.76,0,0,0,.11-.14h0l0-.05h0l0,0h0c.06-.06.1-.12.16-.19l0-.05,0-.05h0l.16-.18h0l0,0h0l.15-.19h0l0,0a0,0,0,0,1,0,0l0,0h0l.12-.14,0,0h0l0,0h0l.16-.19h0l0,0h0c.05-.06.1-.13.16-.19l0-.05h0l0,0h0l.15-.19h0l0,0h0l.15-.18v0l0,0h0l0,0h0l.1-.14h0l0,0h0l0,0h0l0,0v0l.1-.12v0l0,0v0l0,0v0a.76.76,0,0,0,.11-.14l0,0h0s0,0,0,0v0l0,0h0l.1-.13h0l0,0v0l0,0h0a1.13,1.13,0,0,1,.1-.13h0l0,0,0,0,0,0h0l0,0s0,0,0,0l.06-.07v0l0,0v0l0,0,0,0,0,0s0,0,0,0l0,0h0l.06-.08v0l0,0,0,0,0,0,0,0,0,0s0,0,0,0l.05-.06,0,0,0,0,0,0,0,0,0,0,0,0a0,0,0,0,1,0,0l0,0,0-.05,0,0,0,0,0,0,0,0,0,0s0,0,0,0l0,0,0,0,0,0s0,0,0,0l0,0,0,0,0,0s0,0,0,0l0,0,0,0v0l0-.06,0,0,0,0,0,0s0,0,0,0l0,0,0,0,0,0,0-.05h0l0-.05v0l0,0,0,0,0,0v0l0-.05.05-.06v0l0,0v0l0,0,0,0,0,0v0l0-.06h0l0-.06h0l0,0,0,0,0,0v0l0-.05h0l0-.06h0l0-.05h0l0-.05h0l0-.05h0l.09-.12h0l0-.05v0s0,0,0,0v0l.09-.12,0-.05v0l0,0v0l.14-.18h0l0-.05h0l0-.06.09-.12h0l0-.05h0l0-.06.14-.19.05-.06h0c1.88-2.59,3.68-5.25,5.42-8A5,5,0,0,0,397.78,380.61Zm-38,43.77a5,5,0,0,0-7-1l-.38.28a5,5,0,0,0,3,9,4.93,4.93,0,0,0,3-1l.19-.14s0,0,0,0l.15-.11,0,0A5,5,0,0,0,359.77,424.38Zm-16.2,11.55a5,5,0,0,0-4.32-2.47,4.91,4.91,0,0,0-2.52.69,159.64,159.64,0,0,1-34.41,15,5,5,0,0,0,1.44,9.79,4.8,4.8,0,0,0,1.44-.22q7.8-2.34,15.25-5.41h0l.28-.12.36-.15h0l.07,0,.21-.09.07,0h0l.28-.12h0l.06,0h0l.07,0,.21-.09h0l.07,0,.21-.09h0l.06,0h0l.06,0h0l.07,0,.14-.06h0l.06,0h0l.05,0h0l.07,0h0l.07,0,.07,0h0l.05,0h0l.05,0h0l.06,0h0l.07,0h0l.05,0h0l0,0h0l.05,0h0l.06,0h0l.06,0h0l.05,0h0l0,0h0l0,0h0l.05,0h0l.06,0h0l0,0h0l0,0h0l0,0h0l.07,0h0l0,0h.07l0,0h0l0,0h0l0,0,.06,0,0,0h0l0,0h0l0,0H325l0,0h0l.06,0,0,0h0l0,0h.06l0,0h0l0,0h0l.06,0h0l0,0h0l0,0h0l0,0h0l0,0,.07,0h.06l0,0h0l0,0h0l0,0h0l0,0,.06,0,0,0h0l0,0h0l0,0h.06l.14-.07h0l0,0h0l0,0h0l0,0h0l.15-.06h0l0,0h0l0,0h0l.05,0h0l.15-.08h0l0,0h0l.05,0h0l.05,0,.17-.08h0l.05,0h0l.05,0h0l.17-.08.05,0h0l.05,0h0l.05,0,.18-.08,0,0h0l0,0h0l.29-.14.05,0h0l.28-.13h0l.05,0h0l.28-.14h0q6.38-3.06,12.45-6.61A5,5,0,0,0,343.57,435.93Z"/><path class="cls-3" d="M106,305.87A9.92,9.92,0,0,1,96.12,296a158.2,158.2,0,0,1,17.42-72.65A161.3,161.3,0,0,1,160.07,168,9.92,9.92,0,1,1,172,183.88,139,139,0,0,0,116,296,9.92,9.92,0,0,1,106,305.87Z"/></g><g id="Black_outlines_-_to_remove" data-name="Black outlines - to remove"><path d="M446,296c0-89.79-62.28-165-146-184.87L316,36,270.71,65.28,256,36,241.37,65.28,196,36l16,75.13a190.38,190.38,0,0,0-123.2,94.57h0l0,0h0v0l0,0a2,2,0,0,0-.13.25l-.14.25h0v0l-.15.27h0l-.24.45h0a2.12,2.12,0,0,1-.11.21h0s0,0,0,0l-.07.13a0,0,0,0,0,0,0h0v0l-.16.31h0l0,.05v0l0,0h0l0,.06h0l-.07.13h0c-.11.2-.21.41-.31.62-.47.91-.94,1.82-1.39,2.73-.11.22-.22.44-.32.66q-.7,1.41-1.38,2.85l-.51,1.08-1,2.24c-.28.62-.55,1.25-.82,1.87s-.42,1-.63,1.46-.41.92-.6,1.39l0,.07h0a.14.14,0,0,0,0,.06l0,.07h0a3.93,3.93,0,0,0-.18.43h0s0,0,0,.06h0a.14.14,0,0,0,0,.06v0a.08.08,0,0,0,0,0v0s0,0,0,0v0l0,.05s0,0,0,0,0,0,0,0v0s0,0,0,0,0,0,0,0,0,0,0,.05v0l0,.06h0a.88.88,0,0,1,0,.15s0,0,0,0a.14.14,0,0,1,0,.06s0,0,0,0h0s0,0,0,0a.1.1,0,0,0,0,0l0,0s0,0,0,0a0,0,0,0,0,0,0v0l0,0v0a.08.08,0,0,1,0,0,0,0,0,0,1,0,0s0,0,0,0l0,0s0,0,0,0l0,0s0,0,0,0,0,0,0,0,0,0,0,0h0s0,0,0,0-.07.17-.11.26a.14.14,0,0,0,0,.06h0a.11.11,0,0,0,0,.05v0l0,0s0,0,0,0l0,0s0,0,0,0l0,.05h0a.14.14,0,0,1,0,.06h0l0,.06c-.07.2-.16.4-.23.61l0,.06-.32.84-1,2.79-.7,1.92c-.47,1.31-.92,2.63-1.36,4l-.21.61a1.16,1.16,0,0,0,0,.18,187,187,0,0,0-5.09,18.79c0,.1-.08.2-.1.3a1.25,1.25,0,0,0,0,.19c0,.11,0,.22-.08.33a4.46,4.46,0,0,0-.07.51q-1.93,9.28-3,18.88c0,.1,0,.2-.06.31a189.17,189.17,0,0,0-1,19.59v.3h0a.2.2,0,0,1,0,.07v.38a1.7,1.7,0,0,0,0,.22v.1a1.48,1.48,0,0,1,0,.21v.48s0,0,0,.06v.63s0,0,0,0l0,.77a.13.13,0,0,1,0,.06l0,.7v2.31l0,.56a0,0,0,0,1,0,0l0,.8a.07.07,0,0,0,0,.05v.62s0,0,0,0v.44h0s0,.09,0,.13V305a1.7,1.7,0,0,0,0,.22v.38a1.79,1.79,0,0,1,0,.23c.16,3,.38,6,.68,9h0c0,.07,0,.15,0,.22h0a.3.3,0,0,1,0,.13v0a.13.13,0,0,1,0,.06v0s0,.06,0,.09v0s0,0,0,.05v.07a.13.13,0,0,0,0,.06v.1a.22.22,0,0,1,0,.08v.05a.13.13,0,0,1,0,.06V316s0,0,0,.08v0a5,5,0,0,0,.11.56q1,9.45,3,18.61a5,5,0,0,0,.06.54l.06.3a2.25,2.25,0,0,1,0,.22,4.66,4.66,0,0,0,.23.75q2,9.09,4.87,17.85a5.52,5.52,0,0,0,.15.68h0a.19.19,0,0,0,0,.07h0s0,0,0,.06h0s0,0,0,.06v0a.14.14,0,0,1,0,.06h0a.11.11,0,0,0,0,.07.64.64,0,0,0,0,.07h0a.19.19,0,0,1,0,.07l0,.07h0c0,.05,0,.1,0,.15h0a.14.14,0,0,0,0,.06v0s0,0,0,.05a0,0,0,0,0,0,0s0,0,0,.05v0s0,0,0,.05a0,0,0,0,1,0,0,.06.06,0,0,1,0,0l0,0a0,0,0,0,0,0,0,.08.08,0,0,0,0,0v0s0,0,0,0,0,0,0,0a.08.08,0,0,1,0,0,.06.06,0,0,1,0,0l0,0v0l0,.05h0c0,.09.07.18.1.27a.25.25,0,0,0,0,.07.14.14,0,0,0,0,.06h0s0,0,0,.05h0a.14.14,0,0,1,0,.06h0a.19.19,0,0,1,0,.07h0a.25.25,0,0,0,0,.07,187.78,187.78,0,0,0,9,21.69l.32.64h0l0,.06,0,.06h0l0,.06h0l0,.05v0a.13.13,0,0,0,0,.05h0a.14.14,0,0,0,0,.06h0A2.53,2.53,0,0,0,86,381h0l0,.06h0l0,.05s0,0,0,0a.08.08,0,0,1,0,0,0,0,0,0,1,0,0s0,0,0,0v0l0,0s0,0,0,0l0,0a0,0,0,0,0,0,0l0,0v0l0,.05v0a.05.05,0,0,1,0,0s0,0,0,0a.08.08,0,0,1,0,0s0,.07.06.1,0,0,0,0v0l0,0,0,0s0,0,0,0l0,0v0l0,0,0,0s0,0,0,0l0,0v0l0,0,0,0v0l0,0a.05.05,0,0,0,0,0s0,0,0,0l0,0s0,0,0,0l0,.05h0a2,2,0,0,1,.1.21h0l0,.06h0l0,.06h0l0,.06h0l0,.05s0,0,0,0a.08.08,0,0,0,0,.05v0s0,0,0,.05v0l0,.05h0l0,.05v0c.05.09.1.18.14.27a470363672766,470363672766,0,0,1,.08.14h0l0,.06h0l0,.06h0l0,.06h0l0,.05h0l0,.06,0,.07h0a4.11,4.11,0,0,0,.21.42l.07.14,0,.06a.16.16,0,0,1,0,.07c.15.28.3.56.45.82,1.16,2.19,2.38,4.36,3.63,6.5a5.17,5.17,0,0,0,.55.75q4.62,7.8,10,15.11a4.73,4.73,0,0,0,.47.81c.12.15.22.3.33.45a5.66,5.66,0,0,0,.57.62h0q5.47,7.31,11.63,14.06a4.72,4.72,0,0,0,.51.69l0,0,0,0,0,0,0,0,.12.14h0l0,.05h0l.09.1.06.05c1.79,1.93,3.61,3.82,5.48,5.69,0,.05.11.09.15.14a0,0,0,0,1,0,0l.14.14h0l0,.05h0l.09.09h0l.06,0h0l.13.14,0,0,0,0,0,0,.07.07v0l0,0h0l.07.07,0,0,0,0,0,0,0,0,0,.05.06.06,0,0,0,0,0,0,.06.06s0,0,0,0,0,0,0,0l.06,0,0,0,0,0,0,0,.06.06s0,0,0,0l0,.05,0,0,0,.05,0,0,0,.06,0,0,0,0,0,0,.06.06a0,0,0,0,0,0,0,.1.1,0,0,0,0,0l0,0,.06.06h0l.05.06,0,0,0,.05h0l.06.06,0,0,0,.05h0l.08.07.05.06h0l.06.07h0l.06.06,0,0,.05.06h0a.2.2,0,0,0,.07.06h0l0,.06h0l.06.06v0l.06.05s0,0,0,0l.07.06.06.07a0,0,0,0,1,0,0l.07.07h0l.06.07h0l.06.06h0l.06.07h0l.06.06h0l.07.07h0l.06.06h0l.06.06,0,0,.06.06h0l.07.06v0l.06,0,0,0,.06.06,0,0,.06,0s0,0,0,0l.07.06h0l.06.06h0l.07.06h0l.08.07a.46.46,0,0,0,.07.07h0l.06,0a0,0,0,0,0,0,0,.23.23,0,0,1,.07.07h0l.06.05,0,0,.07.06h0l.06.06,0,0,.13.13,0,0,.06.05h0l.06.06,0,0,.06.06h0l.06.06,0,0a.12.12,0,0,0,0,.05v0l.06.05,0,0s0,0,0,.05h0l.07.06,0,0,0,0,0,0,.06.06,0,0s0,0,0,0l0,0,.06.06,0,0,0,.05,0,0,.06.05,0,0,0,0,0,0,.06,0,0,0,0,.05,0,0,.06.06,0,0,.05,0,0,0,.06.05,0,0,0,0h0s0,0,.05.05l0,0,0,0,0,0,.06,0,0,0,0,0,0,0,0,0,0,0,0,0,0,0s0,0,0,0l0,0,0,0,0,0,0,0,.06.05,0,0,0,0,0,0,.09.09,0,0,0,0,.06.06,0,0,0,0,0,0a.18.18,0,0,1,.07.05l0,0,0,0,0,0,.06.07,0,0,0,0,0,0,0,0,0,0,.07.05,0,0,.13.12,0,0,0,0,0,0,.08.07,0,0,0,0h0l.08.09h0l.05,0v0l.08.07,0,0,0,0h0l.09.07h0l0,0h0l.09.08h0l0,.05h0l.09.08h0l0,0h0l.1.09h0l0,.05h0l.1.09,0,0h0l.14.12h0l.15.14h0l.15.13a1.15,1.15,0,0,0,.17.14h0q6,5.15,12.43,9.77l.17.13h0l.17.12h0l.16.12h0l.16.12h0l.16.11h0l.12.09a4.32,4.32,0,0,0,.78.44q7.41,5.22,15.33,9.74a5.28,5.28,0,0,0,.75.53l.47.26a5.33,5.33,0,0,0,.85.37q7.88,4.35,16.19,8a4.67,4.67,0,0,0,.85.48,188.84,188.84,0,0,0,38.17,11.77,4.62,4.62,0,0,0,1,.09q8.76,1.66,17.78,2.51a5.1,5.1,0,0,0,1,.19l.38,0h.14a5.11,5.11,0,0,0,1,0c5.08.4,10.22.62,15.4.62.87,0,1.74,0,2.6,0a5.55,5.55,0,0,0,1,.08l1.23,0a193,193,0,0,0,19.51-1.5,189,189,0,0,0,18.9-3.4,5.1,5.1,0,0,0,.69-.24q9-2.13,17.71-5.11a5.72,5.72,0,0,0,.79-.2l.51-.17a4.46,4.46,0,0,0,.73-.35q8.66-3.08,16.92-7a4.59,4.59,0,0,0,.81-.29l.12-.06h0l.05,0h0l.05,0h0l.05,0h0l.05,0h0l.05,0h0l0,0h0l0,0h0a.08.08,0,0,1,0,0h0l.09-.05h.06l0,0h0l0,0h0l0,0,0,0,.05,0h0l0,0h0l.05,0h0l0,0h0l.06,0h0l.34-.17.07,0h0l.06,0h0l.06,0h0l.06,0h0a189,189,0,0,0,18.81-10.58h0l.07,0h0l.06,0h0l.06,0h0l.05,0h0l.06,0h0l.06,0h0l.07,0,.06,0,.13-.08.06,0h0a.1.1,0,0,1,0,0h0l0,0h0l0,0,0,0,0,0,0,0,0,0,0,0,0,0,0,0s0,0,0,0l0,0,0,0,0,0h0l.08-.05,0,0,0,0h0l0,0h0l0,0h0l.05,0h0l0,0h0l0,0,0,0,0,0,0,0,0,0h0l0,0a0,0,0,0,0,0,0l.3-.18.05,0h0l.05,0h0l0,0a0,0,0,0,0,0,0l.06,0h0q5.56-3.66,10.83-7.71a4,4,0,0,0,.42-.4q7.47-5.76,14.34-12.23a4.46,4.46,0,0,0,.43-.33c.12-.13.24-.24.36-.35a3.73,3.73,0,0,0,.26-.3,192.65,192.65,0,0,0,13.24-14c.07-.07.15-.13.22-.21.58-.68,1.13-1.38,1.7-2.06.11-.13.21-.26.32-.38.44-.55.9-1.08,1.34-1.63h0a.1.1,0,0,1,0-.05h0l0-.05h0l0,0h0l0-.05.26-.33h0l0,0v0a.08.08,0,0,0,0,0h0l0,0s0,0,0,0l0,0,0,0,0,0,0,0,0,0,0,0,0,0,0,0,0,0,0,0,0-.06v0l0,0,0,0,0,0s0,0,0,0l0,0,0,0,0,0,0,0,0,0,0,0,0,0,0,0,0,0,0,0,0,0,0,0,0,0,0,0,0,0,0,0,0,0,0-.05h0s0,0,0,0v0l0,0v0l0,0,0,0,0,0,0,0,0,0,0,0,0,0s0,0,0,0l0,0a0,0,0,0,1,0,0l0,0h0l.14-.19h0l0-.05h0l0,0s0,0,0,0l0,0a0,0,0,0,1,0,0,.05.05,0,0,1,0,0s0,0,0,0l0,0s0,0,0,0l0,0v0l0,0v0a.1.1,0,0,1,0,0h0l.14-.18h0l.05,0s0,0,0,0a.1.1,0,0,1,0,0h0l0-.05h0l0-.05h0l0-.06h0s0,0,0,0h0l0-.05h0l0-.06.15-.18h0a.13.13,0,0,1,0-.05h0l0-.06a0,0,0,0,0,0,0l0,0h0l0-.05h0l0-.05h0l0-.05h0l.23-.31h0l0-.05h0l0-.05h0s0,0,0-.05h0l0-.05h0l0-.05h0l0-.05h0c.06-.09.13-.17.18-.25h0l.05-.05h0l0-.05h0l0-.05h0l0-.05h0l0-.06s0,0,0,0a.09.09,0,0,1,0-.06l.05-.06c.06-.08.13-.16.19-.25h0a.09.09,0,0,1,0-.06h0a.1.1,0,0,0,0-.05h0l0-.06h0l0-.05h0l0-.05h0l0-.05h0s0,0,0-.05h0l.14-.18.05-.07h0l0-.05,0,0,0,0a0,0,0,0,0,0,0l0,0,0,0,0,0,0,0,0,0v0l0-.05h0l0-.05h0l.13-.19h0l0,0v0l0,0v0l0,0s0,0,0,0l0,0s0,0,0,0l0,0a0,0,0,0,0,0,0l0,0v0l0-.05v0l0,0a0,0,0,0,0,0,0l.09-.12a0,0,0,0,1,0,0l0,0,0,0,0,0v0l0,0,0,0,0,0,0,0,0,0s0,0,0,0l0,0,0,0,0,0s0,0,0,0l0,0s0,0,0,0l0,0s0,0,0,0l0-.06v0l0,0v0l0,0,0,0,0,0s0,0,0,0l0,0,0,0,0,0,0,0,0,0,0,0,0,0s0,0,0,0l0,0,0,0,0,0,0,0,0-.05h0l.05-.06h0l0-.06,0,0,0,0,0,0,0,0,0,0a.08.08,0,0,0,0,0l0,0s0,0,0,0l0,0,0,0,0,0,0,0,0,0,0,0,0,0v0a.11.11,0,0,0,0-.05h0a1.3,1.3,0,0,1,.1-.15h0l0,0,0,0,0,0,0,0,0,0s0,0,0,0l0,0,0,0,0,0,0,0s0,0,0,0v0l0,0a0,0,0,0,0,0,0l0,0,.16-.22h0l0,0v0l0,0v0l0,0v0s0,0,0-.05v0s0,0,0,0v0l0,0h0s0,0,0-.05l.25-.35h0a.13.13,0,0,1,0-.05h0l0-.05h0l0-.05a.21.21,0,0,0,0-.06c.12-.15.22-.31.33-.47q4.62-6.78,8.65-14c.52-.94,1-1.88,1.56-2.82l0-.09v0a187.8,187.8,0,0,0,8.48-17.9l.06-.12.07-.16a0,0,0,0,1,0,0v0c0-.08.07-.16.1-.23s0-.1.05-.14a189.18,189.18,0,0,0,6.49-18.74h0v0c.1-.36.21-.71.31-1.07h0v-.06h0c0-.1.05-.2.08-.3h0a.06.06,0,0,1,0,0,0,0,0,0,1,0,0v0l.06-.24,0,0a0,0,0,0,1,0,0s0,0,0,0a0,0,0,0,1,0,0v0c0-.06,0-.12.05-.18l.09-.32h0l0-.06h0s0,0,0-.06h0l0-.06h0s0,0,0-.06h0l0-.06h0a190,190,0,0,0,5.46-28.8h0a.17.17,0,0,1,0-.07h0A191.66,191.66,0,0,0,446,296ZM383.32,423.23a182.27,182.27,0,0,1-20.18,17.43l-.12.09c-1.07.8-2.15,1.58-3.23,2.34l-.58.41c-1,.68-1.93,1.34-2.9,2l-1,.67c-.86.58-1.73,1.14-2.6,1.7l-1.4.88-2.35,1.45-1.67,1c-.74.43-1.47.87-2.21,1.29l-1.76,1c-.74.42-1.49.84-2.25,1.24l-1.51.8c-.86.45-1.72.9-2.59,1.34l-.53.26A180.13,180.13,0,0,1,86.5,235.34c.18-.51.37-1,.56-1.52.3-.81.6-1.63.91-2.44.17-.45.35-.9.53-1.34.4-1,.81-2,1.23-3l.36-.87a178.75,178.75,0,0,1,10.41-20.81s0-.1.07-.15a181.77,181.77,0,0,1,10.22-15.55l.12-.13.28-.38a.54.54,0,0,0,.07-.13c1.37-1.83,2.76-3.65,4.19-5.44q3.7-4.62,7.7-9l.08-.07a183.39,183.39,0,0,1,13.41-13.19L137,161c.93-.83,1.87-1.64,2.82-2.44l1-.82c.79-.66,1.59-1.31,2.39-1.95l1.1-.88c1.08-.86,2.16-1.7,3.26-2.53l1-.72c.86-.64,1.71-1.27,2.58-1.89a179.87,179.87,0,0,1,63.22-28.92A10,10,0,0,0,221.82,109l-11-51.56,25.1,16.24a10,10,0,0,0,14.38-3.93L256,58.31l5.72,11.44a10,10,0,0,0,14.38,3.93l25.1-16.24-11,51.56s0,.07,0,.1l-.59-.1h0l-.07,0h-.07s0,0,0,0h-1.07l-.15,0h-.48s0,0,0,0h-.36s0,0-.05,0H287l-.58-.1h-.16s0,0-.06,0h-.07a0,0,0,0,0,0,0h-.15l-.06,0h-.16l-.07,0h-.07l-.15,0a194,194,0,0,0-19.58-2h-.38l-1-.05h-.3a0,0,0,0,1,0,0H262s0,0,0,0h-1.63c-.31,0-.63,0-.95,0a5,5,0,0,0-3.53,8.62,5.06,5.06,0,0,0,3.36,1.38,179.82,179.82,0,0,1,37.55,4.6,5.47,5.47,0,0,0,.8.1l.17,0q8.5,2,16.75,4.87c.16.07.3.16.47.22l.44.15a5.29,5.29,0,0,0,.54.13,177.43,177.43,0,0,1,16.52,6.8c.15.09.3.18.46.26a180.58,180.58,0,0,1,32.3,19.7c.11.08.23.14.34.21a180.82,180.82,0,0,1,13.8,11.71,4.38,4.38,0,0,0,.29.34h0l.35.32a4.23,4.23,0,0,0,.41.33c1.19,1.14,2.37,2.28,3.52,3.45.13.17.27.34.42.5a180.93,180.93,0,0,1,23.56,29.6,6.8,6.8,0,0,0,.46.6q4.71,7.45,8.67,15.33a3.5,3.5,0,0,0,.2.54l.21.43a5.19,5.19,0,0,0,.31.5c2.62,5.35,5,10.85,7.07,16.46,0,.14.06.29.11.43a179.52,179.52,0,0,1,9.25,36.67c0,.18.08.35.12.53.83,5.92,1.36,11.91,1.6,17.93,0,.14,0,.27,0,.41l0,.47c0,.11,0,.22,0,.33Q436,293,436,296q0,6.29-.43,12.51c0,.07,0,.14,0,.21A179.75,179.75,0,0,1,429,345.91a2.7,2.7,0,0,0-.08.39A177.89,177.89,0,0,1,423,363.44c-.06.12-.14.23-.19.36l-.18.44a3.83,3.83,0,0,0-.2.63A177.75,177.75,0,0,1,414.8,381c-.09.13-.19.25-.27.39a180,180,0,0,1-15.14,23.49l-.5.66c-.6.78-1.2,1.54-1.8,2.3s-1,1.26-1.51,1.88l-.66.79Q389.46,417.09,383.32,423.23Z"/></g></svg>