<svg xmlns="http://www.w3.org/2000/svg" viewBox="0 0 512 512"><defs><style>.cls-1{fill:#3986c7;}.cls-2{fill:#f6efe1;}.cls-3{fill:#eaddc5;}.cls-4{fill:#8ab763;}.cls-5{fill:#010101;}</style></defs><g id="BULINE"><circle class="cls-1" cx="256" cy="256" r="256"/></g><g id="Fruits"><path class="cls-2" d="M52.16,237.49c0-22.26,14.59-42,21.11-62C80,154.63,80,130.17,92.65,112.84c12.74-17.51,36.08-25,53.59-37.75,17.33-12.61,31.61-32.57,52.43-39.33,20.09-6.52,43.29,1,65.55,1s45.46-7.53,65.55-1c20.82,6.76,35.1,26.72,52.43,39.33,17.51,12.74,40.85,20.24,53.59,37.75,12.61,17.33,12.62,41.79,19.38,62.61,6.52,20.09,21.11,39.78,21.11,62,0,21.67-16.55,42-26.06,64.42-8.63,20.32-10.61,46-24.25,65.11-13.4,18.8-37.23,29.37-52.86,45.39-17.23,17.65-27.61,41.65-44.25,53.86-25,18.32-50.69,19.06-64.64,19.06s-39.68-.74-64.64-19.06c-16.64-12.21-27-36.21-44.24-53.86-15.63-16-39.47-26.58-52.87-45.39-13.63-19.13-15.61-44.79-24.25-65.11C68.71,279.53,52.16,259.16,52.16,237.49Z"/><polygon class="cls-3" points="256 51.47 284.93 51.47 270.46 194.18 256 336.88 241.53 194.18 227.07 51.47 256 51.47"/><path class="cls-4" d="M310.82,52.94a41.75,41.75,0,0,1,12.82,1.69C333.09,57.7,342,66,351.41,74.76a207.78,207.78,0,0,0,19.12,16.37,212.74,212.74,0,0,0,21.69,13.32c11.2,6.26,21.78,12.17,27.53,20.06s8,19.66,10.54,32.23a217.21,217.21,0,0,0,6,24.84,203.41,203.41,0,0,0,9.53,22.91c5.46,11.71,10.61,22.77,10.61,33,0,9.71-6.39,21.5-13.14,34-3.9,7.2-7.93,14.64-11.34,22.67-3.77,8.88-6.31,18.14-8.77,27.1-3.56,13-6.92,25.2-13.37,34.25-5.89,8.26-15.52,15.19-25.71,22.53-8.58,6.18-17.45,12.57-25.21,20.52-8.68,8.9-15.68,18.95-21.86,27.82-6.8,9.76-13.22,19-19.92,23.9-20.73,15.22-42.46,15.22-52.9,15.22s-32.17,0-52.9-15.22c-6.7-4.92-13.12-14.13-19.92-23.9-6.18-8.87-13.18-18.92-21.86-27.82-7.75-7.95-16.63-14.33-25.21-20.51-10.19-7.35-19.82-14.28-25.7-22.53-6.46-9.06-9.82-21.3-13.37-34.26-2.46-9-5-18.22-8.78-27.1-3.41-8-7.44-15.47-11.33-22.67C78.39,259,72,247.2,72,237.49c0-10.23,5.16-21.29,10.61-33a203.41,203.41,0,0,0,9.53-22.91,217.21,217.21,0,0,0,6-24.84c2.51-12.57,4.88-24.44,10.54-32.23s16.33-13.8,27.53-20.06a209.24,209.24,0,0,0,21.69-13.32A207.78,207.78,0,0,0,177,74.76C186.45,66,195.35,57.7,204.8,54.63a41.75,41.75,0,0,1,12.82-1.69,184.65,184.65,0,0,1,20.63,1.68,220.5,220.5,0,0,0,26,2,220.5,220.5,0,0,0,26-2,184.65,184.65,0,0,1,20.63-1.68m0-19.84c-15.07,0-31.06,3.67-46.6,3.67s-31.53-3.67-46.6-3.67a61,61,0,0,0-19,2.66c-20.82,6.76-35.1,26.72-52.43,39.33-17.51,12.74-40.85,20.24-53.59,37.75C80,130.17,80,154.63,73.27,175.45c-6.52,20.09-21.11,39.78-21.11,62,0,21.67,16.55,42,26.06,64.42,8.64,20.32,10.62,46,24.25,65.11,13.4,18.81,37.24,29.37,52.87,45.39,17.22,17.65,27.6,41.65,44.24,53.86,25,18.32,50.69,19.06,64.64,19.06s39.68-.74,64.64-19.06c16.64-12.21,27-36.21,44.25-53.86,15.63-16,39.46-26.59,52.86-45.39,13.64-19.13,15.62-44.79,24.25-65.11,9.51-22.38,26.06-42.75,26.06-64.42,0-22.26-14.59-42-21.11-62-6.76-20.82-6.77-45.28-19.38-62.61-12.74-17.51-36.08-25-53.59-37.75-17.33-12.61-31.61-32.57-52.43-39.33a61,61,0,0,0-18.95-2.66Z"/><path d="M146.71,270.65c7.92,0,28.68-14.33,28.68-14.33S154.63,242,146.71,242a14.34,14.34,0,1,0,0,28.67Z"/><path d="M178.29,344c5.6-5.6,30.42-10.14,30.42-10.14s-4.54,24.82-10.14,30.42A14.34,14.34,0,0,1,178.29,344Z"/><path d="M166.31,320.15C173.58,317,187,295.64,187,295.64s-24.73-5-32-1.84a14.34,14.34,0,0,0,11.34,26.35Z"/><path d="M178.29,168c5.6,5.6,30.42,10.14,30.42,10.14s-4.54-24.82-10.14-30.42A14.34,14.34,0,0,0,178.29,168Z"/><path d="M166.31,191.85C173.58,195,187,216.36,187,216.36s-24.73,5-32,1.84a14.34,14.34,0,0,1,11.34-26.35Z"/><path d="M365.29,270.65c-7.92,0-28.68-14.33-28.68-14.33S357.37,242,365.29,242a14.34,14.34,0,1,1,0,28.67Z"/><path d="M333.71,344c-5.6-5.6-30.42-10.14-30.42-10.14s4.54,24.82,10.14,30.42A14.34,14.34,0,0,0,333.71,344Z"/><path d="M345.69,320.15C338.42,317,325,295.64,325,295.64s24.73-5,32-1.84a14.34,14.34,0,0,1-11.34,26.35Z"/><path d="M333.71,168c-5.6,5.6-30.42,10.14-30.42,10.14s4.54-24.82,10.14-30.42A14.34,14.34,0,0,1,333.71,168Z"/><path d="M345.69,191.85C338.42,195,325,216.36,325,216.36s24.73,5,32,1.84a14.34,14.34,0,0,0-11.34-26.35Z"/><path d="M396.5,334.09a5,5,0,0,0-6.63,2.44,50,50,0,0,1-4.67,8.17c-4.86,6.82-12.19,12.45-18.69,17.2a5,5,0,1,0,5.9,8.07c6.13-4.48,12.11-9.14,17-14.63l.15-.17c.44-.49.87-1,1.3-1.51l.07-.08,0,0h0l0,0h0l0,0,0,0s0,0,0,0l0,0h0l0,0h0l0,0s0,0,0,0a.05.05,0,0,1,0,0h0l0,0h0l0,0h0l0,0h0l0,0h0l0,0h0l0,0v0l0,0h0l0,0h0l0,0,0,0,0,0h0l0,0h0l0,0s0,0,0,0l0,0h0l0,0v0l0,0v0l0,0h0l0,0v0l0,0,0,0,0,0h0l0,0,0,0,0,0v0l0,0s0,0,0,0l0,0v0l0,0h0l0,0,0,0,0,0v0l0,0,0,0,0,0v0l0,0h0l0,0,0,0,0,0v0l0,0,0,0v0l0,0,0,0v0l0,0,0,0,0,0h0l0,0v0l0,0,0,0,0,0s0,0,0,0l0,0v0l0,0s0,0,0,0l0,0a0,0,0,0,1,0,0l0,0a0,0,0,0,0,0,0l0,0,0,0,0,0v0l0,0s0,0,0,0l0,0h0v0l0,0,0,0a0,0,0,0,1,0,0l0,0,0,0v0l0,0,0,0v0l0,0v0l0,0,0,0a0,0,0,0,1,0,0l0,0,0,0v0l0,0,0,0v0l0,0v0l0,0,0,0s0,0,0,0v0l0,0,0,0v0l0,0h0l0,0,0,0h0a.08.08,0,0,0,0,0h0l0,0,.06-.09h0l0,0,.09-.14h0l.12-.19q1.29-1.87,2.42-3.84h0l.11-.19.08-.15,0,0h0l.06-.09h0s0,0,0,0h0l0,0h0l0,0h0l0,0h0l0,0h0s0,0,0,0l0-.05h0l0,0s0,0,0,0,0,0,0,0l0-.05h0v-.05l0,0v0l0,0v0l0,0s0,0,0,0,0,0,0,0v0l0,0v0l0,0v-.07l0,0a0,0,0,0,1,0,0v0a.08.08,0,0,0,0,0v0l0,0h0s0,0,0,0h0s0-.07.05-.1v0s0,0,0,0l.05-.1h0s0,0,0,0h0l0,0h0l.06-.11s0,0,0,0h0a.64.64,0,0,0,.08-.14h0a1.09,1.09,0,0,0,.08-.15s0,0,0,0,.06-.11.08-.16q.66-1.28,1.26-2.58A5,5,0,0,0,396.5,334.09Zm-39.44,40.78a5,5,0,0,0-7-.69l-.42.35a5,5,0,0,0,6.38,7.7l.34-.28,0,0A5,5,0,0,0,357.06,374.87Zm-15.75,14.74a5,5,0,0,0-7,.86c-3.36,4.29-6.41,8.67-9.36,12.91-4.72,6.77-9.17,13.17-14,17.88a5,5,0,0,0,7,7.15h0l0,0c.07-.07.15-.14.22-.22l0,0h0l.19-.19,0,0h0c.08-.08.17-.16.25-.25l.19-.19h0l0,0h0l0,0,.18-.19h0l0,0,0,0a1.21,1.21,0,0,1,.16-.16h0l0,0,0,0,.19-.2,0,0,.18-.2h0l0,0h0l0,0,.18-.2h0l.21-.24,0,0,0,0h0l.15-.16,0,0,0,0h0l0,0,.15-.17h0l0,0h0l0,0h0l0,0,.15-.17h0l0,0h0l0,0a0,0,0,0,0,0,0l.14-.16h0l0,0h0l0,0h0l0,0,.12-.13h0l0,0h0l0,0h0l0,0h0l0,0,.09-.1,0,0s0,0,0,0l0,0h0l0,0h0l0,0h0l.11-.13s0,0,0,0l0,0h0s0,0,0,0h0l0,0h0l0,0,.12-.14,0,0h0l0,0h0l0,0h0l.15-.17h0l0,0h0l0,0h0l0,0,.12-.14h0l0,0h0l0,0h0l0,0h0l.12-.14,0,0h0l0,0h0l0,0h0l0,0h0l.11-.13h0l0,0h0l0,0s0,0,0,0l0,0v0s0,0,0,0h0l.08-.09h0l0,0h0l0,0a0,0,0,0,1,0,0,0,0,0,0,1,0,0v0l0,0v0l0,0h0l.08-.1h0l0,0,0,0h0l0,0h0l0,0h0l.07-.09h0l0,0h0l0,0h0l0,0,0,0v0l0,0,0,0,0,0,0,0,0,0,0,0v0l0,0s0,0,0,0l0,0v0s0,0,0,0v0l0,0h0l0,0v0s0,0,0,0v0l0,0s0,0,0,0l0,0v0l0,0v0l0,0s0,0,0,0l0,0,0,0,0,0v0s0,0,0,0v0l0,0,0,0v0l0,0,0,0v0l0,0v0l0,0,0,0,0,0v0l0,0s0,0,0,0l0,0v0l0,0,0,0v0l0,0v0l0,0h0l0,0h0l0,0v0s0,0,0,0v0l0,0,0,0s0,0,0,0h0l0,0h0l0,0h0l0,0h0a.08.08,0,0,0,0,0h0l0,0h0l0,0h0l0,0h0l0,0h0a.27.27,0,0,0,.07-.08h0l0,0h0l0,0h0l0,0h0l0,0h0l.06-.09,0,0,0,0h0l0,0h0l0,0a1.47,1.47,0,0,1,.1-.13h0l0,0h0l0,0,0,0h0l.14-.17h0L326,419l.2-.27h0l.26-.36c2.57-3.42,5.09-7.07,7.66-10.76s5.2-7.42,8-11A5,5,0,0,0,341.31,389.61Z"/></g><g id="Black_outlines_-_to_remove" data-name="Black outlines - to remove"><path class="cls-5" d="M310.82,43.1a51.09,51.09,0,0,1,15.86,2.17C338.2,49,347.88,58,358.12,67.55a199.56,199.56,0,0,0,18.2,15.63A206.46,206.46,0,0,0,397,95.86c12.17,6.8,23.67,13.22,30.69,22.86s9.51,22.44,12.24,36.1a209.52,209.52,0,0,0,5.71,23.72,195.82,195.82,0,0,0,9.1,21.79c5.92,12.73,11.52,24.75,11.52,37.16,0,12.2-7,25.06-14.33,38.67-3.78,7-7.7,14.24-10.93,21.84-3.51,8.27-6,17.21-8.34,25.86-3.8,13.82-7.38,26.88-14.85,37.36-6.83,9.57-17.1,17-28,24.8-8.24,5.93-16.75,12.07-23.91,19.4-8.12,8.32-14.58,17.6-20.83,26.58C337.84,442.45,331,452.32,323,458.21c-23.34,17.12-48.14,17.12-58.73,17.12s-35.39,0-58.73-17.13c-8-5.88-14.89-15.75-22.17-26.2-6.25-9-12.71-18.26-20.82-26.57-7.16-7.34-15.68-13.47-23.92-19.41-10.87-7.83-21.14-15.22-28-24.8-7.47-10.48-11-23.54-14.84-37.36-2.38-8.65-4.83-17.59-8.35-25.86-3.23-7.6-7.14-14.84-10.93-21.84-7.37-13.61-14.33-26.47-14.33-38.67,0-12.41,5.6-24.43,11.53-37.15a196.71,196.71,0,0,0,9.09-21.8,209.52,209.52,0,0,0,5.71-23.72c2.73-13.66,5.31-26.57,12.25-36.1s18.51-16.06,30.68-22.86a204.63,204.63,0,0,0,20.7-12.68,199.56,199.56,0,0,0,18.2-15.63C180.56,58,190.24,49,201.76,45.27a51.09,51.09,0,0,1,15.86-2.17,190.49,190.49,0,0,1,21.78,1.75,214.58,214.58,0,0,0,24.82,1.92A214.58,214.58,0,0,0,289,44.85a190.49,190.49,0,0,1,21.78-1.75m0-10c-15.07,0-31.06,3.67-46.6,3.67s-31.53-3.67-46.6-3.67a61,61,0,0,0-19,2.66c-20.82,6.76-35.1,26.72-52.43,39.33-17.51,12.74-40.85,20.24-53.59,37.75C80,130.17,80,154.63,73.27,175.45c-6.52,20.09-21.11,39.78-21.11,62,0,21.67,16.55,42,26.06,64.42,8.64,20.32,10.62,46,24.25,65.11,13.4,18.81,37.24,29.37,52.87,45.39,17.22,17.65,27.6,41.65,44.24,53.86,25,18.32,50.69,19.06,64.64,19.06s39.68-.74,64.64-19.06c16.64-12.21,27-36.21,44.25-53.86,15.63-16,39.46-26.59,52.86-45.39,13.64-19.13,15.62-44.79,24.25-65.11,9.51-22.38,26.06-42.75,26.06-64.42,0-22.26-14.59-42-21.11-62-6.76-20.82-6.77-45.28-19.38-62.61-12.74-17.51-36.08-25-53.59-37.75-17.33-12.61-31.61-32.57-52.43-39.33a61,61,0,0,0-18.95-2.66Z"/></g></svg>