<svg xmlns="http://www.w3.org/2000/svg" viewBox="0 0 512 512"><defs><style>.cls-1{fill:#a99bcb;}.cls-2{fill:#db4557;}.cls-3{fill:#049146;}.cls-4{fill:#010101;}.cls-5{fill:#ea5c74;}.cls-6{fill:#fff;opacity:0.3;}</style></defs><g id="BULINE"><circle class="cls-1" cx="256" cy="256" r="256"/></g><g id="Fruits"><path class="cls-2" d="M423.83,321c0,8-6.2,15.42-7.3,23.09-1.12,7.86,2.74,16.74.55,24.21s-10.28,13-13.53,20.08-2.1,16.79-6.34,23.37-13.51,9.52-18.65,15.45-6.71,15.5-12.65,20.64-15.61,5.34-22.23,9.6-10.77,13-17.94,16.26-16.44.71-24,2.94-13.95,9.39-21.81,10.51c-7.67,1.09-15.92-4-23.89-4s-16.22,5.07-23.89,4c-7.86-1.12-14.35-8.32-21.81-10.51s-16.94.31-24-2.94-11.36-12-17.94-16.26S152,453,146.09,447.84s-7.5-14.71-12.65-20.65-14.39-8.82-18.65-15.44-3.06-16.19-6.34-23.37-11.3-12.49-13.53-20.08,1.67-16.35.55-24.21c-1.1-7.67-7.3-15.12-7.3-23.09s6.2-15.42,7.3-23.09c1.12-7.86-2.74-16.74-.55-24.21s10.28-13,13.53-20.08,2.1-16.79,6.34-23.37,13.51-9.52,18.65-15.45,6.71-15.5,12.65-20.64,15.61-5.34,22.23-9.6,10.77-13,17.94-16.26,16.44-.71,24-2.94,13.95-9.39,21.81-10.51c7.67-1.09,15.92,4,23.89,4s16.22-5.07,23.89-4c7.86,1.12,14.35,8.32,21.81,10.51s16.94-.31,24,2.94,11.36,12,17.94,16.26,16.31,4.46,22.23,9.6,7.5,14.71,12.65,20.65,14.39,8.82,18.65,15.44,3.06,16.19,6.34,23.37,11.3,12.49,13.53,20.08-1.67,16.35-.55,24.21C417.63,305.58,423.83,313,423.83,321Z"/><path class="cls-3" d="M169.06,119.26c-41.12-34.53-36.79-81.43-36.79-81.43S177.71,25.46,218.83,60s36.79,81.42,36.79,81.42S210.17,153.78,169.06,119.26Z"/><path class="cls-4" d="M152.42,35.67v8h0a94.22,94.22,0,0,1,61.25,22.42,94.52,94.52,0,0,1,34,68.61,90.88,90.88,0,0,1-12.21.81,95.86,95.86,0,0,1-92.29-71.3,93.16,93.16,0,0,1-2.95-19.73,89.2,89.2,0,0,1,12.2-.81v-8m0,0a84.75,84.75,0,0,0-20.15,2.16s-4.33,46.9,36.79,81.43a102.14,102.14,0,0,0,66.4,24.3,84.26,84.26,0,0,0,20.16-2.16S260,94.5,218.83,60a102.14,102.14,0,0,0-66.41-24.31Z"/><path d="M256.28,166.3a5,5,0,0,1-5-5V106.15a5,5,0,0,1,10,0V161.3A5,5,0,0,1,256.28,166.3Z"/><ellipse class="cls-5" cx="217.66" cy="262.52" rx="10" ry="15.71"/><ellipse class="cls-5" cx="175.99" cy="293.95" rx="10" ry="15.71"/><ellipse class="cls-5" cx="253" cy="206" rx="10" ry="15.71"/><ellipse class="cls-5" cx="275.67" cy="251.93" rx="10" ry="15.71"/><ellipse class="cls-5" cx="305.67" cy="301.79" rx="10" ry="15.71"/><ellipse class="cls-5" cx="315.67" cy="220.21" rx="10" ry="15.71"/><ellipse class="cls-5" cx="163" cy="346.46" rx="10" ry="15"/><ellipse class="cls-5" cx="245.83" cy="311.68" rx="10" ry="15.71"/><ellipse class="cls-5" cx="265.83" cy="381.54" rx="10" ry="15.71"/><ellipse class="cls-5" cx="315.83" cy="351.96" rx="10" ry="15.71"/><ellipse class="cls-5" cx="186" cy="401" rx="10" ry="15"/><ellipse class="cls-5" cx="366.5" cy="340.18" rx="10" ry="15.71"/><ellipse class="cls-5" cx="325.5" cy="402.04" rx="10" ry="15.71"/><ellipse class="cls-5" cx="356.5" cy="271.46" rx="10" ry="15.71"/><ellipse class="cls-5" cx="256" cy="441" rx="10" ry="15"/><ellipse class="cls-5" cx="216" cy="362" rx="10" ry="15"/><path d="M379.69,382.17a5,5,0,0,0-6.9,1.51A161.24,161.24,0,0,1,349,412.74a5,5,0,1,0,6.93,7.2l.82-.79.45-.44.23-.23,0,0h0s0,0,0,0l.23-.22.18-.18,0,0h0l0,0h0l.17-.16s0,0,0,0l0,0h0l0,0,.13-.13h0l0,0h0l0,0h0l.12-.13h0l0,0h0l0,0h0l.17-.16v0l0,0v0l0,0h0l.13-.13,0,0h0l0,0h0l0,0,.13-.13h0l0,0h0l.16-.17h0l0,0h0l0,0h0l.16-.17h0a.08.08,0,0,0,0,0h0l0,0,.13-.13h0l0,0a0,0,0,0,0,0,0l0,0h0l.13-.13s0,0,0,0h0a.08.08,0,0,1,0,0h0l0,0h0l.12-.12h0l0,0h0l0,0h0l.11-.13h0l0,0h0l0,0h0a.08.08,0,0,0,0,0h0l.07-.08h0l0,0h0a.08.08,0,0,0,0,0h0l0,0h0l.12-.13h0l0,0h0l0,0,0,0,0,0h0l.12-.13h0l0,0h0a.08.08,0,0,0,0,0h0l.12-.13h0l0,0a0,0,0,0,0,0,0l0,0,.17-.18h0l0,0h0l0,0h0l.12-.13h0s0,0,0,0h0l0,0a0,0,0,0,1,0,0l.16-.17h0l0,0h0l0,0,.13-.14,0,0h0l0,0h0l.17-.18,0,0v0l0,0h0l.12-.13h0l0,0h0s0,0,0,0h0l.12-.13,0,0,0,0,0,0h0l0,0a0,0,0,0,1,0,0l.11-.13h0l0,0h0l0,0h0l.12-.12h0l0,0h0l0,0h0l0,0h0l.11-.12v0l0,0h0l0,0h0l.16-.18a0,0,0,0,1,0,0l0,0h0l0,0h0a.74.74,0,0,0,.12-.13h0l0,0h0l0,0h0l.12-.14,0,0h0l0,0h0l.16-.18h0l0,0a0,0,0,0,0,0,0l0,0h0l.11-.13a0,0,0,0,0,0,0l0,0h0l0,0h0a1.37,1.37,0,0,0,.16-.18h0s0,0,0,0h0l.16-.18,0-.05h0l0-.05h0l.16-.19,0,0h0l.2-.24h0l0-.05.16-.19h0l0,0v0l.16-.18,0-.05h0l0,0h0c.05-.07.1-.12.16-.19l0,0,.21-.24h0c.06-.08.13-.15.2-.23h0l0,0,.16-.19h0l0,0h0l.2-.23h0l0,0L368,407l0-.05h0l.2-.23h0s0,0,0,0h0l.15-.18h0l0,0h0l.2-.24h0l0,0h0l.15-.18h0l0,0h0c0-.06.1-.13.15-.18v0l0,0a0,0,0,0,1,0,0l0,0h0l.15-.19h0l0-.05h0l.15-.19h0l0,0h0a.08.08,0,0,1,0,0h0a.76.76,0,0,0,.11-.14h0l0-.05h0l0,0h0c.06-.06.1-.12.16-.19l0-.05,0-.05h0l.16-.18h0l0,0h0l.15-.19h0l0,0a0,0,0,0,1,0,0l0,0h0l.12-.14,0,0h0s0,0,0,0h0l.16-.19h0l0,0h0c.05-.06.1-.13.16-.19l0-.05h0l0,0h0l.15-.19h0l0,0h0l.15-.18v0l0,0h0l0,0h0l.1-.14h0l0,0h0l0,0h0l0,0v0l.1-.12v0l0,0v0l0,0v0a.76.76,0,0,0,.11-.14l0,0h0s0,0,0,0v0l0,0h0l.1-.13h0l0,0v0l0,0h0a1.13,1.13,0,0,1,.1-.13h0l0,0,0,0,0,0h0l0,0s0,0,0,0l.06-.07v0l0,0v0l0,0,0,0,0,0,0,0,0,0h0l.06-.08v0l0,0,0,0,0,0,0,0,0,0s0,0,0,0l.05-.06,0,0,0,0,0,0,0,0,0,0,0,0a0,0,0,0,1,0,0l0,0,0-.05,0,0,0,0,0,0,0,0,0,0s0,0,0,0l0,0,0,0,0,0s0,0,0,0l0,0,0,0,0,0s0,0,0,0l0,0,0,0v0l0-.06,0,0,0,0,0,0s0,0,0,0l0,0,0,0,0,0,0-.05h0l0-.05v0l0,0,0,0,0,0v0l0-.05.05-.06v0l0,0v0l0,0,0,0,0,0v0l0-.06h0l0-.06h0l0,0,0,0,0,0v0l0-.05h0l.05-.06h0l0-.05h0l0-.05h0l0-.05h0l.09-.12h0l0-.05v0l0,0v0l.09-.12,0-.05v0l0,0v0l.14-.18h0l0-.05h0a.21.21,0,0,1,0-.06l.09-.12h0l0-.05h0l0-.06.14-.19.05-.06h0c1.88-2.59,3.68-5.25,5.42-7.95A5,5,0,0,0,379.69,382.17Zm-38,43.77a5,5,0,0,0-7-1l-.38.28a5,5,0,0,0,3,9,4.93,4.93,0,0,0,3-1l.19-.14,0,0,.15-.11,0,0A5,5,0,0,0,341.68,425.94Zm-16.2,11.55a5,5,0,0,0-4.32-2.47,4.91,4.91,0,0,0-2.52.69,159.64,159.64,0,0,1-34.41,15,5,5,0,0,0,1.44,9.79,4.8,4.8,0,0,0,1.44-.22q7.8-2.34,15.25-5.41h0l.28-.12.36-.15h0l.07,0,.21-.09.07,0h0l.28-.12h0l.06,0h0l.07,0,.21-.09h0l.07,0,.21-.09h0l.06,0h0l.06,0h0l.07,0,.14-.06h0l.06,0h0l.05,0h0l.07,0h0l.07,0,.07,0h0l0,0h0l.05,0h0l.06,0h0l.07,0h0l.05,0h0l0,0h0l0,0h0l.06,0h0l.06,0h0l.05,0h0l.05,0h0l0,0h0l.05,0h0l.06,0h0l0,0h0l0,0h0l0,0h0l.07,0h0l0,0h.07l0,0h0l0,0h0l0,0,.06,0,0,0h0l0,0h0l0,0h.06l0,0h0l.06,0,0,0h0l0,0h.06l0,0h0l0,0h0l.06,0h0l0,0h0l0,0h0l0,0h0l0,0,.07,0h.06l0,0h0l0,0h0l0,0h0l0,0,.06,0,0,0h0l0,0h0l0,0h.06l.14-.07h0l0,0h0l0,0h0l0,0h0l.15-.06h0l0,0h0l0,0h0l.05,0h0l.15-.08h0l0,0h0l.05,0h0l.05,0,.17-.08h0l.05,0h0l.05,0h0l.17-.08,0,0h0l0,0h0l0,0,.18-.08.05,0h0l.05,0h0l.29-.14.05,0h0l.28-.13h0l.05,0h0l.28-.14h0q6.38-3.06,12.45-6.61A5,5,0,0,0,325.48,437.49Z"/><path class="cls-6" d="M126,341.39a9.93,9.93,0,0,1-9.92-9.93,158.34,158.34,0,0,1,17.41-72.65A161.62,161.62,0,0,1,180,203.53,9.92,9.92,0,0,1,192,219.4a139,139,0,0,0-56,112.06A9.93,9.93,0,0,1,126,341.39Z"/></g><g id="Black_outlines_-_to_remove" data-name="Black outlines - to remove"><path d="M277.64,154.7v10a7.3,7.3,0,0,1,.84.05c2.22.32,5.15,2.16,8.24,4.11,3.51,2.22,7.49,4.73,12.17,6.1s9.52,1.44,13.72,1.47c3.61,0,7,.07,9,1s4.28,3.5,6.68,6.24c2.76,3.13,5.88,6.68,10,9.34S347,197,351,198.24c3.47,1,6.74,2,8.39,3.47s3.1,4.54,4.63,7.83c1.77,3.79,3.78,8.09,7,11.82s7.19,6.31,10.69,8.59c3,2,5.91,3.87,7.1,5.72s1.69,5.19,2.24,8.77c.63,4.14,1.35,8.84,3.42,13.34s5.09,8,7.79,11.2c2.37,2.78,4.6,5.4,5.23,7.54s.12,5.56-.34,9c-.57,4.17-1.21,8.9-.51,13.83s2.61,9.11,4.3,12.9c1.49,3.34,2.9,6.5,2.9,8.78s-1.41,5.44-2.9,8.78c-1.69,3.79-3.61,8.08-4.3,12.9s-.06,9.66.51,13.83c.46,3.41.94,6.93.34,9s-2.86,4.76-5.23,7.54c-2.7,3.16-5.76,6.75-7.8,11.2s-2.78,9.2-3.41,13.34c-.55,3.58-1.07,7-2.24,8.77s-4.06,3.73-7.1,5.72c-3.5,2.28-7.47,4.87-10.69,8.59s-5.25,8-7,11.82c-1.53,3.29-3,6.4-4.63,7.83s-4.92,2.42-8.39,3.47c-4,1.22-8.55,2.6-12.71,5.27s-7.25,6.21-10,9.34c-2.4,2.74-4.67,5.32-6.68,6.24s-5.36.92-9,1c-4.2,0-9,.07-13.72,1.47s-8.66,3.88-12.17,6.1c-3.09,1.95-6,3.79-8.24,4.11a7.34,7.34,0,0,1-.85.05c-2.09,0-4.93-.81-7.94-1.66-4.06-1.16-8.67-2.47-13.69-2.47s-9.63,1.31-13.69,2.47c-3,.85-5.85,1.66-7.94,1.66a7.34,7.34,0,0,1-.85-.05c-2.22-.32-5.15-2.16-8.24-4.11-3.51-2.22-7.49-4.73-12.17-6.1s-9.52-1.44-13.72-1.47c-3.61,0-7-.07-9-1s-4.28-3.5-6.68-6.24c-2.76-3.13-5.88-6.68-10-9.34s-8.7-4-12.7-5.27c-3.47-1.05-6.74-2.05-8.39-3.47s-3.1-4.54-4.63-7.83c-1.77-3.79-3.78-8.09-7-11.82s-7.19-6.31-10.69-8.59c-3-2-5.91-3.87-7.1-5.72s-1.69-5.19-2.24-8.77c-.63-4.14-1.35-8.84-3.42-13.34s-5.09-8-7.79-11.2c-2.37-2.78-4.6-5.4-5.23-7.54s-.12-5.56.34-9c.57-4.17,1.21-8.9.51-13.83s-2.61-9.11-4.3-12.9c-1.49-3.34-2.9-6.5-2.9-8.78s1.41-5.44,2.9-8.78c1.69-3.79,3.61-8.08,4.3-12.9s.06-9.66-.51-13.83c-.46-3.41-.94-6.93-.34-9s2.86-4.76,5.23-7.54c2.7-3.16,5.76-6.75,7.8-11.2s2.78-9.2,3.41-13.34c.55-3.58,1.07-7,2.24-8.77s4.06-3.73,7.1-5.72c3.5-2.28,7.47-4.87,10.69-8.59s5.25-8,7-11.82c1.53-3.29,3-6.4,4.63-7.83s4.92-2.42,8.39-3.47c4-1.22,8.55-2.6,12.71-5.27s7.25-6.21,10-9.34c2.4-2.74,4.67-5.32,6.68-6.24s5.36-.92,9-1c4.2,0,9-.07,13.72-1.47s8.66-3.88,12.17-6.1c3.09-2,6-3.79,8.24-4.11a7.34,7.34,0,0,1,.85-.05c2.09,0,4.93.81,7.94,1.66,4.06,1.16,8.67,2.47,13.69,2.47s9.63-1.31,13.69-2.47c3-.85,5.85-1.66,7.94-1.66v-10m0,0c-7,0-14.43,4.13-21.63,4.13s-14.62-4.13-21.63-4.13a17,17,0,0,0-2.26.15c-7.86,1.12-14.35,8.32-21.81,10.51s-16.94-.31-24,2.94-11.36,12-17.94,16.26-16.3,4.46-22.23,9.6-7.5,14.71-12.65,20.64-14.39,8.83-18.65,15.45-3.06,16.19-6.34,23.37-11.3,12.49-13.53,20.08,1.67,16.35.55,24.21c-1.1,7.67-7.3,15.12-7.3,23.09s6.2,15.42,7.3,23.09c1.12,7.86-2.74,16.74-.55,24.21s10.28,13,13.53,20.08,2.1,16.79,6.34,23.37,13.51,9.52,18.65,15.44,6.71,15.5,12.65,20.65,15.61,5.34,22.23,9.6,10.77,13,17.94,16.26,16.44.71,24,2.94,13.95,9.39,21.81,10.51a17,17,0,0,0,2.26.15c7,0,14.43-4.13,21.63-4.13s14.62,4.13,21.63,4.13a17,17,0,0,0,2.26-.15c7.86-1.12,14.35-8.32,21.81-10.51s16.94.31,24-2.94,11.36-12,17.94-16.26,16.3-4.46,22.23-9.6,7.5-14.71,12.65-20.64,14.39-8.83,18.65-15.45,3.06-16.19,6.34-23.37,11.3-12.49,13.53-20.08-1.67-16.35-.55-24.21c1.1-7.67,7.3-15.12,7.3-23.09s-6.2-15.42-7.3-23.09c-1.12-7.86,2.74-16.74.55-24.21s-10.28-13-13.53-20.08-2.1-16.79-6.34-23.37-13.51-9.52-18.65-15.44-6.71-15.5-12.65-20.65-15.61-5.34-22.23-9.6-10.77-13-17.94-16.26-16.44-.71-24-2.94-13.95-9.39-21.81-10.51a17,17,0,0,0-2.26-.15Z"/></g></svg>