<svg xmlns="http://www.w3.org/2000/svg" viewBox="0 0 512 512"><defs><style>.cls-1{fill:#ef4881;}.cls-2{fill:#afd249;}.cls-3{fill:#fff;opacity:0.3;}.cls-4{fill:#049146;}.cls-5{fill:#010101;}</style></defs><g id="BULINE"><circle class="cls-1" cx="256" cy="256" r="256"/></g><g id="Fruits"><path class="cls-2" d="M335.27,219c0-.74,0-1.48,0-2.23.06-42.93-34.68-78.49-77.61-79.39a79.3,79.3,0,0,0-81,79.29c0,.61,0,1.23,0,1.84.44,19.43-6.8,38.13-19.45,52.89A129.45,129.45,0,0,0,126,353.48c-1.36,71.63,57.4,132,129,132.52A130,130,0,0,0,353.3,269.79,73.06,73.06,0,0,1,335.27,219Z"/><path d="M256.35,188.84a31.7,31.7,0,0,1-22.49-9.3,5,5,0,0,1,7.07-7.08,21.82,21.82,0,0,0,30.84,0,5,5,0,0,1,7.07,7.08A31.72,31.72,0,0,1,256.35,188.84Z"/><path d="M259.25,182.4a5,5,0,0,1-4.9-4.05,156.91,156.91,0,0,1,6.52-82.25c9.62-27.08,26-50.45,47.39-67.61a5,5,0,1,1,6.25,7.8c-40.11,32.18-60.34,88.5-50.34,140.16a5,5,0,0,1-4,5.85A4.47,4.47,0,0,1,259.25,182.4Z"/><path d="M356.46,387.67a5,5,0,0,0-6.34,3.13,99.42,99.42,0,0,1-17.61,31.58,5,5,0,0,0,7.71,6.38c.7-.85,1.39-1.71,2.06-2.58l.05-.06.33-.43,0-.06h0l.05-.06.05-.06h0l.05-.06.12-.16h0l0-.06h0l0-.06h0l0-.06h0l0-.05h0l0-.06.13-.17h0l0-.05s0,0,0,0l0,0v0l0-.05v0a.08.08,0,0,0,0,0v0l0,0,0,0,0-.05,0,0,0,0,0,0,0,0v0l0-.05,0,0,0,0,0,0,0,0,0,0,0,0,0,0,0,0,0,0,0,0,0,0,0,0,0,0s0,0,0,0l0,0,0,0,0,0,0,0,0,0a.08.08,0,0,0,0,0l0,0,0,0,0,0,0,0,0,0,0,0,0,0s0,0,0,0l0,0,0,0,0,0,0,0a.08.08,0,0,1,0,0l0,0,0,0,0,0,0,0s0,0,0,0l0,0v0l0,0,0,0,0,0,0,0,0,0s0,0,0,0l0,0,0,0,0-.05a0,0,0,0,0,0,0l0,0,0,0,0,0v0l0,0v0l0-.05v0l0,0s0,0,0,0l0,0h0l0,0,0,0,0,0h0l0,0,0,0,0,0s0,0,0,0l0,0s0,0,0,0l0,0a0,0,0,0,1,0,0l0,0s0,0,0,0l0-.05h0l0,0v0l0-.05h0l0-.05h0l0-.05h0l0,0s0,0,0,0l0-.05h0l0-.05v0l0-.05h0l0-.05h0l0-.06h0l0-.05h0l0-.05h0l0-.06h0l0-.05h0l0-.05v0l0-.05h0l0-.06h0l0-.06h0l0-.06a.83.83,0,0,0,.08-.12h0l0-.06,0-.06h0l0-.06,0-.06h0l.17-.25.05-.07,0-.06,0-.06h0a.21.21,0,0,1,0-.06l0-.06h0l.17-.25,0-.07h0l0-.06.3-.46a109.8,109.8,0,0,0,12-24.74A5,5,0,0,0,356.46,387.67Zm-29.68,48.24a5,5,0,0,0-7-.62l-.35.3a5,5,0,0,0,6.38,7.69l.09-.07.32-.27A5,5,0,0,0,326.78,435.91Zm-15.53,11.9a5,5,0,0,0-6.81-1.89,99.13,99.13,0,0,1-34.18,11.76,5,5,0,0,0,.74,9.94,4.68,4.68,0,0,0,.74-.05h.17l.47-.08h.08l.39-.06H273l.31-.05.16,0h0l.39-.06H274a109.71,109.71,0,0,0,35.41-12.6A5,5,0,0,0,311.25,447.81Z"/><path class="cls-3" d="M167,364.69h-.19a9.92,9.92,0,0,1-9.73-10.11A99.46,99.46,0,0,1,181,291.82a9.92,9.92,0,1,1,15.06,12.91A79.68,79.68,0,0,0,176.94,355,9.93,9.93,0,0,1,167,364.69Z"/></g><g id="Black_outlines_-_to_remove" data-name="Black outlines - to remove"><path d="M256,147.4h1.49c37.44.78,67.86,31.9,67.81,69.38q0,1,0,2a82.84,82.84,0,0,0,20.55,57.68A120,120,0,0,1,256,476h-.87a117.25,117.25,0,0,1-46.59-10,122.62,122.62,0,0,1-63.74-65.44,117.44,117.44,0,0,1-8.78-46.9,120.12,120.12,0,0,1,28.84-75.73c14.59-17,22.35-38.19,21.86-59.63,0-.53,0-1.07,0-1.61A69.37,69.37,0,0,1,256,147.4m0-10a79.3,79.3,0,0,0-79.3,79.3c0,.61,0,1.23,0,1.84.44,19.43-6.8,38.13-19.45,52.89A129.45,129.45,0,0,0,126,353.48c-1.36,71.63,57.4,132,129,132.52H256a130,130,0,0,0,97.3-216.21,73.06,73.06,0,0,1-18-50.76c0-.74,0-1.48,0-2.23.06-42.93-34.68-78.49-77.61-79.39Z"/></g><g id="Leaves_on_top" data-name="Leaves on top"><path class="cls-4" d="M211.21,70.79c42.48,42.47,33.1,94.33,33.1,94.33S192.45,174.5,150,132s-33.09-94.34-33.09-94.34S168.74,28.31,211.21,70.79Z"/><path class="cls-5" d="M129.73,46.81a104.8,104.8,0,0,1,74.41,31.05,104.74,104.74,0,0,1,31,78.07c-1.11,0-2.33.07-3.65.07a104.76,104.76,0,0,1-74.41-31A103.42,103.42,0,0,1,127.5,68.1a104.05,104.05,0,0,1-1.42-21.22c1.11,0,2.33-.07,3.64-.07h0m0-10a79.72,79.72,0,0,0-12.84.88S107.5,89.55,150,132a114.6,114.6,0,0,0,81.49,34,79.79,79.79,0,0,0,12.85-.88s9.38-51.86-33.1-94.33a114.55,114.55,0,0,0-81.49-34Z"/></g></svg>