<svg xmlns="http://www.w3.org/2000/svg" viewBox="0 0 512 512"><defs><style>.cls-1{fill:#7a5da7;}.cls-2{fill:#049146;}.cls-3{fill:#9f3f64;}.cls-4{fill:#fff;opacity:0.3;}</style></defs><g id="BULINE"><circle class="cls-1" cx="256" cy="256" r="256"/></g><g id="Fruits"><rect class="cls-2" x="236" y="26" width="40" height="59.57"/><path class="cls-3" d="M314.76,167.11C289,138.78,276,103.3,276,76H236c-.26,27.24-13.21,63-38.81,91.16a254.25,254.25,0,0,1-40.14,35.35c-40,28.74-65.86,74.47-65.86,126C91.19,415.48,165,486,256,486s164.81-70.52,164.81-157.52c0-51.5-25.87-97.23-65.86-126A255,255,0,0,1,314.76,167.11Z"/><path class="cls-4" d="M126,337.14a9.92,9.92,0,0,1-9.92-9.92,128.22,128.22,0,0,1,15.32-61.09,137,137,0,0,1,40.76-46.33,9.92,9.92,0,1,1,11.58,16.11c-30.39,21.84-47.82,55.12-47.82,91.31A9.92,9.92,0,0,1,126,337.14Z"/><path d="M396.63,328.92v-.52a.09.09,0,0,0,0,0v-.12h0v-.13h0V328h0v-.12h0v-.25h0v-.12a2.09,2.09,0,0,1,0-.25v-.07c0-1.21-.08-2.41-.15-3.61a5,5,0,0,0-5-4.72h-.27a5,5,0,0,0-4.72,5.26c.11,2.16.17,4.35.17,6.52a119.13,119.13,0,0,1-3.84,30.06,5,5,0,0,0,3.57,6.1,5.08,5.08,0,0,0,1.27.16,5,5,0,0,0,4.83-3.73,129,129,0,0,0,4-25.39l0-.59v-.06h0c0-.06,0-.12,0-.19v-.07a.09.09,0,0,1,0-.05h0v-.19h0v-.12a.53.53,0,0,1,0-.13v-.13h0a.13.13,0,0,1,0-.06V336s0,0,0-.06v-.06h0v-.12h0s0,0,0-.06v-.2s0,0,0-.06v-.14a.49.49,0,0,1,0-.12h0V335h0v-.13a.11.11,0,0,0,0-.05v-.07h0v-.2a.09.09,0,0,0,0,0v-.27h0s0,0,0-.05v-.06h0V334h0v-.2s0,0,0,0v-.15h0v-.25a.13.13,0,0,0,0-.06v-.19h0v-.27a.49.49,0,0,0,0-.12v-.53s0-.05,0-.07h0v-.83h0v-1h0v-.51h0v-.63A.57.57,0,0,1,396.63,328.92Zm-13.27,46.56a5,5,0,0,0-6.59,2.59l-.19.42a5,5,0,0,0,2.58,6.59,4.91,4.91,0,0,0,2,.43,5,5,0,0,0,4.57-3c0-.06.05-.11.07-.17s0,0,0,0v0a2.14,2.14,0,0,1,.1-.22s0,0,0,0A5,5,0,0,0,383.36,375.48Zm-8.57,17.76a5,5,0,0,0-6.9,1.53,126.5,126.5,0,0,1-24.2,27.91,5,5,0,1,0,6.52,7.58l0,0h0l.06-.06h0l0,0,0,0,.05,0,0,0,0,0,0,0,.05,0,0,0,0,0h0a.1.1,0,0,1,.05,0l0,0,0,0h0l0-.05h0l0,0s0,0,0,0l.05,0,0,0,0,0h0l.06-.05,0,0,0,0h0l.06-.06h0l.11-.09h0l.1-.09h0l.1-.1h0l.11-.09h0l.11-.09h0l.07-.06h0s0,0,0,0h0l.06-.05h0l0,0h0l.07-.06h0l0,0h0l.08-.06,0,0,.07-.06h0l.11-.09h0l.1-.1h0l.11-.09a0,0,0,0,1,0,0l.1-.1h0l.11-.1h0l.1-.09a0,0,0,0,1,0,0l.11-.1h0l.07-.05h0l0,0h0l.11-.1.07-.07h0a.52.52,0,0,1,.11-.1l.11-.11.11-.1h0l.11-.11.22-.21h0l.11-.1.11-.11.11-.1h0l.11-.11.18-.17h0l.11-.1.11-.1h0l.11-.1h0l.1-.1h0l.1-.1h0l.11-.1h0l.11-.09v0l.06-.05h0l0,0h0l.06-.06h0l0,0h0l.07-.06,0,0h0l.07-.07,0,0h0L356,425h0l0,0,.06-.07h0l0,0,.07-.06s0,0,0,0a.47.47,0,0,1,.1-.1h0l.1-.1h0l.1-.1h0l.1-.1a0,0,0,0,0,0,0l.06-.06h0l0,0v0l.07-.06,0,0h0l.06-.06h0l0,0h0l.06-.06h0l0,0h0l.06-.06h0l0,0h0l.06-.06h0l0,0h0l.06-.06h0l.1-.1h0l.1-.1s0,0,0,0l.1-.09v0l.1-.09v0l.05,0,0,0,0,0v0L358,423h0l0,0s0,0,0,0l.05,0h0l0,0v0l0,0,0,0,0,0,0,0,0,0,0,0,0,0,0,0,.05,0,0,0,0,0,0,0,0,0,0,0,0,0,0,0,0,0s0,0,0,0l0,0,0,0,0,0,0,0,0,0,0,0,0,0,0,0,0,0a.08.08,0,0,1,0,0l0,0,0,0,0,0,.05-.05v0l0,0,0,0,0,0,0,0,0,0,0,0,0,0,0,0,0,0,0,0,0,0,0,0,0,0s0,0,0,0l0,0,0,0,0,0,0,0,0,0,0-.05,0,0,0,0v0l0,0h0l0,0,0,0,0,0v0l0,0h0l0,0h0l0,0h0l0-.05h0s0,0,0,0h0l.05-.05h0l0-.05h0l0-.05h0l.05,0h0l.05-.05h0l.05,0,.06-.06,0-.05h0l0-.05,0,0,.09-.1h0l.05-.05,0-.05h0l.1-.11h0l0-.05h0l0,0a0,0,0,0,0,0,0s0,0,.05,0h0l.05,0h0l.05-.06,0-.05h0l.05-.05h0l.05-.06.05-.06.05-.05h0l.06-.05.1-.12.11-.11.21-.23a134.82,134.82,0,0,0,14.36-18.73A5,5,0,0,0,374.79,393.24Z"/></g><g id="Black_outlines_-_to_remove" data-name="Black outlines - to remove"><path d="M355,202.09a254.54,254.54,0,0,1-40.19-35.41C289,138.36,276,103.3,276,76V26H236V76c-.26,27.24-13.21,62.56-38.81,90.74a255.27,255.27,0,0,1-40.14,35.35c-40,28.74-65.86,74.46-65.86,126,0,87,73.79,157.51,164.81,157.51s164.81-70.52,164.81-157.51C420.81,276.55,394.94,230.83,355,202.09ZM246,36h20V76H246ZM365.63,432.21c-29.26,28-68.19,43.36-109.63,43.36s-80.37-15.4-109.63-43.36-45.18-64.84-45.18-104.15a140.26,140.26,0,0,1,16.75-66.81,150.89,150.89,0,0,1,44.95-51,265.7,265.7,0,0,0,41.7-36.75c22.69-25,37.81-57.66,40.85-87.46h21.05c2.86,29.55,18,62.19,40.86,87.4a265.93,265.93,0,0,0,41.76,36.81,150.89,150.89,0,0,1,44.95,51,140.26,140.26,0,0,1,16.75,66.81C410.81,367.37,394.77,404.36,365.63,432.21Z"/></g></svg>