<svg xmlns="http://www.w3.org/2000/svg" viewBox="0 0 512 512"><defs><style>.cls-1{fill:#28273d;}.cls-2{fill:#f7cf3e;}.cls-3{fill:#049146;}.cls-4{fill:#5d2618;}.cls-5{fill:#fff;opacity:0.3;}.cls-6{fill:#010101;}</style></defs><g id="BULINE"><circle class="cls-1" cx="256" cy="256" r="256"/></g><g id="Fruits"><path class="cls-2" d="M462.39,279.56C462.39,393.54,370,486,256,486S49.61,393.54,49.61,279.56,206.27,26.05,256,26.05,462.39,165.57,462.39,279.56Z"/><path class="cls-3" d="M256,61.35c3.72.65,16.12,5.12,36.79,19.78,20.33,14.43,42.24,34.17,61.69,55.6,21.71,23.91,39.81,49.23,52.35,73.21,13.48,25.8,20.32,49.22,20.32,69.62a171.15,171.15,0,0,1-342.3,0c0-20.4,6.84-43.82,20.32-69.62,12.54-24,30.64-49.3,52.35-73.21,19.45-21.43,41.36-41.17,61.69-55.6C239.88,66.47,252.28,62,256,61.35m0-35.3c-49.73,0-206.39,139.52-206.39,253.51S142,486,256,486s206.39-92.41,206.39-206.39S305.73,26.05,256,26.05Z"/><ellipse class="cls-4" cx="256" cy="272" rx="65.27" ry="89.75"/><path d="M396.72,337.76a4.94,4.94,0,0,0-2.07-.46,5,5,0,0,0-4.55,2.93,150.93,150.93,0,0,1-19.62,31.86,5,5,0,1,0,7.79,6.26,160.58,160.58,0,0,0,20.93-34A5,5,0,0,0,396.72,337.76Zm-31.78,48.31a5,5,0,0,0-3.6-1.51,5,5,0,0,0-3.48,1.41l-.34.32a5,5,0,0,0,7,7.2l.09-.09.29-.28A5,5,0,0,0,364.94,386.07Zm-14.68,13.38a5,5,0,0,0-4-2,4.93,4.93,0,0,0-3,1A151,151,0,0,1,310.79,417a5,5,0,0,0,3.83,9.24,160.44,160.44,0,0,0,34.65-19.83A5,5,0,0,0,350.26,399.45Z"/><path class="cls-5" d="M127.31,233.92a8.22,8.22,0,0,1-3.36-.71,8.3,8.3,0,0,1-4.22-11c17.09-38.54,46.58-68.4,77.86-98.11a8.3,8.3,0,0,1,11.44,12c-30,28.51-58.27,57.06-74.12,92.81A8.31,8.31,0,0,1,127.31,233.92Z"/></g><g id="Black_outlines_-_to_remove" data-name="Black outlines - to remove"><path class="cls-6" d="M256,36.05c9.85,0,27.63,8.16,47.58,21.83,21.89,15,45.66,35.95,66.92,59,52,56.34,81.89,115.64,81.89,162.71a196.39,196.39,0,1,1-392.78,0c0-47.07,29.85-106.37,81.89-162.71,21.26-23,45-44,66.92-59,20-13.67,37.73-21.83,47.58-21.83m0-10c-49.73,0-206.39,139.52-206.39,253.51S142,486,256,486s206.39-92.41,206.39-206.39S305.73,26.05,256,26.05Z"/></g></svg>