<svg xmlns="http://www.w3.org/2000/svg" viewBox="0 0 512 512"><defs><style>.cls-1{fill:#28273d;}.cls-2{fill:#049146;}.cls-3{fill:#f7eed1;}.cls-4{fill:#d9e584;}.cls-5{fill:#f3726f;}.cls-6{fill:#ed5154;}.cls-7{fill:#f0c985;}</style></defs><g id="BULINE"><circle class="cls-1" cx="256" cy="256" r="256"/></g><g id="Fruits"><path class="cls-2" d="M235.71,52.7C210.53,23.48,176.88,27,176.88,27s-8.47,32.76,16.7,62,58.82,25.69,58.82,25.69S260.88,81.92,235.71,52.7Z"/><path d="M256,40.12a5,5,0,0,0-5,5V81a74.62,74.62,0,0,0-70.6-54.11c-2.24,0-3.52.13-3.52.13s-8.47,32.76,16.7,62a73.54,73.54,0,0,0,55.3,25.82c.85,0,1.56,0,2.12,0v10.76a5,5,0,0,0,10,0V45.12A5,5,0,0,0,256,40.12ZM247,108.35a66.84,66.84,0,0,1-48.5-23.55,67.28,67.28,0,0,1-16.11-51.46,67.75,67.75,0,0,1,64.61,75Z"/><path class="cls-3" d="M414.48,326.64a158.48,158.48,0,0,1-317,0c0-87.52,71-201.52,158.48-201.52S414.48,239.12,414.48,326.64Z"/><path class="cls-4" d="M256,145c17.08,0,34.26,5.41,51,16.08,16.07,10.22,31.62,25.33,45,43.69,26.29,36.16,42.62,82.87,42.62,121.91a138.63,138.63,0,1,1-277.26,0c0-39,16.33-85.75,42.62-121.91,13.35-18.36,28.9-33.47,45-43.69,16.78-10.67,34-16.08,51-16.08m0-19.84c-87.52,0-158.48,114-158.48,201.52a158.48,158.48,0,0,0,317,0c0-87.52-71-201.52-158.48-201.52Z"/><path class="cls-5" d="M380.29,322a124.29,124.29,0,0,1-248.58,0c0-68.64,55.65-158,124.29-158S380.29,253.36,380.29,322Z"/><path class="cls-6" d="M246.67,383.45a77.69,77.69,0,1,1,0-155.37"/><path class="cls-6" d="M265.33,228.08a77.69,77.69,0,1,1,0,155.37"/><circle class="cls-7" cx="222.78" cy="269.45" r="5.89"/><circle class="cls-7" cx="222.78" cy="287.61" r="5.89"/><circle class="cls-7" cx="222.78" cy="305.76" r="5.89"/><circle class="cls-7" cx="222.78" cy="323.92" r="5.89"/><circle class="cls-7" cx="222.78" cy="342.07" r="5.89"/><circle class="cls-7" cx="207.88" cy="279.13" r="5.89"/><circle class="cls-7" cx="207.88" cy="297.28" r="5.89"/><circle class="cls-7" cx="207.88" cy="315.44" r="5.89"/><circle class="cls-7" cx="207.88" cy="333.59" r="5.89"/><circle class="cls-7" cx="192.87" cy="287.61" r="5.89"/><circle class="cls-7" cx="192.87" cy="305.76" r="5.89"/><circle class="cls-7" cx="192.87" cy="323.92" r="5.89"/><circle class="cls-7" cx="289.22" cy="269.45" r="5.89"/><circle class="cls-7" cx="289.22" cy="287.61" r="5.89"/><circle class="cls-7" cx="289.22" cy="305.76" r="5.89"/><circle class="cls-7" cx="289.22" cy="323.92" r="5.89"/><circle class="cls-7" cx="289.22" cy="342.07" r="5.89"/><circle class="cls-7" cx="304.12" cy="279.13" r="5.89"/><circle class="cls-7" cx="304.12" cy="297.28" r="5.89"/><circle class="cls-7" cx="304.12" cy="315.44" r="5.89"/><circle class="cls-7" cx="304.12" cy="333.59" r="5.89"/><circle class="cls-7" cx="319.13" cy="287.61" r="5.89"/><circle class="cls-7" cx="319.13" cy="305.76" r="5.89"/><circle class="cls-7" cx="319.13" cy="323.92" r="5.89"/><path d="M354.24,373.56a4.64,4.64,0,0,0-6.37,1.64,106.76,106.76,0,0,1-21.82,26.19,4.65,4.65,0,1,0,6.11,7c.88-.76,1.74-1.53,2.59-2.32h0l.15-.15.06-.05a.94.94,0,0,0,.1-.1l.05,0h0l.1-.09h0l0,0h0l.1-.09h0l.05,0h0l.05,0,0-.05h0l.05,0h0l0,0h0l0,0h0l.05,0h0l0,0h0l0,0a0,0,0,0,0,0,0l0,0h0l.05,0h0l0,0h0l0,0h0l.05,0h0l0,0h0l.05,0h0l0,0h0a.08.08,0,0,0,0,0h0a.08.08,0,0,0,0,0h0l0,0h0s0,0,0,0h0l0,0h0l.05,0v0l0,0h0l0,0v0l0,0,0,0,0,0h0l0,0,0,0,0,0a0,0,0,0,1,0,0l0,0,0,0,0,0,0,0,0,0h0l0,0,0,0,0,0,0,0,0,0,0,0,0,0,0,0,0,0,0,0,0,0,0,0,0,0,0,0,0,0,0,0,0,0,0,0a0,0,0,0,1,0,0l0,0,0,0,0,0,0,0,0,0,0,0,0,0,0,0,0,0,0,0,0,0s0,0,0,0l0,0,0,0,0,0,0,0,0,0,0,0,0,0v0l.05,0h0l0,0h0l0,0,0,0,0,0,0,0,0,0v0l.05,0h0l0-.05h0l0,0h0l0,0v0l.06-.05,0,0h0a.12.12,0,0,0,.05-.05h0l.09-.09h0l0-.06L339,402h0l.05-.05h0l0,0h0l.05-.06h0l.05-.05h0l.08-.09h0l.14-.15h0l.05-.06h0l.09-.1.15-.15.15-.16L340,401h0l.08-.1h0l.06-.06.14-.16h0l.74-.79.88-1h0c1.2-1.32,2.38-2.67,3.52-4.06.14-.16.28-.33.41-.5l.14-.17c.3-.36.58-.71.87-1.08l.22-.27,0-.07.13-.17h0l.13-.17.13-.17h0l.12-.17h0l.13-.16h0a1.83,1.83,0,0,0,.13-.16s0,0,0,0l.13-.17.13-.17,0-.07.08-.1,0-.07.08-.1h0l.05-.06h0l.08-.1a.18.18,0,0,0,.05-.07h0l.07-.1.05-.07h0a.86.86,0,0,1,.07-.1h0l0-.06h0l.07-.09v0l0-.05h0l.05-.07,0,0h0l0-.06h0a.86.86,0,0,0,.07-.1h0l0-.06h0a.86.86,0,0,1,.07-.1h0l.05-.06h0l.12-.16h0l0-.06h0l0,0,.05-.07h0a.15.15,0,0,0,.05-.06l0,0,0-.06h0l.05-.06h0a.36.36,0,0,0,.07-.1s0,0,0,0L350,389l.07-.11h0s0,0,0-.07h0a.86.86,0,0,1,.07-.1h0l.05-.06h0l.08-.1.05-.07.07-.11h0a.43.43,0,0,0,0-.07h0a.61.61,0,0,1,.07-.1,0,0,0,0,1,0,0l0-.06h0l.08-.1,0-.07.07-.11h0s0,0,0-.07.08-.12.13-.17h0l.07-.1h0l0-.06h0l.11-.17h0a.86.86,0,0,0,.07-.1h0l0-.06h0l0-.06.07-.11h0l.12-.18.12-.18.05-.07.07-.11h0a.43.43,0,0,0,0-.07h0l.07-.11a.25.25,0,0,0,0-.07h0a.36.36,0,0,1,.07-.1h0l.05-.07.07-.11.05-.07.07-.11h0l0-.07.07-.11h0l0-.07.07-.11h0a.43.43,0,0,1,0-.07l.12-.18.12-.18h0l.12-.18.36-.54c.88-1.36,1.74-2.74,2.56-4.13A4.66,4.66,0,0,0,354.24,373.56Zm-35.53,39.49a4.67,4.67,0,0,0-6.41-1.51l-.37.23a4.66,4.66,0,0,0,2.44,8.62,4.54,4.54,0,0,0,2.42-.69l.27-.16.15-.09A4.65,4.65,0,0,0,318.71,413.05Zm-15.93,9a4.65,4.65,0,0,0-6.07-2.54,105.49,105.49,0,0,1-33.17,7.71,4.65,4.65,0,0,0,.3,9.29h.32c1.19-.08,2.38-.17,3.56-.29h.14l.22,0h5l.13,0h0l.13,0h.09l.13,0h0l.22,0,.13,0h.1l.13,0,.22,0a115.53,115.53,0,0,0,25.92-7.26A4.64,4.64,0,0,0,302.78,422.06Z"/></g><g id="Black_outlines_-_to_remove" data-name="Black outlines - to remove"><path d="M256,135.12c19,0,37.93,5.93,56.32,17.62,17.1,10.87,33.58,26.85,47.65,46.2a244.76,244.76,0,0,1,32.61,62.58c7.78,22.32,11.9,44.84,11.9,65.12a148.48,148.48,0,0,1-297,0c0-20.28,4.12-42.8,11.9-65.12A244.76,244.76,0,0,1,152,198.94c14.07-19.35,30.55-35.33,47.65-46.2C218.07,141.05,237,135.12,256,135.12m0-10c-87.52,0-158.48,114-158.48,201.52a158.48,158.48,0,0,0,317,0c0-87.52-71-201.52-158.48-201.52Z"/></g></svg>