<svg xmlns="http://www.w3.org/2000/svg" viewBox="0 0 512 512"><defs><style>.cls-1{fill:#85c6ed;}.cls-2{fill:#95b143;}.cls-3{fill:#f7e5ac;}.cls-4{fill:#fff;opacity:0.3;}.cls-5{fill:#f79d4e;}</style></defs><g id="BULINE"><circle class="cls-1" cx="256" cy="256" r="256"/></g><g id="Fruits"><path class="cls-2" d="M26,256.5H486c0,127-103,230-230,230s-230-103-230-230Z"/><path class="cls-3" d="M56.5,256.5h399C455.5,366.68,366.18,456,256,456S56.5,366.68,56.5,256.5Z"/><path d="M313.65,420.26a5,5,0,0,0-4.77-3.49,5.07,5.07,0,0,0-1.52.24,146.91,146.91,0,0,1-36.74,6.72,5,5,0,0,0,.26,10h.28a158.21,158.21,0,0,0,24.62-3.29h0l.07,0,.15,0h.09l.22,0h.08l.22-.05h0l.06,0h0l.15,0,.07,0H297l.15,0h.16l.07,0h0l.06,0h.16l.07,0h.23l.07,0h.5l.06,0h.75l.09,0h.15l.16,0,.06,0h0l.22,0s0,0,0,0h.06q5.25-1.29,10.36-2.91A5,5,0,0,0,313.65,420.26Zm18.22-7.85a5,5,0,0,0-6.66-2.41l-.42.2a5,5,0,1,0,4.23,9.07l.33-.16.14-.06A5,5,0,0,0,331.87,412.41Zm45.55-35.56a5,5,0,0,0-7.07.24A148.46,148.46,0,0,1,341.61,401a5,5,0,1,0,5.37,8.43,158.24,158.24,0,0,0,15.2-11l.36-.3.36-.3.06-.05.12-.1.06,0h0l.11-.1h0l.05,0h0l.11-.1.06,0h0l.05-.05.06,0h0a.1.1,0,0,1,.05,0h0s0,0,.05-.05l.12-.09h0l.05,0,.06-.05,0-.05h0l0,0h0l.11-.1h0l0,0v0l.06,0h0l.05,0h0l0,0v0l.11-.09h0l0,0h0l.05,0h0l.05,0,0,0,0,0h0l.05,0h0l.06,0,0,0,0,0,0,0,0,0h0l.05-.05h0l0,0,0,0,0,0v0a.1.1,0,0,0,0,0l0,0,0,0h0l0,0,0,0,0,0,0,0,0,0,0,0,0,0h0l.05-.05,0,0,0,0,0,0,0,0,0,0,0,0,0,0,0,0s0,0,0,0l0,0,0,0,0,0,0-.05s0,0,0,0l0,0,0,0,0,0,0,0,.06-.05h0l0,0,0,0,0,0,0,0,.06-.06s0,0,0,0l0,0h0l0,0h0l.07-.07h0l0,0s0,0,0,0l0,0h0l.12-.1h0l0,0h0l.13-.11h0l0,0h0l.12-.11h0l0,0h0l.12-.11,0,0h0l.17-.15h0l.16-.15h0l.17-.15.18-.16.35-.31h0q4.81-4.36,9.25-9.13A5,5,0,0,0,377.42,376.85Z"/><path class="cls-4" d="M135.74,376a9.87,9.87,0,0,1-7.18-3.08,149.84,149.84,0,0,1-38-71.34,9.92,9.92,0,1,1,19.38-4.24,130.08,130.08,0,0,0,33,61.89A9.93,9.93,0,0,1,135.74,376Z"/><path class="cls-5" d="M356,256a100,100,0,0,1-200,0"/><path d="M244.75,337.75c0-4.83,8.75-17.5,8.75-17.5s8.75,12.67,8.75,17.5a8.75,8.75,0,0,1-17.5,0Z"/><path d="M294.69,326.44c-3.42-3.42-6.19-18.56-6.19-18.56s15.14,2.77,18.56,6.18a8.75,8.75,0,0,1-12.37,12.38Z"/><path d="M332.25,294c-4.83,0-17.5-8.75-17.5-8.75s12.67-8.75,17.5-8.75a8.75,8.75,0,0,1,0,17.5Z"/><path d="M212.31,326.44c3.42-3.42,6.19-18.56,6.19-18.56s-15.14,2.77-18.56,6.18a8.75,8.75,0,0,0,12.37,12.38Z"/><path d="M174.75,294c4.83,0,17.5-8.75,17.5-8.75s-12.67-8.75-17.5-8.75a8.75,8.75,0,0,0,0,17.5Z"/></g><g id="Black_outlines_-_to_remove" data-name="Black outlines - to remove"><path d="M455.5,256.5H26c0,127,103,230,230,230s230-103,230-230ZM411.56,412.06A219.92,219.92,0,0,1,36.22,266.5H56.75C62,372,149.17,456,256,456s194-84,199.25-189.5h20.53a219.15,219.15,0,0,1-64.22,145.56ZM444.72,267A189.06,189.06,0,0,1,81.85,330.06,187.29,187.29,0,0,1,67.28,267Z"/></g></svg>