<svg xmlns="http://www.w3.org/2000/svg" viewBox="0 0 512 512"><defs><style>.cls-1{fill:#28273d;}.cls-2{fill:#049146;}.cls-3{fill:#010101;}.cls-4{fill:#d71f27;}.cls-5{fill:#b22024;}.cls-6{fill:#fff;opacity:0.3;}</style></defs><g id="BULINE"><circle class="cls-1" cx="256" cy="256" r="256"/></g><g id="Fruits"><path class="cls-2" d="M375,74.78q-.15,1.14-.33,2.31h0q-.18,1.17-.39,2.37a114.62,114.62,0,0,1-9.2,29.18q-.66,1.41-1.38,2.82c-.24.48-.48,1-.73,1.42-.5,1-1,1.9-1.54,2.85Q359,120,356.1,124.3c-.32.47-.65,1-1,1.42q-2.52,3.57-5.44,7.1-3.51,4.25-7.65,8.39a114,114,0,0,1-57.65,31.46,115.3,115.3,0,0,1-12.95,2c-4.05.39-7.71.53-10.88.53-1.64,0-3.15,0-4.51-.1s-2.87.1-4.51.1c-3.19,0-6.87-.14-10.94-.53a118,118,0,0,1-13-2c-2.17-.46-4.4-1-6.67-1.62q-2.56-.71-5.19-1.56c-.58-.18-1.17-.38-1.77-.59-1.18-.41-2.36-.84-3.56-1.29A113.29,113.29,0,0,1,194,159.72c-.62-.36-1.24-.72-1.85-1.1-1.24-.76-2.48-1.54-3.72-2.36s-2.47-1.67-3.71-2.56-2.47-1.82-3.7-2.78A119.45,119.45,0,0,1,170,141.21c-42.47-42.47-33.09-94.33-33.09-94.33A79.72,79.72,0,0,1,149.78,46c1,0,2.09,0,3.21,0l1.57.06c.63,0,1.28,0,1.94.1.51,0,1,.06,1.56.1l.3,0,1.53.13c2.06.18,4.23.43,6.48.77.48.06,1,.14,1.46.22a114.45,114.45,0,0,1,21,5.41c2,.74,4.09,1.54,6.17,2.43l1.26.55c.83.37,1.66.75,2.5,1.15,0,0,0,0,0,0q1.26.6,2.52,1.23c.42.21.85.42,1.27.65.84.44,1.69.89,2.53,1.36h0c.85.47,1.69,1,2.54,1.45h0l2.54,1.54h0q1.91,1.2,3.82,2.49l1.28.88c2.12,1.49,4.24,3.08,6.34,4.78h0a116.08,116.08,0,0,1,24.4-36.84l.61-.61c.6-.61,1.19-1.17,1.75-1.71A72.61,72.61,0,0,1,256,25.79s1,.73,2.8,2.18l.8.67,1.34,1.17,1,.89c.35.31.7.64,1.06,1s.74.7,1.13,1.07a115.68,115.68,0,0,1,26.2,38.64h0q1.89-1.53,3.8-3c.43-.32.85-.63,1.28-.93,1.27-.92,2.55-1.8,3.82-2.64q3.19-2.11,6.38-3.92l2.54-1.41a112.76,112.76,0,0,1,16.23-7.12q2.43-.84,4.8-1.56l2.45-.7c.76-.21,1.51-.4,2.26-.59,3.54-.91,6.95-1.59,10.19-2.11.58-.1,1.15-.18,1.72-.26,2.18-.32,4.27-.56,6.27-.74.57-.06,1.14-.1,1.7-.14h.15l1.7-.12,1.85-.09,1.63-.06c1.11,0,2.18,0,3.19,0a79.72,79.72,0,0,1,12.84.88S377.18,58.28,375,74.78Z"/><path class="cls-3" d="M375.12,46.88A79.72,79.72,0,0,0,362.28,46c-1,0-2.08,0-3.19,0l-1.63.06-1.85.09-1.7.12h-.15c-.56,0-1.13.08-1.7.14-2,.18-4.09.42-6.27.74-.57.08-1.14.16-1.72.26-3.24.52-6.65,1.2-10.19,2.11-.75.19-1.5.38-2.26.59l-2.45.7q-2.37.71-4.8,1.56a112.76,112.76,0,0,0-16.23,7.12c-.85.45-1.69.92-2.54,1.41q-3.18,1.8-6.38,3.92-1.92,1.26-3.82,2.64c-.43.3-.85.61-1.28.93q-1.9,1.41-3.8,2.94a115.68,115.68,0,0,0-26.2-38.64c-.39-.37-.76-.73-1.13-1.07s-.71-.67-1.06-1l-1-.89-1.34-1.17-.8-.67c-1.76-1.45-2.8-2.18-2.8-2.18a72.61,72.61,0,0,0-7.54,6.41c-.56.53-1.15,1.1-1.75,1.71l-.61.61a116.08,116.08,0,0,0-24.4,36.84q-3.16-2.55-6.35-4.77l-1.28-.88q-1.92-1.3-3.82-2.49h0c-.85-.54-1.69-1-2.54-1.54h0c-.85-.51-1.69-1-2.54-1.45h0c-.84-.48-1.68-.93-2.53-1.36-.42-.23-.85-.44-1.27-.65q-1.26-.64-2.52-1.23s0,0,0,0c-.83-.4-1.67-.79-2.5-1.15l-1.26-.55q-3.11-1.34-6.17-2.43a114.45,114.45,0,0,0-21-5.41c-.49-.08-1-.16-1.46-.22-2.25-.34-4.42-.59-6.48-.77l-1.53-.13-.3,0c-.53,0-1.05-.08-1.56-.1-.66-.05-1.31-.08-1.94-.1L153,46.05c-1.12,0-2.19,0-3.21,0a79.72,79.72,0,0,0-12.84.88S127.56,98.74,170,141.21A119.45,119.45,0,0,0,181,150.92c1.23,1,2.47,1.89,3.7,2.78s2.47,1.74,3.71,2.56,2.48,1.61,3.72,2.36c.61.38,1.23.74,1.85,1.1a111.78,111.78,0,0,0,16.48,7.88c1.2.45,2.38.88,3.56,1.29.6.21,1.19.41,1.77.59,1.75.58,3.48,1.09,5.19,1.56,2.27.62,4.5,1.16,6.67,1.62a118,118,0,0,0,13,2c4.07.39,7.75.53,10.94.53,1.64,0,3.15,0,4.51-.1s2.87.1,4.51.1c3.17,0,6.83-.14,10.88-.53a115.3,115.3,0,0,0,12.95-2A114,114,0,0,0,342,141.21h0q4.14-4.14,7.64-8.39,2.93-3.52,5.44-7.1c.34-.47.67-1,1-1.42,2-2.86,3.72-5.71,5.32-8.56.53-.95,1.05-1.9,1.54-2.85.25-.47.49-.94.73-1.42q.72-1.41,1.38-2.82a114.62,114.62,0,0,0,9.2-29.18q.21-1.2.39-2.37h0q.18-1.17.33-2.31C377.18,58.28,375.12,46.88,375.12,46.88Zm-120,118.24c-1.12,0-2.33.07-3.65.07s-3,0-4.65-.11a104.48,104.48,0,0,1-12.69-1.36,106.59,106.59,0,0,1-12.3-2.83,106.5,106.5,0,0,1-74.33-83.6,104.82,104.82,0,0,1-1.42-21.22c1.11,0,2.33-.07,3.65-.07a104.71,104.71,0,0,1,68.31,25.38c2,1.77,4.09,3.65,6.11,5.67.7.7,1.39,1.41,2.06,2.12a103.19,103.19,0,0,1,24.57,42.18,107.51,107.51,0,0,1,2.91,12.55A104.18,104.18,0,0,1,255.17,165.12Zm22.65-1.39a105.6,105.6,0,0,1-12.64,1.35,115.62,115.62,0,0,0-4-33.73,114,114,0,0,0-5.19-15A115.17,115.17,0,0,0,231.27,80l-1.62-1.59A105.93,105.93,0,0,1,256,38.84a106,106,0,0,1,26.37,39.58,98.65,98.65,0,0,1,3.38,10.8A108,108,0,0,1,289,115.9,104.47,104.47,0,0,1,277.82,163.73ZM364.5,77.29a106.5,106.5,0,0,1-74.39,83.62,115.5,115.5,0,0,0,8.89-45,116.76,116.76,0,0,0-5.08-34.48A104.74,104.74,0,0,1,362.28,56c1.31,0,2.53,0,3.64.07A104.05,104.05,0,0,1,364.5,77.29Z"/><path class="cls-4" d="M429.39,257.07C429.39,351.9,326,486,257.69,486,196,486,86,351.9,86,257.07S161.18,126,256,126,429.39,162.25,429.39,257.07Z"/><circle class="cls-5" cx="256" cy="211" r="15"/><circle class="cls-5" cx="341" cy="211" r="15"/><circle class="cls-5" cx="191" cy="241" r="15"/><circle class="cls-5" cx="301" cy="251" r="15"/><circle class="cls-5" cx="381" cy="251" r="15"/><circle class="cls-5" cx="181" cy="301" r="15"/><circle class="cls-5" cx="256" cy="301" r="15"/><circle class="cls-5" cx="341" cy="301" r="15"/><circle class="cls-5" cx="221" cy="361" r="15"/><circle class="cls-5" cx="301" cy="361" r="15"/><circle class="cls-5" cx="256" cy="411" r="15"/><path d="M375.14,344.39a4.93,4.93,0,0,0-2.25-.54,5,5,0,0,0-4.47,2.76,269.35,269.35,0,0,1-19.75,33.07,5,5,0,0,0,8.18,5.75,278.66,278.66,0,0,0,16.28-26.27h0l0,0h0l0,0h0l0-.06.16-.29v0l0,0,0,0a.08.08,0,0,1,0,0s0,0,0,0l0,0,0,0a.05.05,0,0,1,0,0s0,0,0,0l0,0s0,0,0,0l0,0,0-.06,0,0v0l0,0,0,0s0,0,0,0l0,0s0,0,0,0a.05.05,0,0,0,0,0l0,0a.05.05,0,0,1,0,0s0,0,0,0l0,0v0l0-.05v0a.83.83,0,0,0,.07-.13v0l0-.05h0l0-.05,0,0a.08.08,0,0,1,0-.05s0,0,0,0l0,0s0,0,0,0l0-.05h0l.11-.21a.43.43,0,0,0,0-.07l0-.06h0l0-.06h0l0-.06c1-1.89,2-3.78,2.94-5.69A5,5,0,0,0,375.14,344.39Zm-31,49.93a5,5,0,0,0-7,.7l-.31.37a5,5,0,0,0,7.71,6.37l.34-.42A5,5,0,0,0,344.1,394.32Zm-13,15.24a5,5,0,0,0-7.08.08,159.13,159.13,0,0,1-29,23.83,5,5,0,0,0,5.29,8.49q2.52-1.57,5-3.3h0l.19-.13.05,0,.19-.13h0l0,0h0l.18-.13h0l.19-.13.05,0,.19-.13h0l.05,0,.14-.1.05,0a0,0,0,0,1,0,0l.17-.12,0,0,0,0h0l0,0,.09-.06h0l0,0a0,0,0,0,0,0,0l0,0h0l.13-.09h0l0,0h0l0,0h0l.09-.07,0,0s0,0,0,0l0,0h0l0,0h0l.08-.06h0l0,0h0l0,0h0l.12-.09h0l0,0,0,0,0,0h0l.14-.09h0l0,0h0l.12-.09h0l0,0h0l0,0s0,0,0,0l.12-.08,0,0,0,0h0l0,0h0l.07-.05h0l0,0h0l0,0h0l0,0,.08-.06h0l0,0h0l0,0h0l.07-.06h0l0,0h0l0,0h0l0,0h0l.06,0,0,0,0,0,0,0,0,0,0,0,.11-.08,0,0,0,0,0,0,0,0s0,0,0,0l0,0,0,0,0,0,0,0,0,0,0,0,0,0,0,0,.06,0,0,0,0,0,0,0,0,0,0,0h0l.05,0,0,0,0,0h0l0,0,0,0,0,0,.05,0s0,0,0,0l0,0,0,0,0,0,0,0,0,0,0,0,.05,0a0,0,0,0,0,0,0l0,0,0,0,0,0,0,0,0,0,0,0,0,0,0,0,0,0,0,0,0,0,0,0,0,0a.05.05,0,0,1,0,0l0,0,0,0,0,0,0,0,0,0,0,0,0,0,0,0,0,0,0,0,0,0,0,0,0,0,.05,0,0,0,0,0,0,0,0,0,0,0,0,0,0,0,0,0,0,0,0,0,0,0,0,0,0,0h0l.06-.05,0,0,0,0,0,0,0,0,0,0,0,0,0,0,0,0,0,0,0,0,0,0,0,0,0,0,0,0,0,0,0,0,0,0,0,0,0,0h0l.05-.05h0l0,0,0,0,0,0,0,0,0,0h0l.05,0,0,0,0,0s0,0,0,0l0,0,0,0,.05,0h0l0,0,0,0,0,0h0l0,0h0l.05,0h0l0,0,0,0,0,0,0,0,0,0h0l0,0,0,0,0,0,0,0,0,0,0,0,0,0,0,0,0,0,0,0,0,0,0,0,0,0,0,0,.05,0,0,0,0,0,0,0,0,0,0,0,0,0h0a.1.1,0,0,1,.05,0l0,0,0,0,0,0,0,0,0,0,.05,0,0,0,0,0,0,0,0,0,0,0,0,0,0,0a.1.1,0,0,0,.05,0h0l0,0,0,0,0,0,0,0,0,0,0,0,0,0,0,0,0,0,0,0,0,0,0,0,.05,0,0,0,0,0,0,0,0,0,0,0,0,0,0,0,.05,0,0,0,0,0,0,0,0,0s0,0,0,0l0,0h0a.1.1,0,0,1,0,0l0,0,0,0,0,0,0,0h0l.05,0,0,0,0,0,0,0,0,0,0,0,0,0,0,0,.05,0,0,0,0,0,0,0,0,0h0s0,0,0,0h0l.05,0,0,0,0,0,0,0,0,0h0s0,0,.05-.05h0l0,0,0,0,0,0,0,0,0,0h0l.06,0h0l0,0,0,0,0,0,0,0,.05,0h0l.05,0a0,0,0,0,1,0,0l0,0s0,0,0,0l0,0,0,0,.05,0h0l0,0h0l0,0,0,0,0,0,0,0,0,0,0,0,0,0h0l0,0h0l.05,0,0,0,0,0,.05-.05,0,0,0,0h0l.05-.05h0s0,0,0,0h0l0,0,0,0,.05,0s0,0,0,0l.05,0s0,0,0,0l0,0,0,0,0,0h0l.06-.05h0l0,0,0,0,0,0,0,0,0,0,0,0,.05,0,0,0,0,0,0,0,0,0h0l.05,0h0l0,0h0l0,0,0,0,0,0,0,0,.05,0v0l0,0,0,0,0,0,0,0,0,0h0l.06-.05h0l0,0,0,0,0,0,0,0,0,0h0l.05,0h0l0,0,0,0,0,0,0,0s0,0,.05-.05h0l0,0,0,0,0,0s0,0,0,0l0,0a0,0,0,0,0,0,0l.05,0,0,0,0,0,0,0,0,0,0,0,0,0,0,0,0,0,0,0,0,0,0,0,0,0,0,0a.1.1,0,0,0,0,0l0,0,0,0,0,0,0,0,0,0,0,0h0l0,0,0,0,0,0,0,0,0,0,0,0,0,0,0,0,0,0,0,0,0,0,0,0,0,0s0,0,0,0l.05,0h0l0,0,0,0,0,0,0,0,0,0,0,0,.05,0,0,0,0,0,0,0,0,0s0,0,0,0l0,0,0,0,0,0,0,0,0,0,0,0,0,0,0,0,.05,0,0,0,0,0,0,0,0,0,0,0,0,0,0,0,0,0,0,0,0,0,0,0,0,0,0,0,0,0,.05,0,0,0,0,0,0,0,0,0,0,0,.05-.05,0,0,0,0,0,0,0,0,0,0,0,0,0,0,0,0,0,0,0,0,0,0,0,0,0,0,0,0,0,0,.06-.05,0,0,0,0,0,0,0,0,0,0,.11-.1h0l0,0,0,0,0,0,0,0,.07-.06h0l0,0,0,0,0,0h0l.12-.11s0,0,0,0l0,0h0l0,0v0a.27.27,0,0,0,.08-.07h0l0,0h0l0,0,0,0,0,0h0l.09-.08,0,0v0l0,0h0l0,0h0l.07-.06,0,0,0,0h0l0,0s0,0,0,0a.63.63,0,0,0,.12-.11h0l0,0h0l.13-.12.09-.09h0l.12-.12h0l0,0h0l0,0h0l.08-.08h0l0,0h0l0,0v0l.13-.12,0,0h0l0,0h0l.12-.12h0l0,0,0,0,0,0,0,0,.12-.11h0l0,0h0l.17-.16h0l0,0,.14-.13,0,0h0l.18-.17.05-.05.18-.17h0l.18-.17h0l0-.05.19-.17,0-.05h0l.18-.17h0q2-2,4.06-4A5,5,0,0,0,331.06,409.56Z"/><path class="cls-6" d="M126,279.1a9.92,9.92,0,0,1-9.92-9.92c0-47.44,22.92-81.58,66.27-98.74a9.92,9.92,0,1,1,7.3,18.45C154,203,135.92,230,135.92,269.18A9.92,9.92,0,0,1,126,279.1Z"/></g><g id="Black_outlines_-_to_remove" data-name="Black outlines - to remove"><path d="M256,136c48.47,0,88.83,9.79,116.72,28.31,31,20.56,46.67,51.77,46.67,92.76,0,21.15-5.69,46-16.46,71.94a332.79,332.79,0,0,1-41.74,72.05c-16.92,22.32-35.5,41.14-53.74,54.42C289,468.9,271.81,476,257.69,476c-12.59,0-28.81-7.08-46.9-20.47S173.86,423.19,156.61,401c-17.74-22.86-32.71-47.8-43.29-72.11C102,302.82,96,278,96,257.07c0-41.18,15.17-72.42,45.08-92.83C168.15,145.76,207.89,136,256,136m0-10c-94.82,0-170,36.25-170,131.07S196,486,257.69,486c68.31,0,171.7-134.1,171.7-228.93S350.82,126,256,126Z"/></g></svg>