<svg xmlns="http://www.w3.org/2000/svg" viewBox="0 0 512 512"><defs><style>.cls-1{fill:#85c6ed;}.cls-2{fill:#f1c219;}.cls-3{fill:#f7f8f8;}.cls-4{fill:#c81e5d;}.cls-5{fill:#fff;opacity:0.3;}.cls-6{fill:#010101;}</style></defs><g id="BULINE"><circle class="cls-1" cx="256" cy="256" r="256"/></g><g id="Fruits"><circle class="cls-2" cx="256.33" cy="256" r="230"/><path class="cls-3" d="M256.33,68.52a187.47,187.47,0,1,1-132.57,54.91A186.25,186.25,0,0,1,256.33,68.52m0-42.52c-127,0-230,103-230,230s103,230,230,230,230-103,230-230-103-230-230-230Z"/><path class="cls-4" d="M256.33,54.35A201.58,201.58,0,0,1,398.92,398.59,201.65,201.65,0,1,1,177.85,70.18a200.31,200.31,0,0,1,78.48-15.83m0-28.35c-127,0-230,103-230,230s103,230,230,230,230-103,230-230-103-230-230-230Z"/><path d="M349.56,393.86a5,5,0,0,0-6.95-1.33,199.75,199.75,0,0,1-33.35,18.29,5,5,0,0,0,3.94,9.2,211.41,211.41,0,0,0,21.66-10.84l.27-.16.14-.08.14-.08.55-.32,2.45-1.45.07,0,.06,0h0l.06,0h0l.06,0h0l.06,0h0l.07,0,.06,0h0l.06,0v0l.05,0h0l.05,0h0l0,0h0l0,0h0l0,0h0l.05,0h0l.05,0h0l0,0h0l.05,0h0l.05,0h0a.1.1,0,0,1,.05,0h0a.09.09,0,0,0,.05,0h0l.05,0h0l.05,0h0l0,0h0l0,0h0l0,0h0l.05,0,0,0,0,0,0,0,.05,0,0,0,.05,0h0l0,0h0l.05,0h0l0,0h0l0,0h0s0,0,0,0l0,0,.05,0s0,0,0,0l0,0,0,0,0,0h0l0,0h0l0,0h0l0,0,0,0,0,0,0,0,0,0,0,0,0,0,0,0,0,0,0,0,0,0,0,0,0,0,0,0h0l0,0h0l.1-.07.05,0,0,0,.08-.05.06,0,.11-.07,0,0,0,0,.12-.07h0l.06,0,.05,0h0l.06,0,.05,0h0a.1.1,0,0,0,.05,0h0l.06,0h0l.05,0h0l0,0h0l0,0h0l.05,0h0l0,0h0l0,0,0,0,0,0h0l0,0h0l.05,0h0l0,0h0l.05,0h0l.06,0h0l.06,0h0l.06,0h0l.06,0h0a.1.1,0,0,1,.05,0h0l.06,0h0l.05,0h0l.05,0h0l.05,0h0l.05,0h0l.05,0h0l.05,0h0l.06,0h0l0,0h0l.06,0h0l.06,0,.06,0,.13-.08h0q1.83-1.18,3.63-2.41A5,5,0,0,0,349.56,393.86Zm15.69-12.42a5,5,0,0,0-7.05-.65l-.37.3A5,5,0,0,0,361,390a4.93,4.93,0,0,0,3.18-1.16l.28-.22,0,0,.07-.06,0,0A5,5,0,0,0,365.25,381.44Zm38.07-44.28a4.92,4.92,0,0,0-2.78-.86,5,5,0,0,0-4.16,2.21,201.16,201.16,0,0,1-24.13,29.41,5,5,0,0,0,7.08,7.07q3.18-3.23,6.23-6.56l.06-.06.05-.05h0l.05-.05h0l0-.05h0l0-.05h0l0-.05h0l.05-.05h0l0,0s0,0,0,0l0,0h0l0-.05h0l0-.05h0l0-.05h0l0-.05h0l.05,0v0l0,0v0l0,0h0l0-.05h0l0,0,0,0,0,0,0,0,0,0,0,0,.06-.06,0,0,0,0,0,0,0,0h0l0-.05h0l.05,0s0,0,0,0q6.53-7.31,12.36-15.19c.07-.08.13-.17.19-.25h0l0-.05h0l0-.05h0l0-.05v0l0,0,0,0,0,0,0,0,0-.05v0l0,0v0l0,0v0l0-.05v0l0,0,0,0,0,0v0l0,0,0,0,0,0s0,0,0,0l0,0v0l0,0,0,0s0,0,0,0l0,0,0,0,0,0s0,0,0,0l0,0,0,0,0,0a0,0,0,0,0,0,0l0,0,0,0,0,0,0,0,0,0,0,0,0,0,0,0,0,0,0,0,0,0,0,0,0,0,0,0,0,0v0l0,0,0,0,0,0,0,0,0,0,0,0,0,0,0,0,0,0v0l0,0,0,0,0,0s0,0,0,0,0,0,0,0l0,0,0,0s0,0,0,0l0,0s0,0,0,0l0,0,0,0,0,0v0a.13.13,0,0,0,0-.05l0,0,0,0v0l0-.05v0l0,0v0s0,0,0,0v0l0-.05,0,0,0,0v0l0,0h0l0-.05v0l0-.05h0l0-.05v0l0-.05h0l0-.06a.21.21,0,0,0,0-.06h0l0-.05h0l0-.06h0l0-.05h0l0-.06h0a.13.13,0,0,1,0-.06h0l.08-.12h0l0-.06,0-.06h0a.21.21,0,0,1,0-.06l0-.06h0l.27-.39c.68-1,1.34-1.94,2-2.93A5,5,0,0,0,403.32,337.16Z"/><path class="cls-5" d="M96.32,241.85a8.45,8.45,0,0,1-1.72-.18,8.56,8.56,0,0,1-6.69-10.1c5.63-27.72,18.24-54.76,36.45-78.2a200.31,200.31,0,0,1,66.47-55.22,8.57,8.57,0,0,1,7.79,15.27C151,137.74,115,184.32,104.7,235A8.57,8.57,0,0,1,96.32,241.85Z"/><ellipse class="cls-6" cx="256" cy="316" rx="10" ry="20"/><ellipse class="cls-6" cx="256" cy="196" rx="10" ry="20"/><ellipse class="cls-6" cx="298.43" cy="298.43" rx="10" ry="20" transform="translate(-123.61 298.43) rotate(-45)"/><ellipse class="cls-6" cx="213.57" cy="213.57" rx="10" ry="20" transform="translate(-88.47 213.57) rotate(-45)"/><ellipse class="cls-6" cx="316" cy="256" rx="20" ry="10"/><ellipse class="cls-6" cx="196" cy="256" rx="20" ry="10"/><ellipse class="cls-6" cx="298.43" cy="213.57" rx="20" ry="10" transform="translate(-63.61 273.57) rotate(-45)"/><ellipse class="cls-6" cx="213.57" cy="298.43" rx="20" ry="10" transform="translate(-148.47 238.43) rotate(-45)"/><ellipse class="cls-6" cx="256" cy="376" rx="10" ry="20"/><ellipse class="cls-6" cx="256" cy="136" rx="10" ry="20"/><ellipse class="cls-6" cx="376" cy="257" rx="20" ry="10"/><ellipse class="cls-6" cx="136" cy="256" rx="20" ry="10"/><ellipse class="cls-6" cx="339.81" cy="340.31" rx="10" ry="20" transform="translate(-141.11 339.96) rotate(-45)"/><ellipse class="cls-6" cx="170.19" cy="169.69" rx="10" ry="20" transform="translate(-70.14 170.04) rotate(-45)"/><ellipse class="cls-6" cx="341.81" cy="169.69" rx="20" ry="10" transform="translate(-19.87 291.4) rotate(-45)"/><ellipse class="cls-6" cx="170.19" cy="342.31" rx="20" ry="10" transform="translate(-192.21 220.6) rotate(-45)"/></g><g id="Black_outlines_-_to_remove" data-name="Black outlines - to remove"><path class="cls-6" d="M256.33,36A219.2,219.2,0,1,1,170.7,53.28,218.73,218.73,0,0,1,256.33,36m0-10c-127,0-230,103-230,230s103,230,230,230,230-103,230-230-103-230-230-230Z"/></g></svg>