<svg xmlns="http://www.w3.org/2000/svg" viewBox="0 0 512 512"><defs><style>.cls-1{fill:#85c6ed;}.cls-2{fill:#f36b21;}.cls-3{fill:#fff;opacity:0.3;}.cls-4{fill:#537c39;}</style></defs><g id="BULINE"><circle class="cls-1" cx="256" cy="256" r="256"/></g><g id="Fruits"><g id="_Group_" data-name="&lt;Group&gt;"><ellipse class="cls-2" cx="243.68" cy="295" rx="182.32" ry="191"/></g></g><g id="Black_outlines_-_to_remove" data-name="Black outlines - to remove"><path d="M340.49,426.93a5,5,0,0,0-7-1,150,150,0,0,1-32.39,18.7,5,5,0,1,0,3.85,9.22q4.65-2,9.16-4.19l.21-.11h0l.05,0h0l.05,0h0a.31.31,0,0,0,.1-.05h0l0,0h0l0,0s0,0,0,0l0,0h0l.08,0h0l0,0h0l0,0,0,0h0l0,0,0,0h0l0,0h0l0,0,0,0h0l.06,0h0l0,0h0l0,0h0l0,0h0l.06,0h0l0,0h0l0,0h0l.05,0h0l.07,0h0l.05,0h0l.05,0h0l.13-.07h0l.05,0h0l.05,0h0l.13-.06h0l.06,0h0l.06,0h0l.13-.07h0l.06,0h0l.2-.1.07,0,.21-.11a161,161,0,0,0,22.24-14.13A5,5,0,0,0,340.49,426.93Zm14.66-13.42a5,5,0,0,0-7.07-.1l-.34.33a5,5,0,0,0-.11,7.07,5,5,0,0,0,3.59,1.53,5,5,0,0,0,3.45-1.39l.24-.23,0,0,.12-.11A5,5,0,0,0,355.15,413.51Zm32.3-48.13a5,5,0,0,0-6.67,2.35,160.74,160.74,0,0,1-20,31.79,5,5,0,0,0,.75,7,4.94,4.94,0,0,0,3.14,1.11,5,5,0,0,0,3.89-1.85l.12-.16,0,0h0l.15-.18h0l0-.05h0l0,0,.07-.09h0l0,0v0l0,0v0l0,0,0,0,0-.06,0,0,0,0,0,0a0,0,0,0,1,0,0l0,0,0,0,0,0,0,0,0,0s0,0,0,0l0,0,0,0,0,0s0,0,0,0l0,0v0l0,0h0l0-.05h0l0-.05h0l0-.05h0l.09-.12.05-.06.05-.06.14-.18h0l0-.05.14-.19a167.88,167.88,0,0,0,10.59-15.18,172.86,172.86,0,0,0,9-16.39A5,5,0,0,0,387.45,365.38Z"/><path class="cls-3" d="M94.68,328.08a9.19,9.19,0,0,1-9.12-8.19c-4.66-42.87,4-81.67,24.89-112.21a9.19,9.19,0,0,1,15.15,10.39c-23.28,34-24.69,73-21.78,99.83A9.18,9.18,0,0,1,95.68,328C95.35,328.06,95,328.08,94.68,328.08Z"/><path d="M243.68,114c45.94,0,89.16,18.77,121.69,52.85S416,246.57,416,295,398,389,365.37,423.15,289.62,476,243.68,476,154.53,457.23,122,423.15,71.36,343.43,71.36,295s18-93.95,50.64-128.15S197.74,114,243.68,114m0-10C143,104,61.36,189.51,61.36,295S143,486,243.68,486,426,400.49,426,295,344.37,104,243.68,104Z"/></g><g id="Leaves_on_top" data-name="Leaves on top"><path class="cls-4" d="M393.21,134.31s-32.65,47.06-97.92,47.06a126,126,0,0,1-13.54-.71c-13.64,33.87-38.07,50.81-38.07,50.81S218.56,214.05,205,179.22a129.13,129.13,0,0,1-13,.64c-65.28,0-97.92-47.05-97.92-47.05s32.64-47.06,97.92-47.06a128.42,128.42,0,0,1,13.53.71,122.09,122.09,0,0,1,39.74,11,122.53,122.53,0,0,1,37-9.52,126.38,126.38,0,0,1,13-.65C360.56,87.26,393.21,134.31,393.21,134.31Z"/><path d="M295.29,87.26a126.38,126.38,0,0,0-13,.65,122.56,122.56,0,0,0-25.81,5.34,163,163,0,0,1,14.74-34.61,153.57,153.57,0,0,1,12.87-19A5.79,5.79,0,0,0,275,32.41,166.27,166.27,0,0,0,261.2,52.89a175.63,175.63,0,0,0-17.63,43.73,122,122,0,0,0-38-10.16,128.42,128.42,0,0,0-13.53-.71c-65.28,0-97.92,47.06-97.92,47.06s32.64,47.05,97.92,47.05a129.13,129.13,0,0,0,13-.64c13.52,34.83,38.64,52.25,38.64,52.25s24.43-16.94,38.07-50.81a126,126,0,0,0,13.54.71c65.27,0,97.92-47.06,97.92-47.06S360.56,87.26,295.29,87.26Zm66.95,62.92a113.3,113.3,0,0,1-66.95,21.19,118.57,118.57,0,0,1-12.48-.65,9.42,9.42,0,0,0-1.06-.06,10,10,0,0,0-9.27,6.27,116,116,0,0,1-28.8,41.57,116.09,116.09,0,0,1-29.32-42.9,10,10,0,0,0-9.31-6.38,8.88,8.88,0,0,0-1,.05,119,119,0,0,1-11.94.59,113.32,113.32,0,0,1-67-21.18,114.16,114.16,0,0,1-18-15.87,114.74,114.74,0,0,1,85-37.06,117.36,117.36,0,0,1,12.52.66,112.56,112.56,0,0,1,36.5,10.07,1.45,1.45,0,0,0,.22.09,185.61,185.61,0,0,0-3.42,29.49,5.79,5.79,0,0,0,5.58,6h.21a5.79,5.79,0,0,0,5.78-5.59,173.69,173.69,0,0,1,4-31.55,113.12,113.12,0,0,1,29.86-7.06,119.09,119.09,0,0,1,12-.59,114.7,114.7,0,0,1,85,37.05A113.15,113.15,0,0,1,362.24,150.18Z"/></g></svg>