<svg xmlns="http://www.w3.org/2000/svg" viewBox="0 0 512 512"><defs><style>.cls-1{fill:#28273d;}.cls-2{fill:#049146;}.cls-3{fill:#010101;}.cls-4{fill:#172850;}.cls-5{fill:#fff;opacity:0.3;}</style></defs><g id="BULINE"><circle class="cls-1" cx="256" cy="256" r="256"/></g><g id="Fruits"><path class="cls-2" d="M256.47,24.68s-28.07,19.48-40,58.43C173.15,44.27,123,53.33,123,53.33s-9.8,54.2,34.59,98.59a119.39,119.39,0,0,0,74.5,35C244,204.31,256.47,213,256.47,213s45.26-31.39,45.26-94.16S256.47,24.68,256.47,24.68Z"/><path class="cls-3" d="M256.47,24.68s-28.08,19.48-40,58.42a119.57,119.57,0,0,0-80.06-30.68,83.3,83.3,0,0,0-13.42.92s-9.81,54.18,34.59,98.58a119.39,119.39,0,0,0,74.5,35C244,204.31,256.47,213,256.47,213s45.26-31.38,45.26-94.17S256.47,24.68,256.47,24.68ZM165,144.53A109.59,109.59,0,0,1,132.6,62.94c1.17,0,2.44-.08,3.81-.08h0A109.49,109.49,0,0,1,213.56,94.7a123.54,123.54,0,0,0-2.34,24.13,119.28,119.28,0,0,0,13.95,56.7A109.07,109.07,0,0,1,165,144.53Zm91.51,54.88a109.16,109.16,0,0,1-11.09-12c-1.17-1.48-2.36-3-3.53-4.7-1.36-1.92-2.66-3.86-3.87-5.83a108.13,108.13,0,0,1-16.31-58,117.27,117.27,0,0,1,.86-14.25,109.52,109.52,0,0,1,33.94-66.31,109.41,109.41,0,0,1,34.81,80.56,109.41,109.41,0,0,1-34.81,80.58Z"/><circle class="cls-4" cx="256" cy="202.4" r="46.12"/><path class="cls-5" d="M237.57,211.55a8.55,8.55,0,0,1-1-.06,9.15,9.15,0,0,1-8.1-10.09,36.52,36.52,0,0,1,11-22.76A9.15,9.15,0,0,1,252,192a18.45,18.45,0,0,0-5.39,11.41A9.15,9.15,0,0,1,237.57,211.55Z"/><path d="M282.81,198v0l0-.08h0s0-.05,0-.08v0h0a.94.94,0,0,0,0-.09v0h0v0l0-.07v0s0,0,0,0l0-.07h0v0a.13.13,0,0,0,0-.06v0h0s0,0,0,0h0v0h0v0h0s0,0,0,0,0,0,0,0h0v0h0a0,0,0,0,0,0,0h0v0h0v0s0,0,0,0h0s0,0,0,0h0v0h0a0,0,0,0,1,0,0v0h0s0,0,0,0v0h0v0s0,0,0,0h0v0a0,0,0,0,1,0,0,4.62,4.62,0,0,0-5.8-3l-.05,0a4.6,4.6,0,0,0-2.94,5.77,18.38,18.38,0,0,1-8,21.36,4.61,4.61,0,0,0,3.85,8.32,4.88,4.88,0,0,0,.93-.43A27.69,27.69,0,0,0,282.81,198Zm-29,25.13-.31,0a4.61,4.61,0,1,0-1.28,9.13,0,0,0,0,0,0,0h.45a5.46,5.46,0,0,0,.56,0,4.94,4.94,0,0,0,1.45-.23,4.62,4.62,0,0,0-.88-9Z"/><circle class="cls-4" cx="347.97" cy="202.4" r="46.12"/><path class="cls-5" d="M329.53,211.55a8.51,8.51,0,0,1-1-.06,9.15,9.15,0,0,1-8.1-10.09,36.47,36.47,0,0,1,11.05-22.76A9.15,9.15,0,1,1,344,192a18.5,18.5,0,0,0-5.38,11.41A9.15,9.15,0,0,1,329.53,211.55Z"/><path d="M374.78,198v0l0-.08h0s0-.05,0-.08v0h0s0-.06,0-.09v0h0v0l0-.07v0s0,0,0,0l0-.07h0v0a.14.14,0,0,0,0-.06v0h0s0,0,0,0h0v0h0v0h0s0,0,0,0,0,0,0,0h0v0h0a0,0,0,0,0,0,0h0a0,0,0,0,0,0,0h0v0h0v0s0,0,0,0h0s0,0,0,0h0v0h0a0,0,0,0,1,0,0v0h0s0,0,0,0v0h0v0s0,0,0,0h0a0,0,0,0,1,0,0h0v0a4.62,4.62,0,0,0-5.8-3l-.05,0a4.6,4.6,0,0,0-2.94,5.77,18.38,18.38,0,0,1-8,21.36,4.61,4.61,0,0,0,3.85,8.32,4.88,4.88,0,0,0,.93-.43A27.71,27.71,0,0,0,374.78,198Zm-29,25.13-.3,0a4.61,4.61,0,1,0-1.28,9.13,0,0,0,0,0,0,0h.45a5.46,5.46,0,0,0,.56,0,4.94,4.94,0,0,0,1.45-.23,4.62,4.62,0,0,0-.89-9Z"/><circle class="cls-4" cx="164.03" cy="202.4" r="46.12"/><path class="cls-5" d="M145.6,211.55a8.55,8.55,0,0,1-1-.06,9.15,9.15,0,0,1-8.1-10.09,36.52,36.52,0,0,1,11-22.76A9.15,9.15,0,0,1,160.07,192a18.51,18.51,0,0,0-5.39,11.41A9.15,9.15,0,0,1,145.6,211.55Z"/><path d="M190.84,198v0l0-.08h0a.22.22,0,0,1,0-.08v0h0a.94.94,0,0,0,0-.09v0h0v0l0-.07v0s0,0,0,0l0-.07h0v0a.14.14,0,0,0,0-.06v0h0s0,0,0,0h0v0h0v0h0s0,0,0,0,0,0,0,0h0v0h0a0,0,0,0,0,0,0h0a0,0,0,0,0,0,0h0v0h0v0s0,0,0,0h0s0,0,0,0h0v0h0a0,0,0,0,1,0,0v0h0s0,0,0,0v0h0v0s0,0,0,0h0a0,0,0,0,1,0,0h0v0a0,0,0,0,1,0,0,4.62,4.62,0,0,0-5.79-3l-.06,0a4.6,4.6,0,0,0-2.94,5.77,18.38,18.38,0,0,1-8,21.36,4.61,4.61,0,0,0,4.78,7.89A27.69,27.69,0,0,0,190.84,198Zm-29,25.13-.31,0a4.61,4.61,0,1,0-1.28,9.13,0,0,0,0,0,0,0h.4a0,0,0,0,1,0,0h0c.2,0,.38,0,.56,0a4.94,4.94,0,0,0,1.45-.23,4.62,4.62,0,0,0-.88-9Z"/><circle class="cls-4" cx="210.02" cy="281.55" r="46.12"/><path class="cls-5" d="M191.58,290.71a8.39,8.39,0,0,1-1-.06,9.15,9.15,0,0,1-8.11-10.09,36.63,36.63,0,0,1,11.05-22.77,9.15,9.15,0,1,1,12.53,13.35,18.5,18.5,0,0,0-5.38,11.41A9.17,9.17,0,0,1,191.58,290.71Z"/><path d="M236.83,277.11v0l0-.09h0s0-.06,0-.08v0h0a.46.46,0,0,0,0-.09v0h0v0a.2.2,0,0,1,0-.07v0s0,0,0,0a.64.64,0,0,0,0-.07h0v0s0,0,0,0a.11.11,0,0,0,0-.06v0h0s0,0,0,0h0v0h0v0h0s0,0,0,0v0h0v0h0v0h0v0h0v0h0v0h0v0h0v0h0v0h0v0h0a0,0,0,0,0,0,0h0v0a4.61,4.61,0,0,0-5.79-3l-.05,0a4.61,4.61,0,0,0-2.95,5.77,18.37,18.37,0,0,1-8,21.35,4.62,4.62,0,0,0,3.84,8.33,4.37,4.37,0,0,0,.93-.43A27.7,27.7,0,0,0,236.83,277.11Zm-29,25.13-.3,0a4.49,4.49,0,0,0-2.1.2,4.6,4.6,0,0,0,.81,8.93h.06s0,0,0,0h.4a5.25,5.25,0,0,0,.56,0,4.61,4.61,0,0,0,.56-9.19Z"/><circle class="cls-4" cx="301.98" cy="281.55" r="46.12"/><path class="cls-5" d="M283.55,290.71a8.68,8.68,0,0,1-1-.06,9.15,9.15,0,0,1-8.1-10.09,36.63,36.63,0,0,1,11.05-22.77A9.15,9.15,0,1,1,298,271.14a18.56,18.56,0,0,0-5.39,11.41A9.15,9.15,0,0,1,283.55,290.71Z"/><path d="M328.79,277.11v0l0-.09h0s0-.06,0-.08v0h0a.46.46,0,0,0,0-.09v0h0v0a.64.64,0,0,0,0-.07v-.06a.64.64,0,0,0,0-.07h0v0s0,0,0,0a.11.11,0,0,0,0-.06v0h0s0,0,0,0h0v0h0v0h0s0,0,0,0v0h0v0h0v0h0v0h0v0h0v0h0v0h0v0h0v0h0v0h0a0,0,0,0,0,0,0h0v0a4.61,4.61,0,0,0-5.79-3l-.06,0a4.61,4.61,0,0,0-2.94,5.77,18.37,18.37,0,0,1-8,21.35A4.62,4.62,0,0,0,315.4,308a4.37,4.37,0,0,0,.93-.43A27.68,27.68,0,0,0,328.79,277.11Zm-29,25.13-.3,0a4.49,4.49,0,0,0-2.1.2,4.6,4.6,0,0,0,.81,8.93h.06s0,0,0,0h.39l.57,0a4.73,4.73,0,0,0,1.45-.23,4.62,4.62,0,0,0-.89-9Z"/><circle class="cls-4" cx="118.05" cy="281.55" r="46.12"/><path class="cls-5" d="M99.61,290.71a8.39,8.39,0,0,1-1-.06,9.16,9.16,0,0,1-8.11-10.09,36.63,36.63,0,0,1,11-22.77,9.15,9.15,0,1,1,12.53,13.35,18.5,18.5,0,0,0-5.38,11.41A9.17,9.17,0,0,1,99.61,290.71Z"/><path d="M144.86,277.11v0l0-.09h0s0-.06,0-.08v0h0a.46.46,0,0,0,0-.09v0h0v0a.64.64,0,0,0,0-.07v0s0,0,0,0a.64.64,0,0,0,0-.07h0v0s0,0,0,0a.11.11,0,0,0,0-.06v0h0v0h0v0h0v0h0s0,0,0,0v0h0v0h0v0h0v0h0v0h0v0h0v0h0v0h0v0h0v0h0a0,0,0,0,0,0,0h0v0a4.61,4.61,0,0,0-5.79-3l-.05,0a4.61,4.61,0,0,0-2.95,5.77,18.35,18.35,0,0,1-8,21.35,4.62,4.62,0,0,0,3.84,8.33,4.69,4.69,0,0,0,.94-.43A27.71,27.71,0,0,0,144.86,277.11Zm-29,25.13-.3,0a4.49,4.49,0,0,0-2.1.2,4.6,4.6,0,0,0,.82,8.93h.05s0,0,0,0h.4l.56,0a4.61,4.61,0,0,0,.56-9.19Z"/><circle class="cls-4" cx="393.95" cy="281.55" r="46.12"/><path class="cls-5" d="M375.52,290.71a8.68,8.68,0,0,1-1-.06,9.15,9.15,0,0,1-8.1-10.09,36.58,36.58,0,0,1,11-22.77A9.15,9.15,0,1,1,390,271.14a18.51,18.51,0,0,0-5.39,11.41A9.15,9.15,0,0,1,375.52,290.71Z"/><path d="M420.76,277.11v0l0-.09h0s0-.06,0-.08v0h0l0-.09v0h0v0a.64.64,0,0,0,0-.07v0s0,0,0,0a.15.15,0,0,0,0-.07h0v0s0,0,0,0a.11.11,0,0,0,0-.06v0h0s0,0,0,0h0v0h0v0h0s0,0,0,0v0h0v0h0v0h0v0h0v0h0v0h0v0h0v0h0v0h0v0h0a0,0,0,0,0,0,0h0v0a4.61,4.61,0,0,0-5.79-3l-.06,0a4.6,4.6,0,0,0-2.94,5.77,18.36,18.36,0,0,1-8,21.35,4.62,4.62,0,1,0,4.78,7.9A27.68,27.68,0,0,0,420.76,277.11Zm-29,25.13-.31,0a4.46,4.46,0,0,0-2.09.2,4.6,4.6,0,0,0,.81,8.93h.06s0,0,0,0h.39l.57,0a4.61,4.61,0,0,0,.56-9.19Z"/><circle class="cls-4" cx="256" cy="360.71" r="46.12"/><path class="cls-5" d="M237.57,369.86c-.34,0-.67,0-1-.05a9.15,9.15,0,0,1-8.1-10.09,36.55,36.55,0,0,1,11-22.77A9.15,9.15,0,0,1,252,350.29a18.48,18.48,0,0,0-5.39,11.42A9.15,9.15,0,0,1,237.57,369.86Z"/><path d="M282.81,356.26h0l0-.09h0s0-.06,0-.09h0l0-.1h0v0s0-.05,0-.08,0,0,0,0v0s0-.05,0-.08h0s0,0,0,0v0a.15.15,0,0,0,0-.07h0s0,0,0-.05h0v0h0v0h0s0,0,0,0v0h0v0h0a0,0,0,0,0,0,0h0v0h0v0h0v0h0v0h0v0a0,0,0,0,0,0,0h0v0h0v0h0a4.61,4.61,0,0,0-5.8-3l-.05,0a4.59,4.59,0,0,0-2.94,5.77,18.37,18.37,0,0,1-8,21.35,4.62,4.62,0,0,0,3.85,8.33,4.88,4.88,0,0,0,.93-.43A27.7,27.7,0,0,0,282.81,356.26Zm-29,25.14-.31,0a4.56,4.56,0,0,0-2.09.19,4.61,4.61,0,0,0,.81,8.94h.46l.56,0a4.61,4.61,0,0,0,.57-9.19Z"/><circle class="cls-4" cx="347.97" cy="360.71" r="46.12"/><path class="cls-5" d="M329.53,369.86c-.33,0-.66,0-1-.05a9.15,9.15,0,0,1-8.1-10.09A36.5,36.5,0,0,1,331.48,337,9.15,9.15,0,0,1,344,350.29a18.52,18.52,0,0,0-5.38,11.42A9.15,9.15,0,0,1,329.53,369.86Z"/><path d="M374.78,356.26h0l0-.09h0s0-.06,0-.09h0s0-.07,0-.1h0v0s0-.05,0-.08,0,0,0,0v0s0-.05,0-.08h0s0,0,0,0v0a.14.14,0,0,0,0-.07h0s0,0,0-.05h0v0h0v0h0s0,0,0,0v0h0v0h0a0,0,0,0,0,0,0h0v0h0v0h0v0h0v0h0v0a0,0,0,0,0,0,0h0v0h0v0h0a4.61,4.61,0,0,0-5.8-3l-.05,0a4.59,4.59,0,0,0-2.94,5.77,18.37,18.37,0,0,1-8,21.35,4.62,4.62,0,0,0,3.85,8.33,4.88,4.88,0,0,0,.93-.43A27.72,27.72,0,0,0,374.78,356.26Zm-29,25.14-.3,0a4.56,4.56,0,0,0-2.09.19,4.61,4.61,0,0,0,.81,8.94h.27a0,0,0,0,0,0,0h.18l.56,0a4.61,4.61,0,0,0,.56-9.19Z"/><circle class="cls-4" cx="164.03" cy="360.71" r="46.12"/><path class="cls-5" d="M145.6,369.86c-.34,0-.67,0-1-.05a9.15,9.15,0,0,1-8.1-10.09,36.55,36.55,0,0,1,11-22.77,9.15,9.15,0,0,1,12.53,13.34,18.53,18.53,0,0,0-5.39,11.42A9.15,9.15,0,0,1,145.6,369.86Z"/><path d="M190.84,356.26h0l0-.09h0a.28.28,0,0,1,0-.09h0l0-.1h0v0s0-.05,0-.08,0,0,0,0v0s0-.05,0-.08h0s0,0,0,0v0a.14.14,0,0,0,0-.07h0s0,0,0-.05h0v0h0v0h0s0,0,0,0v0h0v0h0a0,0,0,0,0,0,0h0v0h0v0h0v0h0v0h0v0h0v0h0v0h0a4.61,4.61,0,0,0-5.79-3l-.06,0a4.59,4.59,0,0,0-2.94,5.77,18.37,18.37,0,0,1-8,21.35,4.62,4.62,0,1,0,4.78,7.9A27.7,27.7,0,0,0,190.84,356.26Zm-29,25.14-.31,0a4.56,4.56,0,0,0-2.09.19,4.61,4.61,0,0,0,.81,8.94h.46l.56,0a4.61,4.61,0,0,0,.57-9.19Z"/><circle class="cls-4" cx="210.02" cy="439.87" r="46.12"/><path class="cls-5" d="M191.58,449c-.33,0-.67,0-1,0a9.15,9.15,0,0,1-8.11-10.09,36.6,36.6,0,0,1,11.05-22.77,9.15,9.15,0,1,1,12.53,13.34,18.5,18.5,0,0,0-5.38,11.41A9.16,9.16,0,0,1,191.58,449Z"/><path d="M236.83,435.42v0l0-.08h0a0,0,0,0,0,0,0h0s0,0,0-.08v0h0l0-.1v0h0a.22.22,0,0,1,0-.08v0h0s0,0,0,0l0-.08h0s0,0,0,0a.14.14,0,0,0,0-.07v0h0s0,0,0-.05h0v0h0s0,0,0-.05v0h0v0h0a0,0,0,0,0,0,0h0v0h0v0h0v0h0v0h0v0h0v0h0s0,0,0,0h0v0a4.6,4.6,0,0,0-5.79-3h-.05a4.62,4.62,0,0,0-2.95,5.78,18.37,18.37,0,0,1-8,21.35,4.62,4.62,0,0,0,3.84,8.33,4,4,0,0,0,.93-.44A27.69,27.69,0,0,0,236.83,435.42Zm-29,25.14-.3,0a4.61,4.61,0,0,0-1.29,9.13,0,0,0,0,0,0,0h.46a5.27,5.27,0,0,0,.56,0,4.61,4.61,0,0,0,.56-9.19Z"/><circle class="cls-4" cx="301.98" cy="439.87" r="46.12"/><path class="cls-5" d="M283.55,449c-.33,0-.67,0-1,0a9.15,9.15,0,0,1-8.1-10.09,36.6,36.6,0,0,1,11.05-22.77A9.15,9.15,0,1,1,298,429.45a18.56,18.56,0,0,0-5.39,11.41A9.14,9.14,0,0,1,283.55,449Z"/><path d="M328.79,435.42v0l0-.08h0a0,0,0,0,0,0,0h0s0,0,0-.08v0h0l0-.1v0h0l0-.08v0h0v0s0,0,0-.08h0s0,0,0,0a.14.14,0,0,0,0-.07v0h0s0,0,0-.05h0v0h0s0,0,0-.05v0h0v0h0a0,0,0,0,0,0,0h0v0h0v0h0v0h0v0h0v0h0v0h0s0,0,0,0h0v0a4.61,4.61,0,0,0-5.79-3h-.06a4.63,4.63,0,0,0-2.94,5.78,18.37,18.37,0,0,1-8,21.35,4.62,4.62,0,0,0,3.84,8.33,4,4,0,0,0,.93-.44A27.67,27.67,0,0,0,328.79,435.42Zm-29,25.14-.3,0a4.61,4.61,0,1,0-1.29,9.13,0,0,0,0,0,0,0h.45a5.66,5.66,0,0,0,.57,0,4.73,4.73,0,0,0,1.45-.23,4.62,4.62,0,0,0-.89-9Z"/></g><g id="Black_outlines_-_to_remove" data-name="Black outlines - to remove"><path d="M440.07,281.55a46.13,46.13,0,0,0-64.25-42.4A46.11,46.11,0,1,0,302,199.09a46.1,46.1,0,0,0-92,0,46.11,46.11,0,1,0-73.84,40.06,46.12,46.12,0,1,0,0,84.81,46.12,46.12,0,0,0,46,79.16A46.11,46.11,0,1,0,256,443.17a46.11,46.11,0,1,0,73.83-40.05,46.12,46.12,0,0,0,46-79.16,46.13,46.13,0,0,0,64.25-42.41Zm-9.22,0A36.9,36.9,0,1,1,394,244.66,36.94,36.94,0,0,1,430.85,281.55ZM348,278.25a46.05,46.05,0,0,0-18.14-33.45,46.18,46.18,0,0,0,36.27,0A46.08,46.08,0,0,0,348,278.25Zm-46,79.16A46,46,0,0,0,283.85,324a46.18,46.18,0,0,0,36.27,0A46.07,46.07,0,0,0,302,357.41ZM256,397.6a36.89,36.89,0,1,1,36.89-36.89A36.93,36.93,0,0,1,256,397.6Zm18.13,5.52A46.06,46.06,0,0,0,256,436.57a46.06,46.06,0,0,0-18.13-33.45,46.15,46.15,0,0,0,36.26,0ZM210,357.41A46.07,46.07,0,0,0,191.88,324a46.18,46.18,0,0,0,36.27,0A46,46,0,0,0,210,357.41Zm46-72.55a46,46,0,0,0,18.13,33.44,46.27,46.27,0,0,0-36.26,0A46,46,0,0,0,256,284.86Zm0-6.61a46.08,46.08,0,0,0-18.13-33.45,46.15,46.15,0,0,0,36.26,0A46.08,46.08,0,0,0,256,278.25Zm-46-33.59a36.9,36.9,0,1,1-36.9,36.89A36.93,36.93,0,0,1,210,244.66Zm-18.14-5.51A46.09,46.09,0,0,0,210,205.7a46,46,0,0,0,18.13,33.45,46.18,46.18,0,0,0-36.27,0ZM302,318.45a36.9,36.9,0,1,1,36.9-36.9A36.94,36.94,0,0,1,302,318.45Zm-18.13-79.3A46,46,0,0,0,302,205.7a46.09,46.09,0,0,0,18.14,33.45,46.18,46.18,0,0,0-36.27,0ZM348,165.5a36.9,36.9,0,1,1-36.89,36.9A36.94,36.94,0,0,1,348,165.5Zm-92,0a36.9,36.9,0,1,1-36.89,36.9A36.94,36.94,0,0,1,256,165.5ZM127.14,202.4A36.89,36.89,0,1,1,164,239.29,36.94,36.94,0,0,1,127.14,202.4ZM164,248.51a45.88,45.88,0,0,0,18.14-3.71A46.05,46.05,0,0,0,164,278.25,46.08,46.08,0,0,0,145.9,244.8,45.8,45.8,0,0,0,164,248.51Zm-82.88,33a36.9,36.9,0,1,1,36.9,36.9A36.94,36.94,0,0,1,81.15,281.55ZM164,284.86a46,46,0,0,0,18.14,33.44,46.29,46.29,0,0,0-36.27,0A46,46,0,0,0,164,284.86Zm-36.89,75.85A36.89,36.89,0,1,1,164,397.6,36.93,36.93,0,0,1,127.14,360.71ZM210,364a46,46,0,0,0,18.13,33.44,46.29,46.29,0,0,0-36.27,0A46,46,0,0,0,210,364Zm0,112.74a36.89,36.89,0,1,1,36.89-36.89A36.94,36.94,0,0,1,210,476.76Zm128.86-36.89A36.9,36.9,0,1,1,302,403,36.94,36.94,0,0,1,338.88,439.87ZM302,393.76a46,46,0,0,0-18.13,3.7A46,46,0,0,0,302,364a46,46,0,0,0,18.14,33.44A46.05,46.05,0,0,0,302,393.76Zm82.88-33.05A36.89,36.89,0,1,1,348,323.82,36.93,36.93,0,0,1,384.86,360.71ZM348,314.6a46.05,46.05,0,0,0-18.14,3.7A46,46,0,0,0,348,284.86,46,46,0,0,0,366.1,318.3,46,46,0,0,0,348,314.6Z"/></g></svg>