<svg xmlns="http://www.w3.org/2000/svg" viewBox="0 0 512 512"><defs><style>.cls-1{fill:#a99bcb;}.cls-2{fill:#049146;}.cls-3{fill:#010101;}.cls-4{fill:#e34498;}.cls-5{fill:#fff;opacity:0.3;}</style></defs><g id="BULINE"><circle class="cls-1" cx="256" cy="256" r="256"/></g><g id="Fruits"><path class="cls-2" d="M375,74.78q-.15,1.14-.33,2.31h0q-.18,1.17-.39,2.37a114.62,114.62,0,0,1-9.2,29.18q-.66,1.41-1.38,2.82c-.24.48-.48,1-.73,1.42-.5,1-1,1.9-1.54,2.85q-2.4,4.26-5.32,8.56c-.32.47-.65,1-1,1.42q-2.52,3.57-5.44,7.1-3.51,4.25-7.65,8.39a114,114,0,0,1-57.65,31.46,115.3,115.3,0,0,1-12.95,2c-4.05.39-7.71.53-10.88.53-1.64,0-3.15,0-4.51-.1s-2.87.1-4.51.1c-3.19,0-6.87-.14-10.94-.53a118,118,0,0,1-13-2c-2.17-.46-4.4-1-6.67-1.62q-2.56-.71-5.19-1.56c-.58-.18-1.17-.38-1.77-.59-1.18-.41-2.36-.84-3.56-1.29a113.29,113.29,0,0,1-16.48-7.88c-.62-.36-1.24-.72-1.85-1.1-1.24-.76-2.48-1.54-3.72-2.36s-2.47-1.67-3.71-2.56-2.47-1.82-3.7-2.78A119.45,119.45,0,0,1,170,141.21c-42.47-42.47-33.09-94.33-33.09-94.33A79.72,79.72,0,0,1,149.77,46c1,0,2.09,0,3.21,0l1.57.06c.63,0,1.28,0,1.94.1.51,0,1,.06,1.56.1l.3,0,1.53.13c2.06.18,4.23.43,6.48.77.48.06,1,.14,1.46.22a114.45,114.45,0,0,1,21.05,5.41c2,.74,4.09,1.54,6.17,2.43l1.26.55c.83.37,1.66.75,2.5,1.15,0,0,0,0,0,0q1.26.6,2.52,1.23c.42.21.85.42,1.27.65.84.44,1.69.89,2.53,1.36h0c.85.47,1.69,1,2.54,1.45h0l2.54,1.54h0q1.9,1.2,3.82,2.49l1.28.88c2.12,1.49,4.24,3.08,6.34,4.78h0a116.08,116.08,0,0,1,24.4-36.84l.61-.61c.6-.61,1.19-1.17,1.75-1.71A72.61,72.61,0,0,1,256,25.79s1,.73,2.8,2.18l.8.67,1.34,1.17,1,.89c.35.31.7.64,1.06,1s.74.7,1.13,1.07a115.68,115.68,0,0,1,26.2,38.64h0q1.89-1.53,3.8-3c.43-.32.85-.63,1.28-.93,1.27-.92,2.55-1.8,3.82-2.64q3.19-2.11,6.38-3.92l2.54-1.41a112.76,112.76,0,0,1,16.23-7.12q2.43-.84,4.8-1.56l2.45-.7c.76-.21,1.51-.4,2.26-.59,3.54-.91,6.95-1.59,10.19-2.11.58-.1,1.15-.18,1.72-.26,2.18-.32,4.27-.56,6.27-.74.57-.06,1.14-.1,1.7-.14h.15l1.7-.12,1.85-.09,1.63-.06c1.11,0,2.18,0,3.19,0a79.72,79.72,0,0,1,12.84.88S377.17,58.28,375,74.78Z"/><path class="cls-3" d="M375.11,46.88A79.72,79.72,0,0,0,362.27,46c-1,0-2.08,0-3.19,0l-1.63.06-1.85.09-1.7.12h-.15c-.56,0-1.13.08-1.7.14-2,.18-4.09.42-6.27.74-.57.08-1.14.16-1.72.26-3.24.52-6.65,1.2-10.19,2.11-.75.19-1.5.38-2.26.59l-2.45.7q-2.37.71-4.8,1.56a112.76,112.76,0,0,0-16.23,7.12c-.85.45-1.69.92-2.54,1.41q-3.18,1.8-6.38,3.92-1.92,1.26-3.82,2.64c-.43.3-.85.61-1.28.93q-1.91,1.41-3.8,2.94a115.68,115.68,0,0,0-26.2-38.64c-.39-.37-.76-.73-1.13-1.07s-.71-.67-1.06-1l-1-.89-1.34-1.17-.8-.67c-1.76-1.45-2.8-2.18-2.8-2.18a72.61,72.61,0,0,0-7.54,6.41c-.56.53-1.15,1.1-1.75,1.71l-.61.61a116.08,116.08,0,0,0-24.4,36.84q-3.16-2.55-6.35-4.77l-1.28-.88q-1.92-1.3-3.82-2.49h0c-.85-.54-1.69-1-2.54-1.54h0c-.85-.51-1.69-1-2.54-1.45h0c-.84-.48-1.68-.93-2.53-1.36-.42-.23-.85-.44-1.27-.65q-1.26-.64-2.52-1.23s0,0,0,0c-.83-.4-1.67-.79-2.5-1.15L195,55.29q-3.1-1.34-6.17-2.43a114.45,114.45,0,0,0-21.05-5.41c-.49-.08-1-.16-1.46-.22-2.25-.34-4.42-.59-6.48-.77l-1.53-.13-.3,0c-.53,0-1.05-.08-1.56-.1-.66-.05-1.31-.08-1.94-.1L153,46.05c-1.12,0-2.19,0-3.21,0a79.72,79.72,0,0,0-12.84.88S127.55,98.74,170,141.21A119.45,119.45,0,0,0,181,150.92c1.23,1,2.47,1.89,3.7,2.78s2.47,1.74,3.71,2.56,2.48,1.61,3.72,2.36c.61.38,1.23.74,1.85,1.1a111.78,111.78,0,0,0,16.48,7.88c1.2.45,2.38.88,3.56,1.29.6.21,1.19.41,1.77.59,1.75.58,3.48,1.09,5.19,1.56,2.27.62,4.5,1.16,6.67,1.62a118,118,0,0,0,13,2c4.07.39,7.75.53,10.94.53,1.64,0,3.15,0,4.51-.1s2.87.1,4.51.1c3.17,0,6.83-.14,10.88-.53a115.3,115.3,0,0,0,12.95-2A114,114,0,0,0,342,141.21h0q4.14-4.14,7.64-8.39,2.93-3.52,5.44-7.1c.34-.47.67-1,1-1.42,2-2.86,3.72-5.71,5.32-8.56.53-.95,1-1.9,1.54-2.85.25-.47.49-.94.73-1.42q.72-1.41,1.38-2.82a114.62,114.62,0,0,0,9.2-29.18q.21-1.2.39-2.37h0q.18-1.17.33-2.31C377.17,58.28,375.11,46.88,375.11,46.88Zm-120,118.24c-1.12,0-2.33.07-3.65.07s-3,0-4.65-.11a104.48,104.48,0,0,1-12.69-1.36,106.59,106.59,0,0,1-12.3-2.83,106.5,106.5,0,0,1-74.33-83.6,104.82,104.82,0,0,1-1.42-21.22c1.11,0,2.33-.07,3.65-.07a104.71,104.71,0,0,1,68.31,25.38c2,1.77,4.09,3.65,6.11,5.67.7.7,1.39,1.41,2.06,2.12a103.19,103.19,0,0,1,24.57,42.18,107.51,107.51,0,0,1,2.91,12.55A104.18,104.18,0,0,1,255.16,165.12Zm22.65-1.39a105.6,105.6,0,0,1-12.64,1.35,115.62,115.62,0,0,0-4-33.73,114,114,0,0,0-5.19-15A115.17,115.17,0,0,0,231.26,80q-.81-.81-1.62-1.59A105.93,105.93,0,0,1,256,38.84a106,106,0,0,1,26.37,39.58,98.65,98.65,0,0,1,3.38,10.8A108,108,0,0,1,289,115.9,104.47,104.47,0,0,1,277.81,163.73Zm86.68-86.44a106.5,106.5,0,0,1-74.39,83.62,115.5,115.5,0,0,0,8.89-45,116.76,116.76,0,0,0-5.08-34.48A104.74,104.74,0,0,1,362.27,56c1.31,0,2.53,0,3.64.07A104.05,104.05,0,0,1,364.49,77.29Z"/><path d="M198.9,152.12a64.71,64.71,0,0,0-82.83,94.65,54.29,54.29,0,0,1,11.19-1.87,53.51,53.51,0,0,1-6.38-9.35,54.7,54.7,0,0,1,85.18-66.28,54.94,54.94,0,0,1,1.67-11.6A63.94,63.94,0,0,0,198.9,152.12Zm24.78,59.43a54.51,54.51,0,0,1-51.2,52.61,54.13,54.13,0,0,1,6.39,9.35,64.73,64.73,0,0,0,52-44.8,63.64,63.64,0,0,0,2.26-10.16A54.42,54.42,0,0,1,223.68,211.55Z"/><path d="M222,210a54.6,54.6,0,0,1-16-40.7,54.29,54.29,0,0,0-9.43-7A64.75,64.75,0,0,0,222,223.15a54.92,54.92,0,0,0,1.66-11.6C223.12,211,222.57,210.51,222,210Zm0,0a54.6,54.6,0,0,1-16-40.7,54.29,54.29,0,0,0-9.43-7A64.75,64.75,0,0,0,222,223.15a54.92,54.92,0,0,0,1.66-11.6C223.12,211,222.57,210.51,222,210Zm0,0a54.6,54.6,0,0,1-16-40.7,54.29,54.29,0,0,0-9.43-7A64.75,64.75,0,0,0,222,223.15a54.92,54.92,0,0,0,1.66-11.6C223.12,211,222.57,210.51,222,210Zm0,0a54.6,54.6,0,0,1-16-40.7,54.29,54.29,0,0,0-9.43-7A64.75,64.75,0,0,0,222,223.15a54.92,54.92,0,0,0,1.66-11.6C223.12,211,222.57,210.51,222,210Zm102-52.36a64.73,64.73,0,0,0-125.09-5.49,62.6,62.6,0,0,0-2.27,10.16A64.75,64.75,0,0,0,222,223.15a63.17,63.17,0,0,0,8.84,5.56A64.74,64.74,0,0,0,324,157.61ZM299.41,210a54.68,54.68,0,0,1-12,9.1,52.17,52.17,0,0,1-9.4,4.15,54.55,54.55,0,0,1-54.33-11.67c-.56-.51-1.11-1-1.65-1.58a54.72,54.72,0,1,1,89.87-58.11,52.34,52.34,0,0,1,2.71,9.88,54.94,54.94,0,0,1,.83,9.54A54.32,54.32,0,0,1,299.41,210ZM222,210a54.6,54.6,0,0,1-16-40.7,54.29,54.29,0,0,0-9.43-7A64.75,64.75,0,0,0,222,223.15a54.92,54.92,0,0,0,1.66-11.6C223.12,211,222.57,210.51,222,210Zm0,0a54.6,54.6,0,0,1-16-40.7,54.29,54.29,0,0,0-9.43-7A64.75,64.75,0,0,0,222,223.15a54.92,54.92,0,0,0,1.66-11.6C223.12,211,222.57,210.51,222,210Zm0,0a54.6,54.6,0,0,1-16-40.7,54.29,54.29,0,0,0-9.43-7A64.75,64.75,0,0,0,222,223.15a54.92,54.92,0,0,0,1.66-11.6C223.12,211,222.57,210.51,222,210Zm0,0a54.6,54.6,0,0,1-16-40.7,54.29,54.29,0,0,0-9.43-7A64.75,64.75,0,0,0,222,223.15a54.92,54.92,0,0,0,1.66-11.6C223.12,211,222.57,210.51,222,210Z"/><path d="M188.92,271.16a64.21,64.21,0,0,0-5.24-8.86,64.76,64.76,0,0,0-53-27.51,65.81,65.81,0,0,0-19.89,3.12,64.74,64.74,0,1,0,78.09,33.25Zm-19.51,67a54.36,54.36,0,0,1-38.69,16,55,55,0,0,1-13.55-1.68A54.72,54.72,0,0,1,127.26,244.9c1.15-.07,2.3-.11,3.46-.11a54.36,54.36,0,0,1,38.69,16q1.62,1.62,3.07,3.34a54.13,54.13,0,0,1,6.39,9.35,54.68,54.68,0,0,1-9.46,64.7Z"/><path d="M258,244.79a54.73,54.73,0,1,1-38.7,16,54.4,54.4,0,0,1,38.7-16m0-10a64.73,64.73,0,1,0,45.76,19,64.52,64.52,0,0,0-45.76-19Z"/><path d="M182.57,338.26c.88.22,1.76.47,2.63.74a53.88,53.88,0,0,1,22.52,13.58,54.45,54.45,0,0,1,11.43,16.7c.25.59.5,1.19.74,1.78-1.71,1.4-3.36,2.89-4.93,4.46a64.71,64.71,0,0,0-16.85,62.13l-1.67,1A54.74,54.74,0,0,1,120.51,366c.4-.78.83-1.56,1.28-2.33a64.84,64.84,0,0,0,54.69-18.35,66.45,66.45,0,0,0,6.09-7m-4.63-11.08a54.86,54.86,0,0,1-60.77,25.38,62.64,62.64,0,0,0-5.54,8.8,64.74,64.74,0,0,0,89.82,85.95,63.85,63.85,0,0,0,8.42-5.82,54.84,54.84,0,0,1,21.78-66.59,63.62,63.62,0,0,0-3.35-9.64,64.78,64.78,0,0,0-40.17-35.82,62.92,62.92,0,0,0-10.19-2.26Z"/><path d="M306.49,375.51a64.75,64.75,0,0,0-13.58-10.39,63.61,63.61,0,0,0-9-4.29,64.75,64.75,0,1,0,22.61,14.68ZM313,437.62a53.81,53.81,0,0,1-3.88,9.31,55.15,55.15,0,0,1-9.68,13A54.72,54.72,0,1,1,222,382.59a55,55,0,0,1,9.62-7.69A54.93,54.93,0,0,1,280,370a53.08,53.08,0,0,1,9.07,4.4,54.94,54.94,0,0,1,10.38,8.16,54.86,54.86,0,0,1,13.56,55Z"/><path d="M399.65,362.78a63.56,63.56,0,0,0-5.2-8.92A54.92,54.92,0,0,1,383,355.41a53.33,53.33,0,0,1,6.51,9.5A54.77,54.77,0,0,1,322,442a52.34,52.34,0,0,1-9.07-4.4,53.81,53.81,0,0,1-3.88,9.31,62.47,62.47,0,0,0,9,4.28,64.73,64.73,0,0,0,81.53-88.43Zm-60.12-26.7a54.06,54.06,0,0,1-6.51-9.5A64.44,64.44,0,0,0,295.51,345,64.3,64.3,0,0,0,280,370a53.08,53.08,0,0,1,9.07,4.4,54.14,54.14,0,0,1,3.88-9.31,54.5,54.5,0,0,1,46.62-29Z"/><path d="M381.28,236a64.73,64.73,0,0,0-52.48,26.84,54.11,54.11,0,0,0,11.69,1.42c.67-.76,1.37-1.5,2.1-2.23a54.32,54.32,0,0,1,38.69-16h.8a54.08,54.08,0,0,0,6.88-9.56A65.8,65.8,0,0,0,381.28,236ZM427,255A64.72,64.72,0,0,0,389,236.45a65.8,65.8,0,0,0-7.68-.45,64.71,64.71,0,0,0-58.37,92.7,62.69,62.69,0,0,0,5.2,8.93,64.72,64.72,0,0,0,61.43,27.28,62.92,62.92,0,0,0,10.11-2.13A64.72,64.72,0,0,0,427,255ZM420,339.41a54.35,54.35,0,0,1-25.52,14.45A54.92,54.92,0,0,1,383,355.41c-.58,0-1.17,0-1.75,0a54.32,54.32,0,0,1-38.69-16q-1.62-1.62-3.06-3.33a54.5,54.5,0,0,1,1-71.82c.67-.76,1.37-1.5,2.1-2.23a54.32,54.32,0,0,1,38.69-16h.8A54.71,54.71,0,0,1,420,339.41Z"/><path d="M328.8,262.84A54.78,54.78,0,0,1,290.11,229a55.29,55.29,0,0,1-2.7-9.89,52.17,52.17,0,0,1-9.4,4.15,64.66,64.66,0,0,0,55.59,50.6,53.63,53.63,0,0,1,6.89-9.56A54.11,54.11,0,0,1,328.8,262.84Zm58.24-99A64.78,64.78,0,0,0,321.14,148a65.47,65.47,0,0,0-9.24,3.83,52.34,52.34,0,0,1,2.71,9.88,53.67,53.67,0,0,1,9.38-4.13,54.76,54.76,0,0,1,65,78.84,54.08,54.08,0,0,1-6.88,9.56,54,54,0,0,1,11.68,1.42A64.55,64.55,0,0,0,387,163.79Z"/><path class="cls-4" d="M427,346.49a64.3,64.3,0,0,1-27.39,16.29,64.74,64.74,0,0,1-81.53,88.43,64.76,64.76,0,0,1-116.67-3.9,64.74,64.74,0,0,1-89.82-85.95,64.74,64.74,0,0,1-.8-123.45,64.75,64.75,0,0,1,88.07-85.79A64.74,64.74,0,0,1,321.14,148a64.75,64.75,0,0,1,78,90.49,64.74,64.74,0,0,1,27.86,108Z"/><path class="cls-5" d="M228.55,171.52a10.05,10.05,0,0,1-1.09-.05,9.94,9.94,0,0,1-8.79-10.95,38.19,38.19,0,0,1,11.54-23.75,9.92,9.92,0,1,1,13.58,14.46,18.59,18.59,0,0,0-5.39,11.45A9.93,9.93,0,0,1,228.55,171.52Z"/><path class="cls-5" d="M133.55,209.52a10.05,10.05,0,0,1-1.09-.05,9.94,9.94,0,0,1-8.79-10.95,38.19,38.19,0,0,1,11.54-23.75,9.92,9.92,0,0,1,13.58,14.46,18.59,18.59,0,0,0-5.39,11.45A9.93,9.93,0,0,1,133.55,209.52Z"/><path class="cls-5" d="M227.51,296.42a10.09,10.09,0,0,1-1.09-.06,9.91,9.91,0,0,1-8.78-10.94,38.1,38.1,0,0,1,11.53-23.75,9.92,9.92,0,1,1,13.58,14.46,18.62,18.62,0,0,0-5.39,11.45A9.91,9.91,0,0,1,227.51,296.42Z"/><path class="cls-5" d="M94.51,304.52a10.09,10.09,0,0,1-1.09-.06,9.91,9.91,0,0,1-8.78-10.94,38.1,38.1,0,0,1,11.53-23.75,9.92,9.92,0,1,1,13.58,14.46,18.64,18.64,0,0,0-5.39,11.45A9.91,9.91,0,0,1,94.51,304.52Z"/><path class="cls-5" d="M313,209.52a9.87,9.87,0,0,1-9.84-11.23,36.43,36.43,0,0,1,14.09-24.15,9.92,9.92,0,0,1,12.11,15.72,16.76,16.76,0,0,0-6.54,11A9.91,9.91,0,0,1,313,209.52Z"/><path class="cls-5" d="M132.51,391.42a10.09,10.09,0,0,1-1.09-.06,9.91,9.91,0,0,1-8.78-10.94,38.1,38.1,0,0,1,11.53-23.75,9.92,9.92,0,1,1,13.58,14.46,18.62,18.62,0,0,0-5.39,11.45A9.91,9.91,0,0,1,132.51,391.42Z"/><path class="cls-5" d="M219.05,428a10.05,10.05,0,0,1-1.09,0,9.94,9.94,0,0,1-8.79-11,38.19,38.19,0,0,1,11.54-23.75,9.92,9.92,0,1,1,13.58,14.46,18.59,18.59,0,0,0-5.39,11.45A9.93,9.93,0,0,1,219.05,428Z"/><path class="cls-5" d="M351,295a10.09,10.09,0,0,1-1.09-.06A9.91,9.91,0,0,1,341.14,284a38.1,38.1,0,0,1,11.53-23.75,9.92,9.92,0,1,1,13.58,14.46,18.64,18.64,0,0,0-5.39,11.45A9.91,9.91,0,0,1,351,295Z"/><path class="cls-5" d="M313.21,386.22a10.09,10.09,0,0,1-1.09-.06,9.91,9.91,0,0,1-8.78-10.94,38.1,38.1,0,0,1,11.53-23.75,9.92,9.92,0,1,1,13.59,14.46,18.6,18.6,0,0,0-5.4,11.45A9.91,9.91,0,0,1,313.21,386.22Z"/><path d="M207.46,205.26h0v0h0v-.14h0v0h0v0h0v0h0v-.15a0,0,0,0,1,0,0h0v0h0v0h0v-.18h0v0h0v0h0v-.18h0v0h0a0,0,0,0,1,0,0h0V204h0v0h0v0h0v-.15h0v0h0v0h0v0h0v-.07a.15.15,0,0,1,0-.07h0v0h0v0h0a0,0,0,0,0,0,0v-.15h0v0h0v0h0v0h0v0h0a0,0,0,0,1,0,0V203a0,0,0,0,1,0,0v0h0v-.07h0a0,0,0,0,0,0,0v-.07h0v0h0v0h0v-.07h0a0,0,0,0,0,0,0v-.11h0v-.1h0a0,0,0,0,1,0,0v-.08h0v0h0v-.06h0a0,0,0,0,1,0,0h0v0s0,0,0-.07v0h0v0a0,0,0,0,0,0,0v0h0v0s0,0,0,0v-.07h0s0,0,0,0v-.08h0v0s0-.05,0-.07h0v0s0,0,0,0h0v-.06h0v0h0s0-.05,0-.07v-.07h0v0h0v0h0v0s0,0,0-.06v-.11h0a0,0,0,0,0,0,0h0v0h0v-.07h0v0s0,0,0,0v0h0v0h0v0h0v0a.08.08,0,0,1,0,0v0h0v0h0a0,0,0,0,1,0,0h0v0h0a0,0,0,0,1,0,0s0,0,0-.07v0s0,0,0,0v-.07h0v0h0v0h0a.17.17,0,0,0,0-.07h0v0a0,0,0,0,0,0,0h0v0h0s0,0,0,0h0v0a.17.17,0,0,1,0-.07h0a0,0,0,0,1,0,0h0v-.06h0a0,0,0,0,0,0,0h0v0a.2.2,0,0,1,0-.07h0a0,0,0,0,1,0,0v0h0v-.07h0v0a.15.15,0,0,1,0-.07h0v0h0s0,0,0,0v0h0s0-.08,0-.11h0v0h0v0h0s0,0,0,0h0v0h0s0,0,0,0,0-.05,0-.07h0a0,0,0,0,1,0,0h0v0h0v0s0,0,0,0h0s0-.06,0-.1a0,0,0,0,0,0,0h0v0a0,0,0,0,1,0,0h0a0,0,0,0,0,0,0s0-.07,0-.1h0v0h0v0h0v0h0a.43.43,0,0,0,0-.11v0a0,0,0,0,1,0,0h0s0,0,0,0h0a0,0,0,0,0,0,0,.36.36,0,0,0,0-.11v0h0v0a0,0,0,0,1,0,0,.06.06,0,0,0,0,0s0-.07,0-.1,0,0,0,0,0,0,0,0v0s0,0,0,0h0a.36.36,0,0,1,0-.11h0v0h0a0,0,0,0,1,0,0h0v0s0,0,0,0a4.77,4.77,0,0,0-4.65-3.78,4.84,4.84,0,0,0-1,.11,4.76,4.76,0,0,0-3.67,5.64,33.17,33.17,0,0,1-6.66,27.85,4.75,4.75,0,0,0,.7,6.69,4.68,4.68,0,0,0,3,1.06,4.74,4.74,0,0,0,3.7-1.76,42.69,42.69,0,0,0,9.33-23l0-.29c0-.08,0-.15,0-.22h0a0,0,0,0,0,0,0c0-.06,0-.12,0-.18h0v-.06c0-.07,0-.13,0-.19h0v0h0a0,0,0,0,0,0,0c0-.07,0-.12,0-.18h0v-.07c0-.06,0-.12,0-.18v-.11a.76.76,0,0,0,0-.15h0v-.06a1.21,1.21,0,0,0,0-.18s0,0,0,0v-.08a.71.71,0,0,1,0-.14h0v-.25a.08.08,0,0,0,0,0v-.22h0v0a.08.08,0,0,1,0,0v-.18h0v-.1h0v-.15h0a0,0,0,0,1,0,0v-.18h0v0h0v-.1h0v-.14h0v-.25h0v-.05h0v0h0v-.14h0v0h0v0h0v-.14h0v0h0S207.46,205.27,207.46,205.26Zm-22.06,33a4.79,4.79,0,0,0-4.32-2.72,4.73,4.73,0,0,0-2,.46l-.34.16a4.79,4.79,0,0,0-2.29,6.35,4.72,4.72,0,0,0,6.25,2.3c.18-.09.36-.16.54-.26A4.71,4.71,0,0,0,185.4,238.22Z"/><path d="M294,168.1h0v0h0v-.14h0v0h0v0h0v0h0v-.15a0,0,0,0,1,0,0h0v0h0v-.18h0v0h0v0h0v-.18h0v0h0a0,0,0,0,1,0,0h0v-.18h0v0h0v0h0v-.15h0v0h0v0h0v0h0v-.07a.2.2,0,0,1,0-.07h0v0h0v0h0a0,0,0,0,0,0,0v-.15h0v0h0v0h0v0h0v0h0a0,0,0,0,1,0,0v-.12h0v-.07h0a0,0,0,0,0,0,0v-.08h0v0h0s0,0,0,0h0v-.07h0a0,0,0,0,0,0,0v-.1h0v-.1h0a0,0,0,0,1,0,0v-.08h0v0h0V165h0a0,0,0,0,1,0,0h0v0s0,0,0-.08v0h0v0a0,0,0,0,0,0,0v0h0v0a.06.06,0,0,0,0,0v-.06h0s0,0,0,0v-.08h0v0h0v-.1h0v0a0,0,0,0,1,0,0h0v0a0,0,0,0,0,0,0h0v0h0s0,0,0-.07V164h0v0h0v0a0,0,0,0,1,0,0v0s0,0,0-.06v-.11h0a0,0,0,0,0,0,0h0v0h0s0,0,0-.07h0v0s0,0,0,0v0h0v0h0v0h0v0a.08.08,0,0,1,0,0v0h0v0h0a0,0,0,0,1,0,0h0v0h0a0,0,0,0,1,0,0s0-.05,0-.07v0s0,0,0,0v-.07h0v0h0v0h0a.15.15,0,0,0,0-.06h0v-.07h0v0h0s0,0,0,0h0v0a.17.17,0,0,1,0-.07h0a0,0,0,0,1,0,0h0v0h0v0h0a0,0,0,0,0,0,0h0v0a.22.22,0,0,1,0-.08h0v0h0v0a0,0,0,0,0,0,0h0v0a.17.17,0,0,1,0-.07h0v0h0s0,0,0,0v0h0a0,0,0,0,1,0,0h0s0-.07,0-.1h0v0h0v0h0v0h0s0,0,0,0,0-.05,0-.07h0v0h0v0h0v-.07h0s0-.07,0-.1a0,0,0,0,0,0,0h0v0a0,0,0,0,1,0,0h0a0,0,0,0,0,0,0,.3.3,0,0,0,0-.1h0v0h0v0h0s0,0,0,0h0v0h0a.43.43,0,0,0,0-.11v0a0,0,0,0,1,0,0h0v0h0a0,0,0,0,0,0,0,.5.5,0,0,0,0-.12v0h0v-.07a.06.06,0,0,0,0,0s0-.07,0-.1,0,0,0,0,0,0,0,0v0a0,0,0,0,1,0,0h0a.25.25,0,0,1,0-.1h0v0h0a0,0,0,0,1,0,0h0v0s0,0,0,0a4.75,4.75,0,0,0-4.64-3.78,5.45,5.45,0,0,0-1,.1,4.78,4.78,0,0,0-3.68,5.65,33.15,33.15,0,0,1-6.66,27.85,4.76,4.76,0,0,0,7.4,6,42.68,42.68,0,0,0,9.32-23l0-.28c0-.08,0-.15,0-.22h0a0,0,0,0,0,0,0c0-.07,0-.12,0-.18h0a0,0,0,0,1,0,0v0c0-.06,0-.12,0-.18h0v0h0a0,0,0,0,0,0,0c0-.07,0-.13,0-.18h0v-.07c0-.07,0-.12,0-.18v-.11a.76.76,0,0,0,0-.15h0v-.06a1.21,1.21,0,0,0,0-.18s0,0,0,0v-.08a.66.66,0,0,1,0-.14h0v-.51h0v0a.08.08,0,0,1,0,0v-.18h0v-.1h0v-.14h0a0,0,0,0,1,0,0v-.18h0v0h0v-.09h0v-.14h0v-.25h0v-.06h0v0h0v-.15h0v0h0v0h0v-.15h0v0h0S294,168.11,294,168.1Zm-22.05,33a4.78,4.78,0,0,0-6.36-2.26l-.33.16a4.79,4.79,0,0,0-2.3,6.35,4.73,4.73,0,0,0,6.26,2.3c.18-.09.36-.16.54-.26A4.71,4.71,0,0,0,272,201.06Z"/><path d="M170.3,294.34h0v0h0v-.14h0v0h0v0h0v0h0v-.16s0,0,0,0h0v0h0v0h0v-.18h0v0h0v0h0v-.18h0v0h0v0h0v-.18h0v0h0v0h0v-.14h0v0h0v0h0v0h0v-.06a.22.22,0,0,1,0-.08h0v0h0v0h0s0,0,0,0v-.16h0v0h0v0h0v0h0a0,0,0,0,1,0,0v-.11h0v0h0V292h0a0,0,0,0,0,0,0v-.07h0v0h0s0,0,0,0h0v-.06h0a0,0,0,0,0,0,0v-.11h0v-.1h0v-.11h0v0h0v-.07h0a0,0,0,0,1,0,0h0v0s0,0,0-.07v0h0v0h0v0h0v0a.06.06,0,0,0,0,0v-.07h0v-.1h0v0h0v0s0-.05,0-.07h0v0a0,0,0,0,1,0,0h0v-.06h0v0h0s0,0,0-.06v-.08h0v0h0v0h0v0s0-.05,0-.07V290h0a0,0,0,0,0,0,0h0v0h0s0,0,0-.07h0v0h0v0h0v0h0v0h0v0a.08.08,0,0,1,0,0v0h0v-.06h0a0,0,0,0,1,0,0h0v0h0v0s0-.05,0-.08v0h0v-.07h0v0h0a.17.17,0,0,0,0-.07h0v0s0,0,0,0h0v0h0s0,0,0,0h0v0a.17.17,0,0,1,0-.07h0a0,0,0,0,1,0,0h0v0s0,0,0,0v0h0a0,0,0,0,0,0,0h0v0a.15.15,0,0,1,0-.07h0v-.06h0v0s0,0,0,0h0v0a.22.22,0,0,1,0-.08h0v0h0v-.06h0v0h0s0-.08,0-.11h0v0h0v0h0v0h0v0h0s0,0,0,0,0,0,0-.06h0a0,0,0,0,1,0,0h0s0,0,0,0h0v-.07h0a.87.87,0,0,1,0-.1,0,0,0,0,0,0,0h0v0a0,0,0,0,1,0,0h0a0,0,0,0,0,0,0,.36.36,0,0,0,0-.11h0v0a0,0,0,0,0,0,0v0h0v0h0v0h0a.31.31,0,0,0,0-.1v0a0,0,0,0,1,0,0h0s0,0,0,0h0a0,0,0,0,0,0,0,.43.43,0,0,0,0-.11v0h0v0a0,0,0,0,1,0,0s0,0,0,0,0-.08,0-.11,0,0,0,0,0,0,0,0v0a0,0,0,0,1,0,0h0a.36.36,0,0,1,0-.11h0v0h0a0,0,0,0,1,0,0h0v0s0,0,0,0a4.75,4.75,0,0,0-4.64-3.78,4.79,4.79,0,0,0-4.66,5.75,33.17,33.17,0,0,1-6.66,27.85,4.75,4.75,0,0,0,.7,6.69,4.68,4.68,0,0,0,3,1.06,4.74,4.74,0,0,0,3.7-1.76,42.69,42.69,0,0,0,9.33-23l0-.29v-.22h0a0,0,0,0,0,0,0c0-.06,0-.12,0-.18h0s0,0,0,0v0c0-.07,0-.13,0-.18h0v0h0a0,0,0,0,0,0,0c0-.07,0-.12,0-.18h0v-.07c0-.06,0-.12,0-.18v-.11a.71.71,0,0,0,0-.14h0v-.07a1.15,1.15,0,0,0,0-.18s0,0,0,0v-.07a.76.76,0,0,1,0-.15h0v-.24a.08.08,0,0,0,0,0v-.22h0v0a.08.08,0,0,1,0,0v-.18h0v-.09h0v-.15h0a0,0,0,0,1,0,0v-.18h0v0h0v-.1h0v-.14h0v-.25h0v-.05h0v0h0v-.14h0v0h0v0h0v-.14h0v0h0S170.3,294.35,170.3,294.34Zm-22.06,33a4.79,4.79,0,0,0-4.32-2.72,4.93,4.93,0,0,0-2,.46l-.33.16a4.78,4.78,0,0,0-2.29,6.35,4.72,4.72,0,0,0,4.29,2.73,4.57,4.57,0,0,0,2-.43c.18-.08.36-.16.54-.26A4.71,4.71,0,0,0,148.24,327.3Z"/><path d="M297.81,294.34h0v0h0v-.14h0v0h0v0h0v0h0v-.16s0,0,0,0h0v0h0v0h0v-.18h0v0h0v0h0v-.18h0v0h0v0h0v-.18h0v0h0v0h0v-.14h0v0h0v0h0v0h0v-.06a.22.22,0,0,1,0-.08h0v0h0v0h0s0,0,0,0v-.16h0v0h0v0h0v0h0a0,0,0,0,1,0,0v-.11h0v0h0V292h0a0,0,0,0,0,0,0v-.07h0v0h0s0,0,0,0h0v-.06h0a0,0,0,0,0,0,0v-.11h0v-.1h0a0,0,0,0,1,0,0v-.08h0v0h0v-.07h0a0,0,0,0,1,0,0h0v0s0,0,0-.07v0h0v0h0v0h0v0a.06.06,0,0,0,0,0v-.07h0v-.1h0v0h0v0s0-.05,0-.07h0v0a0,0,0,0,1,0,0h0v-.06h0v0h0s0,0,0-.06v-.08h0v0h0v0h0v0s0-.05,0-.07V290h0v0h0v0h0s0,0,0-.07h0v0h0v0h0v0h0v0h0v0a.08.08,0,0,1,0,0v0h0v-.06h0a0,0,0,0,1,0,0h0v0h0v0s0-.05,0-.08v0h0v-.07h0v0h0a.17.17,0,0,0,0-.07h0v0s0,0,0,0h0v0h0s0,0,0,0h0v0a.17.17,0,0,1,0-.07h0a0,0,0,0,1,0,0h0v0s0,0,0,0v0h0a0,0,0,0,0,0,0h0v0a.15.15,0,0,1,0-.07h0v-.06h0v0s0,0,0,0h0v0a.22.22,0,0,1,0-.08h0v0h0v-.06h0v0h0s0-.08,0-.11h0v0h0v0h0v0h0v0h0s0,0,0,0,0,0,0-.06h0a0,0,0,0,1,0,0h0s0,0,0,0h0v-.07h0a.87.87,0,0,1,0-.1,0,0,0,0,0,0,0h0v0a0,0,0,0,1,0,0h0a0,0,0,0,0,0,0,.37.37,0,0,0,0-.11h0v0a0,0,0,0,0,0,0v0h0v0h0v0h0a.3.3,0,0,0,0-.1v0a0,0,0,0,1,0,0h0s0,0,0,0h0a0,0,0,0,0,0,0,.43.43,0,0,0,0-.11v0h0v0a0,0,0,0,1,0,0s0,0,0,0,0-.08,0-.11,0,0,0,0,0,0,0,0v0a0,0,0,0,1,0,0h0s0-.07,0-.11h0v0h0a0,0,0,0,1,0,0h0v0s0,0,0,0a4.76,4.76,0,0,0-1.68-2.73,4.7,4.7,0,0,0-3-1.05,4.84,4.84,0,0,0-1,.11,4.76,4.76,0,0,0-3.67,5.64,33.17,33.17,0,0,1-6.66,27.85,4.75,4.75,0,0,0,.7,6.69,4.76,4.76,0,0,0,6.69-.7,42.62,42.62,0,0,0,9.33-23l0-.29c0-.07,0-.15,0-.22h0a0,0,0,0,0,0,0c0-.06,0-.12,0-.18h0s0,0,0,0v0c0-.07,0-.13,0-.18h0v0h0v0c0-.07,0-.12,0-.18h0v-.07c0-.06,0-.12,0-.18v-.11a.71.71,0,0,0,0-.14h0v-.07a1.15,1.15,0,0,0,0-.18s0,0,0,0v-.07a.76.76,0,0,1,0-.15h0v-.24a.08.08,0,0,0,0,0v-.22h0v0a.08.08,0,0,1,0,0v-.18h0v-.09h0v-.15h0a0,0,0,0,1,0,0v-.18h0v0h0v-.1h0v-.14h0v-.25h0v-.05h0v0h0v-.14h0v0h0v0h0v-.14h0v0h0S297.81,294.35,297.81,294.34Zm-22.06,33a4.79,4.79,0,0,0-4.32-2.72,4.88,4.88,0,0,0-2,.46l-.34.16a4.79,4.79,0,0,0-2.29,6.35,4.72,4.72,0,0,0,4.29,2.73,4.57,4.57,0,0,0,2-.43c.18-.08.36-.16.54-.26A4.7,4.7,0,0,0,275.75,327.3Z"/><path d="M208.36,387h0v0h0v-.14h0v0h0v0h0v0h0v-.15a0,0,0,0,1,0,0h0v0h0v0h0v-.18h0v0h0v0h0V386h0v0h0a0,0,0,0,1,0,0h0v-.18h0v0h0v0h0v-.14h0v0h0v0h0v0h0v-.06a.22.22,0,0,1,0-.08h0v0h0v0h0s0,0,0,0V385h0v0h0v0h0v0h0v0h0a0,0,0,0,1,0,0v-.11h0v0h0v-.07h0v-.1h0v0h0s0,0,0,0h0v-.06h0a0,0,0,0,0,0,0v-.11h0v-.1h0a0,0,0,0,1,0,0V384h0v0h0v-.07h0a0,0,0,0,1,0,0h0v0s0,0,0-.08v0h0v0h0v0h0v0a.06.06,0,0,0,0,0v-.07h0v-.1h0v0h0v0s0-.05,0-.07h0v0a0,0,0,0,1,0,0h0v-.06h0v0h0s0,0,0-.06v-.08h0v0h0v0h0v-.18h0v0h0a0,0,0,0,0,0,0h0v0h0s0,0,0-.07h0v0h0v0h0v0h0v0h0v0a.08.08,0,0,1,0,0v0h0v-.06h0a0,0,0,0,1,0,0h0v0h0s0,0,0,0,0-.05,0-.08v0h0v-.06h0v0h0v0h0a.17.17,0,0,0,0-.07h0v-.06h0v0h0v0h0v0a.15.15,0,0,1,0-.06h0a0,0,0,0,1,0,0h0v-.06h0v0h0v0a.15.15,0,0,1,0-.07h0v-.06h0V381h0v0a.22.22,0,0,1,0-.08h0v0h0a0,0,0,0,0,0,0v0h0v0h0s0-.08,0-.11h0v0h0v0h0v0h0v0h0s0,0,0,0,0,0,0-.06h0a0,0,0,0,1,0,0h0v0h0v-.07h0s0-.07,0-.11a0,0,0,0,0,0,0h0V380h0a0,0,0,0,0,0,0,.36.36,0,0,0,0-.11h0v0a0,0,0,0,0,0,0v0h0s0,0,0,0h0v0h0a.3.3,0,0,0,0-.1v0a0,0,0,0,1,0,0h0v0h0a0,0,0,0,0,0,0,.52.52,0,0,0,0-.11v0h0v0a0,0,0,0,1,0,0v0s0-.08,0-.11,0,0,0,0V379a0,0,0,0,1,0,0h0a.36.36,0,0,1,0-.1h0v0h0a0,0,0,0,1,0,0h0s0,0,0,0,0,0,0,0a4.77,4.77,0,0,0-4.65-3.78,4.84,4.84,0,0,0-1,.11,4.77,4.77,0,0,0-3.67,5.64,33.14,33.14,0,0,1-6.66,27.85,4.75,4.75,0,0,0,.7,6.69,4.76,4.76,0,0,0,6.69-.7,42.62,42.62,0,0,0,9.33-22.95l0-.29c0-.07,0-.15,0-.22h0v0c0-.07,0-.13,0-.19h0a0,0,0,0,1,0,0v0c0-.07,0-.12,0-.18h0v0h0a0,0,0,0,0,0,0c0-.06,0-.12,0-.18h0v-.07a1.09,1.09,0,0,1,0-.18V390a.71.71,0,0,0,0-.14h0v-.07a1.15,1.15,0,0,0,0-.18s0,0,0,0v-.07a.76.76,0,0,1,0-.15h0v-.24a.08.08,0,0,0,0,0v-.22h0v0a.08.08,0,0,1,0,0v-.18h0v-.09h0v-.14h0a0,0,0,0,1,0,0v-.18h0v0h0v-.1h0v-.14h0v-.24h0v-.06h0v0h0v-.14h0v0h0v0h0V387h0v0h0S208.36,387,208.36,387Zm-22.06,33A4.77,4.77,0,0,0,182,417.2a4.88,4.88,0,0,0-2,.46l-.34.16a4.8,4.8,0,0,0-2.29,6.35,4.72,4.72,0,0,0,4.29,2.73,4.57,4.57,0,0,0,2-.43l.54-.25A4.7,4.7,0,0,0,186.3,419.93Z"/><path d="M297.18,421.22h0v0h0V421h0v0h0v0h0v0h0v-.16a0,0,0,0,1,0,0h0v0h0v0h0v-.18h0v0h0v0h0v-.18h0v0h0a0,0,0,0,1,0,0h0V420h0v0h0v0h0v-.15h0v0h0v0h0v0h0v-.07a.15.15,0,0,1,0-.07h0v0h0v0h0a0,0,0,0,0,0,0v-.15h0v0h0v0h0v0h0v0h0a0,0,0,0,1,0,0V419h0v0h0v-.07h0a0,0,0,0,0,0,0v-.07h0v0h0s0,0,0,0h0v-.07h0v-.13h0v-.1h0a0,0,0,0,1,0,0v-.08h0v0h0v-.06h0a0,0,0,0,1,0,0h0v0s0,0,0-.07v0h0v0h0v0h0v0s0,0,0,0v-.07h0v-.11h0v0s0,0,0-.07h0v-.06h0v-.06h0v0h0s0-.05,0-.07v-.07h0v0h0v0h0v0s0,0,0-.06v-.11h0s0,0,0,0h0v0h0s0,0,0-.07h0v0h0v0h0v0h0v0h0v0a.08.08,0,0,1,0,0v0h0s0,0,0,0v0h0a0,0,0,0,1,0,0h0v0h0a0,0,0,0,1,0,0s0,0,0-.07v0h0v-.07h0v0h0v0h0a.17.17,0,0,0,0-.07h0v0a0,0,0,0,0,0,0h0v0h0s0,0,0,0h0v0a.17.17,0,0,1,0-.07h0a0,0,0,0,1,0,0h0v0s0,0,0,0v0h0a0,0,0,0,0,0,0h0v0a.2.2,0,0,1,0-.07h0v-.06h0v0a0,0,0,0,0,0,0h0v0a.22.22,0,0,1,0-.08h0v0h0V415h0s0-.08,0-.11h0v0h0v0h0v0h0v0h0s0,0,0,0,0,0,0-.07h0a0,0,0,0,1,0,0h0s0,0,0,0h0v-.07h0s0-.06,0-.1a0,0,0,0,0,0,0h0v0a0,0,0,0,1,0,0h0a0,0,0,0,0,0,0,.36.36,0,0,0,0-.1h0v0a0,0,0,0,0,0,0v0h0v0h0a.43.43,0,0,0,0-.11v0a0,0,0,0,1,0,0h0s0,0,0,0h0v0a.36.36,0,0,0,0-.11v0h0v0a0,0,0,0,1,0,0,.06.06,0,0,0,0,0s0-.07,0-.1,0,0,0,0,0,0,0,0v0s0,0,0,0h0a.36.36,0,0,1,0-.11h0v0h0v0h0v0s0,0,0,0a4.75,4.75,0,0,0-4.64-3.78A4.79,4.79,0,0,0,287,415a33.21,33.21,0,0,1-6.66,27.85,4.74,4.74,0,0,0,.7,6.69,4.68,4.68,0,0,0,3,1.06,4.74,4.74,0,0,0,3.7-1.76,42.68,42.68,0,0,0,9.32-23l0-.29c0-.08,0-.15,0-.22h0a0,0,0,0,0,0,0c0-.06,0-.12,0-.18h0a0,0,0,0,1,0,0v0c0-.07,0-.13,0-.18h0v0h0a0,0,0,0,0,0,0c0-.07,0-.12,0-.18h0v-.07c0-.06,0-.12,0-.18v-.11a.76.76,0,0,0,0-.15h0V424a1.21,1.21,0,0,0,0-.18s0,0,0,0v-.08a.71.71,0,0,1,0-.14h0v-.25a.08.08,0,0,0,0,0v-.22h0v0a.08.08,0,0,1,0,0v-.18h0v-.1h0v-.15h0a0,0,0,0,1,0,0v-.18h0v0h0v-.1h0V422h0v-.25h0v-.05h0v0h0v-.14h0v0h0v0h0v-.14h0v0h0Zm-22.06,33a4.78,4.78,0,0,0-6.36-2.26l-.33.16a4.78,4.78,0,0,0-2.29,6.35,4.71,4.71,0,0,0,4.29,2.73,4.6,4.6,0,0,0,2-.43c.18-.09.36-.16.54-.26A4.71,4.71,0,0,0,275.12,454.18Z"/><path d="M386,383.79h0v0h0v-.14h0v0h0v0h0v-.18h0v0h0v0h0v-.18h0v0h0v0h0v-.18h0v0h0a0,0,0,0,1,0,0h0v-.19h0v0h0v-.14h0v0h0v0h0v0h0v-.07a.15.15,0,0,1,0-.07h0v0h0v0h0a0,0,0,0,0,0,0v-.15h0v0h0v0h0v0h0v-.14h0v0h0v-.07h0a0,0,0,0,0,0,0v-.07h0v0h0s0,0,0,0h0v-.06h0a0,0,0,0,0,0,0V381h0v-.1h0a0,0,0,0,1,0,0v-.08h0v-.07h0a0,0,0,0,1,0,0h0v0s0,0,0-.07v0h0v0h0v0h0v0a0,0,0,0,0,0,0v-.07h0v-.1h0v0h0v0s0,0,0-.07h0v0a0,0,0,0,1,0,0h0v-.06h0v0h0s0-.05,0-.06v0s0,0,0,0h0v0h0v0h0v0s0-.05,0-.07v-.11h0v0h0v0h0s0,0,0-.07h0v0h0v0h0v0h0v0a.08.08,0,0,1,0,0v0h0v-.06h0a0,0,0,0,1,0,0h0v0h0a0,0,0,0,1,0,0s0,0,0-.07v0h0v-.07h0v0h0v0h0a.17.17,0,0,0,0-.07h0v0a0,0,0,0,0,0,0h0v0h0v0a.17.17,0,0,1,0-.07h0v0h0v0s0,0,0,0v0h0a0,0,0,0,0,0,0h0v0a.17.17,0,0,1,0-.07h0v-.06h0v0a0,0,0,0,0,0,0h0v0a.22.22,0,0,1,0-.08h0v0h0s0,0,0,0v0h0a0,0,0,0,1,0,0h0s0-.08,0-.11h0v0h0v0h0v0h0v0h0s0,0,0,0,0,0,0-.06h0a0,0,0,0,1,0,0h0v0h0v0s0,0,0,0h0s0-.06,0-.1a0,0,0,0,0,0,0h0v0a0,0,0,0,1,0,0h0v0a.36.36,0,0,0,0-.11h0v0h0v0h0v0h0v0h0a.43.43,0,0,0,0-.11v0a0,0,0,0,1,0,0h0v0h0a0,0,0,0,0,0,0,.43.43,0,0,0,0-.11v0h0v0a0,0,0,0,1,0,0,.06.06,0,0,0,0,0s0-.07,0-.1,0,0,0,0,0,0,0,0v0a0,0,0,0,1,0,0h0s0-.07,0-.11h0v0h0s0,0,0,0h0s0,0,0,0,0,0,0,0a4.76,4.76,0,0,0-1.68-2.73,4.68,4.68,0,0,0-3-1.05,4.84,4.84,0,0,0-1,.11,4.77,4.77,0,0,0-3.67,5.64,33.17,33.17,0,0,1-6.66,27.85,4.75,4.75,0,0,0,.7,6.69,4.76,4.76,0,0,0,6.69-.7,42.62,42.62,0,0,0,9.33-22.95l0-.29c0-.08,0-.15,0-.22h0a0,0,0,0,0,0,0c0-.06,0-.12,0-.18h0a0,0,0,0,1,0,0v0c0-.07,0-.13,0-.18h0v0h0a0,0,0,0,0,0,0v-.18h0v-.07c0-.06,0-.12,0-.18v-.11a.71.71,0,0,0,0-.14h0v-.07a1.15,1.15,0,0,0,0-.18s0,0,0,0v-.08a.71.71,0,0,1,0-.14h0v-.25a0,0,0,0,0,0,0v-.22h0v0a.08.08,0,0,1,0,0v-.18h0v-.09h0v-.15h0s0,0,0,0v-.19h0v0h0v-.1h0v-.14h0v-.25h0v-.05h0v0h0v-.14h0v0h0v0h0v-.14h0v0h0Zm-22.06,33a4.79,4.79,0,0,0-4.32-2.72,4.73,4.73,0,0,0-2,.46l-.34.16A4.79,4.79,0,0,0,355,421a4.72,4.72,0,0,0,4.29,2.73,4.57,4.57,0,0,0,2-.43c.18-.08.36-.16.54-.26A4.69,4.69,0,0,0,363.93,416.75Z"/><path d="M424.69,294.34h0v0h0v-.14h0v0h0v0h0v0h0v-.16s0,0,0,0h0v0h0v0h0v-.18h0v0h0v0h0v-.18h0v0h0v0h0v-.18h0v0h0v0h0v-.14h0v0h0v0h0v0h0v-.06a.22.22,0,0,1,0-.08h0v0h0v0h0s0,0,0,0v-.16h0v0h0v0h0v0h0a0,0,0,0,1,0,0v-.11h0v0h0V292h0a0,0,0,0,0,0,0v-.07h0v0h0s0,0,0,0h0v-.06h0a0,0,0,0,0,0,0v-.11h0v-.1h0a0,0,0,0,1,0,0v-.08h0v0h0v-.07h0a0,0,0,0,1,0,0h0v0s0,0,0-.07v0h0v0h0v0h0v0a.06.06,0,0,0,0,0v-.07h0v-.1h0v0h0v0s0-.05,0-.07h0v0a0,0,0,0,1,0,0h0v-.06h0v0h0s0,0,0-.06v-.08h0v0h0v0h0v0s0-.05,0-.07V290h0a0,0,0,0,0,0,0h0v0h0s0,0,0-.07h0v0h0v0h0v0h0v0h0v0a.08.08,0,0,1,0,0v0h0v-.06h0a0,0,0,0,1,0,0h0v0h0v0s0-.05,0-.08v0h0v-.07h0v0h0a.17.17,0,0,0,0-.07h0v0s0,0,0,0h0v0h0s0,0,0,0h0v0a.17.17,0,0,1,0-.07h0a0,0,0,0,1,0,0h0v0s0,0,0,0v0h0a0,0,0,0,0,0,0h0v0a.15.15,0,0,1,0-.07h0v-.06h0v0s0,0,0,0h0v0a.22.22,0,0,1,0-.08h0v0h0v-.06h0v0h0s0-.08,0-.11h0v0h0v0h0v0h0v0h0s0,0,0,0,0,0,0-.06h0a0,0,0,0,1,0,0h0s0,0,0,0h0v-.07h0a.87.87,0,0,1,0-.1,0,0,0,0,0,0,0h0v0a0,0,0,0,1,0,0h0a0,0,0,0,0,0,0,.36.36,0,0,0,0-.11h0v0a0,0,0,0,0,0,0v0h0v0h0v0h0a.3.3,0,0,0,0-.1v0a0,0,0,0,1,0,0h0s0,0,0,0h0a0,0,0,0,0,0,0,.43.43,0,0,0,0-.11v0h0v0a0,0,0,0,1,0,0s0,0,0,0,0-.08,0-.11,0,0,0,0,0,0,0,0v0a0,0,0,0,1,0,0h0a.36.36,0,0,1,0-.11h0v0h0a0,0,0,0,1,0,0h0v0s0,0,0,0a4.76,4.76,0,0,0-1.68-2.73,4.7,4.7,0,0,0-3-1.05,4.84,4.84,0,0,0-1,.11,4.76,4.76,0,0,0-3.67,5.64,33.17,33.17,0,0,1-6.66,27.85,4.75,4.75,0,0,0,.7,6.69,4.68,4.68,0,0,0,3,1.06,4.74,4.74,0,0,0,3.7-1.76,42.69,42.69,0,0,0,9.33-23l0-.29c0-.07,0-.15,0-.22h0v0c0-.06,0-.12,0-.18h0s0,0,0,0v0c0-.07,0-.13,0-.18h0v0h0a0,0,0,0,0,0,0c0-.07,0-.12,0-.18h0v-.07c0-.06,0-.12,0-.18v-.11a.71.71,0,0,0,0-.14h0v-.07a1.15,1.15,0,0,0,0-.18s0,0,0,0v-.07a.76.76,0,0,1,0-.15h0v-.24a.08.08,0,0,0,0,0v-.22h0v0a.08.08,0,0,1,0,0v-.18h0v-.09h0v-.15h0a0,0,0,0,1,0,0v-.18h0v0h0v-.1h0v-.14h0v-.25h0v-.05h0v0h0v-.14h0v0h0v0h0v-.14h0v0h0S424.69,294.35,424.69,294.34Zm-22.06,33a4.79,4.79,0,0,0-4.32-2.72,5,5,0,0,0-2,.46l-.33.16a4.78,4.78,0,0,0-2.29,6.35,4.72,4.72,0,0,0,4.29,2.73,4.57,4.57,0,0,0,2-.43c.18-.08.36-.16.54-.26A4.71,4.71,0,0,0,402.63,327.3Z"/><path d="M389.16,206.16h0v0h0V206h0v0h0v0h0v0h0v-.18h0v0h0v0h0v-.18h0v0h0v0h0v-.18h0v0h0v0h0v-.18h0v0h0v0h0v-.14h0v0h0v0h0v0h0v-.06a.22.22,0,0,1,0-.08h0v0h0v0h0a0,0,0,0,0,0,0v-.15a0,0,0,0,1,0,0v0h0v0h0v0h0a0,0,0,0,1,0,0v-.11h0v0h0v-.07h0a0,0,0,0,0,0,0v-.07h0v0h0s0,0,0,0h0v-.06h0a0,0,0,0,0,0,0v-.11h0v-.1h0a0,0,0,0,1,0,0v-.08h0v0h0v-.07h0a0,0,0,0,1,0,0h0v0s0,0,0-.07v0h0v0a0,0,0,0,0,0,0v0h0v0a0,0,0,0,0,0,0v-.07h0v-.1h0s0,0,0,0h0v0s0-.05,0-.07h0v0a0,0,0,0,1,0,0h0v0a0,0,0,0,0,0,0h0v0h0v-.14h0v0h0v0a0,0,0,0,1,0,0v0s0,0,0-.07v-.11h0a0,0,0,0,0,0,0h0v0h0s0,0,0-.07h0v0s0,0,0,0h0v0a0,0,0,0,0,0,0v0h0v0a.08.08,0,0,1,0,0v0h0v-.06h0a0,0,0,0,1,0,0h0v0h0a0,0,0,0,1,0,0s0,0,0-.07v0s0,0,0,0V201h0v0h0a.17.17,0,0,0,0-.07h0v0s0,0,0,0h0v0h0v0h0v0a.17.17,0,0,1,0-.07h0v0h0v-.06h0a0,0,0,0,0,0,0h0v0a.15.15,0,0,1,0-.07h0a0,0,0,0,1,0,0v0h0v0a0,0,0,0,0,0,0h0v0a.22.22,0,0,1,0-.08h0v0h0s0,0,0,0v0h0v0h0s0-.08,0-.11h0v0h0v0h0v0h0v0h0s0,0,0,0,0,0,0-.06h0a0,0,0,0,1,0,0h0v0h0v-.07h0a.41.41,0,0,0,0-.1,0,0,0,0,0,0,0h0v0a0,0,0,0,1,0,0h0a0,0,0,0,0,0,0,.36.36,0,0,0,0-.11h0v0h0v0h0s0,0,0,0h0v0h0a.43.43,0,0,0,0-.11v0a0,0,0,0,1,0,0h0v0h0a0,0,0,0,0,0,0,.43.43,0,0,0,0-.11v0h0v0a0,0,0,0,1,0,0s0,0,0,0a.45.45,0,0,1,0-.11s0,0,0,0,0,0,0,0v0a0,0,0,0,1,0,0h0a.36.36,0,0,1,0-.11h0v0h0a0,0,0,0,1,0,0h0s0,0,0,0,0,0,0,0a4.76,4.76,0,0,0-1.68-2.73,4.65,4.65,0,0,0-3.95-.94,4.77,4.77,0,0,0-3.68,5.64,33.14,33.14,0,0,1-6.66,27.85,4.75,4.75,0,0,0,.71,6.69,4.65,4.65,0,0,0,3,1.06,4.78,4.78,0,0,0,3.71-1.76A42.68,42.68,0,0,0,389,210.78l0-.29c0-.07,0-.15,0-.22h0a0,0,0,0,0,0,0c0-.06,0-.12,0-.18h0V210c0-.07,0-.13,0-.18h0v0h0a0,0,0,0,0,0,0c0-.07,0-.12,0-.18h0v-.07c0-.06,0-.12,0-.18v-.11a.71.71,0,0,0,0-.14h0v-.25s0,0,0,0v-.08a.71.71,0,0,1,0-.14h0v-.24a.08.08,0,0,0,0,0V208h0v0a.08.08,0,0,1,0,0v-.18h0v-.09h0v-.15h0v-.2h0v0h0v-.1h0V207h0v-.25h0v0h0v0h0v-.14h0v0h0v0h0v-.14h0v0h0Zm-22.06,33a4.78,4.78,0,0,0-4.32-2.72,4.88,4.88,0,0,0-2,.46l-.33.16a4.79,4.79,0,0,0-2.3,6.35,4.72,4.72,0,0,0,4.29,2.73,4.54,4.54,0,0,0,2-.43c.18-.08.37-.16.55-.26A4.7,4.7,0,0,0,367.1,239.12Z"/></g><g id="Black_outlines_-_to_remove" data-name="Black outlines - to remove"><path class="cls-3" d="M260.72,116.56a54.77,54.77,0,0,1,51.08,35.05l3.41,8.87,9-2.94a54.75,54.75,0,0,1,66,76.51l-5.39,10.77,11.58,3.31a54.73,54.73,0,0,1,.4,105.06l-11.28,3.31,5.08,10.61a54.74,54.74,0,0,1-68.92,74.77l-8.33-3.21-4.13,7.92a54.75,54.75,0,0,1-98.64-3.3l-4.5-10.24-9.67,5.61A54.73,54.73,0,0,1,120.5,366l5.56-10.67-11.5-3.52a54.74,54.74,0,0,1-.66-104.37l11-3.54-5.05-10.36A54.75,54.75,0,0,1,194.28,161l10.64,5.54,3.54-11.47a54.7,54.7,0,0,1,52.26-38.5m0-10a64.72,64.72,0,0,0-61.82,45.56,64.75,64.75,0,0,0-88.07,85.79,64.74,64.74,0,0,0,.8,123.45,64.74,64.74,0,0,0,89.82,85.95,64.76,64.76,0,0,0,116.67,3.9,64.73,64.73,0,0,0,81.53-88.43,64.73,64.73,0,0,0-.47-124.26,64.76,64.76,0,0,0-78-90.49,64.75,64.75,0,0,0-60.42-41.47Z"/></g></svg>