<svg xmlns="http://www.w3.org/2000/svg" viewBox="0 0 512 512"><defs><style>.cls-1{fill:#a99bcb;}.cls-2{fill:#c0cd56;}.cls-3{fill:#a4be3a;}.cls-4{fill:#010101;}.cls-5{fill:#66b745;}</style></defs><g id="BULINE"><circle class="cls-1" cx="256" cy="256" r="256"/></g><g id="Fruits"><path d="M310.05,33.06a5,5,0,0,0-7-1.11c-14.13,10.25-25.25,20.9-33.6,32.48a4.9,4.9,0,0,0-2.39.4,157.08,157.08,0,0,0-58.87,45.53,5,5,0,1,0,7.84,6.2,146,146,0,0,1,44.5-37.31c-10.55,21.5-13.05,46.4-8.59,77.46a5,5,0,0,0,4.94,4.29,5.78,5.78,0,0,0,.71-.05,5,5,0,0,0,4.24-5.66c-7.58-52.85,5.62-85.16,47.1-115.24A5,5,0,0,0,310.05,33.06Z"/><ellipse class="cls-2" cx="256" cy="306" rx="132.86" ry="150"/><path class="cls-3" d="M256,166c67.76,0,122.88,62.81,122.88,140S323.76,446,256,446,133.12,383.21,133.12,306,188.24,166,256,166m0-10c-73.37,0-132.86,67.16-132.86,150S182.63,456,256,456s132.86-67.16,132.86-150S329.38,156,256,156Z"/><polygon class="cls-4" points="264.97 446 269.49 486 259.28 475.13 255.99 485.72 252.69 475.13 242.51 485.72 246.1 446 264.97 446"/><path class="cls-3" d="M256,166.93c22.94,0,44.82,13.87,61.62,39.07,17.7,26.55,27.45,62.07,27.45,100s-9.75,73.45-27.45,100c-16.8,25.2-38.68,39.07-61.62,39.07S211.18,431.2,194.38,406c-17.7-26.55-27.45-62.07-27.45-100s9.75-73.45,27.45-100c16.8-25.2,38.68-39.07,61.62-39.07M256,156c-55.23,0-100,67.16-100,150s44.77,150,100,150,100-67.16,100-150S311.23,156,256,156Z"/><path class="cls-3" d="M256,166.93c6.39,0,16.59,11.27,25,36.46,9.08,27.25,14.08,63.69,14.08,102.61s-5,75.36-14.08,102.61c-8.4,25.19-18.6,36.46-25,36.46s-16.59-11.27-25-36.46c-9.08-27.25-14.08-63.69-14.08-102.61s5-75.36,14.08-102.61c8.4-25.19,18.6-36.46,25-36.46M256,156c-27.61,0-50,67.16-50,150s22.39,150,50,150,50-67.16,50-150-22.39-150-50-150Z"/><path d="M323,396.51a4.89,4.89,0,0,0-6.9-.44,99,99,0,0,1-30.26,18.39,4.89,4.89,0,0,0,1.74,9.46,5,5,0,0,0,1.73-.32h0l.05,0h0l.06,0h0l.06,0h0l0,0h0l.06,0h0l.06,0h0l.05,0a0,0,0,0,0,0,0l.06,0h0l.05,0h0l.06,0h0l0,0h0l.06,0h0l.06,0h0l.06,0h0l.06,0h0l.06,0h0l.06,0h0l.06,0h0l.06,0h0l.06,0h0l.06,0h0l.06,0,.06,0h0l.06,0h0l.06,0h0l.13,0h0l.06,0h0l.06,0h0l.06,0h0l.06,0h0l.06,0h0l.06,0h0l.06,0h0l.06,0h0l.06,0h0l.07,0,.07,0,.06,0h0l.07,0h0l.14-.05.06,0h0l.07,0,.14-.06.07,0,.07,0,.14-.06.07,0,.07,0,.14-.05h0l.07,0h0l.07,0,.14-.05h0l.07,0h0l.07,0,.14-.05h0l.07,0,.07,0,.07,0,.06,0h0l.07,0,.14-.06.06,0h0l.07,0,.13-.06h0l.06,0h0l.27-.13.21-.09.07,0,.48-.22h0a110.34,110.34,0,0,0,27-17.58A4.9,4.9,0,0,0,323,396.51Zm12.71-14.42a4.9,4.9,0,0,0-6.88.71l-.29.35a4.89,4.89,0,0,0,7.55,6.21l.35-.42A4.88,4.88,0,0,0,335.72,382.09Zm22.7-51.28a5.09,5.09,0,0,0-1.15-.14,4.89,4.89,0,0,0-4.75,3.74A125,125,0,0,1,339.08,368a4.89,4.89,0,0,0,8.45,4.93c1.2-2.06,2.35-4.17,3.44-6.31a1.86,1.86,0,0,0,.1-.2h0l.06-.13a.43.43,0,0,1,0-.07l.06-.13h0l0-.06,0-.06h0a.21.21,0,0,1,0-.06h0l.06-.13h0l0-.06h0l0-.06h0l0-.06h0l0-.06,0-.06h0s0,0,0-.06h0l0-.05h0l0-.06v0l0-.05v0l0,0h0l0,0v0l0,0h0l0-.06v0l0-.05v0l0,0v0l0-.05s0,0,0,0a.05.05,0,0,1,0,0v0l0,0a0,0,0,0,0,0,0l0,0a0,0,0,0,1,0,0s0,0,0,0a0,0,0,0,1,0,0,.17.17,0,0,1,0-.05,0,0,0,0,0,0,0l0,0,0,0v0l0,0s0,0,0,0a0,0,0,0,0,0,0l0,0a0,0,0,0,0,0,0l0,0,0,0s0,0,0,0a.05.05,0,0,0,0,0l0,0v0s0,0,0-.05l0,0,0,0a0,0,0,0,1,0,0,.05.05,0,0,1,0,0v0s0,0,0,0l0,0v0l0,0a.08.08,0,0,1,0,0v-.05l0-.06v0s0,0,0,0l0,0,0-.05v0l0-.06a0,0,0,0,1,0,0v0a0,0,0,0,0,0,0l0-.06v0a.37.37,0,0,0,.05-.11v0l0-.06h0a.05.05,0,0,1,0,0v0l0-.06v0a.37.37,0,0,0,.05-.11v0l0-.06s0,0,0,0l0,0h0l0-.07a0,0,0,0,1,0,0l.05-.12h0l0-.08h0l.05-.13h0l.05-.13h0l0-.08h0l.06-.12.1-.21h0l.06-.12.1-.22A136.18,136.18,0,0,0,362,336.7,4.88,4.88,0,0,0,358.42,330.81Z"/></g><g id="Black_outlines_-_to_remove" data-name="Black outlines - to remove"><path class="cls-4" d="M256,166.93c67.23,0,121.93,62.39,121.93,139.07S323.23,445.07,256,445.07,134.07,382.68,134.07,306,188.77,166.93,256,166.93M256,156c-73.37,0-132.86,67.16-132.86,150S182.63,456,256,456s132.86-67.16,132.86-150S329.38,156,256,156Z"/></g><g id="Leaves_on_top" data-name="Leaves on top"><path class="cls-5" d="M66,105.92s-20.74-7.54-45.26,16a42.61,42.61,0,0,0,32.29,29.46s-5.65,3.3-8.72,13c0,0,20.23,14.77,67.82-.76-10.38,3.62-48.29,18.31-64.28,44.84,0,0,6.13,10.84,22.16,6.13,0,0-17.76,4.71-27,22.47,0,0,4.55,6.44,15.4,4.71,0,0-20.74,8.64-16.66,38.5h0c29.86,4.08,38.5-16.66,38.5-16.66C78.51,274.45,85,279,85,279c17.76-9.27,22.47-27,22.47-27-4.71,16,6.13,22.16,6.13,22.16,26.53-16,41.22-53.9,44.84-64.28-15.53,47.59-.76,67.82-.76,67.82,9.66-3.07,13-8.72,13-8.72a42.61,42.61,0,0,0,29.46,32.29c23.57-24.52,16-45.26,16-45.26,14.14,14.14,17.44,9,17.44,9,13-21-13.2-58.46-13.2-58.46,20,21,34.18,17.21,34.18,17.21C265.58,167.36,211.6,111,211.6,111l-.62-.62s-56.34-54-112.67-42.9c0,0-3.77,14.14,17.21,34.18,0,0-37.48-26.17-58.46-13.2C57.06,88.48,51.88,91.78,66,105.92Z"/><path class="cls-4" d="M109,69.72h0m5,7.21h0c44.75,0,87.48,39.53,89.36,41.3l.42.42c1.91,2,43.35,46.91,41.22,92.78-4.13-1.72-9.86-5.27-16.76-12.49a10.93,10.93,0,0,0-16.87,13.8c5.69,8.15,14.76,25.42,14.88,37.85-.73-.68-1.54-1.45-2.43-2.34a11.44,11.44,0,0,0-8-3.34,10.5,10.5,0,0,0-5.86,1.76,10.65,10.65,0,0,0-4.14,12.94c.39,1.42,3.15,13.1-8.82,28.54a31.94,31.94,0,0,1-15.69-21.57c-1-4.58-4.59-8.46-9.26-9a12.52,12.52,0,0,0-1.36-.07,10.35,10.35,0,0,0-7.56,3c-1.57-9.19-1.71-24.63,5.7-47.35a10.93,10.93,0,0,0-20.71-7c-2.18,6.23-12.69,34.37-30.73,51.27a20.66,20.66,0,0,1,.49-2.19c.11-.37.16-.56.16-.56a10.93,10.93,0,0,0-21-5.89l-.08.29a35.9,35.9,0,0,1-6.15,11.18,10.89,10.89,0,0,0-7.62-7.54,11.57,11.57,0,0,0-2.89-.37,10.62,10.62,0,0,0-10,6.86c-.68,1.4-5.11,9.33-17.91,10.43,1.1-12.79,9-17.21,10.42-17.92a10.73,10.73,0,0,0,6.49-12.91,10.88,10.88,0,0,0-7.55-7.62,35.54,35.54,0,0,1,11.19-6.14l.29-.09A10.92,10.92,0,0,0,70,203.67a11.23,11.23,0,0,0-2.74.34l-.56.16a18,18,0,0,1-2.2.49c16.91-18,45.05-28.55,51.28-30.73a10.93,10.93,0,0,0-3.59-21.25,10.77,10.77,0,0,0-3.39.54c-13.35,4.36-25.58,6.57-36.35,6.57a64.27,64.27,0,0,1-11-.89,10.62,10.62,0,0,0,3-8.9c-.51-4.67-4.39-8.25-9-9.26A31.94,31.94,0,0,1,33.84,125c9.78-7.59,18.11-9.34,23.71-9.34a19.45,19.45,0,0,1,4.85.54,10.63,10.63,0,0,0,3.95.77,10.82,10.82,0,0,0,9-4.92,11.09,11.09,0,0,0-1.58-13.9c-.87-.87-1.63-1.66-2.29-2.39,13.74.19,31.92,10.75,37.8,14.84a10.93,10.93,0,0,0,13.8-16.87c-7.2-6.88-10.74-12.62-12.46-16.76,1.12-.05,2.26-.08,3.39-.08M62.8,251.77h0M114,66a81.15,81.15,0,0,0-15.68,1.5s-3.77,14.14,17.21,34.18c0,0-24.08-16.81-44.43-16.81a26.25,26.25,0,0,0-14,3.61s-5.18,3.3,9,17.44a27,27,0,0,0-8.47-1.15c-8.29,0-21.84,2.8-36.79,17.18a42.61,42.61,0,0,0,32.29,29.46s-5.65,3.3-8.72,13c0,0,8.69,6.35,28.08,6.35,10.19,0,23.34-1.76,39.74-7.11-10.38,3.62-48.29,18.31-64.28,44.84,0,0,4.13,7.31,14.49,7.31a27.09,27.09,0,0,0,7.35-1.09l.32-.09-.32.09c-2.42.73-18.17,6-26.71,22.38,0,0,3.54,5,11.81,5a22.27,22.27,0,0,0,3.59-.3s-20.74,8.64-16.66,38.5a55,55,0,0,0,7.53.53c23.81,0,31-17.19,31-17.19C78.51,274.45,85,279,85,279c16.37-8.54,21.65-24.29,22.38-26.71l.09-.32-.09.32c-4.48,15.79,6.22,21.84,6.22,21.84,26.53-16,41.22-53.9,44.84-64.28-15.53,47.59-.76,67.82-.76,67.82,9.66-3.07,13-8.72,13-8.72a42.61,42.61,0,0,0,29.46,32.29c23.57-24.52,16-45.26,16-45.26,8.16,8.16,12.71,9.89,15.1,9.89a2.69,2.69,0,0,0,2.34-.93c13-21-13.2-58.46-13.2-58.46C235.06,221.91,246.61,224,251.69,224a12.21,12.21,0,0,0,2.81-.26C265.58,167.36,211.6,111,211.6,111l-.62-.62S164.64,66,114,66Z"/></g></svg>