<svg xmlns="http://www.w3.org/2000/svg" viewBox="0 0 512 512"><defs><style>.cls-1{fill:#f15d4d;}.cls-2{fill:#d71f27;}.cls-3{fill:#fff;opacity:0.3;}.cls-4{fill:#049146;}</style></defs><g id="BULINE"><circle class="cls-1" cx="256" cy="256" r="256"/></g><g id="Fruits"><circle class="cls-2" cx="365.5" cy="385.93" r="90.07"/><path class="cls-3" d="M310.34,389.28a10.09,10.09,0,0,1-1.09-.06,9.93,9.93,0,0,1-8.79-10.94c1.7-15.51,8.49-29.55,19.12-39.53a9.92,9.92,0,1,1,13.59,14.46c-7.19,6.75-11.8,16.42-13,27.22A9.94,9.94,0,0,1,310.34,389.28Z"/><path d="M392.73,444.9a5,5,0,0,0-6.42-3l-.41.15a5,5,0,0,0-3,6.4,5,5,0,0,0,6.33,3l.55-.2A5,5,0,0,0,392.73,444.9Zm35.16-41.06a5,5,0,0,0-6.42,3,59.61,59.61,0,0,1-20.17,27,5,5,0,0,0,3,9,5,5,0,0,0,3-1,67.52,67.52,0,0,0,5.69-4.75h0L413,437h0l.07-.06h0l0,0,.08-.07.07-.07.08-.07h0l0,0h0l.07-.07.07-.07h0a.23.23,0,0,1,.07-.07h0l0,0,0,0h0l0,0h0l.06-.07h0a.23.23,0,0,1,.07-.07h0l0,0,0,0a0,0,0,0,0,0,0l0,0h0l0,0h0l0,0h0a0,0,0,0,0,0,0h0l0,0h0a0,0,0,0,0,0,0h0l0,0h0l0,0h0l0,0h0l0,0h0l0,0,0,0,0,0h0v0a0,0,0,0,0,0,0l0,0h0l0,0v0l0,0s0,0,0,0h0v0h0l0,0h0l0,0h0l0,0h0v0l0,0h0l0,0s0,0,0,0l0,0h0l0,0h0v0h0s0,0,0,0h0v0h0a0,0,0,0,1,0,0l0,0,0,0s0,0,0,0h0v0l0,0s0,0,0,0l0,0h0l0,0h0l0,0h0l0,0h0l0,0h0l0,0h0l0,0h0l0,0h0l0,0,0,0h0l0,0,0,0h0l0,0h0l0,0s0,0,0,0l0,0h0l0,0h0l0,0h0l0,0h0l0,0h0l.06-.07h0l0,0h0l0,0h0l0,0h0l0,0h0l0,0h0l.06-.07h0l.06-.06h0l0,0,0,0h0l0,0h0l.07-.07.07-.07,0,0,.07-.07.07-.07h0l.06-.07h0l.06-.07,0,0,.06-.07h0l.06-.07a68.58,68.58,0,0,0,7.26-9.43h0a.35.35,0,0,1,.05-.08h0l.06-.08h0a.05.05,0,0,0,0,0h0l0,0,0,0h0l0,0a.05.05,0,0,0,0,0h0a.56.56,0,0,0,.05-.08h0a.05.05,0,0,1,0,0h0l0,0a.08.08,0,0,0,0,0h0l0,0a0,0,0,0,1,0,0l0,0v0l0,0,0-.05v0l0,0s0,0,0,0l0,0v0l0,0v0l0,0v0l0,0s0,0,0,0l0,0,0,0v0l0,0h0l0,0h0a.05.05,0,0,0,0,0h0l0,0v0s0,0,0,0v0l0,0a0,0,0,0,0,0,0l0,0h0s0,0,0,0h0l0,0v0l0,0s0,0,0,0l0,0h0a.08.08,0,0,1,0,0h0l0,0h0l0,0v0l0,0h0l0,0h0a.08.08,0,0,0,0,0h0s0,0,0,0h0s0,0,0,0h0l0,0h0a.05.05,0,0,1,0,0h0l0,0h0a.08.08,0,0,0,0,0h0a.05.05,0,0,0,0,0h0l0,0h0a.05.05,0,0,1,0,0h0l0,0h0l0,0h0l0,0h0a.05.05,0,0,0,0,0h0s0,0,0-.05h0l0,0h0l0,0h0l0,0h0a.05.05,0,0,0,0,0h0l0-.05,0,0,0,0h0l0,0,0-.05.06-.1a68.49,68.49,0,0,0,4.83-10.37A5,5,0,0,0,427.89,403.84Z"/><circle class="cls-2" cx="154.73" cy="385.93" r="90.07"/><path class="cls-4" d="M168.1,70.33C125.67,112.76,135,164.56,135,164.56s51.8,9.37,94.23-33.06,33.06-94.23,33.06-94.23S210.53,27.9,168.1,70.33Z"/><path d="M385.59,324.28a5,5,0,0,0-7.07,0,21.7,21.7,0,0,1-7.67,4.94c3.32-15.57,9.38-53,3.78-100.28a305.88,305.88,0,0,0-30.44-102c-19.89-39.47-48.74-74.73-85.75-104.8-.08-.07-.17-.11-.25-.17s-.29-.2-.45-.29a3.55,3.55,0,0,0-.44-.21,3.38,3.38,0,0,0-.44-.18l-.48-.13c-.15,0-.3-.07-.46-.09l-.5,0a3.49,3.49,0,0,0-.46,0,4.68,4.68,0,0,0-.54.07l-.3,0-.13.05a3.2,3.2,0,0,0-.52.18,3,3,0,0,0-.41.17,2.91,2.91,0,0,0-.42.25,4.32,4.32,0,0,0-.42.27c-.11.09-.22.2-.32.3a4.89,4.89,0,0,0-.4.39l-.09.1c-.07.08-.11.17-.17.25s-.21.29-.3.45-.14.28-.2.43-.13.29-.19.45-.08.31-.12.47a3.89,3.89,0,0,0-.09.47,4.15,4.15,0,0,0,0,.49c0,.16,0,.32,0,.48a4.85,4.85,0,0,0,.08.53,1.54,1.54,0,0,0,0,.3q1.13,4.66,2.11,9.27c-.95,0-2,0-3,0a114.47,114.47,0,0,0-81.4,33.94C125.67,112.76,135,164.56,135,164.56a79.66,79.66,0,0,0,12.83.88,114.47,114.47,0,0,0,81.4-33.94,114,114,0,0,0,30-51.83c7.37,76.08-11.43,135-30.67,173.58-24.38,48.84-54.47,75.93-57.28,78.4a21.78,21.78,0,0,1-3.75-8.66,5,5,0,1,0-9.82,1.88,31.81,31.81,0,0,0,31.14,25.82,32.6,32.6,0,0,0,6-.58,5,5,0,1,0-1.88-9.82A21.54,21.54,0,0,1,179,338.23c6.59-5.94,34.72-32.9,58.36-80.09a316.65,316.65,0,0,0,30.56-98.61c5.35-38.57,3.79-78.92-4.58-120.13,72.21,63.88,95,138.13,101.29,190.3,5.93,49.53-1.57,88.69-4.34,100.74a21.54,21.54,0,0,1-12.58-6.16,5,5,0,0,0-7.08,7.07,31.72,31.72,0,0,0,22.47,9.29h.61c.14,0,.29,0,.44,0a4.91,4.91,0,0,0,.86-.08,31.66,31.66,0,0,0,20.56-9.23A5,5,0,0,0,385.59,324.28ZM251.71,67.65a103.4,103.4,0,0,1-29.51,56.78,104.67,104.67,0,0,1-74.33,31c-1.31,0-2.52,0-3.63-.07a105.82,105.82,0,0,1,105.26-109c1.31,0,2.52,0,3.63.07A103.7,103.7,0,0,1,251.71,67.65Z"/><path class="cls-3" d="M99.57,389.28a10.09,10.09,0,0,1-1.09-.06,9.93,9.93,0,0,1-8.78-10.94c1.69-15.51,8.48-29.55,19.12-39.53a9.92,9.92,0,0,1,13.58,14.46c-7.19,6.75-11.8,16.42-13,27.22A9.92,9.92,0,0,1,99.57,389.28Z"/><path d="M182,444.9a5,5,0,0,0-6.41-3l-.41.15a5,5,0,0,0,1.68,9.7,5,5,0,0,0,1.64-.28l.55-.2A5,5,0,0,0,182,444.9Zm35.16-41.06a5,5,0,0,0-6.41,3,60,60,0,0,1-5.37,10.91,58.86,58.86,0,0,1-14.81,16.11,5,5,0,0,0,6,8,69.29,69.29,0,0,0,5.7-4.75h0l.07-.06h0l.07-.06h0l0,0,.08-.07.07-.07.08-.07h0l0,0h0l.07-.07.07-.07h0l.07-.07h0l0,0,0,0h0l0,0h0l.06-.07h0l.07-.07h0l0,0,0,0a0,0,0,0,0,0,0l0,0h0l0,0h0l0,0h0a0,0,0,0,0,0,0h0l0,0h0a0,0,0,0,0,0,0h0l0,0h0l0,0h0l0,0h0l0,0h0l0,0,0,0,0,0h0v0a0,0,0,0,0,0,0l0,0h0l0,0v0l0,0s0,0,0,0h0v0h0l0,0h0l0,0h0l0,0h0v0l0,0h0l0,0s0,0,0,0l0,0h0l0,0h0v0h0s0,0,0,0h0v0h0s0,0,0,0l0,0,0,0s0,0,0,0h0v0l0,0s0,0,0,0l0,0h0l0,0h0l0,0h0l0,0h0l0,0h0l0,0h0l0,0h0l0,0h0l0,0,0,0h0l0,0,0,0h0l0,0h0l0,0s0,0,0,0l0,0h0l0,0h0l0,0h0l0,0h0l0,0h0l.06-.07h0l0,0h0l0,0h0l0,0h0l0,0h0l0,0h0l.06-.07h0l.06-.06h0l0,0,0,0h0l0,0h0l.07-.07.07-.07,0,0,.07-.07.07-.07h0l.06-.07h0l.06-.07,0,0,.06-.07h0l.06-.07a67.81,67.81,0,0,0,7.26-9.43h0a.35.35,0,0,1,0-.08h0l.06-.08h0a.05.05,0,0,0,0,0h0l0,0,0,0h0l0,0a.05.05,0,0,0,0,0h0a.56.56,0,0,0,0-.08h0a.05.05,0,0,1,0,0h0l0,0a.08.08,0,0,0,0,0h0l0,0a0,0,0,0,1,0,0l0,0v0l0,0,0-.05v0l0,0s0,0,0,0l0,0v0l0,0v0s0,0,0,0v0l0,0s0,0,0,0l0,0,0,0v0l0,0h0l0,0h0a.05.05,0,0,0,0,0h0l0,0v0s0,0,0,0v0l0,0a0,0,0,0,0,0,0l0,0h0s0,0,0,0h0l0,0v0l0,0s0,0,0,0l0,0h0a.08.08,0,0,1,0,0h0l0,0h0l0,0v0l0,0h0l0,0h0a.08.08,0,0,0,0,0h0s0,0,0,0h0l0,0h0l0,0h0a.05.05,0,0,1,0,0h0l0,0h0a.08.08,0,0,0,0,0h0a.05.05,0,0,0,0,0h0l0,0h0a.05.05,0,0,1,0,0h0l0,0h0l0,0h0l0,0h0a.05.05,0,0,0,0,0h0s0,0,0-.05h0l0,0h0l0,0h0l0,0h0a.05.05,0,0,0,0,0h0l0-.05,0,0,0,0h0l0,0,0-.05.06-.1a68.55,68.55,0,0,0,4.84-10.37A5,5,0,0,0,217.12,403.84Z"/></g><g id="Black_outlines_-_to_remove" data-name="Black outlines - to remove"><path d="M365.5,305.87a80.07,80.07,0,1,1-80.07,80.06,80.15,80.15,0,0,1,80.07-80.06m0-10a90.07,90.07,0,1,0,90.07,90.06,90.07,90.07,0,0,0-90.07-90.06Z"/><path d="M154.73,305.87a80.07,80.07,0,1,1-80.06,80.06,80.15,80.15,0,0,1,80.06-80.06m0-10a90.07,90.07,0,1,0,90.07,90.06,90.06,90.06,0,0,0-90.07-90.06Z"/></g></svg>