<svg xmlns="http://www.w3.org/2000/svg" viewBox="0 0 512 512"><defs><style>.cls-1{fill:#28273d;}.cls-2{fill:#d71f27;}.cls-3{fill:#866628;}.cls-4{fill:#fff;opacity:0.3;}</style></defs><g id="BULINE"><circle class="cls-1" cx="256" cy="256" r="256"/></g><g id="Fruits"><path class="cls-2" d="M406,292c0,107.7-67.16,195-150,195S106,399.7,106,292c0-72.64,30.55-126.9,75.86-154.53a144.5,144.5,0,0,1,148.28,0C375.45,165.1,406,219.36,406,292Z"/><path class="cls-3" d="M271.5,117.8V26h-31v91.8a139.8,139.8,0,0,0-58.64,19.67,92,92,0,0,0,148.28,0A139.8,139.8,0,0,0,271.5,117.8Z"/><path d="M371.31,356.92a5.08,5.08,0,0,0-1.65-.29,5,5,0,0,0-4.72,3.35,174,174,0,0,1-16.19,34.1,5,5,0,0,0,8.5,5.27A180.5,180.5,0,0,0,370,374.54l.09-.22,0-.07.06-.15,0-.06v0l.09-.2v0a.08.08,0,0,1,0-.05v0a.69.69,0,0,1,.05-.13,0,0,0,0,1,0,0s0,0,0-.05v0l0-.06h0s0,0,0-.06v0l0-.05v0s0,0,0-.05v0a.14.14,0,0,0,0-.06,0,0,0,0,0,0,0,.08.08,0,0,0,0,0,0,0,0,0,0,0,0s0,0,0,0v0s0,0,0-.06l0,0v0l0,0v0s0,0,0,0a0,0,0,0,0,0,0l0-.06a0,0,0,0,0,0,0l0,0v0s0,0,0,0l0,0a.26.26,0,0,1,0-.08h0l0,0v0a.08.08,0,0,1,0,0v0a.94.94,0,0,0,.06-.15h0s0,0,0,0,0,0,0,0,0,0,0-.05h0l.06-.16h0c0-.08.05-.15.08-.22h0q1.65-4.11,3.14-8.36A5,5,0,0,0,371.31,356.92ZM345,408.64a5,5,0,0,0-7,.74l-.29.37a5,5,0,0,0,.73,7,5,5,0,0,0,7-.71l.14-.18h0l0,0,.16-.19h0A5,5,0,0,0,345,408.64Zm-12.94,15a5,5,0,0,0-7.07-.24,112.66,112.66,0,0,1-30.29,20.49,5,5,0,0,0,4.11,9.12,117.2,117.2,0,0,0,20.75-12.15l.13-.1.13-.09.13-.1.12-.09h0l.12-.09h0l.13-.09.13-.09h0l0,0h0l.07-.05h0l0,0h0l.06,0h0l0,0,0,0,.06,0h0l0,0h0l.06,0a0,0,0,0,0,0,0l0,0h0l.08-.06,0,0h0l.11-.08,0,0,.1-.08h0l0,0,0,0,0,0,0,0,0,0,0,0,.06,0h0l0,0,0,0,0,0,0,0,0,0,0,0,0,0,0,0,0,0,0,0,0,0,0,0,0,0,0,0,0,0,0,0,0,0,0,0,0,0,0,0,0,0,0,0,0,0,0,0h0l0,0,0,0,.05,0,0,0,0,0h0a.1.1,0,0,1,.05,0l0,0,0,0h0l.05,0h0s0,0,0,0h0l.05,0h0l.05,0v0a.1.1,0,0,0,.05,0h0l0,0h0a.1.1,0,0,1,.05,0,0,0,0,0,1,0,0l0,0h0l.05,0h0l.05,0h0l.06,0,.06,0h0l.05,0,.06,0h0l.11-.09h0l.11-.09h0l.05,0h0l.05,0h0l.06,0,.06-.05h0l.05,0,.06-.05h0l.05,0h0l.06,0,.06-.05.18-.15q3.7-3,7.23-6.28A5,5,0,0,0,332,423.61Z"/><path class="cls-4" d="M139.48,330.81a9.92,9.92,0,0,1-9.79-8.42c-6.21-40.55.49-80.94,18.86-113.72a9.92,9.92,0,1,1,17.31,9.7c-16.22,28.94-22.1,64.82-16.56,101A9.92,9.92,0,0,1,141,330.7,11.22,11.22,0,0,1,139.48,330.81Z"/></g><g id="Black_outlines_-_to_remove" data-name="Black outlines - to remove"><path d="M330.14,137.47c-.68-.42-1.37-.83-2.06-1.23q-4-2.33-8.08-4.39l-1.17-.57c-.45-.23-.9-.44-1.35-.65l-1.74-.82-1-.44q-2.42-1.1-4.87-2.08l-2.27-.89-1.81-.68q-4.69-1.73-9.52-3.11c-.53-.16-1.05-.31-1.58-.45q-1.87-.52-3.78-1l-1.83-.43q-3.92-.92-7.92-1.6c-.6-.11-1.2-.21-1.81-.3s-1.27-.2-1.91-.29l-.09,0c-1.29-.19-2.59-.36-3.89-.51l-1.06-.12-.92-.1V26h-31v91.8l-.91.1-1.07.12c-1.3.15-2.6.32-3.89.51l-.09,0c-.64.09-1.28.18-1.91.29s-1.21.19-1.81.3q-4,.69-7.92,1.6l-1.83.43q-1.9.47-3.78,1c-.53.14-1,.29-1.58.45q-4.83,1.38-9.52,3.11l-1.81.68-2.27.89q-2.46,1-4.87,2.08l-1,.44-1.74.82c-.45.21-.9.42-1.35.65l-1.17.57q-4.11,2.06-8.08,4.39c-.69.4-1.38.81-2.06,1.23C136.55,165.1,106,219.36,106,292c0,107.7,67.16,195,150,195s150-87.3,150-195C406,219.36,375.45,165.1,330.14,137.47Zm-88.73-11a8.76,8.76,0,0,0,7.86-8.72v-83h13.46v83a8.76,8.76,0,0,0,7.86,8.72A131.23,131.23,0,0,1,316.65,140l-.9.94A83.6,83.6,0,0,1,294.17,157a83.38,83.38,0,0,1-76.34,0,83.6,83.6,0,0,1-21.58-16.06l-.9-.94A131.23,131.23,0,0,1,241.41,126.52ZM256,477c-77.2,0-140-83-140-185,0-65.24,25.9-118.45,71.07-146,.4-.25.81-.49,1.22-.73a92,92,0,0,0,135.42,0c.41.24.82.48,1.22.73C370.1,173.55,396,226.76,396,292,396,394,333.2,477,256,477Z"/></g></svg>