<svg xmlns="http://www.w3.org/2000/svg" viewBox="0 0 512 512"><defs><style>.cls-1{fill:#f6bb37;}.cls-2{fill:#7fb442;}.cls-3{fill:#010101;}.cls-4{fill:#ee2872;}.cls-5{fill:#fff;opacity:0.3;}</style></defs><g id="BULINE"><circle class="cls-1" cx="256" cy="256" r="256"/></g><g id="Fruits"><path class="cls-2" d="M326,141.49c0,30.06-8.95,54.42-20,54.42s-20-24.36-20-54.42S306,66,306,66,326,111.43,326,141.49Z"/><path class="cls-2" d="M226,141.49c0,30.06-8.95,54.42-20,54.42s-20-24.36-20-54.42S206,66,206,66,226,111.43,226,141.49Z"/><path class="cls-3" d="M306,92.2c5.11,14.9,10.61,34.39,10.61,49.29,0,12-1.54,23.54-4.34,32.48-2.39,7.64-5,11.1-6.27,12.24-1.28-1.14-3.88-4.6-6.27-12.24-2.8-8.94-4.34-20.48-4.34-32.48,0-14.9,5.5-34.39,10.61-49.29M306,66s-20,45.43-20,75.49,8.95,54.42,20,54.42,20-24.36,20-54.42S306,66,306,66Z"/><path class="cls-3" d="M206,92.2c5.11,14.9,10.61,34.39,10.61,49.29,0,12-1.54,23.54-4.34,32.48-2.39,7.64-5,11.1-6.27,12.24-1.28-1.14-3.88-4.6-6.27-12.24-2.8-8.94-4.34-20.48-4.34-32.48,0-14.9,5.5-34.39,10.61-49.29M206,66s-20,45.43-20,75.49,8.95,54.42,20,54.42,20-24.36,20-54.42S206,66,206,66Z"/><path class="cls-4" d="M383.5,331c0,85.6-57.08,155-127.5,155S128.5,416.6,128.5,331,256,116,256,116,383.5,245.4,383.5,331Z"/><path class="cls-2" d="M271,240.6c0,13.77-6.72,24.93-15,24.93s-15-11.16-15-24.93S256,206,256,206,271,226.84,271,240.6Z"/><path class="cls-2" d="M311,310.6c0,13.77-6.72,24.93-15,24.93s-15-11.16-15-24.93S296,276,296,276,311,296.84,311,310.6Z"/><path class="cls-2" d="M226,310.6c0,13.77-6.72,24.93-15,24.93s-15-11.16-15-24.93S211,276,211,276,226,296.84,226,310.6Z"/><path class="cls-2" d="M271,380.6c0,13.77-6.72,24.93-15,24.93s-15-11.16-15-24.93S256,346,256,346,271,366.84,271,380.6Z"/><path class="cls-2" d="M355.89,340.6c0,13.77-6.72,24.93-15,24.93s-15-11.16-15-24.93,15-34.57,15-34.57S355.89,326.84,355.89,340.6Z"/><path class="cls-2" d="M186,380.6c0,13.77-6.72,24.93-15,24.93s-15-11.16-15-24.93S171,346,171,346,186,366.84,186,380.6Z"/><path class="cls-3" d="M256,224.06c3.05,5.86,5.61,12.19,5.61,16.54,0,9.84-4.26,15.2-5.61,15.54-1.35-.34-5.61-5.7-5.61-15.54,0-4.16,2.47-10.47,5.61-16.54m0-18s-15,20.81-15,34.57,6.72,24.93,15,24.93,15-11.16,15-24.93S256,206,256,206Z"/><path class="cls-3" d="M296,294.06c3.05,5.86,5.61,12.19,5.61,16.54,0,9.84-4.26,15.2-5.61,15.54-1.35-.34-5.61-5.7-5.61-15.54,0-4.16,2.47-10.47,5.61-16.54m0-18s-15,20.81-15,34.57,6.72,24.93,15,24.93,15-11.16,15-24.93S296,276,296,276Z"/><path class="cls-3" d="M211,294.06c3.05,5.86,5.61,12.19,5.61,16.54,0,9.84-4.26,15.2-5.61,15.54-1.35-.34-5.61-5.7-5.61-15.54,0-4.16,2.47-10.47,5.61-16.54m0-18s-15,20.81-15,34.57,6.72,24.93,15,24.93,15-11.16,15-24.93S211,276,211,276Z"/><path class="cls-3" d="M256,364.06c3.05,5.86,5.61,12.19,5.61,16.54,0,9.84-4.26,15.2-5.61,15.54-1.35-.34-5.61-5.7-5.61-15.54,0-4.16,2.47-10.47,5.61-16.54m0-18s-15,20.81-15,34.57,6.72,24.93,15,24.93,15-11.16,15-24.93S256,346,256,346Z"/><path class="cls-3" d="M340.89,324.06c3,5.86,5.61,12.19,5.61,16.54,0,9.84-4.26,15.2-5.61,15.54-1.35-.34-5.61-5.7-5.61-15.54,0-4.16,2.47-10.47,5.61-16.54m0-18s-15,20.81-15,34.57,6.71,24.93,15,24.93,15-11.16,15-24.93-15-34.57-15-34.57Z"/><path class="cls-3" d="M171,364.06c3.05,5.86,5.61,12.19,5.61,16.54,0,9.84-4.26,15.2-5.61,15.54-1.35-.34-5.61-5.7-5.61-15.54,0-4.16,2.47-10.47,5.61-16.54m0-18s-15,20.81-15,34.57,6.72,24.93,15,24.93,15-11.16,15-24.93S171,346,171,346Z"/><path class="cls-2" d="M176,240.6c0,13.77-6.72,24.93-15,24.93s-15-11.16-15-24.93S161,206,161,206,176,226.84,176,240.6Z"/><path class="cls-3" d="M161,224.06c3.05,5.86,5.61,12.19,5.61,16.54,0,9.84-4.26,15.2-5.61,15.54-1.35-.34-5.61-5.7-5.61-15.54,0-4.16,2.47-10.47,5.61-16.54m0-18s-15,20.81-15,34.57,6.72,24.93,15,24.93,15-11.16,15-24.93S161,206,161,206Z"/><path class="cls-2" d="M366,240.6c0,13.77-6.72,24.93-15,24.93s-15-11.16-15-24.93S351,206,351,206,366,226.84,366,240.6Z"/><path class="cls-3" d="M351,224.06c3.05,5.86,5.61,12.19,5.61,16.54,0,9.84-4.26,15.2-5.61,15.54-1.35-.34-5.61-5.7-5.61-15.54,0-4.16,2.47-10.47,5.61-16.54m0-18s-15,20.81-15,34.57,6.72,24.93,15,24.93,15-11.16,15-24.93S351,206,351,206Z"/><path d="M352.48,377.31a5,5,0,0,0-6.34,3.12,128.89,128.89,0,0,1-16.69,33,5,5,0,0,0,8.17,5.78h0l.09-.12,0-.06,0-.06h0a.21.21,0,0,1,0-.06h0l0-.05h0l.08-.12,0-.06h0a.76.76,0,0,1,.08-.11h0l0-.06h0l.07-.12h0l0-.05h0l0-.05h0l0-.05v0l0-.05h0l0-.05h0l0-.05s0,0,0,0l0-.05h0l0,0v0l0-.05h0l0-.05,0,0a.05.05,0,0,0,0,0l0,0,0,0v0l0,0v0l0-.05,0,0,0,0v0l0,0v0l0,0,0,0,0,0v0l0,0v0l0,0s0,0,0,0l0,0v0l0,0,0,0,0,0v0l0,0,0,0,0,0,0,0,0,0s0,0,0,0l0,0,0,0,0,0s0,0,0,0l0,0,0,0,0,0,0-.05v0s0,0,0,0l0,0,0,0v0s0,0,0-.05l0,0,0,0v0l0-.05v0l0-.05,0,0,0,0,0,0,0,0,0,0,0-.05v0l0,0,0,0,0-.05h0l0-.06v0l0,0h0l0-.06h0a.41.41,0,0,1,.07-.11h0l0-.06,0,0,.07-.11.05-.07h0l.07-.11h0l0-.07a1,1,0,0,1,.08-.11h0l.05-.07h0l0,0h0a.43.43,0,0,0,0-.07h0l.07-.12.05-.07h0l.08-.11s0-.05,0-.08h0a.75.75,0,0,1,.07-.12l.05-.07h0l.07-.11h0l.12-.19.12-.19h0a2.14,2.14,0,0,0,.13-.19l.12-.2.2-.31h0c.08-.13.16-.25.24-.39l.12-.19h0a.75.75,0,0,1,.07-.12l0-.07h0l.19-.31h0l.12-.19.12-.2.24-.4h0l.18-.32h0l.11-.2h0a.75.75,0,0,1,.07-.12l0-.08h0l.11-.19h0l.07-.11a0,0,0,0,1,0,0l0-.07h0l.07-.11v0l0-.06h0l.07-.11v0l0-.06h0l0,0,0-.07v0l0-.06h0a.05.05,0,0,1,0,0h0a.25.25,0,0,0,0-.07h0l0-.06v0l0,0h0l0-.07h0l.06-.11v0l0-.06s0,0,0,0l0-.05v0l0,0s0,0,0,0l0-.06v0l0,0h0l0-.07s0,0,0,0l0-.05,0,0v0l0,0,0-.05v0l0,0s0,0,0,0,0,0,0,0,0,0,0,0l0,0a0,0,0,0,1,0,0l0-.05,0,0s0,0,0,0l0,0s0,0,0,0l0,0,0,0,0,0,0,0v0l0,0,0,0a0,0,0,0,1,0,0l0-.05v0s0,0,0,0l0,0s0,0,0,0v0l0-.05a0,0,0,0,0,0,0l0,0,0,0,0,0,0,0s0,0,0-.05,0,0,0,0l0,0v0l0,0s0,0,0,0l0,0,0,0,0,0,0,0,0,0s0,0,0,0l0,0v0s0,0,0,0a0,0,0,0,0,0,0l0-.05s0,0,0,0l0,0v0l0,0v0s0,0,0-.05l0,0a.05.05,0,0,1,0,0v0l0,0s0,0,0,0l0-.06a0,0,0,0,1,0,0l0,0s0,0,0,0l0,0v0l0-.05v0l0,0v0l0-.05v0l0-.06v0a.05.05,0,0,0,0,0v0l0-.05v0l0-.05v0l0,0v0l0-.06s0,0,0,0l0-.05h0s0,0,0,0l0,0s0,0,0-.05v0l0-.06h0l0-.06h0a.14.14,0,0,1,0-.06s0,0,0,0l0,0v0l0-.05v0l0-.06h0l0-.05h0a.14.14,0,0,1,0-.06v0l0-.05v0l0-.05h0a.21.21,0,0,0,0-.06h0l0-.06h0l0-.06h0l0-.06h0l0-.06,0-.06h0l0-.06s0,0,0,0l.06-.12h0l0-.06h0l.06-.13h0l0-.06h0l0-.06,0-.07h0l0-.07a.16.16,0,0,1,0-.07l0-.07.11-.21s.05-.09.07-.14l0-.06h0l.06-.13h0l0-.06h0l.07-.13h0l0-.06a.61.61,0,0,1,.07-.14,144.88,144.88,0,0,0,7.79-18.59A5,5,0,0,0,352.48,377.31Zm-27.7,50.19a5,5,0,0,0-7.08.05l-.32.32a5,5,0,0,0,0,7.08,4.94,4.94,0,0,0,3.51,1.45,5,5,0,0,0,3.54-1.46l0,0,.24-.25.13-.13A5,5,0,0,0,324.78,427.5Zm-14.34,13.33a5,5,0,0,0-7-1.24,85.88,85.88,0,0,1-32.68,14.08,5,5,0,0,0,.95,9.91,4.63,4.63,0,0,0,1-.1,94.79,94.79,0,0,0,30.66-11.91l.27-.17.06,0a.05.05,0,0,0,0,0l0,0,.27-.16.13-.08h0l.26-.17h0s0,0,0,0h0l0,0,0,0h0l0,0h0l.17-.11h.07l0,0h0l0,0h0l0,0a0,0,0,0,0,0,0h.11l0,0h.15l0,0h0l0,0h0l0,0h.1l0,0h0l0,0h.07l0,0h0l0,0h.11a0,0,0,0,1,0,0h0l0,0h0l0,0,.06,0h0l0,0h0l0,0h.1l0,0h0l0,0a0,0,0,0,0,0,0h.07l0,0h0l0,0h.11v0h.11l0,0h0l0,0h0l.07-.05,0,0h.08l0,0h.08l0,0h0l0,0h0l.11-.07,0,0,0,0h0l0,0h0l0,0h0l0,0h0l0,0h0l.14-.09h0l0,0,0,0h0l0,0,0,0h0l0,0,0,0,.28-.2h0l0,0,0,0h0l.28-.19.87-.6A5,5,0,0,0,310.44,440.83Z"/><path class="cls-5" d="M165.48,335.68a8.51,8.51,0,0,1-1-.06,7.9,7.9,0,0,1-6.84-8.83c2.8-22.09,11.68-43.91,28.81-70.75,3.25-5.1,6.82-10.44,11.57-17.31a7.9,7.9,0,0,1,13,9c-4.64,6.7-8.11,11.89-11.25,16.81-15.81,24.78-24,44.59-26.45,64.25A7.9,7.9,0,0,1,165.48,335.68Z"/></g><g id="Black_outlines_-_to_remove" data-name="Black outlines - to remove"><path class="cls-3" d="M256,129.62a802,802,0,0,1,56.34,67.55c40.41,54.61,61.77,100.89,61.77,133.83,0,80.29-53,145.61-118.11,145.61S137.89,411.29,137.89,331c0-32.94,21.36-79.22,61.77-133.83A802,802,0,0,1,256,129.62M256,116S128.5,245.4,128.5,331,185.58,486,256,486s127.5-69.4,127.5-155S256,116,256,116Z"/></g><g id="Leaves_on_top" data-name="Leaves on top"><path class="cls-2" d="M276,113.16c0,34.71-8.95,62.84-20,62.84s-20-28.13-20-62.84S256,26,256,26,276,78.46,276,113.16Z"/><path class="cls-3" d="M256,58.31c4.92,17,9.91,38.26,9.91,54.85,0,28.54-6.15,46.16-9.91,51.54-3.76-5.38-9.91-23-9.91-51.54,0-16.56,5-37.89,9.91-54.85M256,26s-20,52.46-20,87.16S245,176,256,176s20-28.13,20-62.84S256,26,256,26Z"/></g></svg>