<svg xmlns="http://www.w3.org/2000/svg" viewBox="0 0 512 512"><defs><style>.cls-1{fill:#f15d4d;}.cls-2{fill:#049146;}.cls-3{fill:#f6f6f4;}.cls-4{fill:#f04b3c;}.cls-5{fill:#fff;opacity:0.3;}</style></defs><g id="BULINE"><circle class="cls-1" cx="256" cy="256" r="256"/></g><g id="Fruits"><path class="cls-2" d="M432.11,72.56S359.23,59.38,293.86,113.4C278.63,75,250.94,55.78,250.94,55.78s-52.67,36.53-52.67,109.61a138.78,138.78,0,0,0,27.32,83.55c-.81,17.64,1.22,28.92,1.22,28.92s83.55,15.11,152-53.32S432.11,72.56,432.11,72.56Z"/><path d="M432.11,72.56a128.17,128.17,0,0,0-20.69-1.42,184.56,184.56,0,0,0-117.57,42.25C278.63,75,250.94,55.78,250.94,55.78s-52.67,36.53-52.67,109.61A138.86,138.86,0,0,0,225.58,249c-.81,17.64,1.23,28.91,1.23,28.91a128.17,128.17,0,0,0,20.69,1.42,184.58,184.58,0,0,0,131.29-54.74C447.23,156.11,432.11,72.56,432.11,72.56ZM208.27,165.39A129.58,129.58,0,0,1,251,68.66a130.43,130.43,0,0,1,34.86,51.76c-1.9,1.76-3.8,3.58-5.68,5.46A183.88,183.88,0,0,0,227,233.07,129,129,0,0,1,208.27,165.39Zm212.85-43.32a174.58,174.58,0,0,1-14.39,46.06,176.88,176.88,0,0,1-35,49.34,174.61,174.61,0,0,1-113.4,51.46c-3.93.25-7.56.35-10.82.35-1.25,0-2.46,0-3.6,0-3.11-.06-5.82-.21-8.06-.39-.17-2.22-.33-4.9-.4-8-.09-4.3,0-9.38.34-15.06.35-5.34,1-11.2,2-17.46a174.46,174.46,0,0,1,14.39-46.06,176.7,176.7,0,0,1,35-49.34l2-1.93q4.08-4,8.24-7.54a174.84,174.84,0,0,1,114-42.34c4.65,0,8.6.2,11.66.44A170.23,170.23,0,0,1,421.12,122.07Z"/><path d="M220.88,369.68c0,1.79-.07,3.58-.07,5.38s0,3.31.06,4.95c0-1.79.07-3.58.07-5.38s0-3.31-.06-4.95Z"/><path d="M220.88,369.68c0,1.79-.07,3.58-.07,5.38s0,3.31.06,4.95c0-1.79.07-3.58.07-5.38s0-3.31-.06-4.95Z"/><path d="M220.88,369.68c0,1.79-.07,3.58-.07,5.38s0,3.31.06,4.95c0-1.79.07-3.58.07-5.38s0-3.31-.06-4.95Z"/><circle class="cls-3" cx="220.94" cy="323.66" r="175.98"/><path class="cls-4" d="M359.52,215.19a176.08,176.08,0,0,0-138.64,167.1A176.06,176.06,0,0,0,82.59,214.88a176,176,0,1,0,276.93.31ZM220.87,391.68c0-1.48-.05-3-.05-4.47s0-3.24.06-4.85q.06,2.22.06,4.47C220.94,388.45,220.92,390.07,220.87,391.68Z"/><ellipse cx="220.94" cy="186.49" rx="91.15" ry="56.85"/><path class="cls-5" d="M89.68,380a9.92,9.92,0,0,1-9.08-5.9c-17.72-40-11.14-89,16.76-124.87A9.92,9.92,0,1,1,113,261.45c-23.48,30.2-29.09,71.28-14.29,104.65A9.92,9.92,0,0,1,89.68,380Z"/><path d="M340.2,414.51a5,5,0,0,0-7,.69A125.77,125.77,0,0,1,305.8,440a5,5,0,0,0,5.56,8.32l2.07-1.41.12-.09h0l.12-.09h0l.12-.09.07,0,.05,0h0l.06,0h0l.05-.05h0l.06,0h0l.05,0h0l.06,0h0l.05,0h0l.05,0h0l.05,0h0a.1.1,0,0,1,.05,0h0l.06,0h0a.1.1,0,0,1,.05,0h0l.05,0h0l0,0h0l.05,0h0l0,0h0a.1.1,0,0,0,.05,0h0l0,0h0l.05,0h0l0,0,0,0,0,0h0l0,0,0,0,0,0h0l0,0,0,0,0,0,0,0,0,0,0,0,0,0,0,0,0,0,0,0a0,0,0,0,0,0,0l.05,0,0,0,0,0,0,0,0,0,0,0,0,0,0,0,0,0,0,0,0,0,0,0,.05,0a0,0,0,0,1,0,0l0,0,0,0a.1.1,0,0,0,.05,0h0l0,0,0,0,0,0h0l.06,0a0,0,0,0,0,0,0l0,0h0l.06,0v0l0,0s0,0,0,0l.05,0h0l0,0h0l.06-.05h0l0,0h0l.07-.05h0l.11-.08h0l.11-.08h0l.07-.05h0l0,0h0l.07-.05,0,0h0l.08-.06.11-.09h0l.12-.08h0a.94.94,0,0,0,.12-.09q4.71-3.56,9.09-7.52l.23-.2a.52.52,0,0,1,.11-.1h0l.11-.1.07-.06h0l.11-.1.1-.1h0l.11-.1a0,0,0,0,1,0,0l.1-.09h0l.07-.06,0,0h0l.06-.06h0l0,0h0l.06,0h0l.11-.1h0l.1-.09h0l.06-.06h0l0,0a0,0,0,0,0,0,0l.06,0h0l0,0h0l.06-.05v0s0,0,0,0h0l.05-.05h0l0,0a0,0,0,0,1,0,0,.12.12,0,0,1,.05,0l0,0,0,0h0l0-.05h0l.09-.09,0,0s0,0,0,0l0,0,0,0,0,0,0,0,0,0,0,0,0,0,0,0,0,0,0,0,.06-.06,0,0,0,0,0,0,0,0,0,0,0,0,0,0,0,0,0,0,0,0,0,0,0,0,0,0,0,0,0,0,0,0,0,0,0,0,0,0,0,0,0,0,0,0,0,0,0,0,0,0,0,0,0,0h0l0,0h0l0,0h0s0,0,0,0l0,0,0,0h0l0,0,0,0s0,0,0,0h0s0,0,0,0l0,0,.05,0h0l.05,0h0l.05-.05h0s0,0,0,0h0l.05-.05h0l0,0h0l0-.05h0l0,0h0s0,0,.05-.05h0l.1-.1h0l.1-.11h0l.1-.11h0l0-.05h0l.06-.05.05,0h0l.11-.1h0l.22-.22h0q4.62-4.63,8.8-9.72A5,5,0,0,0,340.2,414.51Zm10.72-16.58a4.93,4.93,0,0,0-2.55-.7,5,5,0,0,0-4.31,2.44l-.24.4a5,5,0,0,0,8.57,5.16l0,0,.17-.29.09-.16A5,5,0,0,0,350.92,397.93Zm15.51-55.19-.45,0a5,5,0,0,0-5,4.56,124,124,0,0,1-8.7,35.84,5,5,0,0,0,9.26,3.78h0l.06-.13h0a.69.69,0,0,0,.05-.13h0l0-.07a.14.14,0,0,1,0-.06s0,0,0,0,0,0,0-.06l0-.06s0,0,0,0a.14.14,0,0,1,0-.06l0-.07h0a.14.14,0,0,0,0-.06h0a.14.14,0,0,0,0-.06v0s0,0,0,0a0,0,0,0,1,0,0,.14.14,0,0,1,0-.06v0s0,0,0-.05h0l0-.06s0,0,0,0,0,0,0-.05v0a.14.14,0,0,0,0-.06,0,0,0,0,0,0,0s0,0,0,0v0a.14.14,0,0,1,0-.06v0a.05.05,0,0,1,0,0v0l0-.06v-.09l0-.05a0,0,0,0,0,0,0l0,0a0,0,0,0,1,0,0,.14.14,0,0,1,0-.06s0,0,0,0v0s0,0,0,0a.08.08,0,0,0,0-.05l0,0a56193310025.95,56193310025.95,0,0,1,0-.06l0-.05s0,0,0,0,0,0,0,0l0,0h0l0-.07s0,0,0,0v0l0-.09h0s0-.09,0-.13,0,0,0,0v0h0a.41.41,0,0,1,0-.08h0s0,0,0,0h0l0-.08v0a1.12,1.12,0,0,1,.05-.13h0s0-.09.05-.13h0l.21-.58a133.6,133.6,0,0,0,5.1-17.05A135.43,135.43,0,0,0,371,348.15,5,5,0,0,0,366.43,342.74Z"/></g><g id="Black_outlines_-_to_remove" data-name="Black outlines - to remove"><path d="M345.54,447.92c.87-.88,1.73-1.76,2.59-2.66l.57-.6c.73-.78,1.46-1.56,2.18-2.35.23-.24.45-.49.67-.73.7-.77,1.38-1.55,2.06-2.32l.65-.75c.71-.82,1.41-1.65,2.11-2.49l.49-.59q3.9-4.74,7.47-9.74l.46-.66c.62-.87,1.23-1.76,1.83-2.64l.61-.91c.55-.82,1.09-1.64,1.63-2.47l.63-1c.53-.83,1.05-1.66,1.56-2.5l.59-1c.55-.91,1.09-1.83,1.62-2.75.15-.24.29-.48.43-.73q2-3.56,3.92-7.21l.3-.6c.5-1,1-2,1.49-3l.51-1.07c.41-.86.81-1.73,1.21-2.6.19-.4.37-.81.55-1.22.37-.83.74-1.67,1.1-2.52l.54-1.26c.36-.86.71-1.73,1.06-2.6.16-.39.32-.78.47-1.18.39-1,.76-2,1.13-3,.11-.28.21-.55.31-.83.48-1.3.94-2.6,1.38-3.92l0-.09c.42-1.25.83-2.51,1.23-3.77.12-.38.23-.77.35-1.15.28-.92.55-1.84.82-2.76l.39-1.41c.24-.85.47-1.7.69-2.56l.39-1.49c.21-.85.42-1.7.62-2.56.12-.49.24-1,.35-1.48.2-.9.4-1.8.59-2.7.09-.45.19-.9.28-1.35.22-1.09.43-2.19.63-3.29l.15-.78c.24-1.36.47-2.73.68-4.11l.15-1c.15-1,.3-2.06.43-3.1l.18-1.5c.11-.88.21-1.77.31-2.67.05-.54.11-1.09.16-1.63.08-.86.16-1.72.23-2.58,0-.56.09-1.12.13-1.67.06-.88.11-1.76.16-2.64,0-.53.07-1.07.09-1.61.05-.95.08-1.91.11-2.87,0-.47,0-.92.05-1.39,0-1.41.05-2.84.05-4.26s0-2.82-.05-4.23c0-.45,0-.89-.05-1.34,0-1-.06-1.92-.1-2.88l-.09-1.54c-.05-.9-.1-1.8-.17-2.69,0-.52-.07-1-.11-1.56-.08-.92-.16-1.85-.25-2.77,0-.46-.09-.92-.13-1.39q-.18-1.71-.39-3.42l-.09-.69q-.25-2.06-.57-4.11c-.05-.33-.11-.66-.16-1-.16-1-.33-2.06-.51-3.08-.08-.45-.16-.9-.25-1.35-.16-.91-.34-1.82-.52-2.73-.09-.46-.19-.93-.28-1.39l-.6-2.75c-.1-.42-.19-.84-.29-1.27-.25-1.05-.51-2.11-.77-3.16-.07-.26-.13-.53-.2-.78-.34-1.35-.71-2.69-1.08-4l-.09-.29c-.34-1.21-.7-2.41-1.07-3.6l-.33-1c-.3-.95-.61-1.9-.92-2.85-.13-.39-.27-.78-.4-1.16-.32-.93-.64-1.85-1-2.77-.13-.36-.26-.72-.4-1.09-.37-1-.76-2-1.15-3-.09-.25-.19-.5-.29-.74-1-2.55-2.07-5.08-3.19-7.57-.1-.22-.21-.43-.31-.65-.46-1-.92-2-1.4-3l-.45-.94c-.45-.91-.9-1.83-1.36-2.73l-.48-.94c-.49-.95-1-1.9-1.5-2.84l-.38-.72c-1.31-2.4-2.68-4.78-4.09-7.11l-.18-.28c-.63-1-1.28-2.08-1.94-3.11l-.49-.76c-.57-.88-1.14-1.75-1.72-2.61l-.58-.86-1.76-2.55-.54-.76c-.7-1-1.41-1.95-2.13-2.92l-.22-.3c-.79-1.05-1.58-2.09-2.39-3.12h0a176,176,0,0,0-276.93-.3h0l-.06.09-.27.35c-.72.92-1.44,1.85-2.14,2.79l-.71.95-1.65,2.27L77,222.41c-.53.74-1,1.49-1.56,2.24l-.72,1.06c-.54.81-1.08,1.63-1.61,2.45l-.57.88c-1.45,2.26-2.84,4.56-4.19,6.89-.12.22-.24.44-.37.66-.53.94-1.06,1.88-1.58,2.82-.18.34-.37.68-.55,1-.45.84-.9,1.69-1.34,2.54l-.57,1.11c-.44.86-.87,1.72-1.29,2.59l-.5,1c-.48,1-1,2-1.42,3l-.27.58c-.57,1.26-1.12,2.52-1.66,3.79l-.09.21c-.48,1.16-1,2.33-1.43,3.5l-.39,1c-.36.92-.71,1.83-1,2.76-.15.4-.3.81-.44,1.21-.32.88-.63,1.77-.94,2.66L54,267.71c-.31,1-.62,1.89-.92,2.84l-.33,1c-.8,2.6-1.55,5.23-2.23,7.88-.09.34-.17.68-.26,1-.24,1-.48,1.95-.71,2.93-.11.45-.21.9-.31,1.35-.2.89-.39,1.79-.58,2.68-.1.48-.2.95-.29,1.43-.19.9-.36,1.81-.52,2.71-.09.46-.17.91-.25,1.36-.19,1.05-.36,2.1-.53,3.15,0,.31-.1.61-.14.92-.21,1.36-.4,2.73-.58,4.11,0,.28-.07.57-.1.86-.13,1.08-.26,2.16-.37,3.25-.05.48-.09,1-.14,1.44q-.14,1.35-.24,2.73c0,.52-.08,1.05-.12,1.57-.06.89-.12,1.78-.17,2.68,0,.51-.06,1-.08,1.55-.05,1-.08,1.92-.11,2.88,0,.45,0,.9-.05,1.35,0,1.4,0,2.81,0,4.23s0,2.85,0,4.26c0,.46,0,.92.05,1.38,0,1,.06,1.92.11,2.88,0,.53.06,1.07.09,1.61.05.88.1,1.75.16,2.63,0,.56.09,1.11.13,1.66.07.87.15,1.73.23,2.6,0,.54.11,1.08.16,1.62.1.9.2,1.8.31,2.69.06.49.12,1,.18,1.47.14,1.07.29,2.12.44,3.18.05.31.09.63.14.94.21,1.38.44,2.75.68,4.12.05.28.11.56.16.84.2,1.08.4,2.15.62,3.22.09.46.19.91.28,1.36.19.9.39,1.8.59,2.69.11.5.23,1,.34,1.47.21.86.41,1.72.63,2.57.12.5.25,1,.38,1.48.22.86.46,1.73.7,2.59.13.46.25.92.38,1.37.28,1,.56,1.9.85,2.85.11.35.21.71.32,1.06q1.23,3.93,2.64,7.79l.33.89q.54,1.47,1.11,2.91c.15.4.31.79.47,1.19.35.87.7,1.74,1.06,2.6.18.41.36.83.53,1.25l1.11,2.54.54,1.19c.41.89.82,1.78,1.24,2.66l.48,1c.53,1.09,1.06,2.17,1.61,3.25l.18.35c.64,1.24,1.29,2.48,2,3.71a.22.22,0,0,1,0,.08c.63,1.15,1.27,2.29,1.92,3.43.15.27.31.54.47.81.52.9,1,1.78,1.58,2.67l.6,1c.51.83,1,1.65,1.54,2.47l.65,1c.53.83,1.08,1.66,1.63,2.48l.59.89c.63.92,1.26,1.83,1.9,2.73l.39.56c1.59,2.24,3.24,4.43,4.93,6.59l.3.38c.73.92,1.47,1.84,2.21,2.74.21.25.41.5.62.74.65.79,1.31,1.58,2,2.35l.72.83c.66.75,1.32,1.5,2,2.24l.72.79c.71.78,1.43,1.55,2.16,2.32.19.21.38.42.58.62.9.94,1.8,1.87,2.72,2.79l.07.07c1.95,1.94,3.93,3.84,6,5.69l.56.5c.8.73,1.62,1.45,2.44,2.17l.78.68,2.3,1.94.86.71c.78.64,1.56,1.27,2.35,1.89l.81.64c.87.68,1.75,1.36,2.64,2l.55.42c2.19,1.64,4.43,3.23,6.7,4.76l.44.29c1,.65,1.93,1.29,2.9,1.92l.89.56c.84.54,1.68,1.06,2.52,1.58l1.05.63c.82.49,1.64,1,2.46,1.45l1.07.62q1.27.74,2.58,1.44l1,.53c1,.55,2,1.08,3,1.61l.53.27c1.23.63,2.47,1.25,3.72,1.85l.16.08c1.15.55,2.31,1.09,3.47,1.62l1.06.47,2.64,1.15,1.29.55,2.46,1,1.39.55,2.44.92,1.4.52,2.57.91,1.28.44c1.08.37,2.18.72,3.28,1.06l.59.2c1.29.4,2.58.78,3.87,1.15l1.34.36,2.59.71,1.65.41,2.31.57,1.78.4,1.1.26.93.19,2.59.52,1.92.37,2.52.45,2,.33,2.5.37,2.05.29c.83.11,1.68.21,2.52.3l2,.24c.86.09,1.73.16,2.59.24l2,.18,2.73.18c.63,0,1.26.09,1.89.12,1,.06,2,.09,3.07.13l1.59.06c1.56,0,3.12.06,4.69.06s3.11,0,4.66-.06l1.62-.06c1,0,2-.07,3-.12l2-.13c.88-.05,1.75-.1,2.62-.17l2.13-.19c.81-.07,1.62-.14,2.43-.23s1.48-.17,2.22-.25l2.29-.28,2.29-.32,2.19-.32,2.32-.38,2.13-.37,2.33-.45,2.08-.42,1-.2,1.68-.38,1.21-.28c1.06-.25,2.11-.5,3.15-.77l.85-.21q4.09-1.05,8.1-2.3l.39-.13q1.77-.54,3.51-1.14l.89-.3,3-1.06,1-.37,2.9-1.1,1-.39c1-.4,2-.81,3-1.23l.76-.32c1.2-.51,2.4-1,3.58-1.56l.14-.06q3.84-1.74,7.58-3.66l.39-.2c1.07-.55,2.14-1.12,3.21-1.69l.72-.4c1-.52,1.91-1.05,2.86-1.59.26-.16.53-.31.8-.46.93-.55,1.87-1.1,2.79-1.66.25-.14.49-.29.73-.44,1-.61,2-1.24,3-1.87l.42-.27q5.24-3.36,10.2-7.07l.48-.37c.92-.68,1.83-1.38,2.73-2.09.23-.17.45-.35.68-.54.84-.66,1.68-1.33,2.51-2l.7-.57q1.28-1.05,2.52-2.13l.58-.5c.95-.82,1.89-1.66,2.82-2.51l.18-.16c2.06-1.87,4.07-3.78,6-5.75Zm41.32-120.36c0,.45,0,.9,0,1.35,0,.85-.05,1.69-.09,2.54l-.09,1.65c0,.73-.09,1.46-.14,2.19s-.09,1.24-.14,1.85-.1,1.28-.16,1.92-.13,1.38-.2,2.06l-.18,1.59c-.09.79-.18,1.58-.28,2.36,0,.35-.09.69-.14,1a164.91,164.91,0,0,1-35.85,82.48c-.63.78-1.27,1.54-1.92,2.3l-.43.51c-.5.58-1,1.16-1.51,1.73l-1.11,1.26-1.3,1.43-1.36,1.46-1.27,1.34c-.44.46-.89.92-1.34,1.37s-.95,1-1.44,1.45l-.75.73a166.21,166.21,0,0,1-81,43.74c-2.85.62-5.72,1.15-8.6,1.62l-.13,0c-1.35.21-2.71.41-4.07.59l-.41.06c-1.27.17-2.54.32-3.82.46l-.62.06c-1.2.13-2.41.24-3.62.34l-.79.07c-1.15.09-2.31.16-3.46.23l-.94,0c-1.13.06-2.26.1-3.4.14l-1,0c-1.45,0-2.89.06-4.33.06s-2.91,0-4.36-.06l-1,0c-1.14,0-2.27-.08-3.41-.14l-.95-.06c-1.17-.07-2.33-.14-3.5-.23L207,489c-1.24-.1-2.48-.21-3.71-.35l-.54-.05c-1.33-.15-2.66-.31-4-.49l-.24,0c-4.38-.59-8.74-1.36-13-2.29a166.33,166.33,0,0,1-81.21-44.18l-.26-.25c-.52-.52-1-1-1.55-1.58l-1.22-1.24-1.34-1.42c-.43-.46-.86-.91-1.28-1.38s-.91-1-1.36-1.49l-1.07-1.21c-.52-.59-1-1.18-1.55-1.78-.16-.19-.32-.39-.49-.58-.63-.75-1.26-1.51-1.88-2.27a165,165,0,0,1-35.76-82.37c0-.35-.09-.69-.13-1-.11-.78-.2-1.56-.28-2.35-.06-.53-.13-1.06-.18-1.59-.07-.69-.14-1.37-.2-2.06s-.11-1.28-.16-1.92-.1-1.23-.14-1.85-.1-1.46-.14-2.19l-.09-1.64c0-.85-.06-1.7-.09-2.54,0-.45,0-.9,0-1.35,0-1.3,0-2.6,0-3.9s0-2.59,0-3.87c0-.44,0-.88,0-1.32q0-1.26.09-2.52l.09-1.63c0-.72.08-1.44.13-2.17s.08-1.21.13-1.81.11-1.27.16-1.9.13-1.35.2-2c0-.5.1-1,.16-1.49.09-.8.18-1.6.28-2.39a.78.78,0,0,1,0-.16,165.07,165.07,0,0,1,30.31-76.26,166.87,166.87,0,0,1,85.79,54.38,165.23,165.23,0,0,1,38.47,101.82c0,1.54-.06,3.15-.06,4.89,0,1.58,0,3.16.06,4.72a10,10,0,0,0,10,9.75h0a10,10,0,0,0,10-9.72c0-1.62.07-3.29.07-5.13,0-1.5,0-3-.06-4.49a165.33,165.33,0,0,1,38.68-101.71,166.93,166.93,0,0,1,85.91-54.21A164.9,164.9,0,0,1,385.87,305c.05.49.11,1,.16,1.48.07.67.13,1.34.19,2s.11,1.27.16,1.9.09,1.21.13,1.81.1,1.44.14,2.17c0,.54.06,1.08.08,1.62,0,.83.07,1.68.09,2.52,0,.43,0,.87,0,1.31,0,1.29.05,2.58.05,3.87S386.89,326.26,386.86,327.56Zm-166,59.65c0-1.62,0-3.24.06-4.85q.06,2.22.06,4.47c0,1.62,0,3.24-.07,4.85C220.84,390.2,220.82,388.71,220.82,387.21ZM103.57,206.29a166,166,0,0,1,234.73,0q5.56,5.58,10.53,11.57A176.08,176.08,0,0,0,220.88,382.29,176.06,176.06,0,0,0,93.28,217.57Q98.14,211.74,103.57,206.29Z"/></g></svg>