<svg xmlns="http://www.w3.org/2000/svg" viewBox="0 0 512 512"><defs><style>.cls-1{fill:#f15d4d;}.cls-2{fill:#acc437;}.cls-3{fill:#bd3270;}.cls-4{fill:#fff;opacity:0.3;}</style></defs><g id="BULINE"><circle class="cls-1" cx="256" cy="256" r="256"/></g><g id="Fruits"><ellipse class="cls-2" cx="201" cy="161" rx="65" ry="45"/><ellipse class="cls-2" cx="311" cy="161" rx="65" ry="45"/><path d="M311,116c-19.55,0-37.06,6-49,15.43,1.59-19.6,12.07-54.31,64.94-63.25A5.79,5.79,0,1,0,325,56.77c-44,7.44-61.92,31.52-69.2,50.4a86.06,86.06,0,0,0-5.38,24.65C238.54,122.14,220.81,116,201,116c-35.9,0-65,20.15-65,45s29.1,45,65,45c23.17,0,43.49-8.4,55-21,11.51,12.63,31.83,21,55,21,35.9,0,65-20.15,65-45S346.9,116,311,116ZM201,195.13c-29.34,0-54.13-15.63-54.13-34.13s24.79-34.13,54.13-34.13c21,0,39.69,8,48.6,19.37a32.06,32.06,0,0,0,0,29.52C240.69,187.11,222,195.13,201,195.13Zm110,0c-21,0-39.69-8-48.6-19.37a32.06,32.06,0,0,0,0-29.52c8.91-11.35,27.59-19.37,48.6-19.37,29.34,0,54.13,15.63,54.13,34.13S340.34,195.13,311,195.13Z"/><circle class="cls-3" cx="256" cy="316" r="170"/><path d="M327.57,442.24a5,5,0,0,0-4.44-2.68,4.93,4.93,0,0,0-2.31.57,139,139,0,0,1-35,12.68,5,5,0,0,0,1.06,9.89,5.63,5.63,0,0,0,1.07-.11q2.47-.54,4.92-1.16h0l.22-.06h0l.22-.06h0l.15,0,.07,0h0l.14,0h0l.07,0,.08,0H294a0,0,0,0,1,0,0l.07,0,.07,0h.08a0,0,0,0,1,0,0l.14,0h.09l.07,0h.16l.07,0h.08l.06,0h0l.07,0h0l0,0h0l.06,0h0l.07,0h0l.05,0h0l.05,0h.18l.06,0H296l0,0h.14l.05,0h.17l.06,0h.19l0,0h.09l.07,0H297l.07,0h.15l.08,0h0l0,0h0l.15,0h.08l.14,0h0l.05,0,.11,0H298l.11,0,.05,0h0l.16-.05h.07l.15,0h.07l.15-.05h0l0,0h0l.15,0h0l.16,0h.06l.16-.05h0l.05,0,.16-.05h0l.05,0,.16,0h0l.21-.06h0l.16,0,0,0h0l.15-.05h0l.05,0h0l.1,0h0l0,0h0l.05,0,.1,0h0l.05,0h0l.15-.05h0l.05,0h0l.15-.05h0l.21-.07h0l.05,0,.16,0h0l.21-.07h0l.16,0,.05,0h0l.15,0a0,0,0,0,0,0,0h.06l.16-.06.21-.07h0l.16-.05,0,0h0l.15-.05h0l.05,0,.16-.05h0l.21-.07h0l.16-.05,0,0h0l.15-.05H304a0,0,0,0,1,0,0l.14,0h0l.05,0,.16-.05h0l.15,0h0l0,0h0l.14-.05h0l0,0h0l.15-.06h0l0,0h0l.15-.05h0l.16-.05.05,0h0l.15-.05h.07l.14,0h0l0,0h0l.14-.05h0l0,0h0l.09,0a0,0,0,0,0,0,0h.12l.09,0h0l.05,0h0l.14-.05h0l0,0h0l.14-.05h0l0,0h0l.09,0h.12l.08,0s0,0,0,0h.06l.14-.05h0l0,0h0l.07,0h0l0,0h.09l.07,0h0l0,0h0l0,0h0l.06,0h0l0,0s0,0,0,0h.07l.06,0h0l0,0h0l.08,0h.08l0,0h0l.06,0h.09l0,0h0l0,0h.07l0,0H309l.05,0h0l0,0h.06l.06,0h0l0,0h.1l0,0h.13l.05,0,0,0h.09l0,0,.05,0h.07l0,0h0l.06,0h.09l.05,0h0l.06,0h0l0,0h0l0,0h0l.06,0h.09l.06,0h0l.06,0h0l0,0h0l.06,0h0l0,0h.09l.07,0h0l.05,0h0l.05,0h0l.06,0h0l.05,0h0l.05,0h0l.06,0h0l0,0h0l.07,0h0l0,0h0l.05,0h0l.06,0h0l.05,0h0l0,0h0l.06,0h0l0,0h0l.06,0h0l.06,0h0l.05,0h0l.06,0h0l.06,0h0l0,0h0l.07,0h0l.05,0h0l.06,0h0l.06,0h0l.06,0h0l.06,0h0l.07,0h0l0,0h0l.13-.06h0l.05,0h0l.07,0,.07,0h0l.06,0,.07,0h0l.06,0h0l.14-.06h0l.06,0h0l.13-.06h0l.06,0h0l.14-.06h0l.06,0,.14-.06h0l.21-.09.14-.06h0l.06,0h0l.13-.06h0l.06,0h0l.14,0h0l.14-.06h0l.06,0h0l.14-.06.06,0h0l.14-.06.07,0,.14-.07h0l.06,0h0l.13-.06h0l.14-.06.07,0,.14-.07h0l.06,0h0l.13-.06h0l.21-.09h0l.21-.09.14-.06.07,0h0l.14-.06h0l.06,0h0l.13-.06h0l.21-.09.21-.1.14-.06.07,0,.14-.07.21-.09h0l.2-.09h0l.2-.1h0l.13-.07h0l.2-.09h0l.07,0,.13-.06h0l.13-.07h0l.06,0h0l.13-.07h0l.06,0h0l.13-.07h0l.06,0h0l.06,0h0l.06,0h0l.13-.06h0l.06,0h0l.13-.06h0l.06,0h0l.13-.06h0l.06,0,.14-.06h0l.06,0,.07,0h0l.07,0h0l.13-.07.06,0h0l.13-.07h0l.06,0h0l.07,0,.06,0h0l.06,0h0l.06,0h0l.06,0a0,0,0,0,0,0,0l.06,0,.07,0h0l.06,0h0l.13-.06h0l.05,0h0l.06,0,.06,0h0l0,0h0l.07,0h0l.05,0s0,0,0,0l.06,0h0l.06,0h0l0,0h0l.05,0h0l.05,0h0l0,0h0l0,0h0l0,0,0,0,0,0s0,0,0,0l.06,0h0l0,0h0l0,0h0l.06,0h0l0,0h0l.05,0h0l.06,0h0l0,0h0l0,0h0l.05,0h0l0,0h0l.06,0,0,0h0l0,0,0,0h0l.05,0h0l0,0,0,0h0l.06,0h0l0,0h0l0,0h0l.06,0,0,0,0,0h0l0,0h0l.07,0h0l0,0h0l.1-.06A5,5,0,0,0,327.57,442.24Zm16.52-10.94a5,5,0,0,0-7-1.18l-.38.27a5,5,0,0,0-1.19,7,5,5,0,0,0,6.95,1.2l.06-.05.36-.25A5,5,0,0,0,344.09,431.3Zm38-43.4a5,5,0,0,0-6.88,1.62,140.71,140.71,0,0,1-23.61,28.8,5,5,0,0,0,6.82,7.31l1.11-1.05a1.36,1.36,0,0,0,.12-.12l0,0h0l.11-.11h0l.28-.27h0l.16-.15.12-.12,0,0h0l.07-.07h0l0,0,.12-.12h0l0,0h0l.11-.1v0l0,0,.07-.07a0,0,0,0,1,0,0l0,0h0l.1-.11h0l0,0h0l.07-.07h0l0,0h0l.11-.1a0,0,0,0,1,0,0l0,0h0l.07-.07,0,0h0l.11-.11h0l0,0,0,0,.06-.06h0l0,0h0l0,0,0,0,.05-.05,0,0,0,0h0l.1-.1,0,0,0,0,0,0,.05-.05,0,0,0,0,0,0,0,0,0,0,.05-.05,0,0,0,0,0,0,.05-.05h0l0,0,0,0,0,0,0,0,.05-.05,0,0,0,0h0l0,0h0l.06-.06,0,0,0,0h0l.06-.07h0l0,0h0l.09-.1,0,0,0,0,0,0,0,0,0,0,0,0,0,0,0,0,0,0,.05-.05,0,0,0,0,0,0,.07-.06,0,0,0,0,0,0h0l0-.06,0,0,0,0,0,0,.09-.1h0l0,0v0l.05-.05,0,0,0,0,0,0,0,0v0l0-.05,0,0,0,0h0l.09-.11h0l0,0s0,0,0,0l.05,0,0,0,0,0,0,0,.05-.05,0,0,0,0h0l0,0,0,0,.05-.05v0l0,0,0,0,0,0h0l.06-.06,0,0,0,0a0,0,0,0,0,0,0l.06-.06s0,0,0,0l0,0,0,0,0,0h0l.06-.07,0,0,0,0,.09-.1,0,0,0,0h0l.06-.07h0l0,0h0a1.14,1.14,0,0,1,.11-.11h0l0,0,.11-.12h0l.1-.11h0s0,0,0,0l0,0,.06-.06h0l0,0v0l0,0h0L366,418v0l0,0h0l.1-.11h0l0,0h0l.06-.07h0l0,0h0l.1-.11h0l0,0h0l.1-.11h0l0,0h0l.07-.07h0l0,0h0l.1-.11h0l0,0h0l.06-.07h0l0,0,0,0,.09-.11h0l0,0h0l.07-.08,0,0h0l.1-.11h0l0,0h0l.1-.12h0l.11-.12,0,0h0l.1-.11h0l0,0,.07-.08,0,0h0l.11-.12,0,0,.11-.13.11-.12h0l0,0,.11-.12.11-.13s0,0,0,0l.11-.13.15-.17.26-.29.26-.3a2.09,2.09,0,0,0,.14-.17h0l.51-.6q2.89-3.37,5.58-6.92l.1-.14.24-.31.13-.18h0l.09-.13h0l0,0h0l.09-.12h0l0,0h0l.06-.08,0-.05h0l.09-.13h0l0,0a.64.64,0,0,1,.1-.13h0a1.47,1.47,0,0,0,.1-.13l0,0h0l.09-.13h0l0,0,.06-.08h0l0,0h0a.83.83,0,0,1,.08-.12v0l0,0v0l.05-.06v0l0,0s0,0,0,0l0,0h0l.05-.08h0l0,0v0l0-.06s0,0,0,0l0,0v0l0,0,0,0,0-.05,0,0,0,0s0,0,0,0,0,0,0,0l0,0,0,0s0,0,0,0l0,0s0,0,0,0l0,0s0,0,0,0l0,0,0,0,0,0,0-.05s0,0,0,0l0,0,0,0,0,0,0,0,0,0,0,0,0,0,0,0,0,0,0,0,0,0,0,0,0,0,0,0a.21.21,0,0,1,0-.06v0l0,0h0l0-.06h0l0-.05h0s0,0,0-.05h0a.21.21,0,0,1,0-.06h0l0-.05h0l0-.06,0-.06h0l0-.05h0l0-.06h0l0-.05h0l0-.06.05-.06h0l0,0h0a.83.83,0,0,1,.08-.12h0l0-.06,0-.06h0l0,0h0l.09-.13.13-.19.09-.13q2.17-3.15,4.2-6.42A5,5,0,0,0,382.05,387.9Z"/><path class="cls-4" d="M115.24,321.38h-.14a7.48,7.48,0,0,1-7.35-7.61c.59-32.68,11.71-64.33,31.32-89.1a136.71,136.71,0,0,1,19.28-19.86A7.48,7.48,0,1,1,168,216.27,121.26,121.26,0,0,0,150.81,234c-17.59,22.22-27.57,50.66-28.09,80.07A7.48,7.48,0,0,1,115.24,321.38Z"/></g><g id="Black_outlines_-_to_remove" data-name="Black outlines - to remove"><path d="M256,156a160,160,0,1,1-113.14,46.86A159,159,0,0,1,256,156m0-10A170,170,0,1,0,426,316,170,170,0,0,0,256,146Z"/></g><g id="Leaves_on_top" data-name="Leaves on top"><ellipse class="cls-2" cx="256" cy="201" rx="45" ry="65"/><path d="M256,146.87c18.5,0,34.13,24.79,34.13,54.13S274.5,255.13,256,255.13,221.87,230.34,221.87,201,237.5,146.87,256,146.87M256,136c-24.85,0-45,29.1-45,65s20.15,65,45,65,45-29.1,45-65-20.15-65-45-65Z"/></g></svg>