<svg xmlns="http://www.w3.org/2000/svg" viewBox="0 0 512 512"><defs><style>.cls-1{fill:#7a5da7;}.cls-2{fill:#f78f26;}.cls-3{fill:#fff;opacity:0.3;}.cls-4{fill:#049146;}.cls-5{fill:#010101;}</style></defs><g id="BULINE"><circle class="cls-1" cx="256" cy="256" r="256"/></g><g id="Fruits"><circle class="cls-2" cx="256" cy="296" r="190"/><path d="M397.74,380.66a5,5,0,0,0-6.9,1.51A161.24,161.24,0,0,1,367,411.23a5,5,0,1,0,6.93,7.2l.82-.79.45-.44.23-.23,0,0h0l0,0,.23-.22.18-.18a.08.08,0,0,1,0,0h0l0,0h0l.17-.16v0l0,0h0s0,0,0,0l.13-.13h0l0,0h0a.08.08,0,0,0,0,0h0l.12-.13h0l0,0s0,0,0,0l0,0h0l.17-.16v0l0,0v0l0,0h0l.13-.13,0,0a0,0,0,0,1,0,0l0,0h0l0,0,.13-.13h0l0,0h0l.16-.17h0l0,0a0,0,0,0,1,0,0s0,0,0,0h0l.16-.17h0l0,0h0l0,0,.13-.13h0a.08.08,0,0,0,0,0h0l0,0h0l.13-.13,0,0h0l0,0h0l0,0h0l.12-.12h0l0,0h0l0,0h0l.11-.13h0l0,0h0l0,0h0l0,0h0l.07-.08h0l0,0h0a.08.08,0,0,0,0,0h0s0,0,0,0h0l.12-.13h0l0,0a0,0,0,0,0,0,0l0,0,0,0,0,0h0l.12-.13h0l0,0h0a.08.08,0,0,0,0,0h0l.12-.13h0a.08.08,0,0,0,0,0h0l0,0,.17-.18h0l0,0h0s0,0,0,0h0l.12-.13h0s0,0,0,0h0l0,0h0l.16-.17s0,0,0,0l0,0h0l0,0,.13-.14a.08.08,0,0,1,0,0h0l0,0h0l.17-.18,0,0s0,0,0,0l0,0h0l.12-.13a0,0,0,0,1,0,0l0,0h0l0,0h0l.12-.13,0,0,0,0,0,0h0l0,0h0l.11-.13h0l0,0h0l0,0a0,0,0,0,0,0,0l.12-.12h0l0,0h0l0,0h0l0,0h0l.11-.12v0l0,0h0l0,0h0l.16-.18h0l0,0h0l0,0h0a.74.74,0,0,0,.12-.13,0,0,0,0,0,0,0l0,0h0l0,0h0l.12-.14s0,0,0,0h0l0,0h0l.16-.18h0l0,0h0l0,0a0,0,0,0,1,0,0l.11-.13h0l0,0a0,0,0,0,0,0,0l0,0h0a1.37,1.37,0,0,0,.16-.18h0l0,0h0l.16-.18,0-.05h0l0-.05h0l.16-.19,0-.05h0l.2-.24h0l0-.05.16-.19h0l0,0v0l.16-.18,0-.05h0l0-.05h0c.05-.07.1-.12.16-.19l0,0,.21-.24h0c.06-.08.13-.15.2-.23h0l0,0,.16-.19h0l0,0h0l.2-.23h0l0-.05.17-.19,0,0h0l.2-.23h0l0,0h0l.15-.18h0l0,0h0l.2-.24h0l0,0h0l.15-.18h0l0,0h0l.15-.18v0l0,0h0l0,0h0l.15-.19h0l0,0h0l.15-.19h0l0,0h0a.08.08,0,0,1,0,0h0a.76.76,0,0,0,.11-.14h0l0-.05h0l0,0h0c.06-.06.1-.12.16-.19l0-.05,0-.05h0l.16-.18h0l0,0h0l.15-.19h0l0,0h0l0,0h0l.12-.14,0-.05h0l0,0h0L389,402h0l0,0h0c.05-.06.1-.13.16-.19l0,0s0,0,0,0l0,0h0l.15-.19a0,0,0,0,0,0,0l0,0h0l.15-.18v0l0,0h0l0,0h0l.1-.14s0,0,0,0l0,0h0l0,0h0l0,0v0l.1-.12v0l0,0v0l0,0v0a.76.76,0,0,0,.11-.14l0,0h0s0,0,0,0v0l0,0h0l.1-.13h0l0,0v0l0,0h0a1.13,1.13,0,0,1,.1-.13h0l0,0,0,0,0,0h0l0,0v0l.06-.07v0l0,0v0l0,0,0,0,0,0,0,0,0,0h0l.06-.08v0l0,0,0,0s0,0,0,0l0,0,0,0v0l.05-.06,0,0,0,0,0,0s0,0,0,0l0,0,0,0,0,0,0,0,0,0,0,0,0,0s0,0,0,0l0,0,0,0,0,0,0,0,0,0,0,0,0,0a0,0,0,0,0,0,0l0,0,0,0,0,0,0,0,0,0v0l0-.06,0,0,0,0,0,0,0,0,0,0,0,0,0,0,0-.05h0l0-.05s0,0,0,0l0,0,0,0,0,0v0l0-.05.05-.06v0l0,0s0,0,0,0l0,0,0,0,0,0v0l0-.06h0l0-.06h0l0,0,0,0,0,0v0l0-.05h0l.05-.06a0,0,0,0,1,0,0l0,0h0l0-.05h0l0-.05h0l.09-.12h0l0-.05s0,0,0,0l0,0v0l.09-.12,0-.05s0,0,0,0l0,0s0,0,0,0l.14-.18h0l0,0h0l0-.06.09-.12h0l0,0h0l0-.06.14-.19,0-.06h0c1.88-2.59,3.68-5.25,5.42-7.95A5,5,0,0,0,397.74,380.66Zm-38,43.77a5,5,0,0,0-7-1l-.38.28a5,5,0,0,0,3,9,4.93,4.93,0,0,0,3-1l.19-.14,0,0,.15-.11,0,0A5,5,0,0,0,359.73,424.43ZM343.53,436a5,5,0,0,0-4.32-2.47,4.91,4.91,0,0,0-2.52.69,159.64,159.64,0,0,1-34.41,15,5,5,0,0,0,1.44,9.79,4.8,4.8,0,0,0,1.44-.22q7.8-2.34,15.25-5.41h0l.28-.12.36-.15h0l.07,0,.21-.09.07,0h0l.28-.12h0l.06,0h0l.07,0,.21-.09h0l.07,0,.21-.09h0l.06,0h0l.06,0h0l.07,0,.14-.06a0,0,0,0,0,0,0l.06,0h0l.05,0h0l.07,0h0l.07,0,.07,0h0l.05,0h0l0,0h0l.06,0h0l.07,0h0l.05,0h0l0,0h0l.05,0h0l.06,0h0l.06,0h0l.05,0h0l.05,0h0l0,0h0l.05,0h0l.06,0h0l0,0h0l0,0h0l0,0h0l.07,0h0l0,0h.07l0,0h0l0,0h0l0,0,.06,0,0,0h0l0,0h0l0,0H325l0,0h0l.06,0,0,0h0l0,0h.06l0,0h0l0,0h0l.06,0h0l0,0h0l0,0h0l0,0h0l0,0,.07,0h.06l0,0h0l0,0h0l0,0h0l0,0,.06,0,0,0h0l0,0h0l0,0h.06l.14-.07h0l0,0h0l0,0h0l0,0s0,0,0,0l.15-.06h0l0,0h0l0,0h0l0,0h0l.15-.08h0l0,0h0l.05,0h0l.05,0,.17-.08h0l.05,0h0l.05,0h0l.17-.08.05,0h0l.05,0h0l.05,0,.18-.08.05,0h0l.05,0h0l.29-.14,0,0h0l.28-.13h0l.05,0h0l.28-.14h0q6.38-3.06,12.45-6.61A5,5,0,0,0,343.53,436Z"/><path d="M255.57,188.5l14-14a5,5,0,0,0-7.08-7.08l-14,14-14-14a5,5,0,0,0-7.08,7.08l14,14-14,14a5,5,0,0,0,7.08,7.08l14-14,14,14a5,5,0,0,0,7.08-7.08Z"/><path class="cls-3" d="M106,305.92A9.92,9.92,0,0,1,96.08,296a158.2,158.2,0,0,1,17.42-72.65A161.3,161.3,0,0,1,160,168.07,9.92,9.92,0,1,1,172,183.93a139,139,0,0,0-56,112.07A9.92,9.92,0,0,1,106,305.92Z"/></g><g id="Black_outlines_-_to_remove" data-name="Black outlines - to remove"><path d="M256,116a180,180,0,1,1-127.28,52.72A178.82,178.82,0,0,1,256,116m0-10C151.07,106,66,191.07,66,296s85.07,190,190,190,190-85.07,190-190S360.93,106,256,106Z"/></g><g id="Leaves_on_top" data-name="Leaves on top"><path class="cls-4" d="M351.21,122c42.48-42.48,33.1-94.34,33.1-94.34S332.45,18.31,290,60.79s-33.09,94.33-33.09,94.33S308.74,164.5,351.21,122Z"/><path class="cls-5" d="M371.46,36.81c1.32,0,2.54,0,3.65.07a104.05,104.05,0,0,1-1.42,21.22A103.49,103.49,0,0,1,344.14,115,104.76,104.76,0,0,1,269.72,146c-1.31,0-2.53,0-3.64-.07A106,106,0,0,1,371.46,36.81m0-10a114.57,114.57,0,0,0-81.49,34c-42.47,42.47-33.09,94.33-33.09,94.33a79.72,79.72,0,0,0,12.84.88,114.57,114.57,0,0,0,81.49-34c42.48-42.48,33.1-94.34,33.1-94.34a79.79,79.79,0,0,0-12.85-.88Z"/></g></svg>