<svg xmlns="http://www.w3.org/2000/svg" xmlns:xlink="http://www.w3.org/1999/xlink" viewBox="0 0 512 512"><defs><style>.cls-1{fill:none;}.cls-2{fill:#f15d4d;}.cls-3{clip-path:url(#clip-path);}.cls-4{fill:#825121;}.cls-5{fill:#9cb33d;}.cls-6{fill:#356636;}.cls-7{fill:#010101;}</style><clipPath id="clip-path"><path class="cls-1" d="M374.5-829.87a205.65,205.65,0,0,1-2.11,29.55q-.81,5.79-2,11.42c-12,59.07-49.39,104.35-95.71,114.08a90.83,90.83,0,0,1-18.71,2,90.79,90.79,0,0,1-10.46-.6c-30.95-3.59-58.49-22.93-78-51.95a171.42,171.42,0,0,1-22.1-47.84h0a196.8,196.8,0,0,1-7.1-37.92c-.56-6.12-.84-12.36-.84-18.68,0-1.94,0-3.88.09-5.8a202.66,202.66,0,0,1,5.33-41.28C158-940.66,202.93-986.87,256-986.87a91.47,91.47,0,0,1,28.44,4.55c44.35,14.48,78.87,62,87.79,121.78.73,4.81,1.28,9.71,1.66,14.67Q374.49-838,374.5-829.87Z"/></clipPath></defs><g id="BULINE"><circle class="cls-2" cx="256" cy="256" r="256"/></g><g id="Fruits"><rect class="cls-4" x="241" y="26" width="30" height="100"/><polygon class="cls-5" points="417.22 291 398.59 315 412.09 342.23 388.96 361.93 396.35 391.41 369.41 405.41 369.49 435.79 339.84 442.25 331.13 471.35 301.01 467.94 282.51 491.99 256 477.28 229.49 491.99 210.99 467.94 180.87 471.35 172.15 442.25 142.51 435.79 142.59 405.4 115.65 391.4 123.04 361.93 99.91 342.23 113.41 315 94.78 291 113.41 267 99.91 239.77 123.04 220.07 115.65 190.59 142.59 176.59 142.51 146.21 172.16 139.75 180.87 110.65 210.99 114.06 229.49 90.01 256 104.72 282.51 90.01 301.01 114.06 331.13 110.65 339.85 139.75 369.49 146.21 369.41 176.6 396.35 190.59 388.96 220.07 412.09 239.77 398.59 267 417.22 291"/><path class="cls-6" d="M232.41,104.14l18.29,10.14,5.3,2.94,5.3-2.94,18.29-10.14,12.76,16.59,3.76,4.89,6.13-.7,21-2.38,6.1,20.34,1.84,6.18,6.3,1.37,21,4.58-.06,21.56,0,6.66,5.91,3.07,19.28,10-5.29,21.1L376.71,224l5.17,4.4,16.63,14.17-9.71,19.58-3,6.14,4.2,5.42L403.39,291,390,308.3l-4.2,5.42,3,6.14,9.71,19.58-16.63,14.17-5.17,4.4,1.65,6.58,5.29,21.1-19.28,10-5.91,3.07,0,6.66.06,21.55-21,4.58-6.3,1.38-1.85,6.17-6.09,20.34-21-2.38-6.13-.7-3.76,4.9-12.76,16.58L261.3,467.72l-5.3-2.94-5.3,2.94-18.29,10.14-12.76-16.59-3.76-4.89-6.13.7-21,2.38-6.1-20.34-1.84-6.18-6.3-1.37-21-4.58.06-21.56,0-6.66-5.91-3.07-19.28-10,5.29-21.1,1.65-6.58-5.17-4.4-16.63-14.17,9.71-19.58,3-6.14L122,308.3,108.61,291,122,273.7l4.2-5.42-3-6.14-9.71-19.58,16.63-14.17,5.17-4.4-1.65-6.58-5.29-21.1,19.28-10,5.91-3.07,0-6.66L153.46,155l21-4.58,6.3-1.38,1.85-6.17,6.09-20.34,21,2.38,6.13.7,3.76-4.9,12.76-16.58M229.49,90l-18.5,24-30.12-3.41-8.71,29.1-29.65,6.46.08,30.38-26.94,14L123,220.07l-23.13,19.7L113.41,267,94.78,291l18.63,24-13.5,27.22L123,361.93l-7.39,29.48,26.94,14-.08,30.39,29.64,6.46,8.72,29.1L211,467.94,229.49,492,256,477.28,282.51,492,301,467.94l30.12,3.41,8.71-29.1,29.65-6.46-.08-30.38,26.94-14L389,361.93l23.13-19.7L398.59,315l18.63-24-18.63-24,13.5-27.22L389,220.07l7.39-29.48-26.94-14,.08-30.39-29.64-6.46-8.72-29.1L301,114.06l-18.5-24L256,104.72,229.49,90Z"/><path class="cls-6" d="M236.65,108.74l15,6.59,4.38,1.93,4.38-1.93,15-6.59,8,14.47L286,128l5.41.74,17.46,2.4,1.38,17.71.48,6.2,5.59,2.73,16.45,8-3.14,18.09-1.12,6.46,5.18,4,14.7,11.37L342,223.24l-2.29,6.3,4.6,4.87L357.16,248l-8.82,16.5-3.19,6,3.94,5.5L360,291.21l-10.9,15.24-3.94,5.5,3.19,6,8.82,16.5L344.33,348l-4.59,4.87,2.28,6.3,6.33,17.49L333.65,388l-5.18,4,1.12,6.46,3.14,18.09-16.45,8-5.59,2.73-.48,6.2-1.38,17.71-17.46,2.4-5.41.74-2.64,4.78-8,14.47-15-6.58L256,465.16l-4.38,1.93-15,6.58-8-14.47L226,454.42l-5.41-.74-17.46-2.4-1.38-17.71-.48-6.21-5.59-2.73-16.45-8,3.14-18.1,1.12-6.45-5.18-4-14.7-11.37L170,359.18l2.29-6.3-4.6-4.87-12.83-13.6,8.82-16.5,3.19-6-3.94-5.5L152,291.21,162.91,276l3.94-5.5-3.19-6L154.84,248l12.83-13.6,4.59-4.87-2.28-6.3-6.33-17.49,14.7-11.37,5.18-4-1.12-6.46-3.14-18.09,16.45-8,5.59-2.73.48-6.2,1.38-17.71,17.46-2.4L226,128l2.64-4.79,8-14.47m-4.72-14L219.15,118,193,121.55,190.94,148l-23.79,11.63,4.54,26.14-21,16.22,9,24.95-18.2,19.3,12.51,23.4-15.44,21.57,15.44,21.57-12.51,23.4,18.2,19.29-9,24.95,21,16.22-4.54,26.15,23.79,11.62L193,460.86l26.15,3.59,12.78,23.19L256,477l24.07,10.6,12.78-23.18L319,460.87l2.06-26.46,23.79-11.62-4.54-26.14,21-16.23-9-24.95,18.2-19.29-12.51-23.4,15.44-21.57-15.44-21.58,12.51-23.4-18.2-19.29,9-24.94-21-16.23,4.54-26.14L321.06,148,319,121.55,292.85,118,280.07,94.78,256,105.37,231.93,94.78Z"/><polygon class="cls-6" points="206.88 404.88 196.42 401.68 202.19 382.82 188.04 364.8 196.81 343.64 184.36 324.46 194.84 304.15 183.93 284.1 195.81 264.62 186.25 243.94 199.24 225.24 190.81 204.11 206.46 183.74 215.13 190.4 203.27 205.84 211.57 226.65 198.8 245.03 208.18 265.33 196.54 284.41 207.21 304.01 196.98 323.83 209.1 342.52 200.59 363.08 214.31 380.56 206.88 404.88"/><polygon class="cls-6" points="307.98 385.67 299.52 378.75 311.12 364.58 302.58 344.98 314.87 327.49 304.94 308.55 315.98 290.23 304.76 272.01 314.52 252.97 302.1 235.54 310.58 215.89 297.03 199.32 305.32 176.02 315.62 179.69 309.4 197.18 323.25 214.12 314.58 234.22 327.28 252.04 317.29 271.52 328.77 290.16 317.48 308.92 327.65 328.32 315.05 346.25 323.8 366.33 307.98 385.67"/></g><g id="Black_outlines_-_to_remove" data-name="Black outlines - to remove"><path class="cls-7" d="M398.59,315l18.63-24-18.63-24,13.5-27.22L389,220.07l7.39-29.48-26.94-14,.08-30.39-29.64-6.46-8.72-29.1L301,114.06l-18.5-24L276,93.62V26H236V93.62L229.49,90l-18.5,24-30.12-3.41-8.71,29.1-29.65,6.46.08,30.38-26.94,14L123,220.07l-23.13,19.7L113.41,267,94.78,291l18.63,24-13.5,27.22L123,361.93l-7.39,29.48,26.94,14-.08,30.39,29.64,6.46,8.72,29.1L211,467.94,229.49,492,256,477.28,282.51,492,301,467.94l30.12,3.41,8.71-29.1,29.65-6.46-.08-30.38,26.94-14L389,361.93l23.13-19.7Zm-150-276.38h14.76v62l-7.38,4.1-7.38-4.1Zm133.26,315-5.17,4.4,1.65,6.58,5.29,21.1-19.28,10-5.91,3.07,0,6.66.06,21.55-21,4.58-6.3,1.38-1.85,6.17-6.09,20.34-21-2.38-6.13-.7-3.76,4.9-12.76,16.58L261.3,467.72l-5.3-2.94-5.3,2.94-18.29,10.14-12.76-16.59-3.76-4.89-6.13.7-21,2.38-6.1-20.34-1.84-6.18-6.3-1.37-21-4.58.06-21.56,0-6.66-5.91-3.07-19.28-10,5.29-21.1,1.65-6.58-5.17-4.4-16.63-14.17,9.71-19.58,3-6.14L122,308.3,108.61,291,122,273.7l4.2-5.42-3-6.14-9.71-19.58,16.63-14.17,5.17-4.4-1.65-6.58-5.29-21.1,19.28-10,5.91-3.07,0-6.66L153.46,155l21-4.58,6.3-1.38,1.85-6.17,6.09-20.34,21,2.38,6.13.7,3.76-4.9,12.76-16.58,3.59,2,12.62,7,.46.25,1.62.9,5.3,2.94,5.3-2.94,1.62-.9.46-.25,12.62-7,3.59-2,12.76,16.59,3.76,4.89,6.13-.7,21-2.38,6.1,20.34,1.84,6.18,6.3,1.37,21,4.58-.06,21.56,0,6.66,5.91,3.07,19.28,10-5.29,21.1L376.71,224l5.17,4.4,16.63,14.17-9.71,19.58-3,6.14,4.2,5.42L403.39,291,390,308.3l-4.2,5.42,3,6.14,9.71,19.58Z"/></g></svg>